<svg id="feedback" xmlns="http://www.w3.org/2000/svg" width="115.476" height="105.853" viewBox="0 0 115.476 105.853">
  <g id="Group_5008" data-name="Group 5008" transform="translate(0 0)">
    <g id="Group_5007" data-name="Group 5007" transform="translate(0 0)">
      <path id="Path_5251" data-name="Path 5251" d="M109.072,132.811H162A2.406,2.406,0,1,0,162,128H109.072a2.406,2.406,0,1,0,0,4.812Z" transform="translate(-82.609 -103.942)" fill="#302f2f"/>
      <path id="Path_5252" data-name="Path 5252" d="M137.941,256H109.072a2.406,2.406,0,1,0,0,4.812h28.869a2.406,2.406,0,1,0,0-4.812Z" transform="translate(-82.609 -203.073)" fill="#302f2f"/>
      <path id="Path_5253" data-name="Path 5253" d="M106.267,30.956c-.139,0-.274.035-.413.042v-.042a9.634,9.634,0,0,0-9.623-9.623H9.623A9.634,9.634,0,0,0,0,30.956V124.78A2.407,2.407,0,0,0,1.485,127a2.378,2.378,0,0,0,.921.183,2.4,2.4,0,0,0,1.7-.7l23.353-23.353H96.23a9.634,9.634,0,0,0,9.623-9.623V53.6l6.926-6.925v0a9.208,9.208,0,0,0-6.512-15.72Zm-5.225,62.549a4.816,4.816,0,0,1-4.811,4.811H26.463a2.4,2.4,0,0,0-1.7.7L4.811,118.973V30.956a4.816,4.816,0,0,1,4.811-4.811H96.23a4.816,4.816,0,0,1,4.812,4.811V32.6a9.048,9.048,0,0,0-1.287,1.054L73.578,59.825H26.463a2.406,2.406,0,1,0,0,4.812H69.718l-2.31,11.557a2.406,2.406,0,0,0,2.359,2.878,2.457,2.457,0,0,0,.47-.047l12.024-2.406a2.391,2.391,0,0,0,1.231-.658l17.55-17.547ZM80.607,72.044,72.835,73.6l1.555-7.781L96.229,43.98l6.222,6.222Zm28.77-28.768L105.853,46.8l-6.222-6.222,3.525-3.525a4.4,4.4,0,0,1,6.221,6.224Z" transform="translate(0 -21.333)" fill="#302f2f"/>
    </g>
  </g>
</svg>
