<svg xmlns="http://www.w3.org/2000/svg" width="243.719" height="214.176" viewBox="0 0 243.719 214.176">
  <g id="Group_5636" data-name="Group 5636" transform="translate(0.001)">
    <path id="Path_5420" data-name="Path 5420" d="M564.144,604.8c-.426.6-.856,1.186-1.282,1.773a7.31,7.31,0,0,1-4.162,1.29H329.753a7.342,7.342,0,0,1-4-1.182c-.4-.521-.786-1.047-1.182-1.573l.4-.217,115.9-64.244a6.959,6.959,0,0,1,6.721-.009l116.164,63.945Z" transform="translate(-322.367 -393.687)" fill="#00a1e5"/>
    <path id="Path_5421" data-name="Path 5421" d="M555.833,298.127l-100.449-58.01a27.814,27.814,0,0,0-27.8-.014l-100.7,58.024a7.4,7.4,0,0,0-7.385,7.385v123.38a7.394,7.394,0,0,0,7.385,7.385H555.833a7.4,7.4,0,0,0,7.385-7.385V305.512a7.4,7.4,0,0,0-7.385-7.385Zm6.517,130.765a6.532,6.532,0,0,1-6.517,6.516H326.885a6.528,6.528,0,0,1-6.517-6.517V305.512A6.524,6.524,0,0,1,326.885,299l100.7-58.024a27.814,27.814,0,0,1,27.8.014L555.833,299a6.524,6.524,0,0,1,6.517,6.517Z" transform="translate(-319.5 -222.101)" fill="#3f3d56"/>
    <path id="Path_5422" data-name="Path 5422" d="M491.825,349.614a6.673,6.673,0,0,1-2.223-.373l-.131-.046-.027-.292c-.082.04-.164.079-.247.115l-.087.038-.087-.039a5.907,5.907,0,0,1-.54-.27L408.5,303.8V212.037A8.046,8.046,0,0,1,416.537,204H566.852a8.046,8.046,0,0,1,8.037,8.037v91.884l-.111.062-79.61,44.764a6.845,6.845,0,0,1-3.343.866Z" transform="translate(-369.835 -203.783)" fill="#fff"/>
    <path id="Path_5423" data-name="Path 5423" d="M491.542,349.548a6.89,6.89,0,0,1-2.3-.385l-.263-.093-.011-.124-.146.064-.175-.077a6.207,6.207,0,0,1-.559-.28L408,303.648V211.754a8.264,8.264,0,0,1,8.254-8.254H566.569a8.264,8.264,0,0,1,8.254,8.254v92.011l-79.832,44.889a7.061,7.061,0,0,1-3.449.894Zm-1.744-1.119a6.3,6.3,0,0,0,4.768-.532l79.388-44.639v-91.5a7.394,7.394,0,0,0-7.385-7.385H416.254a7.394,7.394,0,0,0-7.385,7.385v91.385l5.209,2.925,74.44,41.832q.152.086.308.161.157-.075.308-.161l.585-.33Z" transform="translate(-369.552 -203.5)" fill="#3f3d56"/>
    <path id="Path_5424" data-name="Path 5424" d="M563.6,384.727l-31.53,17.725-5.43,3.054L447.03,450.27a6.622,6.622,0,0,1-3.237.838,6.481,6.481,0,0,1-2.15-.361,5.23,5.23,0,0,1-.565-.217,5.676,5.676,0,0,1-.521-.261l-74.441-41.832-5.43-3.05-36.892-20.731a.439.439,0,0,1-.165-.6.434.434,0,0,1,.591-.165l36.466,20.492,5.43,3.05L440.982,449.5a5.676,5.676,0,0,0,.773.361c.113.043.23.083.348.117a5.762,5.762,0,0,0,4.5-.478l80.036-45,5.43-3.054,31.1-17.486a.434.434,0,1,1,.426.756Z" transform="translate(-321.803 -305.495)" fill="#3f3d56"/>
    <path id="Path_5425" data-name="Path 5425" d="M463.215,260.451H451.05a3.475,3.475,0,0,1,0-6.951h12.164a3.476,3.476,0,0,1,0,6.951Z" transform="translate(-391.935 -231.778)" fill="#00a1e5"/>
    <path id="Path_5426" data-name="Path 5426" d="M477.551,287.451h-26.5a3.476,3.476,0,0,1,0-6.951h26.5a3.475,3.475,0,1,1,0,6.951Z" transform="translate(-391.935 -247.048)" fill="#e6e6e6"/>
    <path id="Path_5427" data-name="Path 5427" d="M584.633,359.451H509.475a3.475,3.475,0,1,1,0-6.951h75.157a3.475,3.475,0,1,1,0,6.951Z" transform="translate(-424.978 -287.769)" fill="#00a1e5"/>
    <path id="Path_5428" data-name="Path 5428" d="M581.969,390.451H492.475a3.475,3.475,0,1,1,0-6.951h89.494a3.475,3.475,0,1,1,0,6.951Z" transform="translate(-415.363 -305.302)" fill="#e6e6e6"/>
    <path id="Path_5429" data-name="Path 5429" d="M581.969,420.451H492.475a3.475,3.475,0,1,1,0-6.951h89.494a3.475,3.475,0,1,1,0,6.951Z" transform="translate(-415.363 -322.269)" fill="#e6e6e6"/>
  </g>
</svg>
