<svg xmlns="http://www.w3.org/2000/svg" width="26.286" height="16.754" viewBox="0 0 26.286 16.754">
  <g id="view_2_" data-name="view (2)" transform="translate(0 -92.835)">
    <g id="Group_4249" data-name="Group 4249" transform="translate(0 92.835)">
      <g id="Group_4248" data-name="Group 4248" transform="translate(0 0)">
        <path id="Path_4675" data-name="Path 4675" d="M26.119,100.7c-.235-.321-5.83-7.866-12.976-7.866S.4,100.379.167,100.7a.867.867,0,0,0,0,1.023c.235.321,5.83,7.866,12.976,7.866s12.741-7.544,12.976-7.865A.866.866,0,0,0,26.119,100.7Zm-12.976,7.155c-5.264,0-9.823-5.007-11.173-6.644,1.348-1.638,5.9-6.643,11.173-6.643s9.822,5.007,11.173,6.644C22.968,102.851,18.418,107.856,13.143,107.856Z" transform="translate(0 -92.835)" fill="#00a1e5"/>
      </g>
    </g>
    <g id="Group_4251" data-name="Group 4251" transform="translate(7.944 96.012)">
      <g id="Group_4250" data-name="Group 4250">
        <path id="Path_4676" data-name="Path 4676" d="M159.922,154.725a5.2,5.2,0,1,0,5.2,5.2A5.205,5.205,0,0,0,159.922,154.725Zm0,8.666a3.466,3.466,0,1,1,3.466-3.466A3.47,3.47,0,0,1,159.922,163.391Z" transform="translate(-154.722 -154.725)" fill="#00a1e5"/>
      </g>
    </g>
  </g>
</svg>
