<svg id="map_1_" data-name="map (1)" xmlns="http://www.w3.org/2000/svg" width="42.216" height="42.23" viewBox="0 0 42.216 42.23">
  <path id="Path_4920" data-name="Path 4920" d="M42.251,333.444l-6.085-14.732a.616.616,0,0,0-.569-.382H6.785a.616.616,0,0,0-.569.382L.13,333.444a.625.625,0,0,0,.056.583A.615.615,0,0,0,.7,334.3H41.682a.616.616,0,0,0,.513-.277A.625.625,0,0,0,42.251,333.444Z" transform="translate(-0.083 -292.074)" fill="#a8eefc"/>
  <path id="Path_4921" data-name="Path 4921" d="M407.238,334.3H409.2a.616.616,0,0,0,.513-.277.625.625,0,0,0,.056-.583l-6.085-14.732a.616.616,0,0,0-.569-.382h-2.476Z" transform="translate(-367.601 -292.074)" fill="#7ee5f2"/>
  <g id="Group_13379" data-name="Group 13379" transform="translate(3.951 26.242)">
    <path id="Path_4922" data-name="Path 4922" d="M54.186,323.733l2.1-5.57H50.7a.616.616,0,0,0-.569.382l-2.143,5.187Z" transform="translate(-47.985 -318.163)" fill="#4ce166"/>
    <path id="Path_4923" data-name="Path 4923" d="M214.318,318.163H194.912l5.66,4.936h16.2l-1.881-4.553A.617.617,0,0,0,214.318,318.163Z" transform="translate(-182.793 -318.163)" fill="#4ce166"/>
    <path id="Path_4924" data-name="Path 4924" d="M461.655,382.269l.117.282h0Z" transform="translate(-427.535 -376.982)" fill="#4ce166"/>
  </g>
  <path id="Path_4925" data-name="Path 4925" d="M65.928,327.629l-1.871-4.53h-16.2l-5.66-4.936h-4.28L35.872,323.1H30.345L29.1,326.1l-.63,1.526h5.533l-2.688,6.508h5.03l4.318-10.572,12.452,10.572h7.351l-7.442-6.508Z" transform="translate(-26.131 -291.921)" fill="#ffdb56"/>
  <path id="Path_4926" data-name="Path 4926" d="M107.381,0A13.383,13.383,0,0,0,94.063,13.418a18.432,18.432,0,0,0,2.048,8.043,33.957,33.957,0,0,0,4.447,6.724A46.515,46.515,0,0,0,107,34.574a.613.613,0,0,0,.755,0,46.526,46.526,0,0,0,6.446-6.389,33.95,33.95,0,0,0,4.447-6.724,18.432,18.432,0,0,0,2.048-8.043A13.383,13.383,0,0,0,107.381,0Zm0,8.314a5.1,5.1,0,1,1-5.066,5.1A5.085,5.085,0,0,1,107.381,8.314Z" transform="translate(-86.311)" fill="#ff4a4a"/>
  <path id="Path_4927" data-name="Path 4927" d="M241.077,0c-.438,0-.871.022-1.3.064A13.4,13.4,0,0,1,251.8,13.418a18.432,18.432,0,0,1-2.048,8.043,33.957,33.957,0,0,1-4.447,6.724,48.61,48.61,0,0,1-5.524,5.625c.542.467.88.732.922.764a.613.613,0,0,0,.755,0,46.527,46.527,0,0,0,6.446-6.389,33.95,33.95,0,0,0,4.447-6.724,18.432,18.432,0,0,0,2.048-8.043A13.383,13.383,0,0,0,241.077,0Z" transform="translate(-220.008 0)" fill="#e7343f"/>
  <path id="Path_4928" data-name="Path 4928" d="M123.941,394.23h16.77l-12.452-10.572Z" transform="translate(-113.725 -352.014)" fill="#4ce166"/>
  <path id="Path_4929" data-name="Path 4929" d="M424.884,378l1.871,4.53h2.887L427.772,378Z" transform="translate(-389.846 -346.824)" fill="#ffbb24"/>
  <path id="Path_4930" data-name="Path 4930" d="M402.2,323.1h2.888l-1.881-4.553a.616.616,0,0,0-.569-.382h-2.476Z" transform="translate(-367.167 -291.922)" fill="#44c868"/>
</svg>
