<svg xmlns="http://www.w3.org/2000/svg" xmlns:xlink="http://www.w3.org/1999/xlink" width="77" height="49" viewBox="0 0 77 49">
  <defs>
    <linearGradient id="linear-gradient" x1="0.5" x2="0.5" y2="1" gradientUnits="objectBoundingBox">
      <stop offset="0" stop-color="#d8d8d8"/>
      <stop offset="1" stop-color="#707070"/>
    </linearGradient>
  </defs>
  <g id="Group_4030" data-name="Group 4030" transform="translate(0.15)">
    <g id="Group_1956" data-name="Group 1956" transform="translate(1.759 3.263)">
      <path id="Path_3052" data-name="Path 3052" d="M-4026.125,5195.622a101.941,101.941,0,0,1,11.264-12.433c6.1-5.549,6.2-44.716,11.583-24.681s11.449,8.96,14.816,4.415,3.534,5.135,6.817,0,6.484-5.761,11.114-3.573,16.777,36.272,16.777,36.272" transform="translate(4026.125 -5152.848)" fill="none" stroke="#fff" stroke-linecap="round" stroke-linejoin="round" stroke-width="0.5"/>
      <path id="Path_3053" data-name="Path 3053" d="M-4026.125,5195.622a101.941,101.941,0,0,1,11.264-12.433c6.1-5.549,6.2-44.716,11.583-24.681s11.449,8.96,14.816,4.415,3.534,5.135,6.817,0,6.484-5.761,11.114-3.573,16.777,36.272,16.777,36.272" transform="translate(4026.125 -5152.848)" fill="url(#linear-gradient)"/>
    </g>
    <g id="Group_1957" data-name="Group 1957" transform="translate(-0.15 41.582)">
      <circle id="Ellipse_404" data-name="Ellipse 404" cx="3" cy="3" r="3" transform="translate(0 0.418)" fill="#fff"/>
    </g>
    <g id="Group_1958" data-name="Group 1958" transform="translate(10.245 29.701)">
      <circle id="Ellipse_404-2" data-name="Ellipse 404" cx="3" cy="3" r="3" transform="translate(-0.395 0.299)" fill="#fff"/>
    </g>
    <g id="Group_1959" data-name="Group 1959" transform="translate(19.155)">
      <circle id="Ellipse_404-3" data-name="Ellipse 404" cx="3" cy="3" r="3" transform="translate(-0.307)" fill="#fff"/>
    </g>
    <g id="Group_1960" data-name="Group 1960" transform="translate(38.461 8.91)">
      <circle id="Ellipse_404-4" data-name="Ellipse 404" cx="3" cy="3" r="3" transform="translate(0.389 0.09)" fill="#fff"/>
    </g>
    <g id="Group_1961" data-name="Group 1961" transform="translate(60.737 19.306)">
      <circle id="Ellipse_404-5" data-name="Ellipse 404" cx="3" cy="3" r="3" transform="translate(0.113 -0.306)" fill="#fff"/>
    </g>
    <g id="Group_1962" data-name="Group 1962" transform="translate(71.133 43.067)">
      <circle id="Ellipse_404-6" data-name="Ellipse 404" cx="3" cy="3" r="3" transform="translate(-0.283 -0.067)" fill="#fff"/>
    </g>
  </g>
</svg>
