<svg id="trash" xmlns="http://www.w3.org/2000/svg" width="24.088" height="29.647" viewBox="0 0 24.088 29.647">
  <path id="Path_37" data-name="Path 37" d="M69.772,3.706h-5.1V2.779A2.779,2.779,0,0,0,61.9,0H58.191a2.779,2.779,0,0,0-2.779,2.779v.926h-5.1A2.316,2.316,0,0,0,48,6.022V7.875a.926.926,0,0,0,.926.926H71.162a.926.926,0,0,0,.926-.926V6.022A2.316,2.316,0,0,0,69.772,3.706ZM57.265,2.779a.928.928,0,0,1,.926-.926H61.9a.928.928,0,0,1,.926.926v.926H57.265Z" transform="translate(-48)" fill="#00a1e5"/>
  <path id="Path_38" data-name="Path 38" d="M73.654,184a.29.29,0,0,0-.289.3l.764,16.042a2.776,2.776,0,0,0,2.776,2.647h14.07a2.776,2.776,0,0,0,2.776-2.647l.764-16.042a.29.29,0,0,0-.289-.3Zm13.992,2.316a.926.926,0,1,1,1.853,0v12.044a.926.926,0,1,1-1.853,0Zm-4.632,0a.926.926,0,1,1,1.853,0v12.044a.926.926,0,1,1-1.853,0Zm-4.632,0a.926.926,0,1,1,1.853,0v12.044a.926.926,0,1,1-1.853,0Z" transform="translate(-71.895 -173.345)" fill="#00a1e5"/>
</svg>
