<svg xmlns="http://www.w3.org/2000/svg" width="47.823" height="47.825" viewBox="0 0 47.823 47.825">
  <g id="direction" transform="translate(-0.007 0)">
    <g id="Group_2" data-name="Group 2" transform="translate(0.007 0)">
      <path id="Path_2" data-name="Path 2" d="M47.121,22.221h0L25.6.7a2.381,2.381,0,0,0-3.372,0L.706,22.221a2.4,2.4,0,0,0,0,3.384L22.228,47.114v.012a2.4,2.4,0,0,0,3.384,0L47.133,25.6A2.385,2.385,0,0,0,47.121,22.221ZM28.7,29.885V23.907H19.131V31.08H14.348V21.515a2.383,2.383,0,0,1,2.391-2.391H28.7V13.146l8.369,8.369Z" transform="translate(-0.007 0)" fill="#005be4"/>
    </g>
  </g>
</svg>
