<svg id="home-icon-silhouette" xmlns="http://www.w3.org/2000/svg" width="23.274" height="21.672" viewBox="0 0 23.274 21.672">
  <g id="Group_1841" data-name="Group 1841" transform="translate(0 0)">
    <g id="Group_1840" data-name="Group 1840">
      <path id="Path_2935" data-name="Path 2935" d="M22.884,26.84l-3.527-3.527V19.239a1.334,1.334,0,0,0-2.668,0v1.407l-2.626-2.626a3.51,3.51,0,0,0-4.852,0L.391,26.84a1.334,1.334,0,0,0,1.887,1.887l8.819-8.82a.788.788,0,0,1,1.079,0L21,28.727a1.334,1.334,0,1,0,1.887-1.887Z" transform="translate(-0.001 -17.047)" fill="#fff"/>
      <path id="Path_2936" data-name="Path 2936" d="M77.5,127.94a.655.655,0,0,0-.927,0L68.819,135.7a.657.657,0,0,0-.192.464v5.656a2.4,2.4,0,0,0,2.4,2.4h3.841v-5.948h4.336v5.948h3.841a2.4,2.4,0,0,0,2.4-2.4v-5.657a.654.654,0,0,0-.192-.464Z" transform="translate(-65.403 -122.547)" fill="#fff"/>
    </g>
  </g>
</svg>
