<svg xmlns="http://www.w3.org/2000/svg" width="22.313" height="22.626" viewBox="0 0 22.313 22.626">
  <g id="income" transform="translate(-3.548)">
    <path id="Path_3663" data-name="Path 3663" d="M184.346,11.195a5.6,5.6,0,1,0-5.6-5.6A5.6,5.6,0,0,0,184.346,11.195Zm-.663-8.887V2.155a.663.663,0,0,1,1.326,0v.153a1.753,1.753,0,0,1,1.382,1.711.663.663,0,1,1-1.326,0,.425.425,0,0,0-.424-.424h-.594a.424.424,0,0,0-.252.765l.552.408,1.34.992a1.757,1.757,0,0,1,.709,1.395V7.16a1.751,1.751,0,0,1-1.386,1.724v.155a.663.663,0,0,1-1.326,0V8.886a1.75,1.75,0,0,1-1.381-1.7.663.663,0,0,1,.658-.667h0a.663.663,0,0,1,.663.659.423.423,0,0,0,.426.422l.594,0a.424.424,0,0,0,.422-.427V7.163a.426.426,0,0,0-.172-.338l-.551-.408-1.34-.992a1.75,1.75,0,0,1,.677-3.118Z" transform="translate(-167.458)" fill="#fff"/>
    <path id="Path_3664" data-name="Path 3664" d="M7.819,318.71a.618.618,0,0,0-.844-.226l-3.118,1.8a.618.618,0,0,0-.226.844l3.187,5.52a.618.618,0,0,0,.844.226l3.118-1.8a.617.617,0,0,0,.226-.844Z" transform="translate(0 -304.33)" fill="#fff"/>
    <path id="Path_3665" data-name="Path 3665" d="M152.54,273.21a.929.929,0,0,0-1.3-.211l-3.881,2.8a2.347,2.347,0,0,1-.279.2,2.4,2.4,0,0,1-1.286.368h-3.175a.663.663,0,1,1,0-1.326h3.4a.879.879,0,0,0,.878-.915.892.892,0,0,0-.9-.842h-2.585a4.3,4.3,0,0,0-.572-.506,4.24,4.24,0,0,0-2.525-.829,4.677,4.677,0,0,0-4.046,2.472l2.712,4.7h5.086a5.709,5.709,0,0,0,2.848-.753,11.412,11.412,0,0,0,.97-.63c1.459-1.048,4.443-3.226,4.445-3.227A.929.929,0,0,0,152.54,273.21Z" transform="translate(-126.855 -259.932)" fill="#fff"/>
  </g>
</svg>
