<svg xmlns="http://www.w3.org/2000/svg" width="19.952" height="22.833" viewBox="0 0 19.952 22.833">
  <path id="XMLID_45_" d="M37.727,2.288a.5.5,0,0,1,.5-.5h.119a.5.5,0,0,1,0,1h-.119A.5.5,0,0,1,37.727,2.288Zm.689,11.6a.5.5,0,0,0,.5.5h.119a.5.5,0,1,0,0-1h-.119A.5.5,0,0,0,38.416,13.89Zm.559-2.288a2.288,2.288,0,0,1,.5,4.521v1.516a.5.5,0,1,1-1,0V16.123a2.288,2.288,0,0,1,.5-4.521Zm0,1a1.29,1.29,0,1,0,1.29,1.29A1.291,1.291,0,0,0,38.974,12.6ZM30.936,7.25a2.288,2.288,0,1,1,2.787,2.233V11a.5.5,0,1,1-1,0V9.483A2.292,2.292,0,0,1,30.936,7.25Zm1,0a1.29,1.29,0,1,0,1.29-1.29A1.291,1.291,0,0,0,31.935,7.25ZM36,2.288a2.288,2.288,0,1,1,2.787,2.233V6.036a.5.5,0,1,1-1,0V4.521A2.292,2.292,0,0,1,36,2.288Zm1,0A1.29,1.29,0,1,0,38.286,1,1.291,1.291,0,0,0,37,2.288Zm7.442,6.339-.836-.3-.688-4.714A1.786,1.786,0,0,0,42.039,2.3a.5.5,0,0,0-.5.861.776.776,0,0,1,.393.592l.732,5.01a.5.5,0,0,0,.324.4l1.116.4c.765.277.841.468.821.6l-1.2,8.224a.858.858,0,0,1-.757.729l-7.57,1.651a.214.214,0,0,1-.181-.038,1.125,1.125,0,0,1-.365-.7l-.04-.242a.5.5,0,0,0-.662-.387l-6.688,2.421c-.1.035-.215-.057-.25-.085a.613.613,0,0,1-.233-.508L29.291,7.343a1.014,1.014,0,0,1,.42-.731.5.5,0,1,0-.37-.927,1.915,1.915,0,0,0-1.035,1.494L25.987,21.068a1.588,1.588,0,0,0,.579,1.439,1.316,1.316,0,0,0,.84.325,1.136,1.136,0,0,0,.388-.068l6.148-2.225a1.925,1.925,0,0,0,.708,1.022,1.207,1.207,0,0,0,.954.187l7.57-1.651a1.839,1.839,0,0,0,1.532-1.56l1.2-8.224C46.068,9.217,44.884,8.788,44.439,8.627ZM33.165,7.749h.119a.5.5,0,1,0,0-1h-.119a.5.5,0,1,0,0,1Zm-.939-3.708a.5.5,0,0,0,.574-.41l.253-1.518a1.125,1.125,0,0,1,.365-.7.214.214,0,0,1,.181-.038l1.236.27a.5.5,0,1,0,.213-.975L33.812.4a1.207,1.207,0,0,0-.954.187,2.054,2.054,0,0,0-.79,1.363l-.253,1.518A.5.5,0,0,0,32.226,4.041Z" transform="translate(-25.97)" fill="#fff"/>
</svg>
