<svg xmlns="http://www.w3.org/2000/svg" width="47.354" height="54.117" viewBox="0 0 47.354 54.117">
  <g id="Group_5592" data-name="Group 5592" transform="translate(-22737.549 -1900.643)">
    <path id="Path_5388" data-name="Path 5388" d="M99.382,0A3.392,3.392,0,0,0,96,3.382V50.735a3.392,3.392,0,0,0,3.382,3.382h33.823a3.392,3.392,0,0,0,3.382-3.382V13.529L123.059,0Z" transform="translate(22648.314 1900.643)" fill="#e2e5e7"/>
    <path id="Path_5389" data-name="Path 5389" d="M355.382,13.529h10.147L352,0V10.147A3.392,3.392,0,0,0,355.382,13.529Z" transform="translate(22419.373 1900.643)" fill="#b0b7bd"/>
    <path id="Path_5390" data-name="Path 5390" d="M394.147,138.147,384,128h10.147Z" transform="translate(22390.754 1786.172)" fill="#cad1d8"/>
    <path id="Path_5391" data-name="Path 5391" d="M72.588,258.6a1.7,1.7,0,0,1-1.691,1.691H33.691A1.7,1.7,0,0,1,32,258.6V241.691A1.7,1.7,0,0,1,33.691,240H70.9a1.7,1.7,0,0,1,1.691,1.691Z" transform="translate(22705.549 1686.01)" fill="#f15642"/>
    <path id="Path_5392" data-name="Path 5392" d="M101.744,295.254a.93.93,0,0,1,.918-.934h3.124a3.381,3.381,0,0,1,0,6.761h-2.258v1.786a.849.849,0,0,1-.866.932.911.911,0,0,1-.918-.932Zm1.784.769v3.369h2.258a1.686,1.686,0,0,0,0-3.369Z" transform="translate(22643.178 1637.432)" fill="#fff"/>
    <path id="Path_5393" data-name="Path 5393" d="M188.758,304.829a.846.846,0,0,1-.934-.837v-7.681a.92.92,0,0,1,.934-.839h3.1c6.179,0,6.044,9.357.122,9.357Zm.852-7.707v6.058h2.244c3.651,0,3.814-6.058,0-6.058Z" transform="translate(22566.195 1636.401)" fill="#fff"/>
    <path id="Path_5394" data-name="Path 5394" d="M288.9,297.216v2.149h3.448a1.046,1.046,0,0,1,.974.959.94.94,0,0,1-.974.812H288.9v2.839a.8.8,0,0,1-.81.837.859.859,0,0,1-.959-.837v-7.681a.855.855,0,0,1,.959-.839h4.747a.843.843,0,0,1,.947.839.934.934,0,0,1-.947.92H288.9Z" transform="translate(22477.381 1636.416)" fill="#fff"/>
    <path id="Path_5395" data-name="Path 5395" d="M128.132,417.691H96v1.691h32.132a1.7,1.7,0,0,0,1.691-1.691V416A1.7,1.7,0,0,1,128.132,417.691Z" transform="translate(22648.314 1528.613)" fill="#cad1d8"/>
  </g>
</svg>
