<svg id="multiple-users-silhouette" xmlns="http://www.w3.org/2000/svg" width="24.53" height="20.644" viewBox="0 0 24.53 20.644">
  <path id="Path_2934" data-name="Path 2934" d="M14.8,9.891A4.457,4.457,0,0,1,16.877,13.2,3.6,3.6,0,1,0,14.8,9.891Zm-2.357,7.366a3.6,3.6,0,1,0-3.6-3.6A3.6,3.6,0,0,0,12.446,17.257Zm1.526.245H10.919a4.612,4.612,0,0,0-4.606,4.607v3.733l.009.058.257.081a20.968,20.968,0,0,0,6.263,1.01,12.858,12.858,0,0,0,5.469-1.027l.24-.122h.026V22.109A4.61,4.61,0,0,0,13.972,17.5Zm5.952-3.714H16.9a4.434,4.434,0,0,1-1.368,3.088,5.474,5.474,0,0,1,3.91,5.238v1.15a12.4,12.4,0,0,0,4.828-1.014l.24-.122h.026V18.395A4.611,4.611,0,0,0,19.924,13.789ZM6.133,13.544a3.574,3.574,0,0,0,1.913-.555,4.452,4.452,0,0,1,1.674-2.84c0-.067.01-.134.01-.2a3.6,3.6,0,1,0-3.6,3.6Zm3.231,3.333A4.436,4.436,0,0,1,8,13.806c-.112-.008-.223-.017-.338-.017H4.606A4.612,4.612,0,0,0,0,18.395v3.734l.009.058.257.081a21.6,21.6,0,0,0,5.187.975V22.115A5.475,5.475,0,0,1,9.364,16.877Z" transform="translate(0 -6.348)" fill="#fff"/>
</svg>
