<svg xmlns="http://www.w3.org/2000/svg" width="48.77" height="46.746" viewBox="0 0 48.77 46.746">
  <g id="Group_5591" data-name="Group 5591" transform="translate(-23033.947 -1901)">
    <path id="Path_5400" data-name="Path 5400" d="M363.683,117.377a1.016,1.016,0,0,0-1.016,1.016v6.1a1.016,1.016,0,0,0,1.016,1.016h6.1a1.016,1.016,0,0,0,1.016-1.016A7.112,7.112,0,0,0,363.683,117.377Z" transform="translate(22705.826 1793.792)" fill="#ff5722"/>
    <path id="Path_5401" data-name="Path 5401" d="M286.466,147.824a3.048,3.048,0,0,1-3.048-3.048V139.8a7.1,7.1,0,1,0,8.025,8.025Z" transform="translate(22783.043 1773.505)" fill="#ff5722"/>
    <path id="Path_5402" data-name="Path 5402" d="M28.067,10.853a1.016,1.016,0,0,0-.862-.2L.788,16.746a1.016,1.016,0,0,0-.789,1V52.292a1.016,1.016,0,0,0,.862,1L27.278,57.36a1.016,1.016,0,0,0,1.17-1V11.65A1.016,1.016,0,0,0,28.067,10.853Z" transform="translate(23033.947 1890.374)" fill="#ff5722"/>
    <path id="Path_5403" data-name="Path 5403" d="M298.67,91.987H278.349a1.016,1.016,0,0,1,0-2.032h19.3V55.409h-19.3a1.016,1.016,0,1,1,0-2.032H298.67a1.016,1.016,0,0,1,1.016,1.016V90.971A1.016,1.016,0,0,1,298.67,91.987Z" transform="translate(22783.031 1851.695)" fill="#ff5722"/>
    <path id="Path_5404" data-name="Path 5404" d="M292.574,375.408H278.349a1.016,1.016,0,0,1,0-2.032h14.225a1.016,1.016,0,0,1,0,2.032Z" transform="translate(22783.031 1562.177)" fill="#ff5722"/>
    <path id="Path_5405" data-name="Path 5405" d="M292.574,311.408H278.349a1.016,1.016,0,1,1,0-2.032h14.225a1.016,1.016,0,0,1,0,2.032Z" transform="translate(22783.031 1620.081)" fill="#ff5722"/>
    <path id="Path_5406" data-name="Path 5406" d="M86.349,178.332a1.016,1.016,0,0,1-1.016-1.016V161.059a1.016,1.016,0,0,1,1.016-1.016h4.064a5.08,5.08,0,0,1,5.08,5.08v2.032a5.08,5.08,0,0,1-5.08,5.08H87.365v5.08A1.016,1.016,0,0,1,86.349,178.332Zm1.016-8.128h3.048a3.048,3.048,0,0,0,3.048-3.048v-2.032a3.048,3.048,0,0,0-3.048-3.048H87.365Z" transform="translate(22956.742 1755.19)" fill="#fafafa"/>
  </g>
</svg>
