<svg xmlns="http://www.w3.org/2000/svg" width="26.971" height="26.974" viewBox="0 0 26.971 26.974">
  <path id="Path_4562" data-name="Path 4562" d="M49.594,36.085h0a1.4,1.4,0,0,0-1.394,1.4A10.662,10.662,0,1,1,45.615,30.5H41.689a1.4,1.4,0,1,0,0,2.79H48.2a1.4,1.4,0,0,0,1.4-1.4v-6.51a1.4,1.4,0,0,0-2.79,0v2.323A13.486,13.486,0,1,0,29.769,48.526a13.386,13.386,0,0,0,7.706,2.442,13.658,13.658,0,0,0,2.37-.208A13.487,13.487,0,0,0,50.989,37.479a1.4,1.4,0,0,0-1.395-1.394Z" transform="translate(-24.018 -23.994)" fill="#00a1e5"/>
</svg>
