<svg id="Group_4035" data-name="Group 4035" xmlns="http://www.w3.org/2000/svg" width="20.687" height="20.807" viewBox="0 0 20.687 20.807">
  <g id="Group_1789" data-name="Group 1789">
    <path id="Path_2932" data-name="Path 2932" d="M20.549,3.922,16.788.139A.468.468,0,0,0,16.455,0H1.881A1.888,1.888,0,0,0,0,1.892V18.916a1.888,1.888,0,0,0,1.881,1.892H18.806a1.888,1.888,0,0,0,1.881-1.892V4.256A.474.474,0,0,0,20.549,3.922ZM4.7.946H15.045V6.62a.944.944,0,0,1-.94.946H5.642A.944.944,0,0,1,4.7,6.62ZM16.925,19.861H3.761V11.349H16.925Zm2.821-.946a.944.944,0,0,1-.94.946h-.94V10.876a.471.471,0,0,0-.47-.473H3.291a.471.471,0,0,0-.47.473v8.985h-.94a.944.944,0,0,1-.94-.946V1.892a.944.944,0,0,1,.94-.946H3.761V6.62A1.888,1.888,0,0,0,5.642,8.512H14.1A1.888,1.888,0,0,0,15.985,6.62V.946h.275l3.486,3.506Z" fill="#00a1e5"/>
    <path id="Path_2933" data-name="Path 2933" d="M256.47,47.395h1.881a.471.471,0,0,0,.47-.473V43.139a.471.471,0,0,0-.47-.473H256.47a.471.471,0,0,0-.47.473v3.783A.471.471,0,0,0,256.47,47.395Zm.47-3.783h.94v2.837h-.94Z" transform="translate(-244.716 -40.774)" fill="#00a1e5"/>
  </g>
</svg>
