<svg xmlns="http://www.w3.org/2000/svg" width="61.511" height="52.556" viewBox="0 0 61.511 52.556">
  <g id="Group_4033" data-name="Group 4033" transform="translate(-10812.793 -2000.053)">
    <g id="Group_4032" data-name="Group 4032" transform="translate(10812.793 2000.053)">
      <g id="Group_4031" data-name="Group 4031">
        <g id="graduation-hat_1_" data-name="graduation-hat (1)">
          <g id="Group_2812" data-name="Group 2812" transform="translate(0 0)">
            <g id="Group_2811" data-name="Group 2811">
              <path id="Path_3591" data-name="Path 3591" d="M61.511,74.839a5.4,5.4,0,0,0-3.6-5.074V51.1l3.6-1.486L30.755,37.27,0,49.61,30.755,61.95,54.3,52.543V69.765a5.374,5.374,0,0,0-.516,9.938l-2.994,8.983,3.418,1.14,1.9-5.686L58,89.826l3.418-1.14L58.423,79.7A5.4,5.4,0,0,0,61.511,74.839Z" transform="translate(0 -37.27)" fill="#fff"/>
            </g>
          </g>
          <g id="Group_2814" data-name="Group 2814" transform="translate(14.537 22.051)">
            <g id="Group_2813" data-name="Group 2813">
              <path id="Path_3592" data-name="Path 3592" d="M137.219,227.332,121,220.82v4.705c0,5.137,6.972,9.01,16.219,9.01s16.219-3.873,16.219-9.01V220.82Z" transform="translate(-121 -220.82)" fill="#fff"/>
            </g>
          </g>
        </g>
      </g>
    </g>
  </g>
</svg>
