<svg id="share_2_" data-name="share (2)" xmlns="http://www.w3.org/2000/svg" width="22.42" height="24.46" viewBox="0 0 22.42 24.46">
  <path id="Path_4560" data-name="Path 4560" d="M321.292,19.312A3.312,3.312,0,1,1,317.98,16,3.312,3.312,0,0,1,321.292,19.312Zm0,0" transform="translate(-299.635 -15.236)" fill="#00a1e5"/>
  <path id="Path_4561" data-name="Path 4561" d="M302.745,8.153a4.077,4.077,0,1,1,4.077-4.077A4.081,4.081,0,0,1,302.745,8.153Zm0-6.625a2.548,2.548,0,1,0,2.548,2.548,2.551,2.551,0,0,0-2.548-2.548Zm0,0" transform="translate(-284.4)" fill="#00a1e5"/>
  <path id="Path_4562" data-name="Path 4562" d="M321.292,360.644a3.312,3.312,0,1,1-3.312-3.312A3.312,3.312,0,0,1,321.292,360.644Zm0,0" transform="translate(-299.635 -340.261)" fill="#00a1e5"/>
  <path id="Path_4563" data-name="Path 4563" d="M302.745,349.485a4.077,4.077,0,1,1,4.077-4.077A4.081,4.081,0,0,1,302.745,349.485Zm0-6.625a2.548,2.548,0,1,0,2.548,2.548A2.551,2.551,0,0,0,302.745,342.861Zm0,0" transform="translate(-284.4 -325.026)" fill="#00a1e5"/>
  <path id="Path_4564" data-name="Path 4564" d="M22.625,189.98a3.312,3.312,0,1,1-3.312-3.312A3.312,3.312,0,0,1,22.625,189.98Zm0,0" transform="translate(-15.236 -177.75)" fill="#00a1e5"/>
  <path id="Path_4565" data-name="Path 4565" d="M4.077,178.821a4.077,4.077,0,1,1,4.077-4.077A4.081,4.081,0,0,1,4.077,178.821Zm0-6.624a2.548,2.548,0,1,0,2.548,2.548A2.551,2.551,0,0,0,4.077,172.2Zm0,0" transform="translate(0 -162.515)" fill="#00a1e5"/>
  <path id="Path_4566" data-name="Path 4566" d="M115.369,97.645a1.019,1.019,0,0,1-.506-1.9l9.457-5.391a1.019,1.019,0,1,1,1.009,1.771l-9.457,5.391A1.012,1.012,0,0,1,115.369,97.645Zm0,0" transform="translate(-108.886 -85.905)" fill="#00a1e5"/>
  <path id="Path_4567" data-name="Path 4567" d="M124.846,273.649a1.013,1.013,0,0,1-.5-.134l-9.457-5.391a1.019,1.019,0,0,1,1.009-1.771l9.457,5.391a1.019,1.019,0,0,1-.506,1.9Zm0,0" transform="translate(-108.907 -253.5)" fill="#00a1e5"/>
</svg>
