<svg id="Group_13382" data-name="Group 13382" xmlns="http://www.w3.org/2000/svg" width="41.651" height="41.689" viewBox="0 0 41.651 41.689">
  <g id="destination">
    <path id="Path_4911" data-name="Path 4911" d="M44.25,430.773c-3.5,0-7.226,1.159-7.226,3.307s3.723,3.307,7.226,3.307,7.226-1.159,7.226-3.307S47.752,430.773,44.25,430.773Z" transform="translate(-34.028 -395.698)" fill="#ffdb56"/>
    <path id="Path_4912" data-name="Path 4912" d="M10.454,153.9A10.233,10.233,0,0,0,.232,164.124c0,3.5,1.665,7.262,4.948,11.183a35.238,35.238,0,0,0,4.9,4.82.611.611,0,0,0,.748,0,35.238,35.238,0,0,0,4.9-4.82c3.283-3.921,4.948-7.684,4.948-11.183A10.233,10.233,0,0,0,10.454,153.9Zm3.833,10.222a3.833,3.833,0,1,1-3.833-3.833A3.833,3.833,0,0,1,14.287,164.124Z" transform="translate(-0.232 -141.371)" fill="#ff4a4a"/>
    <path id="Path_4913" data-name="Path 4913" d="M353.121,213.448a11.548,11.548,0,0,0-7.651,0c-1.206.491-1.87,1.213-1.87,2.031s.664,1.54,1.87,2.031a11.549,11.549,0,0,0,7.651,0c1.206-.491,1.869-1.213,1.869-2.031S354.327,213.939,353.121,213.448Z" transform="translate(-315.643 -195.469)" fill="#ffdb56"/>
    <g id="Group_13377" data-name="Group 13377" transform="translate(2.996 19.246)">
      <path id="Path_4914" data-name="Path 4914" d="M44.25,464.552c-3.062,0-6.292-.886-7.057-2.543a1.805,1.805,0,0,0-.169.763c0,2.148,3.723,3.307,7.226,3.307s7.226-1.159,7.226-3.307a1.806,1.806,0,0,0-.169-.763C50.542,463.667,47.312,464.552,44.25,464.552Z" transform="translate(-37.024 -443.637)" fill="#ffbb24"/>
      <path id="Path_4915" data-name="Path 4915" d="M353.122,237.637a11.549,11.549,0,0,1-7.651,0,3.24,3.24,0,0,1-1.662-1.268,1.535,1.535,0,0,0-.208.764c0,.818.664,1.54,1.87,2.031a11.549,11.549,0,0,0,7.651,0c1.206-.491,1.87-1.213,1.87-2.031a1.536,1.536,0,0,0-.208-.764A3.241,3.241,0,0,1,353.122,237.637Z" transform="translate(-318.639 -236.37)" fill="#ffbb24"/>
    </g>
    <path id="Path_4916" data-name="Path 4916" d="M323.323,0a8.007,8.007,0,0,0-8,8c0,2.724,1.291,5.646,3.836,8.686a27.242,27.242,0,0,0,3.788,3.725.611.611,0,0,0,.748,0,27.241,27.241,0,0,0,3.788-3.725c2.545-3.04,3.836-5.962,3.836-8.686A8.007,8.007,0,0,0,323.323,0Zm2.946,8a2.946,2.946,0,1,1-2.946-2.946A2.946,2.946,0,0,1,326.269,8Z" transform="translate(-289.67 0)" fill="#ff4a4a"/>
    <g id="Group_13378" data-name="Group 13378" transform="translate(9.07 0)">
      <path id="Path_4917" data-name="Path 4917" d="M112.777,153.9a10.28,10.28,0,0,0-1.151.065,10.236,10.236,0,0,1,9.07,10.156c0,3.5-1.665,7.262-4.948,11.183a36.834,36.834,0,0,1-4.122,4.177c.456.392.744.616.777.642a.611.611,0,0,0,.748,0,35.242,35.242,0,0,0,4.9-4.82c3.283-3.921,4.948-7.684,4.948-11.183A10.233,10.233,0,0,0,112.777,153.9Z" transform="translate(-111.626 -141.371)" fill="#e7343f"/>
      <path id="Path_4918" data-name="Path 4918" d="M400.556,0A8.017,8.017,0,0,0,399.4.083,8.01,8.01,0,0,1,406.251,8c0,2.724-1.291,5.646-3.836,8.686a28.51,28.51,0,0,1-3.01,3.076c.455.4.747.626.777.65a.611.611,0,0,0,.748,0,27.24,27.24,0,0,0,3.788-3.725c2.545-3.04,3.836-5.962,3.836-8.686A8.007,8.007,0,0,0,400.556,0Z" transform="translate(-375.973 0)" fill="#e7343f"/>
    </g>
    <path id="Path_4919" data-name="Path 4919" d="M235.33,257.987a.611.611,0,0,1,0-1.223l.807,0h0a.611.611,0,0,1,0,1.223l-.807,0Zm3.23-.015a.611.611,0,0,1,0-1.223l.807,0h0a.611.611,0,0,1,0,1.223l-.807,0Zm3.23-.015a.611.611,0,0,1,0-1.223l.807,0h0a.611.611,0,0,1,0,1.223l-.807,0Zm3.23-.015a.611.611,0,0,1,0-1.223l.807,0h0a.611.611,0,0,1,0,1.223l-.807,0Zm3.23-.015a.611.611,0,0,1,0-1.223l.807,0h0a.611.611,0,0,1,0,1.223l-.807,0Zm3.23-.015a.611.611,0,0,1,0-1.223h.114a4.611,4.611,0,0,0,.61-.043.611.611,0,1,1,.167,1.211,5.856,5.856,0,0,1-.771.055h-.117Zm3.041-.921a.611.611,0,0,1-.349-1.114,4.6,4.6,0,0,0,.552-.45.611.611,0,0,1,.843.885,5.839,5.839,0,0,1-.7.569A.609.609,0,0,1,254.52,256.993Zm1.933-2.521a.612.612,0,0,1-.576-.817,4.556,4.556,0,0,0,.186-.686.611.611,0,0,1,1.2.226,5.783,5.783,0,0,1-.236.871A.611.611,0,0,1,256.453,254.472Zm.1-3.176a.611.611,0,0,1-.587-.443,4.544,4.544,0,0,0-.249-.666.611.611,0,1,1,1.108-.517,5.767,5.767,0,0,1,.316.845.612.612,0,0,1-.588.78Zm-1.773-2.637a.609.609,0,0,1-.378-.132,4.6,4.6,0,0,0-.591-.4.611.611,0,1,1,.6-1.065,5.836,5.836,0,0,1,.748.5.611.611,0,0,1-.379,1.091Zm-2.976-1.108h-.028q-.1,0-.206,0H251a.611.611,0,0,1,0-1.223h.574c.086,0,.174,0,.26.006a.611.611,0,0,1-.027,1.222Zm-3.23-.005h-.807a.611.611,0,1,1,0-1.223h.807a.611.611,0,0,1,0,1.223Zm-3.23,0h-.807a.611.611,0,0,1,0-1.223h.807a.611.611,0,0,1,0,1.223Zm-3.23,0h-.807a.611.611,0,1,1,0-1.223h.807a.611.611,0,0,1,0,1.223ZM239,246.938a.608.608,0,0,1-.326-.094,4.6,4.6,0,0,1-.732-.573.611.611,0,0,1,.848-.881,3.364,3.364,0,0,0,.537.42.611.611,0,0,1-.327,1.128Zm-1.777-2.59a.611.611,0,0,1-.6-.494,4.6,4.6,0,0,1-.084-.878v-.048a.611.611,0,0,1,.611-.6h.007a.611.611,0,0,1,.6.618v.034a3.376,3.376,0,0,0,.062.644.612.612,0,0,1-.6.728Zm.668-3.068a.611.611,0,0,1-.5-.968,4.6,4.6,0,0,1,.616-.7.611.611,0,1,1,.829.9,3.377,3.377,0,0,0-.452.511A.611.611,0,0,1,237.891,241.28Zm2.691-1.618a.611.611,0,0,1-.08-1.217,4.626,4.626,0,0,1,.607-.04h.279a.611.611,0,0,1,0,1.223h-.279a3.4,3.4,0,0,0-.446.029A.583.583,0,0,1,240.582,239.663Z" transform="translate(-215.626 -218.993)" fill="#1ea4e9"/>
  </g>
</svg>
