<svg xmlns="http://www.w3.org/2000/svg" width="46.725" height="42.093" viewBox="0 0 46.725 42.093">
  <g id="Group_5524" data-name="Group 5524" transform="translate(-0.07 -0.137)">
    <path id="Path_4132" data-name="Path 4132" d="M247.452,61.125l0,0-6.879-2.367-12.008,2.367v5.238l19.671,3.245,3.508-3.245A21.064,21.064,0,0,0,247.452,61.125Z" transform="translate(-207.751 -55.748)" fill="#e7a52e"/>
    <g id="Group_3554" data-name="Group 3554" transform="translate(20.812 23.289)">
      <path id="Path_4133" data-name="Path 4133" d="M247.451,410.5l-8.979-1.708-9.909,1.708v5.238h5.03a20.87,20.87,0,0,0,13.748-5.141" transform="translate(-228.563 -396.98)" fill="#e7a52e"/>
      <path id="Path_4134" data-name="Path 4134" d="M228.563,288.273l14.167,2.051,9.013-2.051a20.825,20.825,0,0,0,2.144-5.238L243.347,280l-14.784,3.038Z" transform="translate(-228.563 -279.996)" fill="#e7a52e"/>
    </g>
    <path id="Path_4135" data-name="Path 4135" d="M253.886,160.774l-6.435-3.844-18.888,3.844v5.238l20.623,3.724,5.36-3.724A20.977,20.977,0,0,0,253.886,160.774Z" transform="translate(-207.751 -144.922)" fill="#e7a52e"/>
    <path id="Path_4136" data-name="Path 4136" d="M251.626,48.39a20.953,20.953,0,0,0-20.953-20.953q-1.068,0-2.109.105v41.8h2.109A20.953,20.953,0,0,0,251.626,48.39Z" transform="translate(-207.752 -27.3)" fill="#e28424"/>
    <g id="Group_3555" data-name="Group 3555" transform="translate(20.812 0.137)">
      <path id="Path_4137" data-name="Path 4137" d="M247.451,32.675a20.872,20.872,0,0,0-13.857-5.238h-5.03v5.238Z" transform="translate(-228.563 -27.437)" fill="#c85929"/>
      <path id="Path_4138" data-name="Path 4138" d="M228.563,146.956h25.323a20.828,20.828,0,0,0-2.144-5.238H228.563Z" transform="translate(-228.563 -131.242)" fill="#c85929"/>
      <path id="Path_4139" data-name="Path 4139" d="M228.563,261.238h25.323a20.99,20.99,0,0,0,.66-5.238H228.563Z" transform="translate(-228.563 -235.047)" fill="#c85929"/>
      <path id="Path_4140" data-name="Path 4140" d="M228.563,375.519h18.888a21.042,21.042,0,0,0,4.292-5.238H228.563Z" transform="translate(-228.563 -338.852)" fill="#c85929"/>
    </g>
    <path id="Path_4141" data-name="Path 4141" d="M248.821,370.282H228.563v5.238h15.966A21.048,21.048,0,0,0,248.821,370.282Z" transform="translate(-207.751 -338.716)" fill="#b94029"/>
    <path id="Path_4142" data-name="Path 4142" d="M251.626,256H228.564v5.238h22.4A20.994,20.994,0,0,0,251.626,256Z" transform="translate(-207.752 -234.91)" fill="#b94029"/>
    <path id="Path_4143" data-name="Path 4143" d="M248.821,141.718H228.563v5.238h22.4A20.823,20.823,0,0,0,248.821,141.718Z" transform="translate(-207.751 -131.105)" fill="#b94029"/>
    <path id="Path_4144" data-name="Path 4144" d="M230.672,27.437q-1.068,0-2.109.105v5.133h15.966A20.871,20.871,0,0,0,230.672,27.437Z" transform="translate(-207.751 -27.3)" fill="#b94029"/>
    <circle id="Ellipse_498" data-name="Ellipse 498" cx="21" cy="21" r="21" transform="translate(0.07 0.23)" fill="#f6e266"/>
    <path id="Path_4145" data-name="Path 4145" d="M76.857,69.331a21.016,21.016,0,0,0,3.448,2.489l5.748-38.58a20.789,20.789,0,0,0-4.024,1.371Z" transform="translate(-69.952 -32.571)" fill="#fbf4af"/>
    <path id="Path_4146" data-name="Path 4146" d="M217.318,27.437q-.571,0-1.135.031a20.953,20.953,0,0,1,0,41.844q.564.03,1.135.031a20.953,20.953,0,0,0,0-41.906Z" transform="translate(-196.506 -27.3)" fill="#eab14d"/>
    <circle id="Ellipse_499" data-name="Ellipse 499" cx="16.875" cy="16.875" r="16.875" transform="translate(3.937 4.215)" fill="#e7a52e"/>
    <path id="Path_4147" data-name="Path 4147" d="M216.131,71.923q-.633,0-1.255.046a16.875,16.875,0,0,1,0,33.656q.622.046,1.255.046a16.875,16.875,0,1,0,0-33.749Z" transform="translate(-195.319 -67.708)" fill="#e28424"/>
    <path id="Path_4148" data-name="Path 4148" d="M85.136,108.021a16.97,16.97,0,0,0,3.348,3.162l4.431-29.74a16.81,16.81,0,0,0-4.125,2.05Z" transform="translate(-77.472 -76.355)" fill="#eab14d"/>
  </g>
</svg>
