<svg xmlns="http://www.w3.org/2000/svg" width="29.928" height="29.92" viewBox="0 0 29.928 29.92">
  <g id="flyer_1_" data-name="flyer (1)" transform="translate(-0.891 -0.897)">
    <path id="Path_5306" data-name="Path 5306" d="M30.643,5.376a.479.479,0,0,0-.3-.21l-4.418-.981V3.4a.479.479,0,0,0-.479-.479H20.21L11.626,1.011a.477.477,0,0,0-.572.364l-.343,1.542H6.272a.479.479,0,0,0-.479.479V7.2l-4.418.981a.479.479,0,0,0-.364.572L5.8,30.341l.009,0a.472.472,0,0,0,.459.378H25.445a.479.479,0,0,0,.479-.479V27.277L30.706,5.738a.479.479,0,0,0-.063-.361ZM11.885,2.05l3.9.866H11.693ZM5.793,8.18V25.867L2.051,9.011ZM24.966,29.758H6.752V3.875H24.966Zm.959-6.9V5.167L29.667,6Z" transform="translate(0 0)" fill="#5b5959" stroke="#707070" stroke-width="0.2"/>
    <path id="Path_5307" data-name="Path 5307" d="M23.016,17.008a.478.478,0,0,0,.339.14h2.876a.478.478,0,0,0,.339-.14l4.454-4.454a1.636,1.636,0,0,0,0-2.314l-.281-.281a1.675,1.675,0,0,0-2.314,0l-1,1L25.611,9.14A.478.478,0,0,0,25.272,9h-2.4a.479.479,0,0,0-.339.818l3.016,3.016-1.438,1.438h-.082l-.818-.818a.478.478,0,0,0-.339-.14h-2.4a.479.479,0,0,0-.339.818Zm1.017-7.049h1.041l1.678,1.678-.521.521Zm-1.356,4.314.818.818a.478.478,0,0,0,.339.14h.479a.478.478,0,0,0,.339-.14l4.454-4.454a.7.7,0,0,1,.959,0l.281.281a.678.678,0,0,1,0,.959L26.033,16.19H23.554l-1.917-1.917Z" transform="translate(-9.893 -4.166)" fill="#5b5959" stroke="#707070" stroke-width="0.2"/>
    <path id="Path_5308" data-name="Path 5308" d="M17.479,31.835H30.9a.479.479,0,0,0,.479-.479V28.479A.479.479,0,0,0,30.9,28H17.479a.479.479,0,0,0-.479.479v2.876A.479.479,0,0,0,17.479,31.835Zm.479-2.876H30.421v1.917H17.959Z" transform="translate(-8.331 -14.059)" fill="#5b5959" stroke="#707070" stroke-width="0.2"/>
    <path id="Path_5309" data-name="Path 5309" d="M21,39H31.545v.959H21Z" transform="translate(-10.414 -19.787)" fill="#5b5959" stroke="#707070" stroke-width="0.2"/>
    <path id="Path_5310" data-name="Path 5310" d="M21,43H31.545v.959H21Z" transform="translate(-10.414 -21.869)" fill="#5b5959" stroke="#707070" stroke-width="0.2"/>
    <path id="Path_5311" data-name="Path 5311" d="M17,47H31.38v.959H17Z" transform="translate(-8.331 -23.952)" fill="#5b5959" stroke="#707070" stroke-width="0.2"/>
  </g>
</svg>
