<svg xmlns="http://www.w3.org/2000/svg" width="47.784" height="40.213" viewBox="0 0 47.784 40.213">
  <path id="Path_5348" data-name="Path 5348" d="M28.836,13.25A8.683,8.683,0,0,1,32.877,19.7a7.005,7.005,0,1,0-4.041-6.451ZM24.245,27.6a7.008,7.008,0,1,0-7.009-7.008A7.008,7.008,0,0,0,24.245,27.6Zm2.973.478H21.271A8.984,8.984,0,0,0,12.3,37.05v7.272l.018.114.5.157a40.845,40.845,0,0,0,12.2,1.967c6.595,0,10.417-1.88,10.653-2l.468-.237h.05V37.05A8.981,8.981,0,0,0,27.217,28.077Zm11.595-7.235h-5.9a8.637,8.637,0,0,1-2.666,6.016,10.662,10.662,0,0,1,7.616,10.2V39.3a24.147,24.147,0,0,0,9.4-1.976l.468-.237h.05V29.814A8.983,8.983,0,0,0,38.812,20.842Zm-26.864-.477a6.961,6.961,0,0,0,3.727-1.082,8.673,8.673,0,0,1,3.26-5.532c.007-.131.02-.261.02-.394a7.008,7.008,0,1,0-7.007,7.007Zm6.294,6.493a8.642,8.642,0,0,1-2.664-5.982c-.219-.016-.435-.033-.658-.033H8.973A8.983,8.983,0,0,0,0,29.814v7.273l.018.112.5.158a42.071,42.071,0,0,0,10.1,1.9v-2.2A10.664,10.664,0,0,1,18.241,26.858Z" transform="translate(0 -6.348)" fill="#fff"/>
</svg>
