<svg xmlns="http://www.w3.org/2000/svg" width="518" height="217" viewBox="0 0 518 217">
  <g id="Group_5567" data-name="Group 5567" transform="translate(-12 -16)">
    <g id="Group_4018" data-name="Group 4018">
      <g id="Group_4012" data-name="Group 4012">
        <g id="Group_4008" data-name="Group 4008" transform="translate(251 64)">
          <text id="_0_-_20" data-name="0 - 20" transform="translate(5 134)" fill="#464646" font-size="12" font-family="Roboto-Regular, Roboto"><tspan x="0" y="0">0 - 20</tspan></text>
          <text id="_20_-_30" data-name="20 - 30" transform="translate(0 108)" fill="#464646" font-size="12" font-family="Roboto-Regular, Roboto"><tspan x="0" y="0">20 - 30</tspan></text>
          <text id="_30_-_40" data-name="30 - 40" transform="translate(0 77)" fill="#464646" font-size="12" font-family="Roboto-Regular, Roboto"><tspan x="0" y="0">30 - 40</tspan></text>
          <text id="_40_-_50" data-name="40 - 50" transform="translate(0 44)" fill="#464646" font-size="12" font-family="Roboto-Regular, Roboto"><tspan x="0" y="0">40 - 50</tspan></text>
          <text id="_50_-_60" data-name="50 - 60" transform="translate(0 11)" fill="#464646" font-size="12" font-family="Roboto-Regular, Roboto"><tspan x="0" y="0">50 - 60</tspan></text>
        </g>
        <g id="Group_4010" data-name="Group 4010" transform="translate(72 65)">
          <rect id="Rectangle_2191" data-name="Rectangle 2191" width="75" height="15" transform="translate(93)" fill="#00a1e5"/>
          <rect id="Rectangle_2193" data-name="Rectangle 2193" width="107" height="15" transform="translate(61 66)" fill="#00a1e5"/>
          <rect id="Rectangle_2195" data-name="Rectangle 2195" width="168" height="14" transform="translate(0 122)" fill="#00a1e5"/>
          <rect id="Rectangle_2192" data-name="Rectangle 2192" width="89" height="14" transform="translate(79 33)" fill="#636363"/>
          <rect id="Rectangle_2194" data-name="Rectangle 2194" width="130" height="14" transform="translate(38 97)" fill="#636363"/>
        </g>
        <g id="Group_4011" data-name="Group 4011" transform="translate(301 65)">
          <rect id="Rectangle_2191-2" data-name="Rectangle 2191" width="75" height="15" fill="#00a1e5"/>
          <rect id="Rectangle_2193-2" data-name="Rectangle 2193" width="106" height="15" transform="translate(0 66)" fill="#00a1e5"/>
          <rect id="Rectangle_2195-2" data-name="Rectangle 2195" width="168" height="14" transform="translate(0 122)" fill="#00a1e5"/>
          <rect id="Rectangle_2192-2" data-name="Rectangle 2192" width="89" height="14" transform="translate(0 33)" fill="#636363"/>
          <rect id="Rectangle_2194-2" data-name="Rectangle 2194" width="130" height="14" transform="translate(0 97)" fill="#636363"/>
        </g>
        <text id="Age_group" data-name="Age group" transform="translate(240 230)" fill="#464646" font-size="13" font-family="Roboto-Regular, Roboto"><tspan x="0" y="0">Age group</tspan></text>
      </g>
      <g id="Group_4016" data-name="Group 4016" transform="translate(11.999 65)">
        <text id="_1548566" data-name="1548566" transform="translate(0.001 134)" fill="#00a1e5" font-size="14" font-family="Roboto-Regular, Roboto"><tspan x="0" y="0">1548566</tspan></text>
        <text id="_623659" data-name="623659" transform="translate(44.001 108)" fill="#636363" font-size="14" font-family="Roboto-Regular, Roboto"><tspan x="0" y="0">623659</tspan></text>
        <text id="_523659" data-name="523659" transform="translate(65.001 78)" fill="#00a1e5" font-size="14" font-family="Roboto-Regular, Roboto"><tspan x="0" y="0">523659</tspan></text>
        <text id="_423659" data-name="423659" transform="translate(86.001 45)" fill="#636363" font-size="14" font-family="Roboto-Regular, Roboto"><tspan x="0" y="0">423659</tspan></text>
        <text id="_323659" data-name="323659" transform="translate(100.001 13)" fill="#00a1e5" font-size="14" font-family="Roboto-Regular, Roboto"><tspan x="0" y="0">323659</tspan></text>
      </g>
      <g id="Group_4017" data-name="Group 4017" transform="translate(382.999 60)">
        <text id="_1548566-2" data-name="1548566" transform="translate(95.001 136)" fill="#00a1e5" font-size="13" font-family="Roboto-Regular, Roboto"><tspan x="0" y="0">1548566</tspan></text>
        <text id="_623659-2" data-name="623659" transform="translate(57.001 110)" fill="#636363" font-size="13" font-family="Roboto-Regular, Roboto"><tspan x="0" y="0">623659</tspan></text>
        <text id="_523659-2" data-name="523659" transform="translate(36.001 80)" fill="#00a1e5" font-size="13" font-family="Roboto-Regular, Roboto"><tspan x="0" y="0">523659</tspan></text>
        <text id="_423659-2" data-name="423659" transform="translate(15.001 46)" fill="#636363" font-size="13" font-family="Roboto-Regular, Roboto"><tspan x="0" y="0">423659</tspan></text>
        <text id="_323659-2" data-name="323659" transform="translate(0.001 12)" fill="#00a1e5" font-size="13" font-family="Roboto-Regular, Roboto"><tspan x="0" y="0">323659</tspan></text>
      </g>
    </g>
    <g id="Group_4111" data-name="Group 4111" transform="translate(29.211 16)">
      <g id="Group_4109" data-name="Group 4109" transform="translate(422.789 5)">
        <text id="Female" transform="translate(0 13)" fill="#464646" font-size="14" font-family="Roboto-Regular, Roboto"><tspan x="0" y="0">Female</tspan></text>
      </g>
      <g id="woman" transform="translate(402.245 3.74)">
        <path id="Path_3610" data-name="Path 3610" d="M114.267,11.312a.5.5,0,0,1,.061-.084A7.859,7.859,0,0,0,115.529,7c0-3.862-2.662-7-5.935-7s-5.935,3.142-5.935,7a7.847,7.847,0,0,0,1.227,4.265c.008.012.017.025.025.038l.078.116a.691.691,0,0,0,.787.26l.031-.012h0a8.853,8.853,0,0,1,1.3-.363l.822-.168-.62-.565a2.912,2.912,0,0,1-.924-1.756l-.046-.34L106,8.45a1.093,1.093,0,0,1-.022-2.177l.377-.038.005-.3a8.377,8.377,0,0,0,3.23-1.8,5.959,5.959,0,0,0,3.247,1.811l0,.294.377.038a1.093,1.093,0,0,1-.023,2.177l-.342.028-.046.34a2.913,2.913,0,0,1-.924,1.755l-.62.565.822.168a8.765,8.765,0,0,1,1.35.383A.708.708,0,0,0,114.267,11.312Z" transform="translate(-102.443)" fill="#694b4b"/>
        <path id="Path_3611" data-name="Path 3611" d="M179.186,287.951V286.4l-.534.139a2.91,2.91,0,0,1-.735.094h-.655a2.913,2.913,0,0,1-.74-.1l-.535-.141v1.552l-1.592.381.346,1.236.144.087a5.4,5.4,0,0,0,1.6.629,5.277,5.277,0,0,0,1.126.124h0a5.253,5.253,0,0,0,2.677-.755l.149-.087.34-1.213Z" transform="translate(-170.438 -275.301)" fill="#fbcb99"/>
        <path id="Path_3612" data-name="Path 3612" d="M177,290.282a5.4,5.4,0,0,1-1.6-.629h0l-.341-1.251,1.3-.314v-1.493l-.374-.2v1.552l-1.592.381.346,1.236.144.087a5.4,5.4,0,0,0,1.6.629,5.269,5.269,0,0,0,1.126.124h0c.084,0,.167,0,.251-.007A5.343,5.343,0,0,1,177,290.282Z" transform="translate(-170.438 -275.3)" fill="#edba89"/>
        <path id="Path_3613" data-name="Path 3613" d="M190.969,368.025a5.046,5.046,0,0,1-3.224.339,5.408,5.408,0,0,1-1.008-.333l-.623-.277,1.577,5.577h2.325l1.581-5.59Z" transform="translate(-181.702 -353.492)" fill="#f5f5f7"/>
        <path id="Path_3614" data-name="Path 3614" d="M186.111,368.068l1.577,5.577h.512l-1.5-5.317Z" transform="translate(-181.7 -353.807)" fill="#d2d2d7"/>
        <g id="Group_2829" data-name="Group 2829" transform="translate(0 12.965)">
          <path id="Path_3615" data-name="Path 3615" d="M285.157,335.544a6.012,6.012,0,0,0-.629-.306l-.1-.042a15.331,15.331,0,0,0-1.849-.6l-1.925,6.874h5.434a.69.69,0,0,0,.73-.706v-2.049A3.647,3.647,0,0,0,285.157,335.544Z" transform="translate(-272.577 -334.597)" fill="#e65ddc"/>
          <path id="Path_3616" data-name="Path 3616" d="M76.5,334.6a15.292,15.292,0,0,0-1.849.6l-.1.042a6.075,6.075,0,0,0-.629.306,3.647,3.647,0,0,0-1.659,3.172v2.049a.691.691,0,0,0,.73.706h5.434Z" transform="translate(-72.259 -334.598)" fill="#e65ddc"/>
        </g>
        <g id="Group_2830" data-name="Group 2830" transform="translate(0 12.965)">
          <path id="Path_3617" data-name="Path 3617" d="M72.965,340.764v-2.049a3.647,3.647,0,0,1,1.659-3.172,6.03,6.03,0,0,1,.629-.306l.1-.042c.4-.166.831-.306,1.2-.416L76.5,334.6a15.317,15.317,0,0,0-1.849.6l-.1.042a6.007,6.007,0,0,0-.629.306,3.647,3.647,0,0,0-1.659,3.172v2.049a.69.69,0,0,0,.7.705Z" transform="translate(-72.261 -334.596)" fill="#fff"/>
          <path id="Path_3618" data-name="Path 3618" d="M364.555,434.24v-2.815a.32.32,0,1,0-.64,0v2.815Z" transform="translate(-352.614 -427.366)" fill="#fff"/>
          <path id="Path_3619" data-name="Path 3619" d="M131.247,434.24v-2.815a.32.32,0,0,0-.64,0v2.815Z" transform="translate(-128.346 -427.366)" fill="#fff"/>
        </g>
        <path id="Path_3620" data-name="Path 3620" d="M337.714,154.628a.566.566,0,0,0-.735.54v1.613a.566.566,0,0,0,.734.54,1.408,1.408,0,0,0,.317-.145,2.828,2.828,0,0,1,.32-.268,1.409,1.409,0,0,0-.637-2.281Z" transform="translate(-326.722 -148.612)" fill="#fbcb99"/>
        <path id="Path_3621" data-name="Path 3621" d="M133.465,154.711a.567.567,0,0,0-.5-.084,1.411,1.411,0,0,0,0,2.694.566.566,0,0,0,.735-.54v-1.613A.566.566,0,0,0,133.465,154.711Z" transform="translate(-129.656 -148.611)" fill="#edba89"/>
        <path id="Path_3622" data-name="Path 3622" d="M174.66,106.465a.221.221,0,0,0,0-.03v-.028a.285.285,0,0,0-.174-.247l-.153-.037a5.738,5.738,0,0,1-2.788-1.5h0a.544.544,0,0,0-.728,0h0a8.176,8.176,0,0,1-2.761,1.493l-.067.021h0a.3.3,0,0,0-.231.243v2.473a3.127,3.127,0,0,0,3.124,3.124h.655a3.127,3.127,0,0,0,3.123-3.124v-2.388Z" transform="translate(-164.061 -100.427)" fill="#fbcb99"/>
        <g id="Group_2831" data-name="Group 2831" transform="translate(3.7 4.048)">
          <path id="Path_3623" data-name="Path 3623" d="M171.429,104.543a.564.564,0,0,0-.609.086h0a8.175,8.175,0,0,1-2.761,1.493l-.067.021h0a.3.3,0,0,0-.231.243v2.473a3.127,3.127,0,0,0,3.124,3.124h.512a3.127,3.127,0,0,1-3.124-3.124v-2.293a.479.479,0,0,1,.325-.453l.081-.026h0a8.016,8.016,0,0,0,2.736-1.531Z" transform="translate(-167.761 -104.484)" fill="#edba89"/>
          <path id="Path_3624" data-name="Path 3624" d="M245.088,189.969a.213.213,0,1,1,0,.427h-.545a.214.214,0,0,1-.213-.213v-1.04a.213.213,0,1,1,.427,0v.826Z" transform="translate(-241.363 -185.657)" fill="#edba89"/>
        </g>
        <path id="Path_3625" data-name="Path 3625" d="M104.914,11.306l.078.116a.692.692,0,0,0,.8.256l.019-.008-.051-.069A7.771,7.771,0,0,1,104.3,7c0-3.735,2.49-6.8,5.615-6.993C109.81,0,109.7,0,109.6,0c-3.272,0-5.935,3.142-5.935,7a7.847,7.847,0,0,0,1.227,4.265C104.9,11.28,104.905,11.292,104.914,11.306Z" transform="translate(-102.444 0)" fill="#563b3b"/>
      </g>
      <text id="Location_Name_2021_" data-name="Location Name (2021)" transform="translate(174.789 12)" fill="#464646" font-size="13" font-family="Roboto-Regular, Roboto"><tspan x="0" y="0">Location Name</tspan><tspan y="0" font-family="Roboto-Bold, Roboto" font-weight="700"> </tspan><tspan y="0" font-family="Roboto-Medium, Roboto" font-weight="500">(2021)</tspan></text>
      <g id="Group_4110" data-name="Group 4110" transform="translate(0 1.74)">
        <g id="groom">
          <path id="Path_3597" data-name="Path 3597" d="M172.563,167.733h4.115v4.441h-4.115Z" transform="translate(-165.736 -158.878)" fill="#f7be56"/>
          <path id="Path_3598" data-name="Path 3598" d="M156.925,223.091h3.317a86.516,86.516,0,0,0,1.8-9.59l-1.378-1.557-2.03,1.208-1.145-.324-1.738-.5a16.648,16.648,0,0,0,0,3.385A41.566,41.566,0,0,0,156.925,223.091Z" transform="translate(-149.748 -200.754)" fill="#d5d6db"/>
          <g id="Group_2828" data-name="Group 2828" transform="translate(5.078 0.793)">
            <path id="Path_3599" data-name="Path 3599" d="M139.819,102.8c.3-.049.63.417.731,1.041s-.062,1.17-.365,1.219-.63-.417-.731-1.041S139.517,102.848,139.819,102.8Z" transform="translate(-139.424 -98.162)" fill="#fcd462"/>
            <path id="Path_3600" data-name="Path 3600" d="M262.529,102.8c-.3-.049-.63.417-.731,1.041s.062,1.17.365,1.219.63-.417.731-1.041S262.831,102.848,262.529,102.8Z" transform="translate(-255.309 -98.162)" fill="#fcd462"/>
            <path id="Path_3601" data-name="Path 3601" d="M152.1,15.02c-1.8,0-3.4,1.6-3.266,5.187.094,2.51,1.462,4.548,3.266,4.548s3.266-2.036,3.266-4.548S153.905,15.02,152.1,15.02Z" transform="translate(-148.331 -15.02)" fill="#fcd462"/>
          </g>
          <path id="Path_3602" data-name="Path 3602" d="M146.617,1.858c-.317-.374-.147-1.624-1.825-1.725-1.242-.075-3.34-.648-4.862,1.335a4.314,4.314,0,0,0-.462,1.675A6.866,6.866,0,0,0,140,6.56c.468,1.074.485-2.522.5-3,.081-2.041,4.275-.6,4.48-.87l.069-.009a3.291,3.291,0,0,1,1.046,2.2,2.7,2.7,0,0,0,.353,1.675s1.391-3.248.161-4.7Z" transform="translate(-134.356 0.001)" fill="#2f4859"/>
          <path id="Path_3603" data-name="Path 3603" d="M158.692,192.5l-1.062-1.8-2.053,2.3-2.062-2.3-1.062,1.8,1.494,2.286,1.626-1.753,1.626,1.753Z" transform="translate(-146.687 -180.64)" fill="#ebf0f3"/>
          <path id="Path_3604" data-name="Path 3604" d="M52.356,216.978c-.571-2.291-2.284-7.4-2.481-8.935-.087-.693-.146-1.273-.187-1.7-.047-.506-.079-.8-.079-.854a4.235,4.235,0,0,1-1.393,1.227,9.2,9.2,0,0,1-2.206.98,3.084,3.084,0,0,0-2.466,2.735c-.1,1.087-.206,5.354-.3,6.546h9.115Z" transform="translate(-43.24 -194.641)" fill="#00a1e5"/>
          <path id="Path_3605" data-name="Path 3605" d="M224.559,217.5c-.1-1.192-.2-5.458-.3-6.547a3.084,3.084,0,0,0-2.464-2.736,9.2,9.2,0,0,1-2.206-.98,3.966,3.966,0,0,1-1.377-1.2s-.036.271-.083.792c-.04.427-.1,1.007-.193,1.713-.2,1.533-1.452,6.652-2.03,8.955Z" transform="translate(-206.788 -195.163)" fill="#00a1e5"/>
          <path id="Path_3606" data-name="Path 3606" d="M220.044,227l0-.067a11.211,11.211,0,0,0-.877-3.471,13.966,13.966,0,0,1,.667,3.4c-.267.1-.531.208-.795.315l-.1.042.037.108.442,1.277c-.6.873-1.184,1.763-1.774,2.646-.588.911-1.176,1.821-1.734,2.752.66-.861,1.289-1.744,1.92-2.626s1.242-1.776,1.843-2.679l.037-.056-.022-.062-.449-1.227c.249-.106.5-.211.744-.323Z" transform="translate(-206.789 -211.662)" fill="#3e6b82"/>
          <path id="Path_3607" data-name="Path 3607" d="M133.961,227.574l.442-1.277.037-.108-.106-.043c-.264-.107-.528-.214-.795-.315,0-1,.418-2.483.5-3.456a18.878,18.878,0,0,0-.711,3.528l0,.067.067.03c.246.111.495.217.743.323l-.449,1.227-.022.061.038.056c.6.9,1.227,1.787,1.843,2.679s1.259,1.765,1.92,2.626c-.557-.931-1.146-1.842-1.734-2.752C135.145,229.337,134.566,228.447,133.961,227.574Z" transform="translate(-128.572 -210.635)" fill="#3e6b82"/>
          <path id="Path_3608" data-name="Path 3608" d="M210.921,233.6c-.332.079-1.217.333-1.217.744s.881.7,1.217.743c1.444.193.612-.333.612-.743S212.23,233.282,210.921,233.6Z" transform="translate(-200.916 -221.186)" fill="#fe7058"/>
          <path id="Path_3609" data-name="Path 3609" d="M173.508,233.6c.332.079,1.218.333,1.218.744s-.881.7-1.218.743c-1.444.193-.612-.333-.612-.743S172.2,233.282,173.508,233.6Z" transform="translate(-165.825 -221.186)" fill="#fe7058"/>
          <ellipse id="Ellipse_456" data-name="Ellipse 456" cx="0.725" cy="0.725" rx="0.725" ry="0.725" transform="translate(7.973 12.59) rotate(-13.3)" fill="#ea6453"/>
        </g>
        <text id="Male" transform="translate(26.789 17.26)" fill="#464646" font-size="14" font-family="Roboto-Regular, Roboto"><tspan x="0" y="0">Male</tspan></text>
      </g>
    </g>
  </g>
</svg>
