<svg xmlns="http://www.w3.org/2000/svg" xmlns:xlink="http://www.w3.org/1999/xlink" width="60" height="50" viewBox="0 0 60 50">
  <defs>
    <clipPath id="clip-eye">
      <rect width="60" height="50"/>
    </clipPath>
  </defs>
  <g id="eye" clip-path="url(#clip-eye)">
    <g id="hidden" transform="translate(6.963 1.961)">
      <path id="Path_1" data-name="Path 1" d="M195.938,157.259q-.743-.639-1.493-1.223l-5.823,5.823a9.449,9.449,0,0,1-12.074,12.074l-4.37,4.37a19.853,19.853,0,0,0,7.543,1.578,20.606,20.606,0,0,0,9.034-2.246,34.033,34.033,0,0,0,7.182-4.83,44.582,44.582,0,0,0,6.568-6.985,1.35,1.35,0,0,0,0-1.576A44.59,44.59,0,0,0,195.938,157.259Z" transform="translate(-156.685 -141.993)" fill="#707070"/>
      <path id="Path_2" data-name="Path 2" d="M246.356,253.105a6.743,6.743,0,0,0,6.681-7.7l-7.634,7.634A6.763,6.763,0,0,0,246.356,253.105Z" transform="translate(-223.319 -223.317)" fill="#707070"/>
      <path id="Path_3" data-name="Path 3" d="M45.68.4a1.35,1.35,0,0,0-1.909,0L33.165,11q-.548-.3-1.094-.566A20.6,20.6,0,0,0,23.037,8.19,20.606,20.606,0,0,0,14,10.436a34.034,34.034,0,0,0-7.182,4.83A44.594,44.594,0,0,0,.253,22.251a1.35,1.35,0,0,0,0,1.576,44.584,44.584,0,0,0,6.568,6.985,38.032,38.032,0,0,0,3.709,2.825L.395,43.772A1.35,1.35,0,1,0,2.3,45.681L45.679,2.305A1.35,1.35,0,0,0,45.68.4ZM13.588,23.039a9.445,9.445,0,0,1,15.105-7.565l-1.937,1.937a6.745,6.745,0,0,0-9.348,9.348l-1.937,1.937A9.4,9.4,0,0,1,13.588,23.039Z" transform="translate(0 0)" fill="#707070"/>
    </g>
  </g>
</svg>
