<svg xmlns="http://www.w3.org/2000/svg" width="18.372" height="24.496" viewBox="0 0 18.372 24.496">
  <g id="padlock_1_" data-name="padlock (1)" opacity="0.69">
    <path id="Path_2281" data-name="Path 2281" d="M19.075,24.31H5.3a2.3,2.3,0,0,1-2.3-2.3V11.3A2.3,2.3,0,0,1,5.3,9H19.075a2.3,2.3,0,0,1,2.3,2.3V22.013A2.3,2.3,0,0,1,19.075,24.31ZM5.3,10.531a.766.766,0,0,0-.765.765V22.013a.766.766,0,0,0,.765.765H19.075a.766.766,0,0,0,.765-.765V11.3a.766.766,0,0,0-.765-.765Z" transform="translate(-3 0.186)" fill="#4f4f4f"/>
    <path id="Path_2282" data-name="Path 2282" d="M17.482,10.717a.766.766,0,0,1-.765-.765V6.124a4.593,4.593,0,1,0-9.186,0V9.951A.765.765,0,0,1,6,9.951V6.124a6.124,6.124,0,0,1,12.248,0V9.951A.766.766,0,0,1,17.482,10.717Z" transform="translate(-2.938)" fill="#4f4f4f"/>
    <path id="Path_2283" data-name="Path 2283" d="M12.041,17.083a2.041,2.041,0,1,1,2.041-2.041A2.043,2.043,0,0,1,12.041,17.083Zm0-2.552a.51.51,0,1,0,.51.51A.511.511,0,0,0,12.041,14.531Z" transform="translate(-2.855 0.269)" fill="#4f4f4f"/>
    <path id="Path_2284" data-name="Path 2284" d="M12.015,20.088a.766.766,0,0,1-.765-.765V16.515a.765.765,0,0,1,1.531,0v2.807A.766.766,0,0,1,12.015,20.088Z" transform="translate(-2.83 0.325)" fill="#4f4f4f"/>
  </g>
</svg>
