<svg xmlns="http://www.w3.org/2000/svg" width="135.673" height="135.674" viewBox="0 0 135.673 135.674">
  <g id="china" transform="translate(22.08) rotate(11)">
    <ellipse id="Ellipse_466" data-name="Ellipse 466" cx="57.857" cy="57.857" rx="57.857" ry="57.857" transform="translate(0.005 0.005)" fill="#d62427"/>
    <path id="Path_3684" data-name="Path 3684" d="M0,57.86A57.858,57.858,0,0,1,57.859,0c31.956,0,31.956,115.72,0,115.72A57.861,57.861,0,0,1,0,57.86Z" fill="#dc3027"/>
    <g id="Group_2982" data-name="Group 2982" transform="translate(21.935 11.201)">
      <path id="Path_3685" data-name="Path 3685" d="M11.441,0l2.7,8.313h8.742L15.81,13.449l2.7,8.314-7.071-5.137L4.37,21.762l2.7-8.314L0,8.313H8.739Z" transform="translate(0 4.729)" fill="#f8d12e"/>
      <path id="Path_3686" data-name="Path 3686" d="M6.29,0,5.438,2.916,7.947,4.627l-3.035.089-.85,2.918L3.037,4.773,0,4.866,2.4,3.007,1.378.148l2.51,1.711Z" transform="translate(25.541 0)" fill="#f8d12e"/>
      <path id="Path_3687" data-name="Path 3687" d="M6.29,0,5.438,2.915,7.947,4.626l-3.035.09-.85,2.917L3.037,4.773,0,4.866,2.4,3.007,1.378.148l2.51,1.709Z" transform="translate(25.541 26.116)" fill="#f8d12e"/>
      <path id="Path_3688" data-name="Path 3688" d="M6.29,0,5.438,2.916l2.51,1.711-3.036.09L4.062,7.634,3.036,4.773,0,4.866,2.4,3.007,1.377.148,3.888,1.859Z" transform="translate(32.944 7.96)" fill="#f8d12e"/>
      <path id="Path_3689" data-name="Path 3689" d="M6.29,0,5.438,2.916l2.51,1.711-3.036.089L4.062,7.634,3.036,4.774,0,4.867,2.4,3.008,1.377.149,3.888,1.858Z" transform="translate(32.944 18.607)" fill="#f8d12e"/>
    </g>
  </g>
</svg>
