<svg id="india" xmlns="http://www.w3.org/2000/svg" width="125.092" height="125.082" viewBox="0 0 125.092 125.082">
  <g id="BULINE" transform="translate(0.009 0)">
    <ellipse id="Ellipse_467" data-name="Ellipse 467" cx="62.541" cy="62.541" rx="62.541" ry="62.541" fill="#27273d"/>
  </g>
  <g id="Icons" transform="translate(0 0)">
    <path id="Path_3690" data-name="Path 3690" d="M133.185,40.827H15.85a62.565,62.565,0,0,1,117.335,0Z" transform="translate(-11.969 0)" fill="#e88032"/>
    <path id="Path_3691" data-name="Path 3691" d="M121.178,210.544H3.844a62.67,62.67,0,0,1,0-43.424H121.178a61.81,61.81,0,0,1,2.177,7.185,62.861,62.861,0,0,1-2.177,36.239Z" transform="translate(0.037 -126.293)" fill="#fff"/>
    <path id="Path_3692" data-name="Path 3692" d="M74.516,385.694a62.563,62.563,0,0,1-58.669-40.832l117.335,0a61.611,61.611,0,0,1-3.188,7.185A62.541,62.541,0,0,1,74.516,385.694Z" transform="translate(-11.967 -260.613)" fill="#00b564"/>
    <path id="Path_3693" data-name="Path 3693" d="M82.7.53A62.606,62.606,0,0,0,32.218,40.84H15.85A62.561,62.561,0,0,1,74.519,0a63.323,63.323,0,0,1,8.194.531Z" transform="translate(-11.969 0)" fill="#d8712b"/>
    <path id="Path_3694" data-name="Path 3694" d="M16.34,188.833a62.4,62.4,0,0,0,3.872,21.711H3.844a62.67,62.67,0,0,1,0-43.424H20.212A61.786,61.786,0,0,0,18.05,174.3a62.58,62.58,0,0,0-1.71,14.529Z" transform="translate(0.037 -126.293)" fill="#e2e2e2"/>
    <path id="Path_3695" data-name="Path 3695" d="M82.7,385.164a63.222,63.222,0,0,1-8.184.53,62.563,62.563,0,0,1-58.669-40.832l16.369,0A62.577,62.577,0,0,0,82.7,385.174Z" transform="translate(-11.967 -260.613)" fill="#049b53"/>
    <ellipse id="Ellipse_468" data-name="Ellipse 468" cx="3.977" cy="3.977" rx="3.977" ry="3.977" transform="translate(95.723 19.585)" fill="#ef9050"/>
    <ellipse id="Ellipse_469" data-name="Ellipse 469" cx="2.817" cy="2.817" rx="2.817" ry="2.817" transform="translate(91.025 14.888)" fill="#ef9050"/>
    <ellipse id="Ellipse_470" data-name="Ellipse 470" cx="19.51" cy="19.51" rx="19.51" ry="19.51" transform="translate(43.04 43.031)" fill="#3e436d"/>
    <path id="Path_3696" data-name="Path 3696" d="M222.176,205.246l-.911-.2a1.6,1.6,0,0,0-.027-.217l.826-.435a.689.689,0,0,0,.349-.792l-.471-1.764a.694.694,0,0,0-.7-.513l-.931.039c-.027-.068-.054-.137-.083-.205l.684-.628a.689.689,0,0,0,.132-.855l-.914-1.583a.689.689,0,0,0-.806-.313l-.889.279c-.044-.059-.09-.115-.134-.171l.5-.789a.694.694,0,0,0-.1-.862l-1.29-1.29a.694.694,0,0,0-.862-.1l-.789.5-.171-.134.279-.889a.689.689,0,0,0-.313-.806l-1.583-.914a.689.689,0,0,0-.855.132l-.628.684-.205-.083.039-.931a.694.694,0,0,0-.513-.7l-1.764-.472a.689.689,0,0,0-.789.349l-.435.831-.217-.027-.2-.911a.689.689,0,0,0-.674-.542h-1.827a.689.689,0,0,0-.674.542l-.2.911-.217.027-.435-.831a.689.689,0,0,0-.792-.349l-1.764.472a.694.694,0,0,0-.513.7l.039.931-.205.083-.628-.684a.689.689,0,0,0-.855-.132l-1.583.914a.689.689,0,0,0-.313.806l.278.889-.171.134-.787-.489a.694.694,0,0,0-.862.1l-1.29,1.29a.694.694,0,0,0-.1.862l.5.789c-.044.056-.09.112-.134.171l-.889-.279a.689.689,0,0,0-.806.313l-.914,1.583a.689.689,0,0,0,.132.855l.684.628c-.029.068-.056.137-.083.205l-.931-.039a.694.694,0,0,0-.7.513l-.472,1.764a.689.689,0,0,0,.349.777l.826.432a1.7,1.7,0,0,1-.027.217l-.911.2a.689.689,0,0,0-.542.674v1.827a.689.689,0,0,0,.542.674l.911.2a1.6,1.6,0,0,0,.027.217l-.826.437a.689.689,0,0,0-.349.792l.472,1.764a.694.694,0,0,0,.7.513l.931-.039c.027.068.054.137.083.205l-.684.628a.689.689,0,0,0-.132.855l.914,1.583a.689.689,0,0,0,.806.313l.889-.279c.044.059.09.115.134.171l-.489.787a.694.694,0,0,0,.1.862l1.29,1.29a.694.694,0,0,0,.862.1l.789-.5.171.134-.279.889a.689.689,0,0,0,.313.806l1.583.914a.689.689,0,0,0,.855-.132l.628-.684.205.083-.039.931a.694.694,0,0,0,.513.7l1.764.472a.689.689,0,0,0,.777-.349l.432-.826.217.027.2.911a.689.689,0,0,0,.674.542h1.827a.689.689,0,0,0,.674-.542l.2-.911.217-.027.437.826a.689.689,0,0,0,.792.349l1.764-.472a.694.694,0,0,0,.513-.7l-.039-.931.205-.083.628.684a.689.689,0,0,0,.855.132l1.583-.914a.689.689,0,0,0,.313-.806l-.279-.889.171-.134.789.5a.694.694,0,0,0,.862-.1l1.29-1.29a.694.694,0,0,0,.1-.862l-.5-.789c.044-.056.09-.112.134-.171l.889.278a.689.689,0,0,0,.806-.313l.914-1.583a.689.689,0,0,0-.132-.855l-.684-.628c.029-.068.056-.137.083-.205l.931.039a.694.694,0,0,0,.7-.513l.471-1.764a.689.689,0,0,0-.349-.789l-.831-.435a1.706,1.706,0,0,1,.027-.217l.911-.2a.689.689,0,0,0,.542-.674V205.92A.689.689,0,0,0,222.176,205.246Z" transform="translate(-144.269 -144.293)" fill="#fff"/>
    <g id="Group_2983" data-name="Group 2983" transform="translate(49.68 49.673)">
      <path id="Path_3697" data-name="Path 3697" d="M249.769,246.728a.988.988,0,0,1,0,.171,2.437,2.437,0,0,1-.059.467,2.893,2.893,0,0,1-.22.643,3.01,3.01,0,0,1-.288.489,2.9,2.9,0,0,1-.459.489,2.465,2.465,0,0,1-.354.264,2.821,2.821,0,0,1-.611.3,2.637,2.637,0,0,1-.662.154,2.6,2.6,0,0,1-.674,0,2.747,2.747,0,0,1-.525-.105,2.687,2.687,0,0,1-.62-.269,2.832,2.832,0,0,1-.415-.283,2.716,2.716,0,0,1-.471-.489,2.628,2.628,0,0,1-.318-.489,2.731,2.731,0,0,1-.227-.64,2.48,2.48,0,0,1-.076-.523,1.013,1.013,0,0,1,0-.171,3.158,3.158,0,0,1,.044-.508,2.354,2.354,0,0,1,.115-.447,2.6,2.6,0,0,1,.288-.613,2.364,2.364,0,0,1,.288-.4,2.9,2.9,0,0,1,.5-.459,3.071,3.071,0,0,1,1.175-.52c.086-.015.166-.027.244-.037a3.2,3.2,0,0,1,.337-.02,1.926,1.926,0,0,1,.337.02,2.2,2.2,0,0,1,.4.073,2.622,2.622,0,0,1,.635.244,2.588,2.588,0,0,1,.462.3,2.53,2.53,0,0,1,.489.471,2.262,2.262,0,0,1,.269.379,2.823,2.823,0,0,1,.276.618,2.571,2.571,0,0,1,.1.393A3.145,3.145,0,0,1,249.769,246.728Z" transform="translate(-233.9 -233.86)" fill="#3e436d"/>
      <path id="Path_3698" data-name="Path 3698" d="M249.769,246.728a.988.988,0,0,1,0,.171,2.437,2.437,0,0,1-.059.467,2.893,2.893,0,0,1-.22.643,3.01,3.01,0,0,1-.288.489,2.9,2.9,0,0,1-.459.489,2.465,2.465,0,0,1-.354.264,2.821,2.821,0,0,1-.611.3,2.637,2.637,0,0,1-.662.154,2.6,2.6,0,0,1-.674,0,2.747,2.747,0,0,1-.525-.105,2.687,2.687,0,0,1-.62-.269,2.832,2.832,0,0,1-.415-.283,2.716,2.716,0,0,1-.471-.489,2.628,2.628,0,0,1-.318-.489,2.731,2.731,0,0,1-.227-.64,2.48,2.48,0,0,1-.076-.523,1.013,1.013,0,0,1,0-.171,3.158,3.158,0,0,1,.044-.508,2.354,2.354,0,0,1,.115-.447,2.6,2.6,0,0,1,.288-.613,2.364,2.364,0,0,1,.288-.4,2.9,2.9,0,0,1,.5-.459,3.071,3.071,0,0,1,1.175-.52c.086-.015.166-.027.244-.037a3.2,3.2,0,0,1,.337-.02,1.926,1.926,0,0,1,.337.02,2.2,2.2,0,0,1,.4.073,2.622,2.622,0,0,1,.635.244,2.588,2.588,0,0,1,.462.3,2.53,2.53,0,0,1,.489.471,2.262,2.262,0,0,1,.269.379,2.823,2.823,0,0,1,.276.618,2.571,2.571,0,0,1,.1.393A3.145,3.145,0,0,1,249.769,246.728Z" transform="translate(-233.9 -233.86)" fill="#3e436d"/>
      <path id="Path_3699" data-name="Path 3699" d="M212.037,254.6H203.66a.34.34,0,0,1,0-.679h8.4a4.372,4.372,0,0,0-.02.508Z" transform="translate(-203.32 -241.561)" fill="#3e436d"/>
      <path id="Path_3700" data-name="Path 3700" d="M215.22,261.293l-7.727,3.115a.352.352,0,0,1-.125.024.34.34,0,0,1-.127-.655l7.744-3.117A4.252,4.252,0,0,0,215.22,261.293Z" transform="translate(-206.122 -246.654)" fill="#3e436d"/>
      <path id="Path_3701" data-name="Path 3701" d="M207.7,235.186a.344.344,0,0,1,.442-.188l7.7,3.1a3.919,3.919,0,0,0-.281.618l-7.666-3.088a.342.342,0,0,1-.19-.442Z" transform="translate(-206.61 -227.244)" fill="#3e436d"/>
      <path id="Path_3702" data-name="Path 3702" d="M224.6,267.386l-5.956,5.951a.342.342,0,1,1-.489-.479l5.958-5.958A4.073,4.073,0,0,0,224.6,267.386Z" transform="translate(-214.459 -251.37)" fill="#3e436d"/>
      <path id="Path_3703" data-name="Path 3703" d="M218.672,218.4a.335.335,0,0,1,0-.489.34.34,0,0,1,.476,0l5.966,5.966a4.233,4.233,0,0,0-.489.464Z" transform="translate(-214.842 -214.273)" fill="#3e436d"/>
      <path id="Path_3704" data-name="Path 3704" d="M238.54,271.12a3.582,3.582,0,0,0,.623.264L236.094,279a.344.344,0,0,1-.318.213.4.4,0,0,1-.127-.024.344.344,0,0,1-.186-.445Z" transform="translate(-227.593 -254.559)" fill="#3e436d"/>
      <path id="Path_3705" data-name="Path 3705" d="M236.08,206.71a.337.337,0,1,1,.625-.244l3.176,7.888a3.808,3.808,0,0,0-.64.222Z" transform="translate(-228.049 -205.516)" fill="#3e436d"/>
      <path id="Path_3706" data-name="Path 3706" d="M254.957,212.044a3.068,3.068,0,0,0-.337.012v-8.389a.337.337,0,0,1,.674,0v8.377Z" transform="translate(-242.087 -203.33)" fill="#3e436d"/>
      <path id="Path_3707" data-name="Path 3707" d="M254.957,273.012a3.053,3.053,0,0,0,.337-.012v8.377a.337.337,0,0,1-.674,0V273C254.73,273,254.842,273.012,254.957,273.012Z" transform="translate(-242.087 -255.98)" fill="#3e436d"/>
      <path id="Path_3708" data-name="Path 3708" d="M261.443,214.592a4.3,4.3,0,0,0-.633-.244L264,206.423a.34.34,0,1,1,.63.244Z" transform="translate(-246.765 -205.48)" fill="#3e436d"/>
      <path id="Path_3709" data-name="Path 3709" d="M265.606,278.533a.34.34,0,0,1-.188.445.366.366,0,0,1-.127.024.34.34,0,0,1-.313-.212l-3.088-7.666a3.884,3.884,0,0,0,.613-.283Z" transform="translate(-247.581 -254.347)" fill="#3e436d"/>
      <path id="Path_3710" data-name="Path 3710" d="M266.91,224.348l5.9-5.9a.341.341,0,1,1,.476.489l-5.893,5.895A4.027,4.027,0,0,0,266.91,224.348Z" transform="translate(-251.375 -214.683)" fill="#3e436d"/>
      <path id="Path_3711" data-name="Path 3711" d="M273.769,272.58a.346.346,0,0,1-.489.489l-5.89-5.89a4.227,4.227,0,0,0,.464-.489Z" transform="translate(-251.738 -251.211)" fill="#3e436d"/>
      <path id="Path_3712" data-name="Path 3712" d="M271,238.2l7.818-3.154a.34.34,0,0,1,.244.63l-7.818,3.147A3.615,3.615,0,0,0,271,238.2Z" transform="translate(-254.466 -227.292)" fill="#3e436d"/>
      <path id="Path_3713" data-name="Path 3713" d="M279.839,264.015a.345.345,0,0,1-.313.213.4.4,0,0,1-.129-.024l-7.857-3.176a4.394,4.394,0,0,0,.227-.638l7.886,3.176a.342.342,0,0,1,.186.45Z" transform="translate(-254.874 -246.45)" fill="#3e436d"/>
      <path id="Path_3714" data-name="Path 3714" d="M281.621,254.256a.342.342,0,0,1-.342.342H272.9v-.171a4.378,4.378,0,0,0-.032-.508h8.4a.339.339,0,0,1,.354.337Z" transform="translate(-255.879 -241.56)" fill="#3e436d"/>
    </g>
  </g>
</svg>
