<svg id="saudi-arabia_4_" data-name="saudi-arabia (4)" xmlns="http://www.w3.org/2000/svg" width="124.908" height="124.908" viewBox="0 0 124.908 124.908">
  <ellipse id="Ellipse_471" data-name="Ellipse 471" cx="62.454" cy="62.454" rx="62.454" ry="62.454" transform="translate(0 0)" fill="#6da544"/>
  <g id="Group_2984" data-name="Group 2984" transform="translate(26.203 35.262)">
    <path id="Path_3715" data-name="Path 3715" d="M144.7,306.087a8.157,8.157,0,0,0,8.157,8.157h24.473a6.8,6.8,0,0,0,6.8,6.8h8.157a6.8,6.8,0,0,0,6.8-6.8v-8.157Z" transform="translate(-135.859 -266.659)" fill="#f0f0f0"/>
    <path id="Path_3716" data-name="Path 3716" d="M353.264,144.7V163.73a5.444,5.444,0,0,1-5.438,5.438v8.157a13.611,13.611,0,0,0,13.6-13.6V144.7Z" transform="translate(-289.364 -144.696)" fill="#f0f0f0"/>
    <path id="Path_3717" data-name="Path 3717" d="M113.96,163.73a5.444,5.444,0,0,1-5.438,5.438v8.157a13.611,13.611,0,0,0,13.6-13.6V144.7H113.96Z" transform="translate(-108.522 -144.696)" fill="#f0f0f0"/>
    <rect id="Rectangle_2042" data-name="Rectangle 2042" width="8.157" height="19.034" transform="translate(51.664 0)" fill="#f0f0f0"/>
    <path id="Path_3718" data-name="Path 3718" d="M202.623,155.572a1.36,1.36,0,0,1-2.719,0V144.695h-8.157v10.877a1.359,1.359,0,0,1-2.719,0V144.695H180.87v10.877a9.509,9.509,0,0,0,14.956,7.8,9.437,9.437,0,0,0,6.639,1.635,5.443,5.443,0,0,1-5.28,4.157v8.157a13.611,13.611,0,0,0,13.6-13.6V144.695h-8.157v10.877Z" transform="translate(-163.195 -144.695)" fill="#f0f0f0"/>
    <rect id="Rectangle_2043" data-name="Rectangle 2043" width="12.236" height="8.157" transform="translate(17.675 24.473)" fill="#f0f0f0"/>
  </g>
</svg>
