<svg id="outline" xmlns="http://www.w3.org/2000/svg" width="139.406" height="116.525" viewBox="0 0 139.406 116.525">
  <path id="Path_3679" data-name="Path 3679" d="M164.752,69.415a2.33,2.33,0,0,0-.843-1.686A50.949,50.949,0,0,0,136.39,56.253c-1.675-.167-3.379-.25-5.082-.251l-.037,0-.037,0c-1.7,0-3.407.085-5.081.251A51.046,51.046,0,0,0,88.421,79.111l-.018.026h0a51.284,51.284,0,0,0,3.326,60.772,2.331,2.331,0,0,0,1.686.845l.111,0a2.331,2.331,0,0,0,1.648-.682l68.9-68.9A2.33,2.33,0,0,0,164.752,69.415Zm-41.039,35.525H109.406A68.571,68.571,0,0,1,112.3,87.4a147.971,147.971,0,0,0,16.645,1.21V99.713Zm-38.988,0A46.342,46.342,0,0,1,91.39,83.136a147.186,147.186,0,0,0,16.244,3.585,73.243,73.243,0,0,0-2.891,18.22Zm42.761-44.125c.483-.039.968-.073,1.455-.1V83.945a143.366,143.366,0,0,1-15.111-1.051A67.934,67.934,0,0,1,127.486,60.816ZM119.052,109.6l-8.783,8.783a69.086,69.086,0,0,1-.862-8.783Zm14.549-21q3.35-.053,6.706-.26L133.6,95.052Zm11.791-5.345c-3.9.389-7.853.619-11.791.683V60.719c.487.024.972.058,1.457.1a68.2,68.2,0,0,1,12.816,19.964ZM120.4,61.934a72.361,72.361,0,0,0-11.307,20.3,142.725,142.725,0,0,1-14.933-3.165A46.349,46.349,0,0,1,120.4,61.934ZM93.74,134.914A46.7,46.7,0,0,1,84.721,109.6h20.022a73.609,73.609,0,0,0,1.533,12.776Zm57.679-57.68a72.634,72.634,0,0,0-9.284-15.3,46.261,46.261,0,0,1,16.78,7.807Z" transform="translate(-61.354 -56)" fill="#00a1e5"/>
  <path id="Path_3680" data-name="Path 3680" d="M217.41,122.412a51.444,51.444,0,0,0-3.327-4.5,2.331,2.331,0,0,0-3.445-.164l-68.9,68.9a2.331,2.331,0,0,0,.163,3.445,50.949,50.949,0,0,0,27.518,11.476,52.208,52.208,0,0,0,9.781.043v11.862a2.33,2.33,0,0,0,4.043,1.581l20.9-22.643a51.283,51.283,0,0,0,13.264-69.995Zm-16.147,66.324a2.339,2.339,0,0,0-.375.328l-17.025,18.444v-8.521a2.33,2.33,0,0,0-2.66-2.307c-.706.1-1.361.181-2,.245a47.358,47.358,0,0,1-9.316,0,46.275,46.275,0,0,1-22.985-8.848L212.073,122.9q.753,1.02,1.443,2.071A46.622,46.622,0,0,1,201.263,188.735Z" transform="translate(-104.625 -99.273)" fill="#00a1e5"/>
  <ellipse id="Ellipse_463" data-name="Ellipse 463" cx="5.473" cy="5.473" rx="5.473" ry="5.473" transform="translate(63.493 69.208)" fill="#00a1e5"/>
  <ellipse id="Ellipse_464" data-name="Ellipse 464" cx="4.105" cy="5.473" rx="4.105" ry="5.473" transform="translate(79.912 69.208)" fill="#00a1e5"/>
  <ellipse id="Ellipse_465" data-name="Ellipse 465" cx="4.105" cy="5.473" rx="4.105" ry="5.473" transform="translate(93.594 69.208)" fill="#00a1e5"/>
  <path id="Path_3681" data-name="Path 3681" d="M34.639,149.051a2.331,2.331,0,0,0-2.6,2.023l-.2,1.573A60.6,60.6,0,0,1,38.612,74.52a2.331,2.331,0,1,0-3.28-3.311,65.256,65.256,0,0,0-7.41,83.968l-1.969-.291a2.331,2.331,0,0,0-.683,4.611l7.865,1.165a2.331,2.331,0,0,0,2.654-2.017l.874-6.992A2.331,2.331,0,0,0,34.639,149.051Z" transform="translate(-15.997 -66.3)" fill="#00a1e5"/>
  <path id="Path_3682" data-name="Path 3682" d="M427.225,84.661a2.331,2.331,0,1,0,0-4.661h-6.991a2.33,2.33,0,0,0-2.331,2.33v6.992a2.331,2.331,0,1,0,4.661,0v-.768a60.593,60.593,0,0,1-5.89,78.366,2.331,2.331,0,0,0,3.312,3.28,65.254,65.254,0,0,0,5.488-85.539Z" transform="translate(-299.473 -73.008)" fill="#00a1e5"/>
</svg>
