<svg xmlns="http://www.w3.org/2000/svg" width="97.5" height="97.5" viewBox="0 0 97.5 97.5">
  <g id="Group_5596" data-name="Group 5596" transform="translate(4851.25 -917.25)">
    <g id="Group_5238" data-name="Group 5238">
      <g id="Group_5235" data-name="Group 5235" transform="translate(0 -33)">
        <g id="Group_5230" data-name="Group 5230" transform="translate(-5409.25 430)">
          <g id="csv" transform="translate(558 520.25)">
            <path id="Path_5273" data-name="Path 5273" d="M64,0V97.5h56.875L145.25,73.125V0Z" transform="translate(-47.75)" fill="#efeeee"/>
            <path id="Path_5274" data-name="Path 5274" d="M288,288v24.375L312.375,288Z" transform="translate(-214.875 -214.875)" fill="#ababab"/>
            <path id="Path_5275" data-name="Path 5275" d="M192,312.375h24.375V288Z" transform="translate(-143.25 -214.875)" fill="#dededd"/>
            <path id="Path_5276" data-name="Path 5276" d="M0,96v28.438H65V96Z" transform="translate(0 -71.625)" fill="#448e47"/>
            <g id="Group_5221" data-name="Group 5221" transform="translate(8.982 29.583)">
              <path id="Path_5277" data-name="Path 5277" d="M42.725,120a1.683,1.683,0,0,0-1.645-.869,1.624,1.624,0,0,0-1.085.357,2.329,2.329,0,0,0-.67,1.142,9.772,9.772,0,0,0-.341,2.076c-.069.853-.1,1.9-.1,3.132a30.429,30.429,0,0,0,.134,3.193,6.975,6.975,0,0,0,.414,1.889,1.7,1.7,0,0,0,.707.9,2.038,2.038,0,0,0,.987.236,2.34,2.34,0,0,0,.865-.158,1.467,1.467,0,0,0,.695-.634,3.94,3.94,0,0,0,.463-1.341,12.231,12.231,0,0,0,.171-2.279h3.506a15.749,15.749,0,0,1-.219,2.681,6.145,6.145,0,0,1-.817,2.218,4.1,4.1,0,0,1-1.682,1.483,6.365,6.365,0,0,1-2.815.54,6.654,6.654,0,0,1-3.14-.634,4.276,4.276,0,0,1-1.792-1.828,8.056,8.056,0,0,1-.8-2.852,36.492,36.492,0,0,1,0-7.3,8.185,8.185,0,0,1,.8-2.864,4.552,4.552,0,0,1,1.792-1.865,6.346,6.346,0,0,1,3.14-.67,6.058,6.058,0,0,1,2.962.609,4.1,4.1,0,0,1,1.617,1.548,5.363,5.363,0,0,1,.67,2.023,16.642,16.642,0,0,1,.134,2.035H43.172A6.383,6.383,0,0,0,42.725,120Z" transform="translate(-35.376 -116.548)" fill="#fff"/>
              <path id="Path_5278" data-name="Path 5278" d="M98.758,129.333a6.076,6.076,0,0,0,.1,1.1,1.987,1.987,0,0,0,.366.841,1.788,1.788,0,0,0,.723.54,2.919,2.919,0,0,0,1.129.2,2.235,2.235,0,0,0,1.45-.524,1.982,1.982,0,0,0,.646-1.621,3,3,0,0,0-.158-1.012,1.954,1.954,0,0,0-.524-.764,3.752,3.752,0,0,0-.963-.622,13.465,13.465,0,0,0-1.475-.573,12.946,12.946,0,0,1-2.023-.857,5.285,5.285,0,0,1-1.426-1.085,3.884,3.884,0,0,1-.841-1.438,6.084,6.084,0,0,1-.268-1.893,4.858,4.858,0,0,1,1.438-3.847,5.758,5.758,0,0,1,3.949-1.268,8.583,8.583,0,0,1,2.157.256,4.461,4.461,0,0,1,1.706.829,3.9,3.9,0,0,1,1.121,1.458,5.216,5.216,0,0,1,.4,2.133v.488h-3.36a3.555,3.555,0,0,0-.435-1.917,1.624,1.624,0,0,0-1.463-.67,2.511,2.511,0,0,0-.975.171,1.674,1.674,0,0,0-.622.451,1.592,1.592,0,0,0-.321.654,3.1,3.1,0,0,0-.085.756,2.5,2.5,0,0,0,.341,1.353,3.005,3.005,0,0,0,1.463,1.012l2.706,1.17a7.934,7.934,0,0,1,1.629.918,4.376,4.376,0,0,1,1.012,1.024,3.379,3.379,0,0,1,.524,1.207,6.716,6.716,0,0,1,.146,1.458,4.79,4.79,0,0,1-1.6,4.01,7.032,7.032,0,0,1-4.448,1.259q-2.974,0-4.257-1.292a5.041,5.041,0,0,1-1.276-3.7v-.707h3.51v.508Z" transform="translate(-80.046 -116.512)" fill="#fff"/>
              <path id="Path_5279" data-name="Path 5279" d="M159.115,130.726h.077l2.584-12.87h3.636l-4,17.4h-4.509l-3.993-17.4h3.754Z" transform="translate(-123.069 -117.515)" fill="#fff"/>
            </g>
          </g>
        </g>
      </g>
    </g>
  </g>
</svg>
