<svg xmlns="http://www.w3.org/2000/svg" width="78.664" height="99.084" viewBox="0 0 78.664 99.084">
  <g id="Group_5597" data-name="Group 5597" transform="translate(4550 -915)">
    <g id="Group_5234" data-name="Group 5234" transform="translate(0 -33)">
      <g id="Group_5231" data-name="Group 5231" transform="translate(-5475 427.75)">
        <g id="file_3_" data-name="file (3)" transform="translate(872.24 520.25)">
          <path id="Path_5280" data-name="Path 5280" d="M131.423,24.481v74.6H52.76V0h54.183Z" fill="#f2f2fc"/>
          <path id="Path_5281" data-name="Path 5281" d="M295.332,24.481v74.6H256V0h14.851Z" transform="translate(-163.908)" fill="#d8d8fc"/>
          <path id="Path_5282" data-name="Path 5282" d="M357.221,24.481H332.74V0Z" transform="translate(-225.797)" fill="#a3a3d1"/>
          <path id="Path_5283" data-name="Path 5283" d="M130,378.333h48.768v11.611H130Z" transform="translate(-62.292 -305.117)" fill="#9eb615"/>
          <path id="Path_5284" data-name="Path 5284" d="M256,378.333h24.384v11.611H256Z" transform="translate(-163.908 -305.117)" fill="#7b960c"/>
          <path id="Path_5285" data-name="Path 5285" d="M322,378.333h11.611v11.611H322Z" transform="translate(-217.136 -305.117)" fill="#afc726"/>
          <path id="Path_5286" data-name="Path 5286" d="M202.9,139.138v19.753l-16.763,9.628-16.763-9.628V139.138l16.763-9.628Z" transform="translate(-94.05 -104.447)" fill="#ffa001"/>
          <path id="Path_5287" data-name="Path 5287" d="M272.763,139.138v19.753L256,168.519V129.51Z" transform="translate(-163.908 -104.447)" fill="#f87f02"/>
          <path id="Path_5288" data-name="Path 5288" d="M202.9,139.138l-16.763,9.628-16.763-9.628,16.763-9.628Z" transform="translate(-94.05 -104.447)" fill="#f4d34e"/>
          <path id="Path_5289" data-name="Path 5289" d="M272.763,139.138,256,148.766V129.51Z" transform="translate(-163.908 -104.447)" fill="#ffa41f"/>
        </g>
      </g>
    </g>
  </g>
</svg>
