<svg xmlns="http://www.w3.org/2000/svg" width="24.641" height="22" viewBox="0 0 24.641 22">
  <g id="money_1_" data-name="money (1)" transform="translate(0 -27.437)">
    <path id="Path_4132" data-name="Path 4132" d="M238.48,60h0l-3.611-1.243L228.563,60v2.75l10.327,1.7,1.842-1.7A11.058,11.058,0,0,0,238.48,60Z" transform="translate(-217.563 -29.812)" fill="#e7a52e"/>
    <g id="Group_3554" data-name="Group 3554" transform="translate(11 39.592)">
      <path id="Path_4133" data-name="Path 4133" d="M238.479,409.684l-4.714-.9-5.2.9v2.75H231.2a10.957,10.957,0,0,0,7.217-2.7" transform="translate(-228.563 -402.589)" fill="#e7a52e"/>
      <path id="Path_4134" data-name="Path 4134" d="M228.563,284.341,236,285.418l4.732-1.077a10.934,10.934,0,0,0,1.125-2.75l-5.533-1.6-7.761,1.6Z" transform="translate(-228.563 -279.996)" fill="#e7a52e"/>
    </g>
    <path id="Path_4135" data-name="Path 4135" d="M241.857,158.948l-3.379-2.018-9.916,2.018v2.75l10.827,1.955L242.2,161.7A11.012,11.012,0,0,0,241.857,158.948Z" transform="translate(-217.563 -123.261)" fill="#e7a52e"/>
    <path id="Path_4136" data-name="Path 4136" d="M240.671,38.437a11,11,0,0,0-11-11q-.561,0-1.107.055V49.437h1.107A11,11,0,0,0,240.671,38.437Z" transform="translate(-217.564 0)" fill="#e28424"/>
    <g id="Group_3555" data-name="Group 3555" transform="translate(11 27.437)">
      <path id="Path_4137" data-name="Path 4137" d="M238.479,30.187a10.957,10.957,0,0,0-7.275-2.75h-2.641v2.75Z" transform="translate(-228.563 -27.437)" fill="#c85929"/>
      <path id="Path_4138" data-name="Path 4138" d="M228.563,144.468h13.294a10.935,10.935,0,0,0-1.125-2.75H228.563Z" transform="translate(-228.563 -136.218)" fill="#c85929"/>
      <path id="Path_4139" data-name="Path 4139" d="M228.563,258.75h13.294A11.019,11.019,0,0,0,242.2,256H228.563Z" transform="translate(-228.563 -245)" fill="#c85929"/>
      <path id="Path_4140" data-name="Path 4140" d="M228.563,373.031h9.916a11.047,11.047,0,0,0,2.253-2.75H228.563Z" transform="translate(-228.563 -353.781)" fill="#c85929"/>
    </g>
    <path id="Path_4141" data-name="Path 4141" d="M239.2,370.282H228.563v2.75h8.382A11.05,11.05,0,0,0,239.2,370.282Z" transform="translate(-217.563 -326.345)" fill="#b94029"/>
    <path id="Path_4142" data-name="Path 4142" d="M240.671,256H228.564v2.75h11.76A11.021,11.021,0,0,0,240.671,256Z" transform="translate(-217.564 -217.563)" fill="#b94029"/>
    <path id="Path_4143" data-name="Path 4143" d="M239.2,141.718H228.563v2.75h11.761A10.932,10.932,0,0,0,239.2,141.718Z" transform="translate(-217.563 -108.781)" fill="#b94029"/>
    <path id="Path_4144" data-name="Path 4144" d="M229.67,27.437q-.561,0-1.107.055v2.695h8.382A10.957,10.957,0,0,0,229.67,27.437Z" transform="translate(-217.563 0)" fill="#b94029"/>
    <circle id="Ellipse_498" data-name="Ellipse 498" cx="11" cy="11" r="11" transform="translate(0 27.437)" fill="#f6e266"/>
    <path id="Path_4145" data-name="Path 4145" d="M76.857,52.187a11.033,11.033,0,0,0,1.81,1.307L81.685,33.24a10.914,10.914,0,0,0-2.112.72Z" transform="translate(-73.158 -5.524)" fill="#fbf4af"/>
    <path id="Path_4146" data-name="Path 4146" d="M216.779,27.437q-.3,0-.6.016a11,11,0,0,1,0,21.968q.3.016.6.016a11,11,0,0,0,0-22Z" transform="translate(-205.779)" fill="#eab14d"/>
    <circle id="Ellipse_499" data-name="Ellipse 499" cx="8.859" cy="8.859" r="8.859" transform="translate(2.141 29.578)" fill="#e7a52e"/>
    <path id="Path_4147" data-name="Path 4147" d="M215.535,71.923q-.332,0-.659.024a8.859,8.859,0,0,1,0,17.669q.326.024.659.024a8.859,8.859,0,1,0,0-17.718Z" transform="translate(-204.535 -42.345)" fill="#e28424"/>
    <path id="Path_4148" data-name="Path 4148" d="M85.136,95.4a8.909,8.909,0,0,0,1.758,1.66L89.22,81.443a8.825,8.825,0,0,0-2.165,1.076Z" transform="translate(-81.039 -51.407)" fill="#eab14d"/>
  </g>
</svg>
