<svg id="money_1_" data-name="money (1)" xmlns="http://www.w3.org/2000/svg" width="512" height="512" viewBox="0 0 512 512">
  <path id="Path_7475" data-name="Path 7475" d="M436.812,75.188C388.327,26.7,324.113,0,256,0S123.673,26.7,75.188,75.188,0,187.887,0,256,26.7,388.327,75.188,436.812,187.887,512,256,512s132.327-26.7,180.812-75.188S512,324.113,512,256,485.3,123.673,436.812,75.188ZM256,482C131.383,482,30,380.617,30,256S131.383,30,256,30,482,131.383,482,256,380.617,482,256,482Z" fill="#636363"/>
  <path id="Path_7476" data-name="Path 7476" d="M256,61C148.477,61,61,148.477,61,256s87.477,195,195,195,195-87.477,195-195S363.523,61,256,61Zm0,360c-90.981,0-165-74.019-165-165S165.019,91,256,91s165,74.019,165,165S346.981,421,256,421Z" fill="#636363"/>
  <path id="Path_7477" data-name="Path 7477" d="M301,210.848a15,15,0,1,0,30,0c0-16.612-8.592-32.584-23.574-43.82A82.438,82.438,0,0,0,271,152.045v-16.2a15,15,0,1,0-30,0v16.2a82.428,82.428,0,0,0-36.426,14.983C189.592,178.264,181,194.236,181,210.848s8.592,32.583,23.574,43.82A82.438,82.438,0,0,0,241,269.651V329.06c-17.28-4.223-30-15.437-30-28.212a15,15,0,0,0-30,0c0,16.612,8.592,32.583,23.574,43.82A82.438,82.438,0,0,0,241,359.651V376a15,15,0,0,0,30,0V359.651a82.428,82.428,0,0,0,36.426-14.983C322.408,333.432,331,317.46,331,300.848s-8.592-32.584-23.574-43.82A82.438,82.438,0,0,0,271,242.045V182.636c17.28,4.224,30,15.437,30,28.212Zm-90,0c0-12.775,12.72-23.989,30-28.212v56.423C223.72,234.837,211,223.623,211,210.848Zm90,90c0,12.775-12.72,23.989-30,28.212V272.637C288.28,276.86,301,288.073,301,300.848Z" fill="#636363"/>
</svg>
