<svg xmlns="http://www.w3.org/2000/svg" width="33.213" height="33.213" viewBox="0 0 33.213 33.213">
  <g id="Group_3383" data-name="Group 3383" transform="translate(-1058 -808)">
    <g id="corporation" transform="translate(1055 805)">
      <path id="Path_4064" data-name="Path 4064" d="M49.5,3H34.738A.738.738,0,0,0,34,3.738V36.213H50.238V3.738A.738.738,0,0,0,49.5,3Z" transform="translate(-19.56)" fill="#ef6662"/>
      <path id="Path_4065" data-name="Path 4065" d="M17.369,22.167A.369.369,0,0,1,17,21.8V17.369a.369.369,0,1,1,.738,0V21.8A.369.369,0,0,1,17.369,22.167Z" transform="translate(-8.833 -8.833)" fill="#316596"/>
      <path id="Path_4066" data-name="Path 4066" d="M14.44,29V52.618H3.738A.738.738,0,0,1,3,51.88V29.738A.738.738,0,0,1,3.738,29Z" transform="translate(0 -16.405)" fill="#f2be07"/>
      <g id="Group_3382" data-name="Group 3382" transform="translate(4.845 4.845)">
        <path id="Path_4067" data-name="Path 4067" d="M8,34h2.952v2.952H8Z" transform="translate(-8 -24.405)" fill="#efefef"/>
        <path id="Path_4068" data-name="Path 4068" d="M21,34h2.952v2.952H21Z" transform="translate(-16.203 -24.405)" fill="#efefef"/>
        <path id="Path_4069" data-name="Path 4069" d="M8,47h2.952v2.952H8Z" transform="translate(-8 -32.608)" fill="#efefef"/>
        <path id="Path_4070" data-name="Path 4070" d="M21,47h2.952v2.952H21Z" transform="translate(-16.203 -32.608)" fill="#efefef"/>
        <path id="Path_4071" data-name="Path 4071" d="M8,60h2.952v2.952H8Z" transform="translate(-8 -40.81)" fill="#efefef"/>
        <path id="Path_4072" data-name="Path 4072" d="M21,60h2.952v2.952H21Z" transform="translate(-16.203 -40.81)" fill="#efefef"/>
        <path id="Path_4073" data-name="Path 4073" d="M39,8h2.952v2.952H39Z" transform="translate(-27.56 -8)" fill="#efefef"/>
        <path id="Path_4074" data-name="Path 4074" d="M52,8h2.952v2.952H52Z" transform="translate(-35.762 -8)" fill="#efefef"/>
        <path id="Path_4075" data-name="Path 4075" d="M65,8h2.952v2.952H65Z" transform="translate(-43.965 -8)" fill="#efefef"/>
        <path id="Path_4076" data-name="Path 4076" d="M39,21h2.952v2.952H39Z" transform="translate(-27.56 -16.203)" fill="#efefef"/>
        <path id="Path_4077" data-name="Path 4077" d="M52,21h2.952v2.952H52Z" transform="translate(-35.762 -16.203)" fill="#efefef"/>
        <path id="Path_4078" data-name="Path 4078" d="M65,21h2.952v2.952H65Z" transform="translate(-43.965 -16.203)" fill="#efefef"/>
        <path id="Path_4079" data-name="Path 4079" d="M39,34h2.952v2.952H39Z" transform="translate(-27.56 -24.405)" fill="#efefef"/>
        <path id="Path_4080" data-name="Path 4080" d="M52,34h2.952v2.952H52Z" transform="translate(-35.762 -24.405)" fill="#efefef"/>
        <path id="Path_4081" data-name="Path 4081" d="M65,34h2.952v2.952H65Z" transform="translate(-43.965 -24.405)" fill="#efefef"/>
        <path id="Path_4082" data-name="Path 4082" d="M39,47h2.952v2.952H39Z" transform="translate(-27.56 -32.608)" fill="#efefef"/>
        <path id="Path_4083" data-name="Path 4083" d="M52,47h2.952v2.952H52Z" transform="translate(-35.762 -32.608)" fill="#efefef"/>
        <path id="Path_4084" data-name="Path 4084" d="M65,47h2.952v2.952H65Z" transform="translate(-43.965 -32.608)" fill="#efefef"/>
      </g>
      <path id="Path_4085" data-name="Path 4085" d="M72.536,64.321a.369.369,0,0,1-.369-.369V62.845a1.108,1.108,0,0,0-1.107-1.107H68.845a1.108,1.108,0,0,0-1.107,1.107v1.107a.369.369,0,1,1-.738,0V62.845A1.847,1.847,0,0,1,68.845,61h2.214A1.847,1.847,0,0,1,72.9,62.845v1.107A.369.369,0,0,1,72.536,64.321Z" transform="translate(-40.382 -36.596)" fill="#316596"/>
      <path id="Path_4086" data-name="Path 4086" d="M69.547,77.857H57.738A.738.738,0,0,1,57,77.119V69.738A.738.738,0,0,1,57.738,69H69.547a.738.738,0,0,1,.738.738v7.381A.738.738,0,0,1,69.547,77.857Z" transform="translate(-34.072 -41.644)" fill="#316596"/>
      <path id="Path_4087" data-name="Path 4087" d="M69.547,84.167H57.738A.738.738,0,0,1,57,83.428V79H70.285v4.428A.738.738,0,0,1,69.547,84.167Z" transform="translate(-34.072 -47.953)" fill="#6ebaed"/>
      <path id="Path_4088" data-name="Path 4088" d="M64,77h1.476v1.845H64Z" transform="translate(-38.489 -46.691)" fill="#316596"/>
      <path id="Path_4089" data-name="Path 4089" d="M82,77h1.476v1.845H82Z" transform="translate(-49.846 -46.691)" fill="#316596"/>
      <path id="Path_4090" data-name="Path 4090" d="M59.214,89.214A2.213,2.213,0,0,0,57,87v1.476a.738.738,0,0,0,.738.738Z" transform="translate(-34.072 -53.001)" fill="#f2be07"/>
      <path id="Path_4091" data-name="Path 4091" d="M87,89.214A2.213,2.213,0,0,1,89.214,87v1.476a.738.738,0,0,1-.738.738Z" transform="translate(-53.001 -53.001)" fill="#f2be07"/>
      <path id="Path_4092" data-name="Path 4092" d="M9.71,7.572a.373.373,0,0,1,.558.036,3.322,3.322,0,0,1-4.66,4.66.373.373,0,0,1-.036-.558Z" transform="translate(-1.554 -2.816)" fill="#3ba1e3"/>
      <path id="Path_4093" data-name="Path 4093" d="M40,79.119V71.738A.738.738,0,0,1,40.738,71H43.69a.738.738,0,0,1,.738.738v7.381H40Z" transform="translate(-23.346 -42.906)" fill="#316596"/>
      <path id="Path_4094" data-name="Path 4094" d="M64.845,76H63.369a.369.369,0,0,0-.369.369v1.845a.369.369,0,0,0,.369.369h.369v.738a.369.369,0,0,0,.738,0v-.738h.369a.369.369,0,0,0,.369-.369V76.369A.369.369,0,0,0,64.845,76Zm-.369,1.845h-.738V76.738h.738Z" transform="translate(-37.858 -46.06)" fill="#f2be07"/>
      <path id="Path_4095" data-name="Path 4095" d="M82.845,76H81.369a.369.369,0,0,0-.369.369v1.845a.369.369,0,0,0,.369.369h.369v.738a.369.369,0,0,0,.738,0v-.738h.369a.369.369,0,0,0,.369-.369V76.369A.369.369,0,0,0,82.845,76Zm-.369,1.845h-.738V76.738h.738Z" transform="translate(-49.215 -46.06)" fill="#f2be07"/>
      <circle id="Ellipse_491" data-name="Ellipse 491" cx="0.5" cy="0.5" r="0.5" transform="translate(17 26)" fill="#e05551"/>
      <circle id="Ellipse_492" data-name="Ellipse 492" cx="0.5" cy="0.5" r="0.5" transform="translate(18 26)" fill="#e05551"/>
      <circle id="Ellipse_493" data-name="Ellipse 493" cx="0.5" cy="0.5" r="0.5" transform="translate(20 26)" fill="#e05551"/>
    </g>
  </g>
</svg>
