<svg xmlns="http://www.w3.org/2000/svg" width="25.304" height="35.197" viewBox="0 0 25.304 35.197">
  <g id="Group_3385" data-name="Group 3385" transform="translate(-967 -805.401)">
    <g id="Group_3322" data-name="Group 3322" transform="translate(-91 -7)">
      <g id="idea" transform="translate(1057.999 803.922)">
        <g id="Group_3345" data-name="Group 3345" transform="translate(0.641 0.64)">
          <g id="Group_3344" data-name="Group 3344" transform="translate(0 8.479)">
            <path id="Path_4004" data-name="Path 4004" d="M15.98,388.537H13.154A5.653,5.653,0,0,0,7.5,394.19v2.827a1.413,1.413,0,0,0,1.413,1.413h21.2a1.413,1.413,0,0,0,1.413-1.413V394.19a5.653,5.653,0,0,0-5.653-5.653H15.98Z" transform="translate(-7.501 -364.512)" fill="#68d9c0"/>
            <g id="Group_3343" data-name="Group 3343" transform="translate(16.411 24.025)">
              <g id="Group_3342" data-name="Group 3342">
                <path id="Path_4005" data-name="Path 4005" d="M201.845,388.537h-1.961a5.652,5.652,0,0,1,5.651,5.652v2.827a1.413,1.413,0,0,1-1.413,1.413h1.962a1.413,1.413,0,0,0,1.413-1.413V394.19A5.652,5.652,0,0,0,201.845,388.537Z" transform="translate(-199.884 -388.537)" fill="#4fc6b9"/>
              </g>
            </g>
            <path id="Path_4006" data-name="Path 4006" d="M106.9,339.753h7.066v6.419H106.9Z" transform="translate(-98.421 -319.89)" fill="#fb9"/>
            <path id="Path_4007" data-name="Path 4007" d="M48.918,115.8v-3.249a5.653,5.653,0,0,1,5.653-5.653h5.653a5.653,5.653,0,0,1,5.653,5.653V115.8Z" transform="translate(-45.385 -106.901)" fill="#595353"/>
            <path id="Path_4008" data-name="Path 4008" d="M50.724,211.954a1.413,1.413,0,0,0,1.413-1.413v-2.826a1.413,1.413,0,0,0-1.413-1.413H33.765a1.413,1.413,0,0,0-1.413,1.413v2.826a1.413,1.413,0,0,0,1.413,1.413Z" transform="translate(-30.232 -197.822)" fill="#fb9"/>
            <path id="Path_4009" data-name="Path 4009" d="M226.68,206.3h-1.962a1.413,1.413,0,0,1,1.413,1.413v2.826a1.413,1.413,0,0,1-1.413,1.413h1.962a1.413,1.413,0,0,0,1.413-1.413v-2.826A1.413,1.413,0,0,0,226.68,206.3Z" transform="translate(-206.188 -197.823)" fill="#ffa27d"/>
            <path id="Path_4010" data-name="Path 4010" d="M65.485,167.751v8.942a7.066,7.066,0,0,0,14.132,0v-8.942Z" transform="translate(-60.539 -162.56)" fill="#ffd9b3"/>
            <path id="Path_4011" data-name="Path 4011" d="M107.691,408.208H99.334l4.179,5.653Z" transform="translate(-91.5 -382.505)" fill="#cfd7e6"/>
            <path id="Path_4012" data-name="Path 4012" d="M59.553,142.456h5.89a4.24,4.24,0,0,0,4.24-4.24V136.5H59.553L59,139.63Z" transform="translate(-54.607 -133.977)" fill="#595353"/>
            <path id="Path_4013" data-name="Path 4013" d="M185.691,163.106h-1.413a2.826,2.826,0,0,1-2.826-2.826v-1.2h4.4Z" transform="translate(-166.612 -154.626)" fill="#595353"/>
            <path id="Path_4014" data-name="Path 4014" d="M164.106,115.381h1.962v-2.826a5.653,5.653,0,0,0-5.653-5.653h-1.962a5.653,5.653,0,0,1,5.653,5.653Z" transform="translate(-145.576 -106.902)" fill="#403939"/>
            <path id="Path_4015" data-name="Path 4015" d="M84.1,395.865l-5.674-3.783a.707.707,0,0,1-.13-1.065l2.27-2.484,3.533,7.331,3.533-7.331,2.271,2.484a.707.707,0,0,1-.13,1.065Z" transform="translate(-72.088 -364.509)" fill="#f3f5f9"/>
          </g>
        </g>
        <g id="Group_3346" data-name="Group 3346" transform="translate(0.001 0)">
          <path id="Path_4022" data-name="Path 4022" d="M108.325,231.935a.64.64,0,0,0-.64.64v.707a.64.64,0,0,0,1.28,0v-.707A.64.64,0,0,0,108.325,231.935Z" transform="translate(-98.499 -212.15)"/>
          <path id="Path_4023" data-name="Path 4023" d="M174.591,233.921a.64.64,0,0,0,.64-.64v-.707a.64.64,0,0,0-1.28,0v.707A.64.64,0,0,0,174.591,233.921Z" transform="translate(-159.112 -212.15)"/>
          <path id="Path_4024" data-name="Path 4024" d="M130.114,274.313a.64.64,0,1,0-1.107-.642.773.773,0,0,1-1.34,0,.64.64,0,1,0-1.107.642,2.052,2.052,0,0,0,3.554,0Z" transform="translate(-115.685 -250.034)"/>
          <path id="Path_4025" data-name="Path 4025" d="M19.013,123.426H16.826v-2.777a7.712,7.712,0,0,0,3.506-5.836h.8a2.055,2.055,0,0,0,2.053-2.053v-2.826a2.057,2.057,0,0,0-1.413-1.95v-2.289A6.3,6.3,0,0,0,15.48,99.4H9.827a6.3,6.3,0,0,0-6.293,6.293v2.289a2.056,2.056,0,0,0-1.413,1.95v2.826a2.055,2.055,0,0,0,2.053,2.053h.8a7.712,7.712,0,0,0,3.506,5.836v2.778H6.293A6.3,6.3,0,0,0,0,129.718v2.827A2.055,2.055,0,0,0,2.054,134.6h2.32a.64.64,0,1,0,0-1.28H2.054a.774.774,0,0,1-.773-.773v-2.827a5.018,5.018,0,0,1,5.013-5.013H7.668l-1.291,1.412a1.346,1.346,0,0,0,.247,2.029l5.674,3.783a.638.638,0,0,0,.707,0h0l.007,0,0,0,5.664-3.776a1.346,1.346,0,0,0,.247-2.029l-1.291-1.412h1.374a5.018,5.018,0,0,1,5.013,5.013v2.827a.774.774,0,0,1-.773.773H6.933a.64.64,0,0,0,0,1.28H23.252a2.055,2.055,0,0,0,2.053-2.053v-2.827a6.3,6.3,0,0,0-6.292-6.292Zm2.893-10.666a.774.774,0,0,1-.773.773h-.773V109.16h.773a.774.774,0,0,1,.773.773ZM9.827,100.681H15.48a5.019,5.019,0,0,1,5.013,5.013v2.187H18.306a2.189,2.189,0,0,1-2.185-2.1,4.859,4.859,0,0,0,.235-1.5.64.64,0,0,0-1.28,0,3.6,3.6,0,0,1-3.6,3.6H4.814v-2.187a5.019,5.019,0,0,1,5.013-5.013ZM3.4,112.76v-2.826a.774.774,0,0,1,.773-.773h.773v4.373H4.174A.774.774,0,0,1,3.4,112.76Zm2.827,1.413V109.16h5.25a4.872,4.872,0,0,0,3.787-1.806,3.469,3.469,0,0,0,3.042,1.806h.773v5.013h0a6.426,6.426,0,1,1-12.852,0Zm6.426,7.706a7.664,7.664,0,0,0,2.893-.564v2.6l-.571,1.184H10.331L9.76,123.92v-2.6a7.663,7.663,0,0,0,2.893.564Zm1.706,4.5-1.706,3.539-1.706-3.539Zm-7.054.65a.063.063,0,0,1,.017-.053L8.954,125.2l2.107,4.371-3.727-2.485a.063.063,0,0,1-.029-.048Zm10.7,0a.064.064,0,0,1-.029.048l-3.727,2.485,2.107-4.371,1.633,1.786A.063.063,0,0,1,18,127.034Z" transform="translate(-0.001 -90.922)"/>
        </g>
      </g>
    </g>
  </g>
</svg>
