<svg xmlns="http://www.w3.org/2000/svg" width="18.352" height="38.575" viewBox="0 0 18.352 38.575">
  <g id="Group_3384" data-name="Group 3384" transform="translate(-1058.824 -803.213)">
    <g id="Group_3323" data-name="Group 3323" transform="translate(-99 -7)">
      <g id="Group_3370" data-name="Group 3370">
        <g id="goverment" transform="translate(861.987 753.515)">
          <g id="Group_3367" data-name="Group 3367" transform="translate(295.837 56.698)">
            <g id="Group_3365" data-name="Group 3365" transform="translate(1.071 0)">
              <circle id="Ellipse_484" data-name="Ellipse 484" cx="3.268" cy="3.268" r="3.268" transform="translate(4.691)" fill="#ffb69e"/>
              <path id="Path_4054" data-name="Path 4054" d="M399.013,145.226l2.174-.394h2.006a3.754,3.754,0,0,1,3.76,3.713v11.312c-1.051.008-2.1.042-3.153.045V148.558a.6.6,0,0,0-.606-.572h-.084v11.958h-4.237l-.308-7.556Z" transform="translate(-390.914 -137.349)" fill="#1e2d64"/>
              <path id="Path_4055" data-name="Path 4055" d="M312.211,144.832h2.026l2.314.394v14.718h-4.256V147.985h-.084a.6.6,0,0,0-.606.573v4.1h-3.153v-4.116A3.754,3.754,0,0,1,312.211,144.832Z" transform="translate(-308.451 -137.349)" fill="#0f1446"/>
              <path id="Path_4056" data-name="Path 4056" d="M381.085,144.832s-.508,3.036-1.636,3.895h-1.216c-1.128-.858-1.636-3.895-1.636-3.895h1.633l.612.232.611-.232Z" transform="translate(-370.811 -137.349)" fill="#fff"/>
              <g id="Group_3363" data-name="Group 3363" transform="translate(7.173 7.483)">
                <path id="Path_4057" data-name="Path 4057" d="M393.172,144.832h1.223a.246.246,0,0,1,.242.291l-.2,1.091a.246.246,0,0,1-.242.2h-.82a.246.246,0,0,1-.242-.2l-.2-1.091A.246.246,0,0,1,393.172,144.832Z" transform="translate(-392.925 -144.832)" fill="#1e2124"/>
              </g>
              <g id="Group_3364" data-name="Group 3364" transform="translate(7.249 9.321)">
                <path id="Path_4058" data-name="Path 4058" d="M394.026,166.646a.2.2,0,0,1,.2-.163h.762a.2.2,0,0,1,.2.163l.2,1.01a.2.2,0,0,1,0,.08l-.169.8a.938.938,0,0,1-1.216,0l-.169-.8a.2.2,0,0,1,0-.08Z" transform="translate(-393.824 -166.483)" fill="#1e2124"/>
              </g>
              <path id="Path_4059" data-name="Path 4059" d="M311.6,215.544v2.225h3.671l.588,1.577-.588,1.577h-5.248a1.577,1.577,0,0,1-1.577-1.577v-3.8H311.6Z" transform="translate(-308.449 -202.057)" fill="#0f1446"/>
              <path id="Path_4060" data-name="Path 4060" d="M388.829,241.745h1.135l.506,1.577-.506,1.577h-1.135Z" transform="translate(-382.004 -226.033)" fill="#fff"/>
              <path id="Path_4061" data-name="Path 4061" d="M402.192,241.745a1.577,1.577,0,1,1,0,3.153Z" transform="translate(-394.233 -226.033)" fill="#ffb69e"/>
            </g>
            <g id="Group_3366" data-name="Group 3366" transform="translate(0.849 19.091)">
              <path id="Path_4062" data-name="Path 4062" d="M305.837,281.546l1.708,18.509a1.073,1.073,0,0,0,1.068.974H319.8a1.073,1.073,0,0,0,1.069-.979l1.623-18.5Z" transform="translate(-305.837 -281.546)" fill="#a55a3c"/>
            </g>
            <path id="Path_4063" data-name="Path 4063" d="M295.837,279.251v1a.7.7,0,0,0,.7.7h16.942a.7.7,0,0,0,.7-.7v-1a.7.7,0,0,0-.7-.7H296.542A.7.7,0,0,0,295.837,279.251Z" transform="translate(-295.837 -259.71)" fill="#783c28"/>
          </g>
        </g>
      </g>
    </g>
  </g>
</svg>
