<svg xmlns="http://www.w3.org/2000/svg" width="27.913" height="35.551" viewBox="0 0 27.913 35.551">
  <g id="graduated" transform="translate(-54.997 0)">
    <g id="Group_3341" data-name="Group 3341" transform="translate(54.997 0)">
      <g id="Group_3330" data-name="Group 3330" transform="translate(0 16.89)">
        <path id="Path_3985" data-name="Path 3985" d="M171.023,252.181l-3.683-4.026v-4.9h-6.423v4.9l-3.642,4.024Z" transform="translate(-150.173 -243.258)" fill="#ffddce"/>
        <path id="Path_3986" data-name="Path 3986" d="M75.177,325l-3.3-.969-2.922,3.35L63.9,321.585l-5.37,1.576A4.922,4.922,0,0,0,55,327.883v5.181a1.742,1.742,0,0,0,1.742,1.742H59.1l.426-.3h.221l.426.3H77.731l.625-.446h.518v-4.425A5.146,5.146,0,0,0,75.177,325Z" transform="translate(-54.997 -316.146)" fill="#407093"/>
        <path id="Path_3987" data-name="Path 3987" d="M300.681,323.155l-5.369-1.576-2.5,2.862,3.335.979a4.922,4.922,0,0,1,3.535,4.722v4.212h.423v.446h2.365a1.742,1.742,0,0,0,1.742-1.742v-5.181A4.922,4.922,0,0,0,300.681,323.155Z" transform="translate(-276.303 -316.141)" fill="#365e7d"/>
        <g id="Group_3329" data-name="Group 3329" transform="translate(4.104 15.275)">
          <g id="Group_3328" data-name="Group 3328">
            <g id="Group_3327" data-name="Group 3327">
              <g id="Group_3326" data-name="Group 3326">
                <path id="Path_3988" data-name="Path 3988" d="M115.176,466.63v-2.849a.536.536,0,1,0-1.073,0v2.849Z" transform="translate(-114.103 -463.245)" fill="#365e7d"/>
                <path id="Path_3989" data-name="Path 3989" d="M383.484,466.63v-2.849a.536.536,0,1,0-1.073,0v2.849Z" transform="translate(-363.781 -463.245)" fill="#365e7d"/>
              </g>
            </g>
          </g>
        </g>
      </g>
      <g id="Group_3338" data-name="Group 3338" transform="translate(1.269 0)">
        <g id="Group_3337" data-name="Group 3337">
          <path id="Path_3990" data-name="Path 3990" d="M76.287,143.057l-.55-.606H74.561l-.55.606-.725,4.254a.658.658,0,0,0,.648.768h2.428a.658.658,0,0,0,.648-.768Z" transform="translate(-73.277 -132.56)" fill="#e4f6ff"/>
          <path id="Path_3991" data-name="Path 3991" d="M93.587,57v-5.38a.536.536,0,0,0-1.073,0V57Z" transform="translate(-91.178 -47.542)" fill="#407093"/>
          <g id="Group_3334" data-name="Group 3334" transform="translate(5.82 3.653)">
            <g id="Group_3333" data-name="Group 3333">
              <g id="Group_3332" data-name="Group 3332">
                <g id="Group_3331" data-name="Group 3331">
                  <path id="Path_3992" data-name="Path 3992" d="M166.939,52.607h-5.947A3.893,3.893,0,0,0,157.1,56.5v3.755l.644.567h13.088V56.5A3.893,3.893,0,0,0,166.939,52.607Z" transform="translate(-157.1 -52.607)" fill="#efc984"/>
                </g>
              </g>
            </g>
          </g>
          <path id="Path_3993" data-name="Path 3993" d="M290.466,52.607h-.622v8.214h3.921l.594-.567V56.5A3.893,3.893,0,0,0,290.466,52.607Z" transform="translate(-274.807 -48.954)" fill="#eabc6b"/>
          <g id="Group_3335" data-name="Group 3335" transform="translate(5.821 8.334)">
            <path id="Path_3994" data-name="Path 3994" d="M163.983,131.416q.1,0,.193,0a5.762,5.762,0,0,0,2.672-4.589v-6.8h-7.386v1.789a1.177,1.177,0,0,1-1.177,1.177h-1.169v1.925a.89.89,0,0,0,.89.89.293.293,0,0,1,.291.276A5.7,5.7,0,0,0,163.983,131.416Z" transform="translate(-157.117 -120.025)" fill="#ffddce"/>
          </g>
          <path id="Path_3995" data-name="Path 3995" d="M253.31,122.991a1.177,1.177,0,0,1-1.177-1.177v-1.789h-2.17v6.624a5.7,5.7,0,0,1-2.976,4.732,5.689,5.689,0,0,0,6.31-5.3.293.293,0,0,1,.291-.276.89.89,0,0,0,.89-.89v-1.925Z" transform="translate(-234.926 -111.691)" fill="#ffcbbe"/>
          <path id="Path_3996" data-name="Path 3996" d="M104.894,6.05V4.724a1.191,1.191,0,0,1-1.182-1.191V1.15l-.5-.8-1-.318a.607.607,0,0,0-.368,0L90.964,3.489a.608.608,0,0,0,.082,1.178l10.982,1.87Z" transform="translate(-89.342 0)" fill="#407093"/>
          <path id="Path_3997" data-name="Path 3997" d="M160.935,64.637l-1.582-.2a10.457,10.457,0,0,0-2.568,0l-6.022.745V67.87a.527.527,0,0,0,.527.527h9.646Z" transform="translate(-145.383 -59.893)" fill="#4a80aa"/>
          <g id="Group_3336" data-name="Group 3336" transform="translate(13.87 0.346)">
            <path id="Path_3998" data-name="Path 3998" d="M282.909,8.133l-9.88-3.143V8.139A1.177,1.177,0,0,0,274.2,9.315v1.466l8.631-1.47A.608.608,0,0,0,282.909,8.133Z" transform="translate(-273.029 -4.99)" fill="#365e7d"/>
          </g>
          <path id="Path_3999" data-name="Path 3999" d="M289.845,67.4v3.823h4.431a.527.527,0,0,0,.527-.527V68.015Z" transform="translate(-274.808 -62.722)" fill="#407093"/>
          <path id="Path_4000" data-name="Path 4000" d="M86.129,123.465H83.854v-1.494a.575.575,0,0,1,.575-.575h1.126a.575.575,0,0,1,.575.575v1.494Z" transform="translate(-83.12 -112.968)" fill="#ffe07d"/>
        </g>
      </g>
      <g id="Group_3339" data-name="Group 3339" transform="translate(5.761 19.995)">
        <path id="Path_4001" data-name="Path 4001" d="M259.21,287.969a10.762,10.762,0,0,1-1.741,5.869L256,296.1l8.2-4.87Z" transform="translate(-247.804 -287.969)" fill="#4a80aa"/>
        <path id="Path_4002" data-name="Path 4002" d="M142.946,287.969a10.762,10.762,0,0,0,1.741,5.869l1.469,2.258-8.2-4.87Z" transform="translate(-137.96 -287.969)" fill="#4a80aa"/>
      </g>
      <g id="Group_3340" data-name="Group 3340" transform="translate(11.221 23.15)">
        <path id="Path_4003" data-name="Path 4003" d="M222.07,333.411a13.117,13.117,0,0,1-5.472,0,10.761,10.761,0,0,0,1.267,2.714l1.469,2.258,1.469-2.258A10.758,10.758,0,0,0,222.07,333.411Z" transform="translate(-216.598 -333.411)" fill="#f4fbff"/>
      </g>
    </g>
  </g>
</svg>
