<svg xmlns="http://www.w3.org/2000/svg" width="23.738" height="28.961" viewBox="0 0 23.738 28.961">
  <g id="import" transform="translate(-64)">
    <g id="Group_5207" data-name="Group 5207" transform="translate(64 9.495)">
      <g id="Group_5206" data-name="Group 5206" transform="translate(0)">
        <path id="Path_5271" data-name="Path 5271" d="M86.947,153.6H79.826v1.39h6.33v16.685H65.583V154.99h6.33V153.6H64.791a.748.748,0,0,0-.791.7V172.37a.748.748,0,0,0,.791.7H86.947a.748.748,0,0,0,.791-.7V154.3A.748.748,0,0,0,86.947,153.6Z" transform="translate(-64 -153.6)" fill="#636363"/>
      </g>
    </g>
    <g id="Group_5209" data-name="Group 5209" transform="translate(70.33)">
      <g id="Group_5208" data-name="Group 5208">
        <path id="Path_5272" data-name="Path 5272" d="M177.257,14.481a.791.791,0,0,0-1.119-.013l-3.4,3.329V.791a.791.791,0,1,0-1.582,0V17.8l-3.4-3.329a.791.791,0,1,0-1.106,1.132l4.748,4.644a.791.791,0,0,0,1.119-.012l4.735-4.632A.791.791,0,0,0,177.257,14.481Z" transform="translate(-166.404)" fill="#636363"/>
      </g>
    </g>
  </g>
</svg>
