<svg xmlns="http://www.w3.org/2000/svg" width="24.641" height="24.559" viewBox="0 0 24.641 24.559">
  <g id="logout_1_" data-name="logout (1)" transform="translate(0 -0.85)">
    <g id="Group_4178" data-name="Group 4178" transform="translate(0 0.85)">
      <g id="Group_4177" data-name="Group 4177">
        <path id="Path_4614" data-name="Path 4614" d="M12.279,23.362H3.07a1.024,1.024,0,0,1-1.023-1.023V3.92A1.024,1.024,0,0,1,3.07,2.9h9.21a1.023,1.023,0,0,0,0-2.047H3.07A3.074,3.074,0,0,0,0,3.92V22.339a3.074,3.074,0,0,0,3.07,3.07h9.21a1.023,1.023,0,1,0,0-2.047Z" transform="translate(0 -0.85)" fill="#636363"/>
      </g>
    </g>
    <g id="Group_4180" data-name="Group 4180" transform="translate(8.186 5.967)">
      <g id="Group_4179" data-name="Group 4179">
        <path id="Path_4615" data-name="Path 4615" d="M186.249,113.6l-6.222-6.14a1.023,1.023,0,0,0-1.437,1.457l4.446,4.388H171.123a1.023,1.023,0,0,0,0,2.047h11.914l-4.446,4.388a1.023,1.023,0,1,0,1.437,1.457l6.222-6.14a1.023,1.023,0,0,0,0-1.457Z" transform="translate(-170.1 -107.165)" fill="#636363"/>
      </g>
    </g>
  </g>
</svg>
