<svg xmlns="http://www.w3.org/2000/svg" width="26.319" height="28.074" viewBox="0 0 26.319 28.074">
  <g id="share_1_" data-name="share (1)" transform="translate(-16)">
    <g id="Group_4992" data-name="Group 4992" transform="translate(16)">
      <path id="Path_5249" data-name="Path 5249" d="M37.384,18.2a4.931,4.931,0,0,0-3.969,2.005L25.67,16.251a4.935,4.935,0,0,0-.16-3.242l8.118-4.878a4.915,4.915,0,1,0-.844-1.412l-8.139,4.89a4.934,4.934,0,1,0,.3,6.12l7.724,3.947A4.935,4.935,0,1,0,37.384,18.2Zm0-16.559a3.29,3.29,0,1,1-3.29,3.29A3.294,3.294,0,0,1,37.384,1.645Zm-16.449,16.5a3.29,3.29,0,1,1,3.29-3.29A3.294,3.294,0,0,1,20.935,18.149Zm16.449,8.28a3.29,3.29,0,1,1,3.29-3.29A3.294,3.294,0,0,1,37.384,26.429Z" transform="translate(-16)" fill="#636363"/>
    </g>
  </g>
</svg>
