<svg xmlns="http://www.w3.org/2000/svg" width="107.257" height="122.034" viewBox="0 0 107.257 122.034">
  <g id="user_9_" data-name="user (9)" transform="translate(-31)">
    <g id="Group_5623" data-name="Group 5623" transform="translate(52.451)">
      <g id="Group_5622" data-name="Group 5622">
        <path id="Path_5412" data-name="Path 5412" d="M153.177,0a32.177,32.177,0,1,0,32.177,32.177A32.214,32.214,0,0,0,153.177,0Z" transform="translate(-121)" fill="#b5b5b5"/>
      </g>
    </g>
    <g id="Group_5625" data-name="Group 5625" transform="translate(31 71.504)">
      <g id="Group_5624" data-name="Group 5624">
        <path id="Path_5413" data-name="Path 5413" d="M124.663,313.871A45.87,45.87,0,0,0,91.779,300h-14.3a45.87,45.87,0,0,0-32.884,13.871A46.893,46.893,0,0,0,31,346.955a3.575,3.575,0,0,0,3.575,3.575H134.681a3.575,3.575,0,0,0,3.575-3.575A46.893,46.893,0,0,0,124.663,313.871Z" transform="translate(-31 -300)" fill="#b5b5b5"/>
      </g>
    </g>
  </g>
</svg>
