<svg id="wallet-filled-money-tool_1_" data-name="wallet-filled-money-tool (1)" xmlns="http://www.w3.org/2000/svg" width="37.577" height="36.071" viewBox="0 0 37.577 36.071">
  <g id="Group_1771" data-name="Group 1771" transform="translate(0 0)">
    <path id="Path_2925" data-name="Path 2925" d="M161.551,24.707l14.98-4.089-.793-1.6a2.111,2.111,0,0,0-2.827-.954L159.5,24.707Z" transform="translate(-152.77 -17.84)" fill="#fff"/>
    <path id="Path_2926" data-name="Path 2926" d="M336.824,86.46a2.109,2.109,0,0,0-.557.076l-3.519.962L322,90.431h17.516l-.658-2.414A2.106,2.106,0,0,0,336.824,86.46Z" transform="translate(-308.412 -83.564)" fill="#fff"/>
    <path id="Path_2927" data-name="Path 2927" d="M33.3,215.56H2.114a2.113,2.113,0,0,0-2.038,1.557A2.184,2.184,0,0,0,0,217.67v23.508a2.111,2.111,0,0,0,2.11,2.11H33.3a2.111,2.111,0,0,0,2.11-2.11v-5.887H22.888A3.589,3.589,0,0,1,19.3,231.7v-4.692a3.582,3.582,0,0,1,3.583-3.583H35.408v-5.76A2.1,2.1,0,0,0,33.3,215.56Z" transform="translate(0 -207.217)" fill="#fff"/>
    <path id="Path_2928" data-name="Path 2928" d="M508.511,437.314a2.108,2.108,0,0,0-.738-.439,2.152,2.152,0,0,0-.684-.114H494.51a2.111,2.111,0,0,0-2.11,2.11v4.7a2.111,2.111,0,0,0,2.11,2.11h12.579a2.15,2.15,0,0,0,.684-.114,2.047,2.047,0,0,0,.738-.439,2.1,2.1,0,0,0,.688-1.557v-4.7A2.1,2.1,0,0,0,508.511,437.314Zm-9.6,4.325a1.055,1.055,0,0,1-1.055,1.055h-.7a1.055,1.055,0,0,1-1.055-1.055v-.7a1.034,1.034,0,0,1,.405-.827,1.066,1.066,0,0,1,.65-.228h.7a1.055,1.055,0,0,1,1.055,1.055v.7Z" transform="translate(-471.622 -419.084)" fill="#fff"/>
  </g>
</svg>
