<svg xmlns="http://www.w3.org/2000/svg" width="72.688" height="89.7" viewBox="0 0 72.688 89.7">
  <g id="Group_5597" data-name="Group 5597" transform="translate(23244 -4413)">
    <g id="Group_5595" data-name="Group 5595">
      <g id="Group_5594" data-name="Group 5594">
        <g id="manual" transform="translate(-23244 4413)">
          <path id="Path_3170" data-name="Path 3170" d="M60.924,0A12.409,12.409,0,0,0,48.552,12.372V74.708c.019-.031.028-.063.046-.093a1.192,1.192,0,0,1,.951-.588A12.412,12.412,0,0,1,60.924,66.5H121.24V0Z" transform="translate(-48.552)" fill="#dd352e"/>
          <path id="Path_3171" data-name="Path 3171" d="M60.923,353.1a12.372,12.372,0,1,0,0,24.745H71.749V365.475h9.279v12.372h40.21V353.1Z" transform="translate(-48.551 -291.241)" fill="#f2ecbf"/>
          <path id="Path_3172" data-name="Path 3172" d="M90.048,388.413a6.186,6.186,0,1,0,0,12.372h10.826V394.6h9.279v6.186h40.21V388.413H90.048Z" transform="translate(-77.676 -320.365)" fill="#ccc496"/>
          <g id="Group_2161" data-name="Group 2161" transform="translate(10.826 72.688)">
            <path id="Path_3173" data-name="Path 3173" d="M122.717,417.989H111.892a1.547,1.547,0,0,1,0-3.093h10.826a1.547,1.547,0,1,1,0,3.093Z" transform="translate(-110.345 -414.896)" fill="#ada477"/>
            <path id="Path_3174" data-name="Path 3174" d="M235.929,417.989H226.65a1.547,1.547,0,0,1,0-3.093h9.279a1.547,1.547,0,1,1,0,3.093Z" transform="translate(-204.998 -414.896)" fill="#ada477"/>
          </g>
          <path id="Path_3175" data-name="Path 3175" d="M59.378.618A12.408,12.408,0,0,0,48.552,12.882V74.744A12.419,12.419,0,0,1,59.378,62.469Z" transform="translate(-48.552 -0.51)" fill="#b02721"/>
          <g id="Group_2162" data-name="Group 2162" transform="translate(0 10.718)">
            <path id="Path_3176" data-name="Path 3176" d="M48.552,73.439v9.5A12.408,12.408,0,0,1,59.378,70.671v-9.5A12.408,12.408,0,0,0,48.552,73.439Z" transform="translate(-48.552 -61.175)" fill="#911c1c"/>
            <path id="Path_3177" data-name="Path 3177" d="M48.552,215.3v9.5A12.408,12.408,0,0,1,59.378,212.53v-9.5A12.408,12.408,0,0,0,48.552,215.3Z" transform="translate(-48.552 -178.181)" fill="#911c1c"/>
          </g>
          <path id="Path_3178" data-name="Path 3178" d="M190.245,431.909l-4.64-4.64-4.64,4.64V414.9h9.279Z" transform="translate(-157.768 -342.209)" fill="#366db6"/>
          <path id="Path_3179" data-name="Path 3179" d="M419.761,414.9h-7.733a1.547,1.547,0,0,0,0,3.093h7.733Z" transform="translate(-347.073 -342.209)" fill="#ada477"/>
          <path id="Path_3180" data-name="Path 3180" d="M241.026,65.34a12.373,12.373,0,1,0-19.946,9.777,7.2,7.2,0,0,1,2.934,5.656v1.579h9.279v-1.4A7.014,7.014,0,0,1,236,75.283,12.333,12.333,0,0,0,241.026,65.34Z" transform="translate(-186.897 -43.688)" fill="#ebba16"/>
          <path id="Path_3181" data-name="Path 3181" d="M265.054,265.279h0a4.639,4.639,0,0,1-4.64-4.64V256h9.279v4.64A4.64,4.64,0,0,1,265.054,265.279Z" transform="translate(-223.297 -211.15)" fill="#e7eced"/>
          <g id="Group_2163" data-name="Group 2163" transform="translate(35.571 20.105)">
            <path id="Path_3182" data-name="Path 3182" d="M279.616,156.706a1.546,1.546,0,0,1-1.547-1.547V142.787a1.547,1.547,0,1,1,3.093,0v12.372A1.546,1.546,0,0,1,279.616,156.706Z" transform="translate(-273.429 -136.6)" fill="#ed8a19"/>
            <path id="Path_3183" data-name="Path 3183" d="M257.772,122.491a1.546,1.546,0,0,1-1.547-1.547,3.1,3.1,0,0,0-3.093-3.093,1.547,1.547,0,0,1,0-3.093,6.192,6.192,0,0,1,6.186,6.186A1.546,1.546,0,0,1,257.772,122.491Z" transform="translate(-251.586 -114.758)" fill="#ed8a19"/>
            <path id="Path_3184" data-name="Path 3184" d="M279.616,122.492a1.546,1.546,0,0,1-1.547-1.547,6.192,6.192,0,0,1,6.186-6.186,1.547,1.547,0,1,1,0,3.093,3.1,3.1,0,0,0-3.093,3.093A1.546,1.546,0,0,1,279.616,122.492Z" transform="translate(-273.429 -114.759)" fill="#ed8a19"/>
            <path id="Path_3185" data-name="Path 3185" d="M268.147,161.989h-6.186a1.547,1.547,0,0,1,0-3.093h6.186a1.547,1.547,0,1,1,0,3.093Z" transform="translate(-258.867 -151.163)" fill="#ed8a19"/>
          </g>
          <rect id="Rectangle_1594" data-name="Rectangle 1594" width="15.466" height="6.186" transform="translate(34.024 38.664)" fill="#afb6bb"/>
        </g>
      </g>
    </g>
  </g>
</svg>
