<svg xmlns="http://www.w3.org/2000/svg" width="101.279" height="83.997" viewBox="0 0 101.279 83.997">
  <g id="Group_5596" data-name="Group 5596" transform="translate(23007 -4446)">
    <path id="Path_5407" data-name="Path 5407" d="M125.792,126.842l.012,0v-71.2c-1.181-.6-13.967-10.8-32.68-11.788L90,43.686V114.91l2.825.136C113.184,116.018,123.373,125.609,125.792,126.842Z" transform="translate(-23079.197 4402.314)" fill="#00a1e5"/>
    <path id="Path_5408" data-name="Path 5408" d="M301,91.055v71.24a103.358,103.358,0,0,1,41.738,1.164V92.286a103.435,103.435,0,0,0-22.744-2.869A98.723,98.723,0,0,0,301,91.055Zm8.9,51.311V107.543l26.119,17.412Z" transform="translate(-23248.459 4365.634)" fill="#00a1e5"/>
    <path id="Path_5409" data-name="Path 5409" d="M376,237.118v12.651l9.487-6.325Z" transform="translate(-23308.623 4247.146)" fill="#00a1e5"/>
    <path id="Path_5410" data-name="Path 5410" d="M37.607,165.82a53.611,53.611,0,0,0-17.262-3.587l-8.476-.408V95.118A108.25,108.25,0,0,0,0,97.543v71.4l3.686-.924A96.425,96.425,0,0,1,37.607,165.82Z" transform="translate(-23007 4361.056)" fill="#00a1e5"/>
  </g>
</svg>
