<svg xmlns="http://www.w3.org/2000/svg" width="54.76" height="54.079" viewBox="0 0 54.76 54.079">
  <g id="_14834940801536043550" data-name="14834940801536043550" transform="translate(-10 -2)">
    <path id="Path_4683" data-name="Path 4683" d="M63.239,57.371H60.176V15.521A1.021,1.021,0,0,0,59.156,14.5H49.629a1.021,1.021,0,0,0-1.021,1.021V57.371H43.164v-26.2a1.021,1.021,0,0,0-1.021-1.021H32.616A1.021,1.021,0,0,0,31.6,31.172v26.2H26.151V46.143a1.021,1.021,0,0,0-1.021-1.021H15.6a1.021,1.021,0,0,0-1.021,1.021V57.371H11.521a1.021,1.021,0,1,0,0,2.041H63.239a1.021,1.021,0,1,0,0-2.041ZM50.649,16.541h7.485v40.83H50.649ZM33.637,32.193h7.485V57.371H33.637ZM16.624,47.164H24.11V57.371H16.624Z" transform="translate(0 -3.834)" fill="#636363" stroke="#636363" stroke-width="1"/>
    <path id="Path_4684" data-name="Path 4684" d="M12.521,34.483a1.021,1.021,0,0,0,.721-.3l28.2-28.2v4.342a1.021,1.021,0,0,0,2.041,0v-6.8a1.014,1.014,0,0,0-.075-.374h0a1.021,1.021,0,0,0-.558-.558h0a1.014,1.014,0,0,0-.388-.088h-6.8a1.021,1.021,0,0,0,0,2.041H40l-28.2,28.2a1.021,1.021,0,0,0,.721,1.742Z" transform="translate(-0.32)" fill="#636363" stroke="#636363" stroke-width="1"/>
  </g>
</svg>
