<svg xmlns="http://www.w3.org/2000/svg" width="72.383" height="75.347" viewBox="0 0 72.383 75.347">
  <g id="Group_4026" data-name="Group 4026" transform="translate(-65.686 -98.476)">
    <path id="Path_4561" data-name="Path 4561" d="M92.28,161.381V149.025q0-3.565,0-7.13c0-.3.038-.559-.353-.726a11.593,11.593,0,0,1-5.8-5.3c-.022-.042-.073-.068-.144-.131q-3.606,3.506-7.217,7.015c-.9.869-.9.866-.4,2a6.305,6.305,0,0,1-7.421,8.7A5.926,5.926,0,0,1,66.4,148.6a6.013,6.013,0,0,1,2.353-6.311,6.269,6.269,0,0,1,6.909-.585.826.826,0,0,0,1.146-.178q4.027-3.965,8.094-7.888a.759.759,0,0,0,.248-.835,7.637,7.637,0,0,1-.193-3.372c.071-.339-.022-.475-.378-.572-2.4-.652-4.8-1.32-7.185-2.021-.456-.134-.493.14-.641.4a5.814,5.814,0,0,1-4.259,3.058A5.93,5.93,0,0,1,66.256,127a5.787,5.787,0,0,1,1.372-6.835,5.844,5.844,0,0,1,9.778,3.9.538.538,0,0,0,.47.553c2.372.663,4.746,1.319,7.114,1.993.379.108.5-.015.643-.365a11.876,11.876,0,0,1,3.788-5.1c.29-.224.336-.35.052-.623q-3.577-3.448-7.124-6.926c-.263-.258-.449-.173-.725-.053a5.083,5.083,0,1,1,2.793-5.58,5,5,0,0,1-.486,3.221.594.594,0,0,0,.118.84q3.748,3.543,7.458,7.126a.731.731,0,0,0,.918.213,8.7,8.7,0,0,1,2.545-.668c.5-.044.632-.281.627-.78-.027-2.882-.032-5.765,0-8.647a.905.905,0,0,0-.694-1.024,5.077,5.077,0,1,1,3.592.011.928.928,0,0,0-.715,1.075c.03,2.832.015,5.664.012,8.5,0,.365-.041.689.491.746a11,11,0,0,1,6.588,3.225c.089.086.183.166.346.313.218-.46.416-.878.615-1.294,1.579-3.312,3.148-6.63,4.749-9.932a.8.8,0,0,0-.181-1.091,4.923,4.923,0,0,1-.661-6.123,5.083,5.083,0,1,1,3.626,7.736.589.589,0,0,0-.735.386q-2.868,5.984-5.763,11.954a.842.842,0,0,0,.015.976c.334.436.32,1.276.773,1.365.424.083.972-.418,1.454-.682q8.044-4.4,16.09-8.807a.806.806,0,0,0,.509-.959,4.989,4.989,0,1,1,1.328,3.154.643.643,0,0,0-.941-.12q-8.674,4.829-17.37,9.618c-.376.207-.57.409-.506.873a8.267,8.267,0,0,1,0,2.194c-.052.406.023.573.493.571,5.411-.017,10.822-.026,16.232.007.6,0,.564-.363.661-.686a6.183,6.183,0,0,1,6.025-4.5,6.391,6.391,0,0,1,6.173,4.455,6.253,6.253,0,0,1-3.783,7.569,6.355,6.355,0,0,1-8.045-3.2.487.487,0,0,1-.054-.141c-.174-1.37-1.063-1.427-2.22-1.412-5.157.064-10.316.037-15.474.014a.845.845,0,0,0-.93.629,11.2,11.2,0,0,1-6.166,6.222c-.377.16-.551.328-.517.758.044.551.011,1.109.011,1.708.463-.08.892-.181,1.326-.223a3.932,3.932,0,0,1,3.665,1.533c.235.3.369.343.724.169a4.124,4.124,0,0,1,5.175,1.133c.221.273.322.365.695.176a4.121,4.121,0,0,1,6.046,3.638q.062,9.747,0,19.494a4.5,4.5,0,0,1-4.665,4.536c-6.119,0-12.238-.017-18.356.014a5.023,5.023,0,0,1-3.748-1.493q-4.193-4.174-8.366-8.368A4.159,4.159,0,0,1,82,159.448a4.009,4.009,0,0,1,3.517-2.713,3.921,3.921,0,0,1,3.419,1.255C90.008,159.063,91.065,160.147,92.28,161.381Zm2.253-12.4q0,7.28.005,14.56a1.368,1.368,0,0,1-.812,1.471c-.64.266-1.045-.092-1.452-.5q-2.486-2.5-4.982-4.991a1.821,1.821,0,0,0-1.823-.65c-1.464.379-1.821,2.056-.648,3.242,2.772,2.8,5.571,5.583,8.362,8.368a2.563,2.563,0,0,0,1.911.748q9.176-.017,18.352-.007a2.275,2.275,0,0,0,2.491-2.485q.006-5.915,0-11.83c0-2.376.01-4.752,0-7.128a1.806,1.806,0,0,0-1.492-1.829,1.725,1.725,0,0,0-1.882,1.069,4.921,4.921,0,0,0-.181.88,1.18,1.18,0,0,1-2.339-.16c-.02-.429.009-.86-.01-1.289a1.749,1.749,0,0,0-3.5.06c-.094.778-.511,1.181-1.213,1.173a1.13,1.13,0,0,1-1.178-1.206c-.025-.378-.013-.758-.007-1.137a1.635,1.635,0,0,0-.262-.932,1.732,1.732,0,0,0-1.82-.814,1.947,1.947,0,0,0-1.632,1.481,1.367,1.367,0,0,1-.618,1.066,1.19,1.19,0,0,1-1.76-1.209q-.006-6.256,0-12.512a1.739,1.739,0,0,0-2.089-1.876c-.881.139-1.418.886-1.419,2.029Q94.528,141.779,94.533,148.984Zm-2.252-10.232c0-1.537-.022-2.927.005-4.316a4.107,4.107,0,0,1,8.2-.033c.027,1.188.006,2.377.011,3.565,0,.793.018.8.715.406a9.159,9.159,0,0,0,4.42-9.88,9.409,9.409,0,0,0-18.507,3.4A9.468,9.468,0,0,0,92.282,138.751ZM72.5,143.461a4,4,0,1,0,4,3.97A3.986,3.986,0,0,0,72.5,143.461Zm63.181-10.285a3.994,3.994,0,0,0-7.987.019,4.025,4.025,0,0,0,3.979,4.025A3.97,3.97,0,0,0,135.684,133.176ZM74.717,124.59A3.511,3.511,0,1,0,71.255,128,3.386,3.386,0,0,0,74.717,124.59ZM81.8,108.88a2.717,2.717,0,0,0-5.434-.082,2.742,2.742,0,0,0,2.624,2.769A2.8,2.8,0,0,0,81.8,108.88Zm14.452-2.739a2.757,2.757,0,0,0,2.848-2.7,2.8,2.8,0,0,0-2.676-2.735,2.828,2.828,0,0,0-2.756,2.746A2.653,2.653,0,0,0,96.256,106.141ZM130.644,118a2.683,2.683,0,1,0-2.706-2.721A2.661,2.661,0,0,0,130.644,118Zm-16.678-8.946a2.681,2.681,0,0,0-.026-5.361,2.662,2.662,0,0,0-2.7,2.745A2.589,2.589,0,0,0,113.966,109.052Z" fill="#636363"/>
  </g>
</svg>
