<svg id="apartment_3_" data-name="apartment (3)" xmlns="http://www.w3.org/2000/svg" width="67" height="67" viewBox="0 0 67 67">
  <g id="Group_3809" data-name="Group 3809" transform="translate(0 0)">
    <g id="Group_3808" data-name="Group 3808">
      <path id="Path_4371" data-name="Path 4371" d="M64.883,63.767H60.348a8.693,8.693,0,0,0,.069-1.117,7.766,7.766,0,0,0-4.467-7.077V17.984a1.055,1.055,0,0,0-1.117-1.117H38.083V.118A1.055,1.055,0,0,0,36.967-1H6.817A1.055,1.055,0,0,0,5.7.117v63.65H.117A1.117,1.117,0,0,0,.117,66H64.883a1.117,1.117,0,0,0,0-2.233ZM53.717,54.913a8.064,8.064,0,0,0-1.117-.079,7.542,7.542,0,0,0-2.451.412,1.084,1.084,0,0,0-.9-.412,1.055,1.055,0,0,0-1.117,1.117v.342a7.82,7.82,0,0,0-1.174,1.039q-.085.09-.166.182a7.075,7.075,0,0,0-3.465-2.4,1.126,1.126,0,0,0-.779-.279,1.321,1.321,0,0,0-.349.045,6.617,6.617,0,0,0-.768-.045,5.874,5.874,0,0,0-2.126.35c-.079.027-.158.054-.235.084a6.963,6.963,0,0,0-2.625-1.327l-.03-.007c-.083-.021-.166-.042-.25-.06-.068-.015-.136-.028-.2-.041l-.089-.016c-.072-.012-.144-.023-.217-.034l-.1-.013c-.067-.008-.133-.016-.2-.022l-.147-.012c-.053,0-.105-.008-.158-.01-.106-.005-.212-.008-.319-.008q-.123,0-.245,0l-.159.008-.064,0a6.563,6.563,0,0,0-2.882.863V19.1H53.717ZM7.933,1.234H35.85V16.868H30.267a1.055,1.055,0,0,0-1.117,1.117V52.713a8.089,8.089,0,0,0-1.945-1.431q-.095-.051-.191-.1l-.076-.038a7.731,7.731,0,0,0-2.57-.735l-.038,0q-.158-.016-.317-.025l-.085,0c-.12-.006-.24-.009-.361-.009A7.577,7.577,0,0,0,19.1,51.833v-.348a1.117,1.117,0,0,0-2.233,0v2.233a1.269,1.269,0,0,0,.08.457,8.05,8.05,0,0,0-1.085,3,7.585,7.585,0,0,0-3.462,1.3v-.3a1.055,1.055,0,0,0-1.117-1.117,1.055,1.055,0,0,0-1.117,1.117v2.233a1.31,1.31,0,0,0,.05.364,7.788,7.788,0,0,0-1.086,2.986h-1.2V1.234Zm8.425,58.09.067,0c.059,0,.118-.009.177-.012.088,0,.176-.007.264-.007a1.055,1.055,0,0,0,1.117-1.117A5.529,5.529,0,0,1,23.567,52.6a5.448,5.448,0,0,1,5.472,4.8,1.211,1.211,0,0,0,.5.716l.047.031.052.031a1.154,1.154,0,0,0,.129.062l0,0a1.242,1.242,0,0,0,.16.051h0a.643.643,0,0,0,.222.028,1.08,1.08,0,0,0,.895-.474h0l.112-.112a4.5,4.5,0,0,1,3.573-1.787,4.342,4.342,0,0,1,2.184.606,6.782,6.782,0,0,0-2.175,4.632q-.009.171-.009.345a6.566,6.566,0,0,0,.385,2.233H11.395A5.627,5.627,0,0,1,16.358,59.324Zm21.4,4.443a4.766,4.766,0,0,1-.676-2.345,4.361,4.361,0,0,1,1.324-3.16,4.521,4.521,0,0,1,.51-.409,1.121,1.121,0,0,0,.511-.116,4.392,4.392,0,0,1,6.253,2.345,1.012,1.012,0,0,0,1,.67.77.77,0,0,0,.341-.094.944.944,0,0,0,.664-.576,5.138,5.138,0,0,1,1.918-2.168,1.025,1.025,0,0,0,.447-.254,5.663,5.663,0,0,1,2.548-.593,5.529,5.529,0,0,1,5.583,5.583,3.8,3.8,0,0,1-.112,1.117Z" transform="translate(1 0.999)" fill="#636363"/>
      <path id="Path_4372" data-name="Path 4372" d="M273.184,220.867a1.055,1.055,0,0,0-1.117,1.117v2.233a1.117,1.117,0,1,0,2.233,0v-2.233A1.055,1.055,0,0,0,273.184,220.867Z" transform="translate(-236.334 -191.834)" fill="#636363"/>
      <path id="Path_4373" data-name="Path 4373" d="M273.184,374.467a1.055,1.055,0,0,0-1.117,1.117v2.233a1.117,1.117,0,0,0,2.233,0v-2.233A1.055,1.055,0,0,0,273.184,374.467Z" transform="translate(-236.334 -325.334)" fill="#636363"/>
      <path id="Path_4374" data-name="Path 4374" d="M273.184,272.067a1.055,1.055,0,0,0-1.117,1.117v2.233a1.117,1.117,0,1,0,2.233,0v-2.233A1.055,1.055,0,0,0,273.184,272.067Z" transform="translate(-236.334 -236.334)" fill="#636363"/>
      <path id="Path_4375" data-name="Path 4375" d="M273.184,323.267a1.055,1.055,0,0,0-1.117,1.117v2.233a1.117,1.117,0,1,0,2.233,0v-2.233A1.055,1.055,0,0,0,273.184,323.267Z" transform="translate(-236.334 -280.834)" fill="#636363"/>
      <path id="Path_4376" data-name="Path 4376" d="M273.184,169.667a1.055,1.055,0,0,0-1.117,1.117v2.233a1.117,1.117,0,1,0,2.233,0v-2.233A1.055,1.055,0,0,0,273.184,169.667Z" transform="translate(-236.334 -147.334)" fill="#636363"/>
      <path id="Path_4377" data-name="Path 4377" d="M324.384,225.334a1.055,1.055,0,0,0,1.117-1.117v-2.233a1.117,1.117,0,1,0-2.233,0v2.233A1.055,1.055,0,0,0,324.384,225.334Z" transform="translate(-280.834 -191.834)" fill="#636363"/>
      <path id="Path_4378" data-name="Path 4378" d="M324.384,174.134a1.055,1.055,0,0,0,1.117-1.117v-2.233a1.117,1.117,0,1,0-2.233,0v2.233A1.055,1.055,0,0,0,324.384,174.134Z" transform="translate(-280.834 -147.334)" fill="#636363"/>
      <path id="Path_4379" data-name="Path 4379" d="M324.384,276.534a1.055,1.055,0,0,0,1.117-1.117v-2.233a1.117,1.117,0,0,0-2.233,0v2.233A1.055,1.055,0,0,0,324.384,276.534Z" transform="translate(-280.834 -236.334)" fill="#636363"/>
      <path id="Path_4380" data-name="Path 4380" d="M324.384,327.734a1.055,1.055,0,0,0,1.117-1.117v-2.233a1.117,1.117,0,0,0-2.233,0v2.233A1.055,1.055,0,0,0,324.384,327.734Z" transform="translate(-280.834 -280.834)" fill="#636363"/>
      <path id="Path_4381" data-name="Path 4381" d="M324.384,378.934a1.055,1.055,0,0,0,1.117-1.117v-2.233a1.117,1.117,0,0,0-2.233,0v2.233A1.055,1.055,0,0,0,324.384,378.934Z" transform="translate(-280.834 -325.334)" fill="#636363"/>
      <path id="Path_4382" data-name="Path 4382" d="M375.584,276.534a1.055,1.055,0,0,0,1.117-1.117v-2.233a1.117,1.117,0,1,0-2.233,0v2.233A1.055,1.055,0,0,0,375.584,276.534Z" transform="translate(-325.334 -236.334)" fill="#636363"/>
      <path id="Path_4383" data-name="Path 4383" d="M375.584,225.334a1.055,1.055,0,0,0,1.117-1.117v-2.233a1.117,1.117,0,1,0-2.233,0v2.233A1.055,1.055,0,0,0,375.584,225.334Z" transform="translate(-325.334 -191.834)" fill="#636363"/>
      <path id="Path_4384" data-name="Path 4384" d="M375.584,378.934a1.055,1.055,0,0,0,1.117-1.117v-2.233a1.117,1.117,0,1,0-2.233,0v2.233A1.055,1.055,0,0,0,375.584,378.934Z" transform="translate(-325.334 -325.334)" fill="#636363"/>
      <path id="Path_4385" data-name="Path 4385" d="M375.584,327.734a1.055,1.055,0,0,0,1.117-1.117v-2.233a1.117,1.117,0,1,0-2.233,0v2.233A1.055,1.055,0,0,0,375.584,327.734Z" transform="translate(-325.334 -280.834)" fill="#636363"/>
      <path id="Path_4386" data-name="Path 4386" d="M375.584,174.134a1.055,1.055,0,0,0,1.117-1.117v-2.233a1.117,1.117,0,1,0-2.233,0v2.233A1.055,1.055,0,0,0,375.584,174.134Z" transform="translate(-325.334 -147.334)" fill="#636363"/>
      <path id="Path_4387" data-name="Path 4387" d="M85.451,293.6a1.055,1.055,0,0,0,1.117-1.117v-2.233a1.117,1.117,0,0,0-2.233,0v2.233A1.055,1.055,0,0,0,85.451,293.6Z" transform="translate(-73.167 -251.167)" fill="#636363"/>
      <path id="Path_4388" data-name="Path 4388" d="M85.451,344.8a1.055,1.055,0,0,0,1.117-1.117v-2.233a1.117,1.117,0,1,0-2.233,0v2.233A1.055,1.055,0,0,0,85.451,344.8Z" transform="translate(-73.167 -295.667)" fill="#636363"/>
      <path id="Path_4389" data-name="Path 4389" d="M85.451,396a1.055,1.055,0,0,0,1.117-1.117v-2.233a1.117,1.117,0,0,0-2.233,0v2.233A1.055,1.055,0,0,0,85.451,396Z" transform="translate(-73.167 -340.167)" fill="#636363"/>
      <path id="Path_4390" data-name="Path 4390" d="M85.451,37.6a1.055,1.055,0,0,0,1.117-1.117V34.251a1.117,1.117,0,0,0-2.233,0v2.233A1.055,1.055,0,0,0,85.451,37.6Z" transform="translate(-73.167 -28.667)" fill="#636363"/>
      <path id="Path_4391" data-name="Path 4391" d="M85.451,88.8a1.055,1.055,0,0,0,1.117-1.117V85.451a1.117,1.117,0,0,0-2.233,0v2.233A1.055,1.055,0,0,0,85.451,88.8Z" transform="translate(-73.167 -73.167)" fill="#636363"/>
      <path id="Path_4392" data-name="Path 4392" d="M85.451,140a1.055,1.055,0,0,0,1.117-1.117v-2.233a1.117,1.117,0,1,0-2.233,0v2.233A1.055,1.055,0,0,0,85.451,140Z" transform="translate(-73.167 -117.667)" fill="#636363"/>
      <path id="Path_4393" data-name="Path 4393" d="M85.451,191.2a1.055,1.055,0,0,0,1.117-1.117v-2.233a1.117,1.117,0,0,0-2.233,0v2.233A1.055,1.055,0,0,0,85.451,191.2Z" transform="translate(-73.167 -162.167)" fill="#636363"/>
      <path id="Path_4394" data-name="Path 4394" d="M85.451,242.4a1.055,1.055,0,0,0,1.117-1.117v-2.233a1.117,1.117,0,1,0-2.233,0v2.233A1.055,1.055,0,0,0,85.451,242.4Z" transform="translate(-73.167 -206.667)" fill="#636363"/>
      <path id="Path_4395" data-name="Path 4395" d="M136.651,88.8a1.055,1.055,0,0,0,1.117-1.117V85.451a1.117,1.117,0,1,0-2.233,0v2.233A1.055,1.055,0,0,0,136.651,88.8Z" transform="translate(-117.667 -73.167)" fill="#636363"/>
      <path id="Path_4396" data-name="Path 4396" d="M136.651,37.6a1.055,1.055,0,0,0,1.117-1.117V34.251a1.117,1.117,0,0,0-2.233,0v2.233A1.055,1.055,0,0,0,136.651,37.6Z" transform="translate(-117.667 -28.667)" fill="#636363"/>
      <path id="Path_4397" data-name="Path 4397" d="M136.651,191.2a1.055,1.055,0,0,0,1.117-1.117v-2.233a1.117,1.117,0,0,0-2.233,0v2.233A1.055,1.055,0,0,0,136.651,191.2Z" transform="translate(-117.667 -162.167)" fill="#636363"/>
      <path id="Path_4398" data-name="Path 4398" d="M136.651,140a1.055,1.055,0,0,0,1.117-1.117v-2.233a1.117,1.117,0,0,0-2.233,0v2.233A1.055,1.055,0,0,0,136.651,140Z" transform="translate(-117.667 -117.667)" fill="#636363"/>
      <path id="Path_4399" data-name="Path 4399" d="M136.651,242.4a1.055,1.055,0,0,0,1.117-1.117v-2.233a1.117,1.117,0,1,0-2.233,0v2.233A1.055,1.055,0,0,0,136.651,242.4Z" transform="translate(-117.667 -206.667)" fill="#636363"/>
      <path id="Path_4400" data-name="Path 4400" d="M136.651,293.6a1.055,1.055,0,0,0,1.117-1.117v-2.233a1.117,1.117,0,0,0-2.233,0v2.233A1.055,1.055,0,0,0,136.651,293.6Z" transform="translate(-117.667 -251.167)" fill="#636363"/>
      <path id="Path_4401" data-name="Path 4401" d="M136.651,344.8a1.055,1.055,0,0,0,1.117-1.117v-2.233a1.117,1.117,0,1,0-2.233,0v2.233A1.055,1.055,0,0,0,136.651,344.8Z" transform="translate(-117.667 -295.667)" fill="#636363"/>
      <path id="Path_4402" data-name="Path 4402" d="M187.851,140a1.055,1.055,0,0,0,1.117-1.117v-2.233a1.117,1.117,0,1,0-2.233,0v2.233A1.055,1.055,0,0,0,187.851,140Z" transform="translate(-162.167 -117.667)" fill="#636363"/>
      <path id="Path_4403" data-name="Path 4403" d="M187.851,88.8a1.055,1.055,0,0,0,1.117-1.117V85.451a1.117,1.117,0,0,0-2.233,0v2.233A1.055,1.055,0,0,0,187.851,88.8Z" transform="translate(-162.167 -73.167)" fill="#636363"/>
      <path id="Path_4404" data-name="Path 4404" d="M187.851,37.6a1.055,1.055,0,0,0,1.117-1.117V34.251a1.117,1.117,0,1,0-2.233,0v2.233A1.055,1.055,0,0,0,187.851,37.6Z" transform="translate(-162.167 -28.667)" fill="#636363"/>
      <path id="Path_4405" data-name="Path 4405" d="M187.851,344.8a1.055,1.055,0,0,0,1.117-1.117v-2.233a1.117,1.117,0,1,0-2.233,0v2.233A1.055,1.055,0,0,0,187.851,344.8Z" transform="translate(-162.167 -295.667)" fill="#636363"/>
      <path id="Path_4406" data-name="Path 4406" d="M187.851,293.6a1.055,1.055,0,0,0,1.117-1.117v-2.233a1.117,1.117,0,0,0-2.233,0v2.233A1.055,1.055,0,0,0,187.851,293.6Z" transform="translate(-162.167 -251.167)" fill="#636363"/>
      <path id="Path_4407" data-name="Path 4407" d="M187.851,242.4a1.055,1.055,0,0,0,1.117-1.117v-2.233a1.117,1.117,0,1,0-2.233,0v2.233A1.055,1.055,0,0,0,187.851,242.4Z" transform="translate(-162.167 -206.667)" fill="#636363"/>
      <path id="Path_4408" data-name="Path 4408" d="M187.851,191.2a1.055,1.055,0,0,0,1.117-1.117v-2.233a1.117,1.117,0,0,0-2.233,0v2.233A1.055,1.055,0,0,0,187.851,191.2Z" transform="translate(-162.167 -162.167)" fill="#636363"/>
      <path id="Path_4409" data-name="Path 4409" d="M239.051,88.8a1.055,1.055,0,0,0,1.117-1.117V85.451a1.117,1.117,0,0,0-2.233,0v2.233A1.055,1.055,0,0,0,239.051,88.8Z" transform="translate(-206.667 -73.167)" fill="#636363"/>
      <path id="Path_4410" data-name="Path 4410" d="M239.051,37.6a1.055,1.055,0,0,0,1.117-1.117V34.251a1.117,1.117,0,0,0-2.233,0v2.233A1.055,1.055,0,0,0,239.051,37.6Z" transform="translate(-206.667 -28.667)" fill="#636363"/>
    </g>
  </g>
</svg>
