<svg xmlns="http://www.w3.org/2000/svg" width="71.467" height="60" viewBox="0 0 71.467 60">
  <g id="bars" transform="translate(0 -34.019)">
    <g id="Group_3833" data-name="Group 3833" transform="translate(49.618 34.019)">
      <g id="Group_3832" data-name="Group 3832" transform="translate(0 0)">
        <path id="Path_4429" data-name="Path 4429" d="M304.175,34.019a9.809,9.809,0,0,0,0,19.618,9.854,9.854,0,0,0,9.843-9.843A9.754,9.754,0,0,0,304.175,34.019Zm0,17.461a7.652,7.652,0,1,1,7.685-7.618A7.682,7.682,0,0,1,304.175,51.48Z" transform="translate(-294.4 -34.019)" fill="#636363"/>
      </g>
    </g>
    <g id="Group_3835" data-name="Group 3835" transform="translate(56.225 37.457)">
      <g id="Group_3834" data-name="Group 3834" transform="translate(0 0)">
        <path id="Path_4430" data-name="Path 4430" d="M339.87,62.307a1.762,1.762,0,0,0-.2-.539,1.69,1.69,0,0,0-.27-.472c-.135-.135-.2-.27-.337-.4a1.21,1.21,0,0,0-.472-.337,1.689,1.689,0,0,0-.472-.27c-.2-.067-.337-.2-.539-.27a4.647,4.647,0,0,1-.539-.2.511.511,0,0,1-.27-.135c-.067-.067-.2-.067-.27-.135s-.2-.067-.27-.135l-.2-.2a.35.35,0,0,1-.135-.27.405.405,0,0,1-.067-.27v-.337c0-.067.067-.2.067-.27.067-.067.067-.2.135-.27l.2-.2a.515.515,0,0,1,.337-.135.608.608,0,0,1,.337-.067h.4a.608.608,0,0,1,.337.067,2.92,2.92,0,0,1,.337.067c.067,0,.2.067.27.067.135,0,.2.067.27.067l.337.135.067-.4.135-1.079v-.27l-.27-.067c-.067,0-.2-.067-.27-.067s-.135-.067-.27-.067a2.92,2.92,0,0,0-.337-.067c-.135,0-.2-.067-.337-.067h-.067V54.419h-1.618v1.348h-.067a2.394,2.394,0,0,0-.607.27,1.209,1.209,0,0,0-.472.337,2.932,2.932,0,0,0-.4.472,1.355,1.355,0,0,0-.27.539l-.2.607a2.292,2.292,0,0,0-.067.674,1.483,1.483,0,0,0,.067.539,1.761,1.761,0,0,0,.2.539c.067.135.2.337.27.472.135.135.2.27.337.4a1.209,1.209,0,0,0,.472.337,1.69,1.69,0,0,0,.472.27,4,4,0,0,1,.539.27,4.648,4.648,0,0,1,.539.2.511.511,0,0,1,.27.135c.067.067.2.067.27.135s.135.135.2.135l.2.2c.067.067.067.135.135.27a2.919,2.919,0,0,1,.067.337v.337a.511.511,0,0,1-.135.27l-.2.2a.93.93,0,0,1-.27.2c-.067.067-.2.067-.27.135a2.922,2.922,0,0,1-.337.067h-.876a2.92,2.92,0,0,1-.337-.067.958.958,0,0,1-.4-.135c-.135-.067-.27-.067-.4-.135-.067,0-.135-.067-.2-.067s-.135-.067-.2-.067l-.4-.2-.067.472-.135,1.213v.2l.2.067a.9.9,0,0,1,.607.067,1.25,1.25,0,0,0,.472.135c.135.067.337.067.539.135a1.485,1.485,0,0,0,.539.067h.135v1.348h1.618V65.745h.067a2.4,2.4,0,0,0,.607-.27,2.364,2.364,0,0,0,.539-.337,2.931,2.931,0,0,0,.4-.472,3.766,3.766,0,0,0,.337-.539l.2-.607a2.077,2.077,0,0,0,.067-.674A1.484,1.484,0,0,0,339.87,62.307Z" transform="translate(-333.6 -54.419)" fill="#636363"/>
      </g>
    </g>
    <g id="Group_3837" data-name="Group 3837" transform="translate(11.543 54.505)">
      <g id="Group_3836" data-name="Group 3836">
        <path id="Path_4431" data-name="Path 4431" d="M111.62,155.982a1.148,1.148,0,0,0-1.551-.2l-10.921,8.7-14.09-5.865a1.075,1.075,0,0,0-1.011.135l-15.1,10.787a1.077,1.077,0,0,0-.27,1.483.982.982,0,0,0,.876.472,1.087,1.087,0,0,0,.607-.2l14.629-10.449L98.946,166.7a1.213,1.213,0,0,0,1.079-.135l11.393-9.034A1.148,1.148,0,0,0,111.62,155.982Z" transform="translate(-68.489 -155.569)" fill="#636363"/>
      </g>
    </g>
    <g id="Group_3839" data-name="Group 3839" transform="translate(0 59.57)">
      <g id="Group_3838" data-name="Group 3838" transform="translate(0 0)">
        <path id="Path_4432" data-name="Path 4432" d="M70.449,217.911H65.461V186.7a1.065,1.065,0,0,0-1.079-1.079h-9.91a1.065,1.065,0,0,0-1.079,1.079v31.213h-3.64V197.484a1.065,1.065,0,0,0-1.079-1.079H38.7a1.065,1.065,0,0,0-1.079,1.079v20.427h-3.64V195.866a1.065,1.065,0,0,0-1.079-1.079h-9.91a1.065,1.065,0,0,0-1.079,1.079v22.045H18.27V202.2a1.065,1.065,0,0,0-1.079-1.079H7.213A1.065,1.065,0,0,0,6.135,202.2v15.708H1.079a1.079,1.079,0,1,0,0,2.157h69.3a1.065,1.065,0,0,0,1.079-1.079A.974.974,0,0,0,70.449,217.911Zm-54.4,0H8.292V203.282h7.753Zm15.775,0H24.067V196.945H31.82Zm15.708,0H39.775V198.563h7.753Zm15.775,0H55.551V187.776H63.3Z" transform="translate(0 -185.619)" fill="#636363"/>
      </g>
    </g>
  </g>
</svg>
