<svg id="shopping-cart-empty-side-view" xmlns="http://www.w3.org/2000/svg" width="63.621" height="59.877" viewBox="0 0 63.621 59.877">
  <path id="Path_4428" data-name="Path 4428" d="M63.254,24.568a2.041,2.041,0,0,0-1.587-.872L22.2,22a2.041,2.041,0,0,0-.175,4.079L58.82,27.66,51.585,50.232H19.392L13.576,18.563a2.041,2.041,0,0,0-1.262-1.531L2.788,13.289a2.042,2.042,0,1,0-1.494,3.8l8.47,3.327,5.919,32.225a2.042,2.042,0,0,0,2.008,1.672h.982l-2.242,6.228a1.7,1.7,0,0,0,1.6,2.277H19.6a6.124,6.124,0,1,0,9.1,0H42.059a6.124,6.124,0,1,0,9.1,0h1.912a1.7,1.7,0,1,0,0-3.4H20.452l1.837-5.1H53.074A2.041,2.041,0,0,0,55.017,52.9l8.505-26.537A2.037,2.037,0,0,0,63.254,24.568Zm-39.1,45.055A2.722,2.722,0,1,1,26.878,66.9,2.724,2.724,0,0,1,24.156,69.624Zm22.454,0A2.722,2.722,0,1,1,49.331,66.9,2.724,2.724,0,0,1,46.61,69.624Z" transform="translate(0 -13.148)" fill="#636363"/>
</svg>
