<svg xmlns="http://www.w3.org/2000/svg" width="62" height="62" viewBox="0 0 62 62">
  <g id="drill" transform="translate(-1 -1)">
    <path id="Path_4325" data-name="Path 4325" d="M47,13h2v2H47Z" fill="#636363"/>
    <path id="Path_4326" data-name="Path 4326" d="M43,13h2v2H43Z" fill="#636363"/>
    <path id="Path_4327" data-name="Path 4327" d="M39,13h2v2H39Z" fill="#636363"/>
    <path id="Path_4328" data-name="Path 4328" d="M30,60a1,1,0,0,1,1-1H51a3,3,0,0,0,3-3V54.875a2.766,2.766,0,0,0,1.917-3.33l-.644-2.577A3.679,3.679,0,0,0,57,45.832V26.717A9.131,9.131,0,0,0,55,9.079V7a2,2,0,0,0,2-2V3a2,2,0,0,0-2-2H39a2,2,0,0,0-2,2V5a2,2,0,0,0,2,2h6V9H30a5.006,5.006,0,0,0-5,5v1H21a2,2,0,0,0-2-2H17a2,2,0,0,0-2,2H4a3,3,0,0,0,0,6H15a2,2,0,0,0,2,2h2a2,2,0,0,0,2-2h4v1a5.006,5.006,0,0,0,5,5H40.586A2.416,2.416,0,0,1,43,29.414V31H42a3,3,0,0,0-3,3v4a3,3,0,0,0,3,3h1v6.3A3.707,3.707,0,0,0,46.7,51a3.75,3.75,0,0,0,.8-.088l1.427-.317.727,2.425A2.759,2.759,0,0,0,52,54.975V56a1,1,0,0,1-1,1H31a3,3,0,0,0,0,6H63V61H31A1,1,0,0,1,30,60ZM19,15v2H17V15ZM4,19a1,1,0,0,1,0-2H15v2Zm13,2V19h2v2Zm4-2V17h4v2Zm40-.864a7.127,7.127,0,0,1-4.88,6.77l-.353.118A4.994,4.994,0,0,0,51,30V44.18l-3.808.762A3.053,3.053,0,0,1,46.6,45H45V29.414a4.375,4.375,0,0,0-1.179-2.983l4.875-7.66L53,16.618V11h.864A7.144,7.144,0,0,1,61,18.136ZM35,25H33V11h2Zm2-14H51v4.382L47.764,17H37Zm2-8H55V5H39Zm8,4h6V9H47ZM27,22V14a3,3,0,0,1,3-3h1V25H30A3,3,0,0,1,27,22Zm10,3V19h9.178l-4.009,6.3a4.4,4.4,0,0,0-1.583-.3Zm5,14a1,1,0,0,1-1-1V34a1,1,0,0,1,1-1h1v6Zm5.073,9.959A1.731,1.731,0,0,1,45,47.3V47h1.6a5.044,5.044,0,0,0,.981-.1l3.808-.762A2,2,0,0,0,53,44.18V30a3,3,0,0,1,2-2.816V45.831a1.7,1.7,0,0,1-1.334,1.663Zm4.5,3.485-.685-2.285,2.48-.551.6,2.42a.818.818,0,0,1,.023.191.782.782,0,0,1-.781.781h-.894a.777.777,0,0,1-.748-.556Z" fill="#636363"/>
  </g>
</svg>
