<svg id="nightstand" xmlns="http://www.w3.org/2000/svg" width="62" height="62" viewBox="0 0 62 62">
  <g id="Group_3749" data-name="Group 3749">
    <g id="Group_3748" data-name="Group 3748">
      <path id="Path_4334" data-name="Path 4334" d="M60.967,0H1.033A1.033,1.033,0,0,0,0,1.033V5.167A1.033,1.033,0,0,0,1.033,6.2H2.067V50.633A1.033,1.033,0,0,0,3.1,51.667H4.133v9.3A1.033,1.033,0,0,0,5.167,62H9.3a1.033,1.033,0,0,0,1.013-.827l1.9-9.507H49.786l1.9,9.507A1.033,1.033,0,0,0,52.7,62h4.133a1.033,1.033,0,0,0,1.033-1.033v-9.3H58.9a1.033,1.033,0,0,0,1.033-1.033V6.2h1.033A1.033,1.033,0,0,0,62,5.167V1.033A1.033,1.033,0,0,0,60.967,0ZM8.453,59.933H6.2V51.667h3.906Zm47.347,0H53.547l-1.653-8.267H55.8ZM57.867,49.6H4.133V6.2H57.867ZM59.933,4.133H2.067V2.067H59.933Z" fill="#636363"/>
    </g>
  </g>
  <g id="Group_3751" data-name="Group 3751" transform="translate(7.233 8.267)">
    <g id="Group_3750" data-name="Group 3750">
      <path id="Path_4335" data-name="Path 4335" d="M102.5,64H57.033A1.033,1.033,0,0,0,56,65.033V81.567A1.033,1.033,0,0,0,57.033,82.6H102.5a1.033,1.033,0,0,0,1.033-1.033V65.033A1.033,1.033,0,0,0,102.5,64Zm-1.033,16.533h-43.4V66.067h43.4Z" transform="translate(-56 -64)" fill="#636363"/>
    </g>
  </g>
  <g id="Group_3753" data-name="Group 3753" transform="translate(7.233 28.933)">
    <g id="Group_3752" data-name="Group 3752">
      <path id="Path_4336" data-name="Path 4336" d="M102.5,224H57.033A1.033,1.033,0,0,0,56,225.033v16.533a1.033,1.033,0,0,0,1.033,1.033H102.5a1.033,1.033,0,0,0,1.033-1.033V225.033A1.033,1.033,0,0,0,102.5,224Zm-1.033,16.533h-43.4V226.067h43.4Z" transform="translate(-56 -224)" fill="#636363"/>
    </g>
  </g>
  <g id="Group_3755" data-name="Group 3755" transform="translate(27.9 12.4)">
    <g id="Group_3754" data-name="Group 3754">
      <path id="Path_4337" data-name="Path 4337" d="M219.1,96a3.1,3.1,0,1,0,3.1,3.1A3.1,3.1,0,0,0,219.1,96Zm0,4.133a1.033,1.033,0,1,1,1.033-1.033A1.033,1.033,0,0,1,219.1,100.133Z" transform="translate(-216 -96)" fill="#636363"/>
    </g>
  </g>
  <g id="Group_3757" data-name="Group 3757" transform="translate(27.9 33.067)">
    <g id="Group_3756" data-name="Group 3756">
      <path id="Path_4338" data-name="Path 4338" d="M219.1,256a3.1,3.1,0,1,0,3.1,3.1A3.1,3.1,0,0,0,219.1,256Zm0,4.133a1.033,1.033,0,1,1,1.033-1.033A1.033,1.033,0,0,1,219.1,260.133Z" transform="translate(-216 -256)" fill="#636363"/>
    </g>
  </g>
</svg>
