<svg xmlns="http://www.w3.org/2000/svg" width="91.993" height="66.362" viewBox="0 0 91.993 66.362">
  <g id="Group_4035" data-name="Group 4035" transform="translate(-479.286 -627.955)">
    <path id="Path_4493" data-name="Path 4493" d="M4307.436,298.271l-18.73-9.216-7.149-11.009-3.238-6.127,1-7.771,1.494-11.831,3.985-3.487a22.489,22.489,0,0,1,2.989-1.1c.7-.1,8.568,0,8.568,0h34.422l3.487,1.744,3.587,3.886,3.387,3.786,2.591.7a3.178,3.178,0,0,1,1.993,0c.7.4,4.583-2.192,4.583-2.192l4.483-2.989,5.28-1.494,1.765-2.784.862-4.081,1.27-1.134a23.834,23.834,0,0,1,2.539,1.542,29,29,0,0,1,1.043,2.766c.046.272.635,1.406.635,1.587a27.221,27.221,0,0,1-1.36,2.358s-.046,1.12-.318,1.24a2.615,2.615,0,0,0-.907,1.39c0,.363-.5,1.587,0,1.9a3.41,3.41,0,0,1,.907,1.189s.227,1.306,0,1.487a10.625,10.625,0,0,0-1.451,1.406c-.136.272-3.22,2.744-3.22,2.744v3.447l-.85,6.9a6.271,6.271,0,0,1,.85,1.859,4.8,4.8,0,0,1-.306,2.54,20.681,20.681,0,0,1-2.449,3.719l-3.469,6.6s-.363,2.766-.363,3.22a35.027,35.027,0,0,0,1,3.492l-.362,1.5-1.9,2-2.177.771-4.036-1.814-4.126-1.451s-3.57-.1-4.07,0-4.853.737-5.261.918-4.036,1.179-4.036,1.179l-3.991,3.356-2.4,3.22-2.494,3.084h-2.222l-1.678-.771-2-1.769-.318-1.043Z" transform="translate(-3798 386)" fill="#d1d1d1" stroke="#636363" stroke-width="2"/>
    <g id="Group_3893" data-name="Group 3893" transform="translate(-3784.782 407)">
      <g id="Group_3894" data-name="Group 3894" transform="translate(-15 48)">
        <path id="Path_4486" data-name="Path 4486" d="M4287.419,191.044l3.089-6.078,3.687-1.494h25.7l4.782,2.69,5.48,3.786,4.782,3.686h3.487c.4,0,2.092-1,3.387,0s3.786,2.491,3.786,2.491.3,2.391,0,2.79-1.594,2.889-1.594,2.889a18.358,18.358,0,0,1-1.594,2.59c-.5.5-2.491,2.292-2.491,2.292l-4.982,1.3h-5.579l-3.786,1.494s-1.894,1.1-2.392,1.3-2.291.6-2.291.6l-4.284,1.3h-2.59l-3.587-.7-3.487-1.893-5.579-2.69-5.679-3.686L4293.4,201.8l-3.886-4.284s-2.092-2.192-2.092-2.69Z" transform="translate(5 7)" fill="#fff"/>
        <path id="Path_4487" data-name="Path 4487" d="M93.164,103.614c4.325-2.256,12.514-3.807,16.569-3.807a4.861,4.861,0,0,0,4.466-2.849,36.163,36.163,0,0,1,3.5-5.8c1.655-2.563.949-7.252-4.937-7.252a17.265,17.265,0,0,1-11.983-4.8c-3.963-3.82-7.789-6.16-13.5-6.16H67.1c-4.43.029-9.888,3.887-9.88,9.625,0,9.759,14.882,17.6,23.807,21.535A14.1,14.1,0,0,0,93.164,103.614ZM59.626,82.565c0-4.361,4.392-7.219,7.44-7.219H87.192c5.173.024,8.186,1.949,11.93,5.5a19.641,19.641,0,0,0,13.643,5.467c4.164.013,3.4,2.826,2.926,3.523A41.091,41.091,0,0,0,112,95.982a2.428,2.428,0,0,1-2.281,1.42c-4.707.019-12.926,1.665-17.657,4.071A11.7,11.7,0,0,1,82,101.9c-7.624-3.361-22.373-10.917-22.373-19.336Z" transform="translate(4233.729 115.975)" fill="#636363"/>
      </g>
      <g id="Group_3895" data-name="Group 3895" transform="translate(8 59.084)">
        <path id="Path_4489" data-name="Path 4489" d="M4284.036,188.5h16.153l4.422,1.474,1.709,1.238s1,2.122,1.12,2.594a3.61,3.61,0,0,1,0,1.179,15.655,15.655,0,0,1-1.12,1.769,11.8,11.8,0,0,1-2.241.884,23.322,23.322,0,0,1-2.771,1.238,20.275,20.275,0,0,0-2.123.472l-2.535-.472-4.009-2.417-9.315-4.775-.413-1.71Z" fill="#d4d4d4" stroke="#707070" stroke-width="1"/>
        <path id="Path_4490" data-name="Path 4490" d="M101.019,105.445a32.289,32.289,0,0,1,3.826-1.7,4.712,4.712,0,0,0,1.622-7.782c-.717-.693-1.309-1.347-1.8-1.891a4.707,4.707,0,0,0-3.513-1.578H83.9a3.053,3.053,0,0,0-3.032,3.032,3.164,3.164,0,0,0,2.146,2.926c3.46,1.819,11.747,6.145,13.951,7.118a4.67,4.67,0,0,0,4.052-.12ZM83.887,96.186c-.344-.136-.611-.282-.611-.659a.634.634,0,0,1,.626-.63h17.257a2.307,2.307,0,0,1,1.718.775c.515.577,1.145,1.27,1.911,2.016a2.3,2.3,0,0,1-.78,3.8,34,34,0,0,0-4.1,1.829,2.319,2.319,0,0,1-1.973.048h0c-2.091-.922-13.756-6.986-14.043-7.175Z" transform="translate(4200.667 94.754)" fill="#636363"/>
      </g>
    </g>
  </g>
</svg>
