<svg xmlns="http://www.w3.org/2000/svg" width="57.756" height="57.762" viewBox="0 0 57.756 57.762">
  <path id="home_8_" data-name="home (8)" d="M56.7,25.123l0,0L33.138,1.557a5.317,5.317,0,0,0-7.52,0L2.068,25.107l-.024.024a5.315,5.315,0,0,0,3.538,9.06c.055.005.109.008.164.008h.939V51.538a6.231,6.231,0,0,0,6.224,6.223h9.218a1.692,1.692,0,0,0,1.692-1.692V42.475a2.843,2.843,0,0,1,2.84-2.839H32.1a2.842,2.842,0,0,1,2.839,2.839V56.069a1.692,1.692,0,0,0,1.692,1.692h9.218a6.23,6.23,0,0,0,6.224-6.223V34.2h.871A5.318,5.318,0,0,0,56.7,25.123Zm-2.4,5.124a1.921,1.921,0,0,1-1.367.567H50.378a1.692,1.692,0,0,0-1.692,1.692V51.538a2.842,2.842,0,0,1-2.839,2.839H38.321v-11.9A6.231,6.231,0,0,0,32.1,36.251H26.66a6.231,6.231,0,0,0-6.224,6.224v11.9H12.909a2.843,2.843,0,0,1-2.839-2.839V32.506a1.692,1.692,0,0,0-1.692-1.692H5.859l-.079,0a1.931,1.931,0,0,1-1.331-3.3h0L28.012,3.95a1.932,1.932,0,0,1,2.733,0L54.3,27.506l.011.011a1.937,1.937,0,0,1,0,2.731Zm0,0" transform="translate(-0.5 0.001)" fill="#636363"/>
</svg>
