<svg id="hospital_3_" data-name="hospital (3)" xmlns="http://www.w3.org/2000/svg" width="71.094" height="65.057" viewBox="0 0 71.094 65.057">
  <path id="Path_4416" data-name="Path 4416" d="M70.472,53.355,40.247,23.65a6.737,6.737,0,0,0-9.4,0L.623,53.355a2.083,2.083,0,0,0,2.92,2.971l2.352-2.312V77.731A9.076,9.076,0,0,0,14.96,86.8H56.134A9.076,9.076,0,0,0,65.2,77.731V54.015l2.352,2.312a2.083,2.083,0,1,0,2.92-2.971ZM61.034,77.731a4.905,4.905,0,0,1-4.9,4.9H14.96a4.905,4.905,0,0,1-4.9-4.9V49.92l23.707-23.3a2.509,2.509,0,0,1,.832-.543,2.559,2.559,0,0,1,2.537.373,2.512,2.512,0,0,1,.191.17l23.707,23.3V77.731Z" transform="translate(0 -21.739)" fill="#636363"/>
  <path id="Path_4417" data-name="Path 4417" d="M156.441,184.063v6.7h-6.7a2.083,2.083,0,0,0-2.083,2.083v8.313a2.083,2.083,0,0,0,2.083,2.083h6.7v6.7a2.083,2.083,0,0,0,2.083,2.083h8.313a2.083,2.083,0,0,0,2.083-2.083v-6.7h6.7a2.083,2.083,0,0,0,2.083-2.083v-8.313a2.083,2.083,0,0,0-2.083-2.083h-6.7v-6.7a2.083,2.083,0,0,0-2.083-2.083h-8.313A2.083,2.083,0,0,0,156.441,184.063Zm4.166,8.786v-6.7h4.147v6.7a2.083,2.083,0,0,0,2.083,2.083h6.7v4.147h-6.7a2.083,2.083,0,0,0-2.083,2.083v6.7h-4.147v-6.7a2.083,2.083,0,0,0-2.083-2.083h-6.7v-4.147h6.7A2.083,2.083,0,0,0,160.607,192.848Z" transform="translate(-127.152 -159.729)" fill="#636363"/>
</svg>
