<svg id="kitchen_1_" data-name="kitchen (1)" xmlns="http://www.w3.org/2000/svg" width="62" height="62" viewBox="0 0 62 62">
  <g id="Group_3747" data-name="Group 3747">
    <g id="Group_3746" data-name="Group 3746">
      <path id="Path_4329" data-name="Path 4329" d="M60.967,104H38.233a1.033,1.033,0,0,0-1.033,1.033v24.8H32.033V128.8h1.033a1.033,1.033,0,0,0,0-2.067H22.733a1.033,1.033,0,0,0,0,2.067h1.033v1.033H13.433V128.8h1.033a1.033,1.033,0,0,0,0-2.067H4.133a1.033,1.033,0,0,0,0,2.067H5.167v1.033H1.033A1.033,1.033,0,0,0,0,130.867v20.667a1.033,1.033,0,0,0,1.033,1.033H60.967A1.033,1.033,0,0,0,62,151.533v-46.5A1.033,1.033,0,0,0,60.967,104ZM25.833,128.8h4.133v1.033H25.833Zm-18.6,0h4.133v1.033H7.233Zm9.3,21.7H2.067V138.1H16.533Zm0-14.467H2.067V131.9H16.533ZM37.2,150.5H18.6V131.9H37.2Zm22.733,0H39.267V122.6H59.933Zm0-29.967H39.267V106.067H59.933Z" transform="translate(0 -90.567)" fill="#636363"/>
      <path id="Path_4330" data-name="Path 4330" d="M161.033,350.467h12.4a1.033,1.033,0,0,0,1.033-1.033v-12.4A1.033,1.033,0,0,0,173.433,336h-12.4A1.033,1.033,0,0,0,160,337.033v12.4A1.033,1.033,0,0,0,161.033,350.467Zm1.033-12.4H172.4V348.4H162.067Z" transform="translate(-139.333 -292.6)" fill="#636363"/>
      <path id="Path_4331" data-name="Path 4331" d="M313.033,182.2a1.033,1.033,0,0,0,1.033-1.033v-4.133a1.033,1.033,0,0,0-2.067,0v4.133A1.033,1.033,0,0,0,313.033,182.2Z" transform="translate(-271.7 -153.267)" fill="#636363"/>
      <path id="Path_4332" data-name="Path 4332" d="M313.033,262.2a1.033,1.033,0,0,0,1.033-1.033v-4.133a1.033,1.033,0,0,0-2.067,0v4.133A1.033,1.033,0,0,0,313.033,262.2Z" transform="translate(-271.7 -222.933)" fill="#636363"/>
      <path id="Path_4333" data-name="Path 4333" d="M16.359,18.36a1.034,1.034,0,0,0,.664.24h31a1.033,1.033,0,0,0,.795-1.7L38.484,4.5a1.034,1.034,0,0,0-.795-.371H36.656v-3.1A1.033,1.033,0,0,0,35.623,0h-6.2A1.033,1.033,0,0,0,28.39,1.033v3.1H27.356a1.034,1.034,0,0,0-.795.371L16.228,16.9A1.033,1.033,0,0,0,16.359,18.36Zm14.1-16.293H34.59V4.133H30.456ZM27.841,6.2h9.364l8.612,10.333H19.229Z" transform="translate(-13.923)" fill="#636363"/>
    </g>
  </g>
</svg>
