<svg xmlns="http://www.w3.org/2000/svg" width="46.047" height="65.489" viewBox="0 0 46.047 65.489">
  <g id="Group_4024" data-name="Group 4024" transform="translate(-36)">
    <g id="Group_3623" data-name="Group 3623" transform="translate(36)">
      <path id="Path_4283" data-name="Path 4283" d="M99.024,0A23.042,23.042,0,0,0,76,23.024a22.7,22.7,0,0,0,3.454,12.087L97.463,64.583a1.818,1.818,0,0,0,1.305.883,1.91,1.91,0,0,0,1.957-.921L118.786,34.8a22.707,22.707,0,0,0,3.262-11.78A23.042,23.042,0,0,0,99.024,0Zm0,34.535a11.512,11.512,0,1,1,11.512-11.512A11.5,11.5,0,0,1,99.024,34.535Z" transform="translate(-76)" fill="#636363"/>
    </g>
  </g>
</svg>
