<svg id="paint-roller_1_" data-name="paint-roller (1)" xmlns="http://www.w3.org/2000/svg" width="64.066" height="57.867" viewBox="0 0 64.066 57.867">
  <path id="Path_4339" data-name="Path 4339" d="M67.933,62.2H65.867V60.133A1.033,1.033,0,0,0,64.833,59.1H62.767V57.033A1.033,1.033,0,0,0,61.733,56h-49.6A1.033,1.033,0,0,0,11.1,57.033V59.1H9.033A1.033,1.033,0,0,0,8,60.133v6.2a1.033,1.033,0,0,0,1.033,1.033H11.1v2.067a1.033,1.033,0,0,0,1.033,1.033H14.2V77.7a3.1,3.1,0,0,0,4.133,2.923V83.9a3.1,3.1,0,1,0,6.2,0V75.456a3.1,3.1,0,0,0,4.133-2.923V70.467H61.733a1.033,1.033,0,0,0,1.033-1.033V67.367h2.067a1.033,1.033,0,0,0,1.033-1.033V64.267h2.067A2.069,2.069,0,0,1,70,66.333V74.6a2.069,2.069,0,0,1-2.067,2.067h-27.9A1.033,1.033,0,0,0,39,77.7v4.133H37.967a1.033,1.033,0,0,0-1.033,1.033v2.067A1.033,1.033,0,0,0,35.9,85.967v24.8a3.1,3.1,0,0,0,3.1,3.1h2.067a3.1,3.1,0,0,0,3.1-3.1v-24.8a1.033,1.033,0,0,0-1.033-1.033V82.867A1.033,1.033,0,0,0,42.1,81.833H41.067v-3.1H67.933A4.138,4.138,0,0,0,72.067,74.6V66.333A4.138,4.138,0,0,0,67.933,62.2ZM11.1,65.3H10.067V61.167H11.1Zm49.6,3.1H27.633A1.033,1.033,0,0,0,26.6,69.433v3.1a1.033,1.033,0,0,1-2.067,0,1.033,1.033,0,0,0-2.067,0V83.9a1.033,1.033,0,1,1-2.067,0V77.7a1.033,1.033,0,0,0-2.067,0,1.033,1.033,0,0,1-2.067,0V69.433A1.033,1.033,0,0,0,15.233,68.4H13.167V58.067H60.7Zm3.1-3.1H62.767V61.167H63.8ZM39,83.9h2.067v1.033H39ZM42.1,87v23.767a1.035,1.035,0,0,1-1.033,1.033H39a1.035,1.035,0,0,1-1.033-1.033V87Z" transform="translate(-8 -56)" fill="#636363"/>
  <path id="Path_4340" data-name="Path 4340" d="M89.033,152A1.033,1.033,0,0,0,88,153.033V158.2a1.033,1.033,0,1,0,2.067,0v-5.167A1.033,1.033,0,0,0,89.033,152Z" transform="translate(-77.667 -139.6)" fill="#636363"/>
  <path id="Path_4341" data-name="Path 4341" d="M121.033,144A1.033,1.033,0,0,0,120,145.033v1.033a1.033,1.033,0,1,0,2.067,0v-1.033A1.033,1.033,0,0,0,121.033,144Z" transform="translate(-105.533 -132.633)" fill="#636363"/>
</svg>
