<svg id="park_3_" data-name="park (3)" xmlns="http://www.w3.org/2000/svg" width="74.096" height="74.095" viewBox="0 0 74.096 74.095">
  <g id="Group_3819" data-name="Group 3819">
    <g id="Group_3818" data-name="Group 3818">
      <path id="Path_4418" data-name="Path 4418" d="M70.766,34.758A14.966,14.966,0,0,0,60.587,11.8a9.779,9.779,0,1,0-18.762,1.324A14.326,14.326,0,0,0,28.365,27.4,14.159,14.159,0,0,0,31.971,36.9,12.436,12.436,0,0,0,50.94,52.4V71.2H35.6V65.842a4.919,4.919,0,0,0-2.026-9.4H4.92a4.919,4.919,0,0,0-2.026,9.4v6.806A1.447,1.447,0,0,0,4.342,74.1H10.13a1.447,1.447,0,0,0,1.447-1.447V66.28h15.34V71.2H25.543a1.447,1.447,0,1,0,0,2.894H58.9a1.447,1.447,0,1,0,0-2.894H53.835V52.445A12.259,12.259,0,0,0,70.766,34.758ZM8.683,71.2H5.789V66.28H8.683Zm24.023,0H29.812V66.28h2.894Zm.868-7.815H4.92a2.026,2.026,0,1,1,0-4.052H33.574a2.026,2.026,0,0,1,0,4.052ZM61.833,52.523a9.382,9.382,0,0,1-8-4.493V41.288l.036-.032L62.1,33.031a1.447,1.447,0,1,0-2.047-2.047L53.835,37.2V23.7a1.447,1.447,0,1,0-2.894,0v3.755L49.787,26.3a1.447,1.447,0,0,0-2.047,2.047l3.2,3.2v9.281l-3.959-3.959,0,0-3.5-3.5a1.447,1.447,0,0,0-2.047,2.047l2.15,2.149-3.929,2.148a1.447,1.447,0,1,0,1.388,2.54l4.673-2.555,5.225,5.225V48A9.544,9.544,0,1,1,34.985,37.533a1.447,1.447,0,0,0-.189-1.874,11.409,11.409,0,0,1,7.875-19.667,11.429,11.429,0,0,1,1.409.09A1.447,1.447,0,0,0,45.431,13.8a6.882,6.882,0,1,1,11.912-1.3,1.447,1.447,0,0,0,1.283,2.019A12.065,12.065,0,0,1,67.72,34.039a1.447,1.447,0,0,0,.2,2,9.365,9.365,0,0,1-6.083,16.489Z" fill="#636363"/>
    </g>
  </g>
  <g id="Group_3821" data-name="Group 3821" transform="translate(63.385 71.201)">
    <g id="Group_3820" data-name="Group 3820">
      <path id="Path_4419" data-name="Path 4419" d="M440.46,492.424a1.446,1.446,0,1,0,.424,1.023A1.458,1.458,0,0,0,440.46,492.424Z" transform="translate(-437.99 -492)" fill="#636363"/>
    </g>
  </g>
  <g id="Group_3823" data-name="Group 3823" transform="translate(2.406 24.64)">
    <g id="Group_3822" data-name="Group 3822">
      <path id="Path_4420" data-name="Path 4420" d="M29.367,170.514a5.819,5.819,0,0,0-5.853,1.526,5.83,5.83,0,0,0-5.858-1.526,1.447,1.447,0,1,0,.834,2.771,2.918,2.918,0,0,1,3.635,1.954,1.447,1.447,0,0,0,2.772,0,2.922,2.922,0,0,1,3.635-1.954,1.447,1.447,0,1,0,.834-2.772Z" transform="translate(-16.626 -170.264)" fill="#636363"/>
    </g>
  </g>
  <g id="Group_3825" data-name="Group 3825" transform="translate(11.638 13.966)">
    <g id="Group_3824" data-name="Group 3824">
      <path id="Path_4421" data-name="Path 4421" d="M93.161,96.753a5.829,5.829,0,0,0-5.855,1.523,5.829,5.829,0,0,0-5.855-1.523,1.447,1.447,0,0,0,.834,2.772,2.918,2.918,0,0,1,3.635,1.954,1.447,1.447,0,0,0,2.772,0,2.918,2.918,0,0,1,3.635-1.954,1.447,1.447,0,0,0,.834-2.772Z" transform="translate(-80.42 -96.504)" fill="#636363"/>
    </g>
  </g>
  <g id="Group_3827" data-name="Group 3827" transform="translate(41.219 18.934)">
    <g id="Group_3826" data-name="Group 3826">
      <path id="Path_4422" data-name="Path 4422" d="M286.275,130.836h-.011a1.453,1.453,0,1,0,.011,0Z" transform="translate(-284.822 -130.836)" fill="#636363"/>
    </g>
  </g>
  <g id="Group_3829" data-name="Group 3829" transform="translate(34.201 21.112)">
    <g id="Group_3828" data-name="Group 3828">
      <path id="Path_4423" data-name="Path 4423" d="M240.717,146.286a1.447,1.447,0,0,0-2.046.049,8.433,8.433,0,0,0-2.338,5.843,1.447,1.447,0,1,0,2.894,0,5.55,5.55,0,0,1,1.539-3.846A1.447,1.447,0,0,0,240.717,146.286Z" transform="translate(-236.333 -145.887)" fill="#636363"/>
    </g>
  </g>
</svg>
