<svg xmlns="http://www.w3.org/2000/svg" width="50.328" height="75.79" viewBox="0 0 50.328 75.79">
  <g id="placeholder_2_" data-name="placeholder (2)" transform="translate(-86)">
    <path id="Path_4436" data-name="Path 4436" d="M185.243,110a7.032,7.032,0,0,0-5.921,3.3A7.032,7.032,0,0,0,173.4,110c-4.293,0-7.4,3.591-7.4,7.97,0,4.8,3.7,7.953,9.293,12.721.975.831,1.984,1.69,3.055,2.627a1.48,1.48,0,0,0,1.949,0c1.071-.937,2.079-1.8,3.055-2.627,5.6-4.768,9.293-7.918,9.293-12.721C192.645,113.59,189.536,110,185.243,110Zm-3.812,18.437c-.683.582-1.382,1.178-2.109,1.805-.727-.628-1.427-1.224-2.109-1.805-5.146-4.385-8.252-7.031-8.252-10.468,0-2.856,1.909-5.009,4.441-5.009,3.3,0,4.447,3.929,4.495,4.1a1.48,1.48,0,0,0,2.854-.005c.011-.041,1.161-4.092,4.493-4.092,2.532,0,4.441,2.153,4.441,5.009C189.684,121.406,186.578,124.053,181.432,128.437Z" transform="translate(-68.158 -93.717)" fill="#636363"/>
    <circle id="Ellipse_510" data-name="Ellipse 510" cx="1.486" cy="1.486" r="1.486" transform="translate(126.025 6.687)" fill="#636363"/>
    <path id="Path_4437" data-name="Path 4437" d="M103.754,58.674c-4.817.879-11.833,3.346-11.833,8.234,0,5.063,8.273,8.882,19.243,8.882s19.243-3.818,19.243-8.882c0-4.895-7.034-7.358-11.833-8.234,5.969-7.688,17.754-23.829,17.754-33.509A25.177,25.177,0,0,0,133.1,12.832a1.48,1.48,0,1,0-2.58,1.453,22.212,22.212,0,0,1,2.843,10.88c0,6.458-6.8,18.723-18.669,33.651-1.467,1.846-2.706,3.343-3.535,4.329-.769-.915-1.89-2.268-3.219-3.932-.1-.248-18.985-22.907-18.985-34.048A22.212,22.212,0,0,1,121.7,5.614a1.48,1.48,0,1,0,1.407-2.6A25.173,25.173,0,0,0,86,25.165C86,34.86,97.82,51.031,103.754,58.674Zm7.41,8.234h0a1.48,1.48,0,0,0,1.116-.508c.018-.021,1.732-1.99,4.194-5.064,6.885.935,10.973,3.522,10.973,5.571,0,4.212-11.354,5.921-16.283,5.921-6.705,0-16.283-2.255-16.283-5.921,0-2.053,4.085-4.635,10.974-5.57,2.462,3.072,4.175,5.041,4.193,5.062A1.48,1.48,0,0,0,111.164,66.908Z" fill="#636363"/>
  </g>
</svg>
