<svg xmlns="http://www.w3.org/2000/svg" width="53.834" height="67.318" viewBox="0 0 53.834 67.318">
  <g id="ring" transform="translate(-48.088)">
    <g id="Group_3724" data-name="Group 3724" transform="translate(57.06 25.796)">
      <g id="Group_3723" data-name="Group 3723" transform="translate(0)">
        <path id="Path_4316" data-name="Path 4316" d="M130.033,184a17.945,17.945,0,1,0,17.945,17.945A17.966,17.966,0,0,0,130.033,184Zm0,33.647a15.7,15.7,0,1,1,15.7-15.7A15.7,15.7,0,0,1,130.033,217.647Z" transform="translate(-112.088 -184)" fill="#636363"/>
      </g>
    </g>
    <g id="Group_3726" data-name="Group 3726" transform="translate(48.088 6.729)">
      <g id="Group_3725" data-name="Group 3725" transform="translate(0)">
        <rect id="Rectangle_2138" data-name="Rectangle 2138" width="6.729" height="2.243" fill="#636363"/>
      </g>
    </g>
    <g id="Group_3728" data-name="Group 3728" transform="translate(48.793 0.08)">
      <g id="Group_3727" data-name="Group 3727" transform="translate(0 0)">
        <rect id="Rectangle_2139" data-name="Rectangle 2139" width="2.243" height="6.04" transform="translate(0 2.083) rotate(-68.199)" fill="#636363"/>
      </g>
    </g>
    <g id="Group_3730" data-name="Group 3730" transform="translate(48.793 11.297)">
      <g id="Group_3729" data-name="Group 3729" transform="translate(0 0)">
        <rect id="Rectangle_2140" data-name="Rectangle 2140" width="6.04" height="2.243" transform="translate(0 2.241) rotate(-21.783)" fill="#636363"/>
      </g>
    </g>
    <g id="Group_3732" data-name="Group 3732" transform="translate(95.193 6.729)">
      <g id="Group_3731" data-name="Group 3731">
        <rect id="Rectangle_2141" data-name="Rectangle 2141" width="6.729" height="2.243" fill="#636363"/>
      </g>
    </g>
    <g id="Group_3734" data-name="Group 3734" transform="translate(94.776 0.079)">
      <g id="Group_3733" data-name="Group 3733" transform="translate(0 0)">
        <rect id="Rectangle_2142" data-name="Rectangle 2142" width="6.04" height="2.243" transform="translate(0 2.241) rotate(-21.783)" fill="#636363"/>
      </g>
    </g>
    <g id="Group_3736" data-name="Group 3736" transform="translate(94.773 11.299)">
      <g id="Group_3735" data-name="Group 3735" transform="translate(0 0)">
        <rect id="Rectangle_2143" data-name="Rectangle 2143" width="2.243" height="6.04" transform="translate(0 2.083) rotate(-68.199)" fill="#636363"/>
      </g>
    </g>
    <g id="Group_3738" data-name="Group 3738" transform="translate(51.446 0)">
      <g id="Group_3737" data-name="Group 3737" transform="translate(0)">
        <path id="Path_4317" data-name="Path 4317" d="M117.38,34.787a23.553,23.553,0,0,0-12.8-12.8V15.7a1.113,1.113,0,0,0-.607-.981l4.853-6.176c.019-.025.028-.053.045-.079a.935.935,0,0,0,.063-.085c.01-.019.013-.04.022-.061A1.146,1.146,0,0,0,109,8.185a1.082,1.082,0,0,0,.039-.157,1.174,1.174,0,0,0,.012-.14,1.093,1.093,0,0,0,0-.16.991.991,0,0,0-.026-.14,1.082,1.082,0,0,0-.049-.156c-.01-.024-.012-.048-.024-.071s-.028-.039-.04-.062-.02-.048-.035-.071L104.392.5a1.192,1.192,0,0,0-.085-.1,1.289,1.289,0,0,0-.089-.1,1.086,1.086,0,0,0-.149-.112c-.026-.017-.049-.038-.077-.053a1.054,1.054,0,0,0-.165-.066.878.878,0,0,0-.112-.037,1.01,1.01,0,0,0-.144-.018A1.037,1.037,0,0,0,103.454,0h-15.7c-.039,0-.075.011-.112.015a1.09,1.09,0,0,0-.149.019c-.035.009-.067.024-.1.035a1.1,1.1,0,0,0-.168.068c-.027.015-.049.034-.075.05A1.057,1.057,0,0,0,86.994.3a.915.915,0,0,0-.086.1,1.058,1.058,0,0,0-.087.1L82.334,7.228c-.015.022-.021.048-.035.071a.647.647,0,0,0-.04.062c-.01.022-.013.047-.024.071a1.083,1.083,0,0,0-.049.156.993.993,0,0,0-.026.14,1.1,1.1,0,0,0-.006.16,1.17,1.17,0,0,0,.012.14,1.081,1.081,0,0,0,.039.157,1.145,1.145,0,0,0,.049.135c.009.02.012.041.022.061a.932.932,0,0,0,.063.085c.017.026.026.054.045.079l4.853,6.176a1.112,1.112,0,0,0-.608.981v6.281a23.553,23.553,0,1,0,30.749,12.8ZM98.252,18.367l2.684-9.394h4.7Zm4.08,2.943h-3.54l3.524-4.486ZM95.6,19.469l-1.164-4.076L92.6,8.972h6l-.311,1.088Zm7.99-16.118,2.252,3.378H101.9Zm-1.954-1.108L99.95,5.62,97.7,2.243ZM97.994,6.729H93.212L95.6,3.14ZM93.508,2.243,91.256,5.62,89.567,2.243ZM87.613,3.351,89.3,6.729H85.361ZM85.574,8.972h4.7l2.684,9.394ZM92.413,21.31h-3.54V16.823Zm3.2,43.749A21.31,21.31,0,0,1,88.8,23.553h13.6a21.31,21.31,0,0,1-6.791,41.505Z" transform="translate(-72.044 0)" fill="#636363"/>
      </g>
    </g>
  </g>
</svg>
