<svg id="graduation-hat_2_" data-name="graduation-hat (2)" xmlns="http://www.w3.org/2000/svg" width="78.041" height="56.096" viewBox="0 0 78.041 56.096">
  <path id="Path_4415" data-name="Path 4415" d="M76.574,88.035,39.99,72.182a2.439,2.439,0,0,0-1.94,0L1.466,88.035a2.441,2.441,0,0,0,0,4.476l13.165,5.7v15.228c0,8.206,10.713,14.634,24.389,14.634s24.389-6.428,24.389-14.634V98.215l2.439-1.057V123.2a2.439,2.439,0,0,0,4.878,0V95.045l5.848-2.534A2.441,2.441,0,0,0,76.574,88.035ZM39.02,77.078l30.45,13.2-2.415,1.046L39.323,87.853a2.439,2.439,0,1,0-.605,4.84l19.533,2.442L39.02,103.468,8.57,90.273Zm19.512,36.365c0,2.3-1.886,4.664-5.175,6.491-7.832,4.351-20.819,4.364-28.674,0-3.289-1.827-5.175-4.193-5.175-6.491V100.329l18.542,8.035a2.439,2.439,0,0,0,1.94,0l18.542-8.035Z" transform="translate(0 -71.981)" fill="#636363"/>
</svg>
