<svg xmlns="http://www.w3.org/2000/svg" width="81.631" height="60.507" viewBox="0 0 81.631 60.507">
  <g id="shoes" transform="translate(0 -66.246)">
    <g id="Group_3760" data-name="Group 3760" transform="translate(0 66.246)">
      <path id="Path_4342" data-name="Path 4342" d="M81.309,116.377c-.963-3.02-3.791-4.854-5.994-5.861-4.525-2.069-9.488-6.469-13.928-11.494l.662-.407a1.211,1.211,0,1,0-1.268-2.064l-.992.609q-.87-1.043-1.7-2.1l.985-.64a1.211,1.211,0,0,0-1.32-2.031l-1.14.741q-.958-1.289-1.839-2.569l.846-.526a1.211,1.211,0,1,0-1.279-2.058l-.915.568A57.272,57.272,0,0,1,49.568,81.7c-.136-.364-1.291-3.7,1.012-6a1.211,1.211,0,0,0-1.713-1.713,7.865,7.865,0,0,0-1.9,7.377,43.158,43.158,0,0,1-7.231,1.4C32.476,83.489,28.91,81.6,27.2,79.886c-6.225-6.225-6.629-12.428-6.632-12.486a1.211,1.211,0,0,0-2.171-.681L.251,90.34a1.211,1.211,0,0,0,.3,1.755c.339.219,34.015,21.985,43.5,27.747,7.724,4.689,18.221,6.912,26.258,6.912a31.044,31.044,0,0,0,6.464-.6,1.211,1.211,0,0,0,.741-.5l3.765-5.477.007-.012a1.227,1.227,0,0,0,.079-.136l.012-.026a1.2,1.2,0,0,0,.054-.137l.005-.014,0-.015,0-.015A6.133,6.133,0,0,0,81.309,116.377ZM28.971,102.465c9.269,5.925,15.612,9.929,18.854,11.9,7.724,4.689,18.221,6.912,26.258,6.912,1.279,0,2.493-.058,3.627-.169L75.8,123.879a41.869,41.869,0,0,1-14.343-.36,48.133,48.133,0,0,1-16.143-5.748c-8.486-5.152-36.428-23.178-42.343-27l2.58-3.358c8.635,5.573,15.308,9.857,19.426,12.5a1.211,1.211,0,0,0,1.307-2.04c-1.824-1.169-4.15-2.661-6.926-4.445a15.97,15.97,0,0,0,1.934-7.635,16.044,16.044,0,0,0-3.678-10.214,1.211,1.211,0,1,0-1.866,1.545,13.615,13.615,0,0,1,3.121,8.669,13.558,13.558,0,0,1-1.557,6.32c-3-1.931-6.447-4.149-10.281-6.624L18.666,70.342A25.685,25.685,0,0,0,25.483,81.6c6.161,6.161,18.638,3.125,22.329,2.046a63.2,63.2,0,0,0,3.564,6.17l-4.115,2.556a1.211,1.211,0,1,0,1.279,2.058l4.183-2.6c.6.87,1.222,1.743,1.864,2.612l-3.27,2.126a1.211,1.211,0,1,0,1.32,2.031l3.419-2.222q.814,1.044,1.654,2.061l-3.041,1.867a1.211,1.211,0,1,0,1.268,2.064l3.361-2.064c6.626,7.594,11.793,10.942,15.012,12.413,4.387,2.006,4.921,4.558,4.9,5.747a42.64,42.64,0,0,1-13.987-.425,48.134,48.134,0,0,1-16.143-5.748c-3.226-1.96-9.553-5.954-18.806-11.869a1.211,1.211,0,1,0-1.3,2.041Z" transform="translate(0 -66.246)" fill="#636363"/>
    </g>
  </g>
</svg>
