<svg xmlns="http://www.w3.org/2000/svg" width="63.729" height="63.742" viewBox="0 0 63.729 63.742">
  <g id="suit" transform="translate(-2 -1.987)">
    <path id="Path_4343" data-name="Path 4343" d="M61.63,21.1l-7.244-4.025-1.85-1.85A3.189,3.189,0,0,0,49.2,14.5l-.4-1.586A3.183,3.183,0,0,0,45.709,10.5h-.466V8.178a3.187,3.187,0,1,0-2.124,0V10.5h-.466a3.183,3.183,0,0,0-3.092,2.414l-.4,1.585a3.189,3.189,0,0,0-3.34.73l-1.85,1.85L26.732,21.1A5.312,5.312,0,0,0,24,25.743v4.935h2.124V25.743a3.186,3.186,0,0,1,1.639-2.785l6.4-3.558,8.951,17.9V58.294H33.559v2.124h7.435v5.311h2.124V60.419h2.124v5.311h2.124V60.419H54.8a3.19,3.19,0,0,0,3.186-3.186V55.108h3.186a3.19,3.19,0,0,0,3.186-3.186V25.743A5.313,5.313,0,0,0,61.63,21.1ZM44.181,4.125a1.062,1.062,0,1,1-1.062,1.062,1.062,1.062,0,0,1,1.062-1.062Zm0,30.551L37.842,22l1.614,1.345a2.136,2.136,0,0,0,1.362.492,1.939,1.939,0,0,0,.245-.015,2.129,2.129,0,0,0,1.451-.835l1.666-2.222,1.666,2.222a2.131,2.131,0,0,0,1.452.835,1.939,1.939,0,0,0,.245.015,2.137,2.137,0,0,0,1.363-.492L50.519,22Zm6.853-17.948,1.133,1.133-4.62,3.851L45.7,19.256,49.693,16.6a1.067,1.067,0,0,1,1.341.133Zm-8.381-4.106h3.056a1.061,1.061,0,0,1,1.031.8l.554,2.217-3.112,2.075-3.112-2.075.554-2.216A1.061,1.061,0,0,1,42.653,12.622Zm-5.325,4.106a1.067,1.067,0,0,1,1.341-.133l3.989,2.661-1.842,2.455-4.62-3.85Zm24.91,35.193a1.063,1.063,0,0,1-1.062,1.062H57.989V50.859h4.249Zm-4.249-3.186V28.554H55.864V57.232A1.063,1.063,0,0,1,54.8,58.294H45.243V37.3l8.951-17.9,6.4,3.558a3.187,3.187,0,0,1,1.639,2.785V48.735Z" transform="translate(1.367)" fill="#636363"/>
    <ellipse id="Ellipse_507" data-name="Ellipse 507" cx="1" cy="1.5" rx="1" ry="1.5" transform="translate(39.864 40.858)" fill="#636363"/>
    <circle id="Ellipse_508" data-name="Ellipse 508" cx="1" cy="1" r="1" transform="translate(39.864 46.858)" fill="#636363"/>
    <circle id="Ellipse_509" data-name="Ellipse 509" cx="1" cy="1" r="1" transform="translate(39.864 51.858)" fill="#636363"/>
    <path id="Path_4344" data-name="Path 4344" d="M5.186,63.926H29.616A3.19,3.19,0,0,0,32.8,60.74V58.616a3.19,3.19,0,0,0-3.186-3.186H16.87V45.87h4.356a5.326,5.326,0,0,0,4.141,4.141V53.3h2.124V50.011a5.32,5.32,0,0,0,4.249-5.2V35.249a3.19,3.19,0,0,0-3.186-3.186H24.3a3.19,3.19,0,0,0-3.186,3.186H14.746V31H12.621v4.249H8.373V31H6.249v4.249H5.186A3.19,3.19,0,0,0,2,38.435v4.249A3.19,3.19,0,0,0,5.186,45.87v9.559A3.19,3.19,0,0,0,2,58.616V60.74a3.19,3.19,0,0,0,3.186,3.186ZM24.3,34.186h4.249a1.063,1.063,0,0,1,1.062,1.062v9.559a3.186,3.186,0,1,1-6.373,0V35.249A1.063,1.063,0,0,1,24.3,34.186Zm-20.181,8.5V38.435a1.063,1.063,0,0,1,1.062-1.062H21.119v6.373H5.186a1.063,1.063,0,0,1-1.062-1.062ZM7.311,45.87h7.435v9.559H7.311ZM4.124,58.616a1.063,1.063,0,0,1,1.062-1.062H29.616a1.063,1.063,0,0,1,1.062,1.062V60.74A1.063,1.063,0,0,1,29.616,61.8H5.186A1.063,1.063,0,0,1,4.124,60.74Z" transform="translate(0 1.803)" fill="#636363"/>
  </g>
</svg>
