<svg xmlns="http://www.w3.org/2000/svg" width="53.412" height="59.451" viewBox="0 0 53.412 59.451">
  <g id="tshirt" transform="translate(-26)">
    <g id="Group_3745" data-name="Group 3745" transform="translate(25.999 0)">
      <path id="Path_4323" data-name="Path 4323" d="M79.308,23.437,71.989,7.415a5.994,5.994,0,0,0-3.133-3.227L60.775.124A1.161,1.161,0,0,0,59.953.04a23.808,23.808,0,0,1-14.494,0,1.16,1.16,0,0,0-.822.084L36.556,4.188a5.994,5.994,0,0,0-3.133,3.227L26.1,23.437a1.161,1.161,0,0,0,.441,1.467l8.744,5.465V58.29a1.161,1.161,0,0,0,1.161,1.161H68.962a1.161,1.161,0,0,0,1.161-1.161V30.369L78.867,24.9a1.161,1.161,0,0,0,.441-1.467ZM58.883,2.7a6.57,6.57,0,0,1-12.353,0A24.58,24.58,0,0,0,58.883,2.7Zm11.24,24.929V20.436a1.161,1.161,0,0,0-2.322,0V57.129H37.611V20.436a1.161,1.161,0,0,0-2.322,0v7.195L28.64,23.475l6.9-15.1A3.724,3.724,0,0,1,37.6,6.263l2.366-1.19a13.108,13.108,0,0,0,7.16,7.543,1.161,1.161,0,1,0,.924-2.131,10.749,10.749,0,0,1-5.99-6.465L44.2,2.946a8.855,8.855,0,0,0,17.022,0L63.353,4.02a10.748,10.748,0,0,1-5.99,6.466,1.161,1.161,0,1,0,.924,2.131,13.107,13.107,0,0,0,7.161-7.543l2.366,1.19A3.724,3.724,0,0,1,69.877,8.38l6.9,15.1Z" transform="translate(-25.999 0)" fill="#636363"/>
      <path id="Path_4324" data-name="Path 4324" d="M247.159,98.561h0a1.161,1.161,0,1,0,1.162,1.161A1.161,1.161,0,0,0,247.158,98.561Z" transform="translate(-220.452 -87.116)" fill="#636363"/>
    </g>
  </g>
</svg>
