<svg xmlns="http://www.w3.org/2000/svg" width="82.766" height="82.119" viewBox="0 0 82.766 82.119">
  <g id="_3d-model" data-name="3d-model" transform="translate(0 -2)">
    <path id="Path_4433" data-name="Path 4433" d="M263.952,379.869h-2.474a1.65,1.65,0,0,0-1.648,1.648v7.454a1.65,1.65,0,0,0,1.648,1.648h2.474a4.129,4.129,0,0,0,4.126-4.123v-2.5A4.129,4.129,0,0,0,263.952,379.869Zm1.683,6.626a1.684,1.684,0,0,1-1.683,1.68h-1.678v-5.863h1.678a1.684,1.684,0,0,1,1.683,1.68Z" transform="translate(-217.839 -316.8)" fill="#636363"/>
    <path id="Path_4434" data-name="Path 4434" d="M206.575,379.869h-4.086a1.222,1.222,0,1,0,0,2.443h3.8v1.71h-3.8a1.222,1.222,0,1,0,0,2.443h3.8v1.71h-3.8a1.222,1.222,0,1,0,0,2.443h4.086a2.159,2.159,0,0,0,2.156-2.157v-6.436a2.159,2.159,0,0,0-2.156-2.157Z" transform="translate(-168.739 -316.8)" fill="#636363"/>
    <path id="Path_4435" data-name="Path 4435" d="M82.692,71.162l-2.057-7.22a1.222,1.222,0,0,0-2.35.67L79.736,69.7,65.143,61.574c.005-.177,0-9.271,0-9.271a1.222,1.222,0,1,0-2.443,0s0,9.342-.014,9.5c-.048.036-5.991,3.354-5.991,3.354A15.7,15.7,0,0,0,42.6,52.816V49.491L62.7,38.3v8.4a1.222,1.222,0,1,0,2.443,0V35.97a1.8,1.8,0,0,0-.962-1.5L42.6,22.449V5.865l3.741,3.744a1.222,1.222,0,1,0,1.728-1.727l-5.3-5.3A1.962,1.962,0,0,0,40,2.574l-5.3,5.308a1.222,1.222,0,0,0,1.728,1.727L40.16,5.865V22.449l-8.4,4.675a1.222,1.222,0,0,0,1.188,2.135l8.431-4.693,20.481,11.4-20.48,11.4L20.9,35.968l7.774-4.36a1.222,1.222,0,0,0-1.2-2.131l-8.9,4.99a1.724,1.724,0,0,0-.962,1.507s0,.005,0,.007,0,25.419,0,25.593L3.031,69.7l1.447-5.091a1.222,1.222,0,1,0-2.35-.668L.074,71.169a1.96,1.96,0,0,0,1.35,2.415l7.215,2.058a1.222,1.222,0,1,0,.67-2.35L4.215,71.839l14.455-8.05c.155.114,7.061,3.975,7.061,3.975-.01.225-.015.452-.015.68a15.666,15.666,0,1,0,31.332,0c0-.228-.006-.454-.015-.68,0,0,6.911-3.863,7.065-3.976L78.55,71.84l-5.092,1.453a1.222,1.222,0,1,0,.67,2.35l7.216-2.058a1.969,1.969,0,0,0,1.347-2.422ZM20.4,62a3.248,3.248,0,0,1-.319-.2c-.017-.153-.012-23.5-.012-23.5l20.1,11.193v3.325a15.7,15.7,0,0,0-14.1,12.337Zm20.986,19.68A13.232,13.232,0,1,1,54.6,68.443,13.242,13.242,0,0,1,41.382,81.675Z" fill="#636363"/>
  </g>
</svg>
