<svg xmlns="http://www.w3.org/2000/svg" xmlns:xlink="http://www.w3.org/1999/xlink" width="75.819" height="76.682" viewBox="0 0 75.819 76.682">
  <defs>
    <filter id="Ellipse_313" x="0" y="0" width="75.819" height="76.682" filterUnits="userSpaceOnUse">
      <feOffset dy="3" input="SourceAlpha"/>
      <feGaussianBlur stdDeviation="3" result="blur"/>
      <feFlood flood-opacity="0.161"/>
      <feComposite operator="in" in2="blur"/>
      <feComposite in="SourceGraphic"/>
    </filter>
  </defs>
  <g id="Group_5252" data-name="Group 5252" transform="translate(9 6)">
    <g transform="matrix(1, 0, 0, 1, -9, -6)" filter="url(#Ellipse_313)">
      <ellipse id="Ellipse_313-2" data-name="Ellipse 313" cx="28.91" cy="29.341" rx="28.91" ry="29.341" transform="translate(9 6)" fill="#fff"/>
    </g>
    <g id="gmail" transform="translate(12.765 18.144)">
      <rect id="Rectangle_913" data-name="Rectangle 913" width="24.814" height="25.03" transform="translate(4.091 0)" fill="#eceff1"/>
      <path id="Path_315" data-name="Path 315" d="M256,158.219l12.409,9.8V148.672Z" transform="translate(-239.455 -143.094)" fill="#cfd8dc"/>
      <path id="Path_316" data-name="Path 316" d="M29.989,64H28.955L16.545,73.8,4.136,64H3.1A3.1,3.1,0,0,0,0,67.1V85.716a3.1,3.1,0,0,0,3.1,3.1H4.136V69.472l12.409,9.545L28.955,69.47V88.818h1.034a3.1,3.1,0,0,0,3.1-3.1V67.1A3.1,3.1,0,0,0,29.989,64Z" transform="translate(0 -63.894)" fill="#f44336"/>
    </g>
  </g>
</svg>
