<svg id="grocery" xmlns="http://www.w3.org/2000/svg" width="50.113" height="53.698" viewBox="0 0 50.113 53.698">
  <path id="Path_4506" data-name="Path 4506" d="M367.84,70.074l1.7-.554,1.748,5.37-1.7.554Zm0,0" transform="translate(-326.69 -61.742)" fill="#636363"/>
  <path id="Path_4507" data-name="Path 4507" d="M344.391,126.081l1.7-.554,1.748,5.369-1.7.555Zm0,0" transform="translate(-305.864 -111.484)" fill="#636363"/>
  <path id="Path_4508" data-name="Path 4508" d="M53.268,17.206a4.877,4.877,0,0,0,1.1,3.807l1.292,1.621V37.587h1.79V24.046l1.293.862a.9.9,0,0,0,.994,0l2.188-1.46,2.188,1.459a.9.9,0,0,0,.994,0l2.188-1.459,2.188,1.459a.9.9,0,0,0,.994,0l2.188-1.459,2.188,1.459a.9.9,0,0,0,.994,0l2.188-1.459,1.79,1.193V51.907H60.134V53.7H85.193a4.48,4.48,0,0,0,4.475-4.475V22.373a.887.887,0,0,0-.192-.541L94.647,8.063a6.028,6.028,0,0,0-.682-5.549A5.718,5.718,0,0,0,89.213,0a5.859,5.859,0,0,0-5.436,3.814l-1.4,3.735L80.718,5.893V2.684a.9.9,0,0,0-.895-.895H69.979a.9.9,0,0,0-.895.895V4.219a2.8,2.8,0,0,0-3.61-.122V2.684a2.653,2.653,0,0,0-5.305,0V4.1a2.739,2.739,0,0,0-3.7.2,2.836,2.836,0,0,0-.015,3.933l.833.86a2.741,2.741,0,0,0-.812.57l-.006,0-.009.009a2.756,2.756,0,0,0-.51.73L54.926,8.52l-1.574.852,2.314,4.272c-.1.059-.208.116-.306.184-.037.025-.069.054-.1.079l-3.463-3.191-1.214,1.316,3.44,3.172a4.883,4.883,0,0,0-.75,2Zm18.9,4.422-2.188,1.46L67.791,21.63a.9.9,0,0,0-.994,0L64.63,23.076c-.005-.09-.021-.167-.021-.253a4.017,4.017,0,0,1,7.818-1.307.9.9,0,0,0-.26.114Zm2.287.863-.017-.011A5.809,5.809,0,0,0,66.4,17.451V11.633h8.055ZM87.878,49.222a2.685,2.685,0,0,1-2.685,2.685h-3.58V24.642l1.79-1.195,2.188,1.459a.9.9,0,0,0,.994,0l1.293-.86ZM85.452,4.441a4.062,4.062,0,0,1,3.761-2.653,3.951,3.951,0,0,1,3.282,1.74,4.24,4.24,0,0,1,.478,3.9l-5.541,14.76-1.342.895L83.9,21.63a.9.9,0,0,0-.994,0l-2.188,1.459L78.9,21.878ZM81.682,9.388l-4.75,12.643-.689.46V11.109l3.58-3.58ZM70.874,3.579h8.055v1.79H70.874Zm-.524,3.58h7.313L74.978,9.844H67.665ZM57.742,5.553a.953.953,0,0,1,1.369,0L60.425,6.9a.895.895,0,0,0,1.534-.632V2.684a.864.864,0,1,1,1.725,0v3.58a.9.9,0,0,0,1.533.627l1.318-1.342a.969.969,0,0,1,1.36,0,1.024,1.024,0,0,1,0,1.432L65.26,9.664l.027.027-.415.415a.889.889,0,0,0-.173.255c-.013.028-.02.055-.03.084a.9.9,0,0,0-.048.236c0,.02-.011.036-.011.055v7.894a5.734,5.734,0,0,0-.565.627l-1.691-3.6a4.832,4.832,0,0,0-3.1-2.506,4.718,4.718,0,0,0-.957-.145l-.229-.269c-.179-.2-.314-.365-.336-.387a1.036,1.036,0,0,1-.268-.91.993.993,0,0,1,.248-.5l.016-.015.022-.024a.959.959,0,0,1,1.2-.113A.895.895,0,0,0,60.1,9.429L57.736,6.988a1.034,1.034,0,0,1,.007-1.435Zm-2.7,11.9a3.079,3.079,0,0,1,1.321-2.136,3.019,3.019,0,0,1,4.385,1.137l2.281,4.859a5.731,5.731,0,0,0-.133.636l-.472-.315a.9.9,0,0,0-.993,0l-2.192,1.458-1.985-1.325-.192-.24L59.37,19.74l-1.1-1.416-2.327,1.8-.2-.248a3.1,3.1,0,0,1-.707-2.425Zm0,0" transform="translate(-44.92 0.001)" fill="#636363"/>
  <path id="Path_4509" data-name="Path 4509" d="M1.911,335.667A4.016,4.016,0,0,0,5.523,337.9a4.066,4.066,0,0,0,1.806-.426l.726-.363.727.363a4.062,4.062,0,0,0,1.805.426,4.017,4.017,0,0,0,3.612-2.232l.312-.626a15.226,15.226,0,0,0,1.6-6.769A4.674,4.674,0,0,0,8.95,324.3v-.716A3.58,3.58,0,0,0,5.37,320v1.79a1.79,1.79,0,0,1,1.79,1.79v.716A4.674,4.674,0,0,0,0,328.272a15.221,15.221,0,0,0,1.6,6.77Zm2.781-10.3a2.883,2.883,0,0,1,2.052.85l.677.677a.9.9,0,0,0,1.266,0l.677-.677a2.9,2.9,0,0,1,4.955,2.052,13.406,13.406,0,0,1-1.41,5.97l-.312.627a2.237,2.237,0,0,1-2.011,1.24,2.262,2.262,0,0,1-1.005-.237l-1.127-.564a.9.9,0,0,0-.8,0l-1.126.564a2.264,2.264,0,0,1-1.006.237,2.237,2.237,0,0,1-2.011-1.243L3.2,334.24a13.407,13.407,0,0,1-1.41-5.968,2.907,2.907,0,0,1,2.9-2.9Zm0,0" transform="translate(0 -284.202)" fill="#636363"/>
</svg>
