<svg id="heartbeat" xmlns="http://www.w3.org/2000/svg" width="58.535" height="47.812" viewBox="0 0 58.535 47.812">
  <g id="Group_3998" data-name="Group 3998" transform="translate(38.382 33.653)">
    <g id="Group_3997" data-name="Group 3997">
      <path id="Path_4528" data-name="Path 4528" d="M337.694,341.585a1.143,1.143,0,0,0-1.617.016l-.032.033a1.143,1.143,0,0,0,1.633,1.6l.032-.033A1.143,1.143,0,0,0,337.694,341.585Z" transform="translate(-335.718 -341.258)" fill="#636363"/>
    </g>
  </g>
  <g id="Group_4000" data-name="Group 4000" transform="translate(43.15 17.812)">
    <g id="Group_3999" data-name="Group 3999">
      <path id="Path_4529" data-name="Path 4529" d="M386.932,206.883h-3.038v-3.038a1.143,1.143,0,0,0-2.287,0v3.038h-3.038a1.143,1.143,0,1,0,0,2.287h3.038v3.038a1.143,1.143,0,0,0,2.287,0V209.17h3.038a1.143,1.143,0,1,0,0-2.287Z" transform="translate(-377.426 -202.702)" fill="#636363"/>
    </g>
  </g>
  <g id="Group_4002" data-name="Group 4002" transform="translate(0 0)">
    <g id="Group_4001" data-name="Group 4001">
      <path id="Path_4530" data-name="Path 4530" d="M52.212,60.7a15.757,15.757,0,0,0-15.5-13.8,15.281,15.281,0,0,0-10.535,4.175A15.281,15.281,0,0,0,15.646,46.9,15.853,15.853,0,0,0,0,62.917a14.021,14.021,0,0,0,1.522,5.86H1.143a1.143,1.143,0,1,0,0,2.287h1.6a64.764,64.764,0,0,0,10.116,12.3,147.362,147.362,0,0,0,12.63,11.107,1.143,1.143,0,0,0,1.389,0c.048-.037,4.887-3.748,10.25-8.8a1.143,1.143,0,1,0-1.569-1.664c-4.09,3.856-7.866,6.914-9.376,8.108A146.558,146.558,0,0,1,14.452,81.731,68,68,0,0,1,5.426,71.064H15.661a1.143,1.143,0,0,0,1.1-.828l2-6.963L24.289,81a1.143,1.143,0,0,0,2.183,0l3.063-9.818h5.1a1.143,1.143,0,0,0,0-2.287H28.694a1.143,1.143,0,0,0-1.091.8L25.38,76.818,19.8,58.948a1.143,1.143,0,0,0-2.19.025l-2.813,9.8H4.073a13,13,0,0,1-1.786-5.86A13.565,13.565,0,0,1,15.646,49.186a13.072,13.072,0,0,1,9.695,4.285,1.143,1.143,0,0,0,1.681,0,13.072,13.072,0,0,1,9.695-4.285,13.442,13.442,0,0,1,13.07,10.875,10.064,10.064,0,1,0,2.426.635ZM48.475,77.81a7.774,7.774,0,1,1,7.774-7.774A7.783,7.783,0,0,1,48.475,77.81Z" transform="translate(0 -46.899)" fill="#636363"/>
    </g>
  </g>
</svg>
