<svg xmlns="http://www.w3.org/2000/svg" width="53.898" height="53.898" viewBox="0 0 53.898 53.898">
  <g id="hospital_4_" data-name="hospital (4)" transform="translate(-2 -2)">
    <path id="Path_4531" data-name="Path 4531" d="M55,18.17H43.322V2.9a.9.9,0,0,0-.9-.9H15.475a.9.9,0,0,0-.9.9V18.17H2.9a.9.9,0,0,0-.9.9V55a.9.9,0,0,0,.9.9H55a.9.9,0,0,0,.9-.9V19.068A.9.9,0,0,0,55,18.17Zm-51.2,1.8h10.78V54.1H3.8ZM31.644,45.119V54.1h-5.39V45.119ZM41.526,54.1H33.441V45.119h1.8v-1.8H22.661v1.8h1.8V54.1H16.373V3.8H41.526Zm12.576,0H43.322V19.966H54.1Z" fill="#636363"/>
    <path id="Path_4532" data-name="Path 4532" d="M50.9,31.186h5.39a.9.9,0,0,0,.9-.9V24.9a.9.9,0,0,0-.9-.9H50.9a.9.9,0,0,0-.9.9v5.39A.9.9,0,0,0,50.9,31.186Zm.9-5.39H55.39V29.39H51.8Z" transform="translate(-4.881 -2.237)" fill="#636363"/>
    <path id="Path_4533" data-name="Path 4533" d="M50.9,41.186h5.39a.9.9,0,0,0,.9-.9V34.9a.9.9,0,0,0-.9-.9H50.9a.9.9,0,0,0-.9.9v5.39A.9.9,0,0,0,50.9,41.186Zm.9-5.39H55.39V39.39H51.8Z" transform="translate(-4.881 -3.254)" fill="#636363"/>
    <path id="Path_4534" data-name="Path 4534" d="M50.9,51.186h5.39a.9.9,0,0,0,.9-.9V44.9a.9.9,0,0,0-.9-.9H50.9a.9.9,0,0,0-.9.9v5.39A.9.9,0,0,0,50.9,51.186Zm.9-5.39H55.39V49.39H51.8Z" transform="translate(-4.881 -4.271)" fill="#636363"/>
    <path id="Path_4535" data-name="Path 4535" d="M12.288,24H6.9a.9.9,0,0,0-.9.9v5.39a.9.9,0,0,0,.9.9h5.39a.9.9,0,0,0,.9-.9V24.9A.9.9,0,0,0,12.288,24Zm-.9,5.39H7.8V25.8H11.39Z" transform="translate(-0.407 -2.237)" fill="#636363"/>
    <path id="Path_4536" data-name="Path 4536" d="M20.9,27.39h3.593a.9.9,0,0,0,.9-.9V22.9a.9.9,0,0,0-.9-.9H20.9a.9.9,0,0,0-.9.9v3.593A.9.9,0,0,0,20.9,27.39Zm.9-3.593h1.8v1.8H21.8Z" transform="translate(-1.83 -2.034)" fill="#636363"/>
    <path id="Path_4537" data-name="Path 4537" d="M33.492,22H29.9a.9.9,0,0,0-.9.9v3.593a.9.9,0,0,0,.9.9h3.593a.9.9,0,0,0,.9-.9V22.9A.9.9,0,0,0,33.492,22Zm-.9,3.593H30.8V23.8h1.8Z" transform="translate(-2.746 -2.034)" fill="#636363"/>
    <path id="Path_4538" data-name="Path 4538" d="M38,22.9v3.593a.9.9,0,0,0,.9.9h3.593a.9.9,0,0,0,.9-.9V22.9a.9.9,0,0,0-.9-.9H38.9A.9.9,0,0,0,38,22.9Zm1.8.9h1.8v1.8H39.8Z" transform="translate(-3.661 -2.034)" fill="#636363"/>
    <path id="Path_4539" data-name="Path 4539" d="M20.9,35.39h3.593a.9.9,0,0,0,.9-.9V30.9a.9.9,0,0,0-.9-.9H20.9a.9.9,0,0,0-.9.9v3.593A.9.9,0,0,0,20.9,35.39Zm.9-3.593h1.8v1.8H21.8Z" transform="translate(-1.83 -2.847)" fill="#636363"/>
    <path id="Path_4540" data-name="Path 4540" d="M33.492,30H29.9a.9.9,0,0,0-.9.9v3.593a.9.9,0,0,0,.9.9h3.593a.9.9,0,0,0,.9-.9V30.9A.9.9,0,0,0,33.492,30Zm-.9,3.593H30.8V31.8h1.8Z" transform="translate(-2.746 -2.847)" fill="#636363"/>
    <path id="Path_4541" data-name="Path 4541" d="M42.492,30H38.9a.9.9,0,0,0-.9.9v3.593a.9.9,0,0,0,.9.9h3.593a.9.9,0,0,0,.9-.9V30.9A.9.9,0,0,0,42.492,30Zm-.9,3.593H39.8V31.8h1.8Z" transform="translate(-3.661 -2.847)" fill="#636363"/>
    <path id="Path_4542" data-name="Path 4542" d="M20.9,43.39h3.593a.9.9,0,0,0,.9-.9V38.9a.9.9,0,0,0-.9-.9H20.9a.9.9,0,0,0-.9.9v3.593A.9.9,0,0,0,20.9,43.39Zm.9-3.593h1.8v1.8H21.8Z" transform="translate(-1.83 -3.661)" fill="#636363"/>
    <path id="Path_4543" data-name="Path 4543" d="M33.492,38H29.9a.9.9,0,0,0-.9.9v3.593a.9.9,0,0,0,.9.9h3.593a.9.9,0,0,0,.9-.9V38.9A.9.9,0,0,0,33.492,38Zm-.9,3.593H30.8V39.8h1.8Z" transform="translate(-2.746 -3.661)" fill="#636363"/>
    <path id="Path_4544" data-name="Path 4544" d="M42.492,38H38.9a.9.9,0,0,0-.9.9v3.593a.9.9,0,0,0,.9.9h3.593a.9.9,0,0,0,.9-.9V38.9A.9.9,0,0,0,42.492,38Zm-.9,3.593H39.8V39.8h1.8Z" transform="translate(-3.661 -3.661)" fill="#636363"/>
    <path id="Path_4545" data-name="Path 4545" d="M12.288,34H6.9a.9.9,0,0,0-.9.9v5.39a.9.9,0,0,0,.9.9h5.39a.9.9,0,0,0,.9-.9V34.9A.9.9,0,0,0,12.288,34Zm-.9,5.39H7.8V35.8H11.39Z" transform="translate(-0.407 -3.254)" fill="#636363"/>
    <path id="Path_4546" data-name="Path 4546" d="M12.288,44H6.9a.9.9,0,0,0-.9.9v5.39a.9.9,0,0,0,.9.9h5.39a.9.9,0,0,0,.9-.9V44.9A.9.9,0,0,0,12.288,44Zm-.9,5.39H7.8V45.8H11.39Z" transform="translate(-0.407 -4.271)" fill="#636363"/>
    <path id="Path_4547" data-name="Path 4547" d="M25.9,14.983h2.695v2.695a.9.9,0,0,0,.9.9h3.593a.9.9,0,0,0,.9-.9V14.983h2.695a.9.9,0,0,0,.9-.9V10.492a.9.9,0,0,0-.9-.9H33.983V6.9a.9.9,0,0,0-.9-.9H29.492a.9.9,0,0,0-.9.9V9.593H25.9a.9.9,0,0,0-.9.9v3.593A.9.9,0,0,0,25.9,14.983Zm.9-3.593h2.695a.9.9,0,0,0,.9-.9V7.8h1.8v2.695a.9.9,0,0,0,.9.9H35.78v1.8H33.085a.9.9,0,0,0-.9.9V16.78h-1.8V14.085a.9.9,0,0,0-.9-.9H26.8Z" transform="translate(-2.339 -0.407)" fill="#636363"/>
    <path id="Path_4548" data-name="Path 4548" d="M42,56h1.8v1.8H42Z" transform="translate(-4.068 -5.491)" fill="#636363"/>
    <path id="Path_4549" data-name="Path 4549" d="M42,52h1.8v1.8H42Z" transform="translate(-4.068 -5.085)" fill="#636363"/>
    <path id="Path_4550" data-name="Path 4550" d="M42,48h1.8v1.8H42Z" transform="translate(-4.068 -4.678)" fill="#636363"/>
  </g>
</svg>
