<svg xmlns="http://www.w3.org/2000/svg" width="48.223" height="48.222" viewBox="0 0 48.223 48.222">
  <g id="mall" transform="translate(-1 -1)">
    <path id="Path_4510" data-name="Path 4510" d="M48.444,44.555h-.778V1.778A.778.778,0,0,0,46.889,1h-28a.778.778,0,0,0-.778.778V15H3.333a.778.778,0,0,0-.778.778V44.555H1.778A.778.778,0,0,0,1,45.333v3.111a.778.778,0,0,0,.778.778H48.444a.778.778,0,0,0,.778-.778V45.333A.778.778,0,0,0,48.444,44.555Zm-11.667,0V40.666a3.889,3.889,0,0,0-7.778,0v3.889H27.444V35.222H46.111v9.333Zm-1.556,0H30.555V40.666a2.333,2.333,0,1,1,4.667,0Zm-7.778-28h3.111v4.667H27.444Zm0,9.333h3.111v4.667H27.444Zm-1.556,0H19.667V19.667h6.222Zm-7.778,0H11.889V19.667h6.222Zm-7.778,0H4.111V19.667h6.222Zm0,1.556v6.222H4.111V27.444Zm1.556,0h6.222v6.222H11.889Zm7.778,0h6.222v6.222H19.667ZM46.111,2.556v9.333H19.667V2.556ZM19.667,13.444H46.111V33.666H27.444V32.111h3.889a.778.778,0,0,0,.778-.778V25.111a.778.778,0,0,0-.778-.778H27.444V22.778h3.889A.778.778,0,0,0,32.111,22V15.778A.778.778,0,0,0,31.333,15H19.667Zm6.222,3.111v1.556H4.111V16.555ZM4.111,35.222H25.889v9.333H20.444v-7a.778.778,0,0,0-.778-.778H10.333a.778.778,0,0,0-.778.778v7H4.111Zm7,9.333V38.333h3.111v6.222Zm4.667-6.222h3.111v6.222H15.778Zm31.889,9.333H2.556V46.111H47.666Z" fill="#636363"/>
    <path id="Path_4511" data-name="Path 4511" d="M30.556,9.072l.082.164a.81.81,0,0,0,1.391,0l.082-.164v2.15h1.556V5.778a.778.778,0,0,0-1.474-.348l-.859,1.72-.859-1.72A.778.778,0,0,0,29,5.778v5.444h1.556Z" transform="translate(-6.222 -0.889)" fill="#636363"/>
    <path id="Path_4512" data-name="Path 4512" d="M38.556,9.667h1.556v1.556h1.556V7.333a2.333,2.333,0,0,0-4.667,0v3.889h1.556Zm.778-3.111a.779.779,0,0,1,.778.778v.778H38.556V7.333A.779.779,0,0,1,39.333,6.556Z" transform="translate(-8 -0.889)" fill="#636363"/>
    <path id="Path_4513" data-name="Path 4513" d="M45.778,11.222h2.333V9.667H46.556V5H45v5.444A.778.778,0,0,0,45.778,11.222Z" transform="translate(-9.778 -0.889)" fill="#636363"/>
    <path id="Path_4514" data-name="Path 4514" d="M51.778,11.222h2.333V9.667H52.556V5H51v5.444A.778.778,0,0,0,51.778,11.222Z" transform="translate(-11.111 -0.889)" fill="#636363"/>
    <path id="Path_4515" data-name="Path 4515" d="M43.778,26.778h9.333A.778.778,0,0,0,53.889,26V19.778A.778.778,0,0,0,53.111,19H43.778a.778.778,0,0,0-.778.778V26A.778.778,0,0,0,43.778,26.778Zm8.556-1.556H49.222V20.556h3.111Zm-7.778-4.667h3.111v4.667H44.556Z" transform="translate(-9.334 -4)" fill="#636363"/>
    <path id="Path_4516" data-name="Path 4516" d="M43.778,38.778h9.333A.778.778,0,0,0,53.889,38V31.778A.778.778,0,0,0,53.111,31H43.778a.778.778,0,0,0-.778.778V38A.778.778,0,0,0,43.778,38.778Zm8.556-1.556H49.222V32.556h3.111Zm-7.778-4.667h3.111v4.667H44.556Z" transform="translate(-9.334 -6.667)" fill="#636363"/>
  </g>
</svg>
