<svg xmlns="http://www.w3.org/2000/svg" width="38.545" height="44.969" viewBox="0 0 38.545 44.969">
  <g id="Group_5202" data-name="Group 5202" transform="translate(-1452.84 -854)">
    <path id="Path_4558" data-name="Path 4558" d="M94.424,84.879a1.606,1.606,0,0,0,1.606,1.606h6.424a1.606,1.606,0,0,0,1.606-1.606V80.061h4.818a1.606,1.606,0,0,0,1.606-1.606V72.03a1.606,1.606,0,0,0-1.606-1.606h-4.818V65.606A1.606,1.606,0,0,0,102.454,64H96.03a1.606,1.606,0,0,0-1.606,1.606v4.818H89.606A1.606,1.606,0,0,0,88,72.03v6.424a1.606,1.606,0,0,0,1.606,1.606h4.818Zm-3.212-8.03V73.636H96.03a1.606,1.606,0,0,0,1.606-1.606V67.212h3.212V72.03a1.606,1.606,0,0,0,1.606,1.606h4.818v3.212h-4.818a1.606,1.606,0,0,0-1.606,1.606v4.818H97.636V78.454a1.606,1.606,0,0,0-1.606-1.606Z" transform="translate(1372.87 799.636)" fill="#636363"/>
    <path id="Path_4559" data-name="Path 4559" d="M66.724,60.873a1.608,1.608,0,0,0,1.1,0A28.532,28.532,0,0,0,86.545,34.141V24.03a1.606,1.606,0,0,0-1.057-1.51L67.821,16.1a1.609,1.609,0,0,0-1.1,0L49.057,22.521A1.606,1.606,0,0,0,48,24.03v10.11A28.532,28.532,0,0,0,66.724,60.873ZM51.212,25.155,65.667,19.9v2.526h3.212V19.9l14.454,5.255V34.14A25.32,25.32,0,0,1,68.879,56.951V51.333H65.667v5.619A25.321,25.321,0,0,1,51.212,34.141Z" transform="translate(1404.839 838)" fill="#636363"/>
  </g>
</svg>
