<svg id="money_2_" data-name="money (2)" xmlns="http://www.w3.org/2000/svg" width="61.271" height="59.228" viewBox="0 0 61.271 59.228">
  <g id="Group_3976" data-name="Group 3976" transform="translate(0 19.453)">
    <g id="Group_3975" data-name="Group 3975">
      <path id="Path_4517" data-name="Path 4517" d="M52.06,160.017H.877a.876.876,0,0,0-.877.875v24.569a.876.876,0,0,0,.875.877H35.68a.877.877,0,0,0,0-1.754H1.755V161.771H51.181v2.194a.876.876,0,0,0,.875.877h0a.876.876,0,0,0,.877-.875v-3.073A.876.876,0,0,0,52.06,160.017Z" transform="translate(0 -160.017)" fill="#636363"/>
    </g>
  </g>
  <g id="Group_3978" data-name="Group 3978" transform="translate(2.047 6.146)">
    <g id="Group_3977" data-name="Group 3977">
      <path id="Path_4518" data-name="Path 4518" d="M60.058,65.253,19.113,56.04a.877.877,0,0,0-1.049.665l-2.047,9.213a.878.878,0,1,0,1.714.381l1.856-8.354,40.087,9.019a.827.827,0,0,0,.193.021.877.877,0,0,0,.191-1.733Z" transform="translate(-15.995 -56.019)" fill="#636363"/>
    </g>
  </g>
  <g id="Group_3980" data-name="Group 3980" transform="translate(13.291 0)">
    <g id="Group_3979" data-name="Group 3979">
      <path id="Path_4519" data-name="Path 4519" d="M131.721,18.286,107.154,8.05a.88.88,0,0,0-1.126.419l-2.047,4.094a.88.88,0,1,0,1.549.837c.009-.017.018-.034.026-.051v0l1.68-3.362,23.808,9.92a.88.88,0,1,0,.678-1.623Z" transform="translate(-103.875 -7.982)" fill="#636363"/>
    </g>
  </g>
  <g id="Group_3982" data-name="Group 3982" transform="translate(32.756 23.548)">
    <g id="Group_3981" data-name="Group 3981">
      <path id="Path_4520" data-name="Path 4520" d="M265,192.017h-8.124a.877.877,0,1,0,0,1.754H265a.877.877,0,1,0,0-1.754Z" transform="translate(-256 -192.017)" fill="#636363"/>
    </g>
  </g>
  <g id="Group_3984" data-name="Group 3984" transform="translate(16.436 23.606)">
    <g id="Group_3983" data-name="Group 3983">
      <path id="Path_4521" data-name="Path 4521" d="M137.464,192.473a9.008,9.008,0,1,0,9.008,9.008A9.008,9.008,0,0,0,137.464,192.473Zm0,16.378a7.37,7.37,0,1,1,7.37-7.37A7.37,7.37,0,0,1,137.464,208.851Z" transform="translate(-128.456 -192.473)" fill="#636363"/>
    </g>
  </g>
  <g id="Group_3986" data-name="Group 3986" transform="translate(38.751 26.472)">
    <g id="Group_3985" data-name="Group 3985">
      <path id="Path_4522" data-name="Path 4522" d="M314.116,214.873c-5.425,0-11.26,1.282-11.26,4.094v24.567c0,2.813,5.835,4.095,11.26,4.095s11.26-1.282,11.26-4.095V218.967C325.376,216.155,319.541,214.873,314.116,214.873Zm9.213,28.646c-.155.568-3.224,2.063-9.213,2.063s-9.058-1.495-9.213-2.047v-1.609c2.178,1.1,5.776,1.609,9.213,1.609s7.035-.517,9.213-1.61Zm0-4.094c-.155.568-3.224,2.063-9.213,2.063s-9.058-1.494-9.213-2.047v-1.609c2.178,1.1,5.776,1.609,9.213,1.609s7.035-.517,9.213-1.61Zm0-4.094c-.155.568-3.224,2.063-9.213,2.063s-9.058-1.494-9.213-2.047v-1.609c2.178,1.1,5.776,1.609,9.213,1.609s7.035-.517,9.213-1.61Zm0-4.094c-.155.568-3.224,2.063-9.213,2.063s-9.058-1.494-9.213-2.047v-1.609c2.178,1.1,5.776,1.609,9.213,1.609s7.035-.517,9.213-1.61Zm0-4.094c-.155.568-3.224,2.063-9.213,2.063s-9.058-1.494-9.213-2.047v-1.609c2.178,1.092,5.776,1.609,9.213,1.609s7.035-.517,9.213-1.61Zm0-4.094c-.155.568-3.224,2.063-9.213,2.063s-9.058-1.494-9.213-2.047v-1.609c2.178,1.092,5.776,1.609,9.213,1.609s7.035-.517,9.213-1.61Zm-9.213-2.032c-5.979,0-9.048-1.49-9.213-2.029v-.006c.165-.57,3.234-2.06,9.213-2.06,5.937,0,9.008,1.468,9.213,2.047C323.124,219.547,320.053,221.015,314.116,221.015Z" transform="translate(-302.856 -214.873)" fill="#636363"/>
    </g>
  </g>
  <g id="Group_3988" data-name="Group 3988" transform="translate(4.093 23.548)">
    <g id="Group_3987" data-name="Group 3987">
      <path id="Path_4523" data-name="Path 4523" d="M45.154,208.394H37.416l-3.669-4.013v-6.654l4.051-3.956h7.355a.877.877,0,0,0,0-1.755H37.443a.878.878,0,0,0-.614.249l-4.573,4.46a1.1,1.1,0,0,0-.264.717v7.28a.878.878,0,0,0,.229.592l4.159,4.549a.877.877,0,0,0,.648.286h8.126a.877.877,0,1,0,0-1.754Z" transform="translate(-31.992 -192.017)" fill="#636363"/>
    </g>
  </g>
  <g id="Group_3990" data-name="Group 3990" transform="translate(22.373 28.008)">
    <g id="Group_3989" data-name="Group 3989">
      <path id="Path_4524" data-name="Path 4524" d="M178.439,230.456h-1.024c-.318,0-.512-.178-.512-.256s.193-.256.512-.256h2.559a1.024,1.024,0,0,0,0-2.047h-1.024a1.024,1.024,0,0,0-2.047,0v.046a2.383,2.383,0,0,0-2.047,2.252,2.444,2.444,0,0,0,2.559,2.308h1.024c.318,0,.512.178.512.256s-.193.256-.512.256H175.88a1.024,1.024,0,0,0,0,2.047H176.9a1.024,1.024,0,0,0,2.047,0v-.046A2.383,2.383,0,0,0,181,232.764,2.444,2.444,0,0,0,178.439,230.456Z" transform="translate(-174.856 -226.873)" fill="#636363"/>
    </g>
  </g>
</svg>
