<svg xmlns="http://www.w3.org/2000/svg" width="60.883" height="48.707" viewBox="0 0 60.883 48.707">
  <g id="pharmacy_1_" data-name="pharmacy (1)" transform="translate(0 -19.272)">
    <path id="Path_4553" data-name="Path 4553" d="M71.916,124.177H70.795v-4.059h1.015a1.015,1.015,0,0,0,1.015-1.015v-6.088A1.015,1.015,0,0,0,71.809,112H55.574a1.015,1.015,0,0,0-1.015,1.015V119.1a1.015,1.015,0,0,0,1.015,1.015h1.015v4.059H55.468a4.973,4.973,0,0,0-4.967,4.967v3.781a6.086,6.086,0,0,0-8.466.137L31.989,143.109a6.115,6.115,0,0,0-1.678,5.421H22.088a6.088,6.088,0,1,0,0,12.177H36.294a6.083,6.083,0,0,0,4.947-9.63l9.259-9.259v11.892a4.973,4.973,0,0,0,4.967,4.968H71.916a4.973,4.973,0,0,0,4.967-4.967V129.144a4.973,4.973,0,0,0-4.967-4.967ZM33.424,144.543l4.305-4.3,5.74,5.74L39.8,149.646a6.077,6.077,0,0,0-.9-.531l2.42-2.42-1.435-1.435-2.87,2.87.528.528a6.086,6.086,0,0,0-1.245-.128h-3.9A4.078,4.078,0,0,1,33.424,144.543ZM18.029,154.618a4.064,4.064,0,0,1,4.059-4.059h6.088v8.118H22.088a4.064,4.064,0,0,1-4.059-4.059Zm18.265,4.059H30.206v-8.118h6.088a4.059,4.059,0,0,1,0,8.118ZM49.21,140.238,44.9,144.543l-5.74-5.74L43.47,134.5a4.059,4.059,0,1,1,5.74,5.74Zm21.585-22.15H68.765v-2.029H66.736v2.029H64.706v-4.059h6.088Zm-10.147,0v-4.059h2.029v4.059Zm-4.059-4.059h2.029v4.059H56.589Zm2.029,6.088H68.765v4.059H58.618Zm-3.15,6.088H71.916a2.941,2.941,0,0,1,2.938,2.938v2.136H52.53v-2.136a2.941,2.941,0,0,1,2.938-2.938Zm-2.938,7.1H74.854v12.177H52.53Zm19.386,23.339H55.468a2.943,2.943,0,0,1-2.794-2.029h20.15v-2.029H52.53v-5.074H74.854v6.194A2.941,2.941,0,0,1,71.916,156.648Z" transform="translate(-16 -92.727)" fill="#636363"/>
    <path id="Path_4554" data-name="Path 4554" d="M368.118,299.044h-3.044V296h-2.029v3.044H360v2.029h3.044v3.044h2.029v-3.044h3.044Z" transform="translate(-316.367 -253.389)" fill="#636363"/>
    <path id="Path_4555" data-name="Path 4555" d="M64,456h4.059v2.029H64Z" transform="translate(-57.912 -393.095)" fill="#636363"/>
    <path id="Path_4556" data-name="Path 4556" d="M144,456h4.059v2.029H144Z" transform="translate(-127.765 -393.095)" fill="#636363"/>
    <path id="Path_4557" data-name="Path 4557" d="M0,0H4.059V2.029H0Z" transform="translate(28.18 48.225) rotate(-45)" fill="#636363"/>
  </g>
</svg>
