<svg id="beer" xmlns="http://www.w3.org/2000/svg" width="51.734" height="55" viewBox="0 0 51.734 55">
  <path id="Path_4498" data-name="Path 4498" d="M43.292,173.527A3.292,3.292,0,1,0,40,170.235,3.3,3.3,0,0,0,43.292,173.527Zm0-4.7a1.411,1.411,0,1,1-1.411,1.411A1.412,1.412,0,0,1,43.292,168.824Z" transform="translate(-40 -135.459)" fill="#636363"/>
  <path id="Path_4499" data-name="Path 4499" d="M62.871,35.068a1.006,1.006,0,1,0-1.006-1.006A1.006,1.006,0,0,0,62.871,35.068Z" transform="translate(-56.723 -33.057)" fill="#636363"/>
  <path id="Path_4500" data-name="Path 4500" d="M118.61,109.562a.94.94,0,0,0-1.33,0l-.665.665-.665-.665a.94.94,0,0,0-1.33,1.33l.665.665-.665.665a.94.94,0,1,0,1.33,1.33l.665-.665.665.665a.94.94,0,0,0,1.33-1.33l-.665-.665.665-.665A.94.94,0,0,0,118.61,109.562Z" transform="translate(-96.862 -91.361)" fill="#636363"/>
  <path id="Path_4501" data-name="Path 4501" d="M212.941,190.943a.94.94,0,0,0-.941.941v6.584a.941.941,0,0,0,1.881,0v-6.584A.94.94,0,0,0,212.941,190.943Z" transform="translate(-171.553 -153.815)" fill="#636363"/>
  <path id="Path_4502" data-name="Path 4502" d="M200.941,190.943a.94.94,0,0,0-.941.941v6.584a.941.941,0,0,0,1.881,0v-6.584A.94.94,0,0,0,200.941,190.943Z" transform="translate(-162.375 -153.815)" fill="#636363"/>
  <path id="Path_4503" data-name="Path 4503" d="M188.941,190.943a.94.94,0,0,0-.941.941v6.584a.941.941,0,0,0,1.881,0v-6.584A.94.94,0,0,0,188.941,190.943Z" transform="translate(-153.197 -153.815)" fill="#636363"/>
  <path id="Path_4504" data-name="Path 4504" d="M40.941,84.8H90.794a.941.941,0,1,0,0-1.881H85.9a3.271,3.271,0,0,0,.309-1.228l.8-15.275A3.75,3.75,0,0,0,85.032,59.4,3.762,3.762,0,0,0,78.1,58.52a3.762,3.762,0,0,0-7.055,1.82v.034a3.286,3.286,0,0,0-.909,6.238l.794,15.076a3.275,3.275,0,0,0,.309,1.228H55.3V65.17a7.661,7.661,0,0,0-7.652-7.652,2.011,2.011,0,0,1-2.008-2.008V50.12c0-1.239,1.13-2.008,2.949-2.008H75.066l1.667,5a.939.939,0,0,0,.892.643h1.881a.94.94,0,0,0,.892-.643l1.667-5h4.025a.94.94,0,0,0,.941-.941V43.409a.94.94,0,0,0-.941-.941H83.269v-.941H85.15a.941.941,0,0,0,0-1.881H83.269a4.7,4.7,0,1,0-9.406,0H71.981a.941.941,0,1,0,0,1.881h1.881v.941H47.652A7.661,7.661,0,0,0,40,50.12V55.51a7.661,7.661,0,0,0,7.652,7.652A2.011,2.011,0,0,1,49.66,65.17V82.915h-8.72a.941.941,0,1,0,0,1.881Zm30.57-22.575a1.4,1.4,0,0,1,.4.07.941.941,0,0,0,1.146-1.252,1.858,1.858,0,0,1-.14-.7,1.881,1.881,0,0,1,3.762-.024c0,.02-.013.111-.015.131a.94.94,0,0,0,1.257.956,1.864,1.864,0,0,1,.639-.122.94.94,0,0,0,.941-.941,1.881,1.881,0,0,1,3.762-.024c0,.02-.013.111-.015.131a.94.94,0,0,0,1.257.956,1.864,1.864,0,0,1,.639-.122,1.881,1.881,0,0,1,0,3.763H81.388V64.1a.941.941,0,0,0-1.881,0v3.292a.47.47,0,0,1-.941,0V64.1a.941.941,0,0,0-1.881,0v.941H71.511a1.411,1.411,0,1,1,0-2.821ZM72.8,81.588l-.772-14.664h4.652v.47a2.352,2.352,0,0,0,4.7,0v-.47H85.1l-.772,14.664a1.4,1.4,0,0,1-1.4,1.327H74.2a1.4,1.4,0,0,1-1.4-1.327Zm6.024-29.714H78.3l-1.255-3.763h3.035Zm-.263-15.05a2.825,2.825,0,0,1,2.822,2.822H75.744A2.825,2.825,0,0,1,78.566,36.824Zm-2.822,4.7h5.644v.941H75.744ZM47.652,61.281a5.778,5.778,0,0,1-5.771-5.771V50.12a5.778,5.778,0,0,1,5.771-5.771h37.5v1.881H48.593c-3.337,0-4.83,1.954-4.83,3.89V55.51a3.894,3.894,0,0,0,3.89,3.89,5.777,5.777,0,0,1,5.771,5.771V82.915H51.542V65.17A3.894,3.894,0,0,0,47.652,61.281Z" transform="translate(-40 -34.499)" fill="#636363"/>
  <path id="Path_4505" data-name="Path 4505" d="M90.794,258.943H40.941a.941.941,0,1,0,0,1.881H90.794a.941.941,0,1,0,0-1.881Z" transform="translate(-40 -205.824)" fill="#636363"/>
</svg>
