<svg id="select" xmlns="http://www.w3.org/2000/svg" width="43.006" height="43.007" viewBox="0 0 43.006 43.007">
  <g id="Group_2348" data-name="Group 2348" transform="translate(8.96 1.792)">
    <g id="Group_2347" data-name="Group 2347">
      <path id="Path_3307" data-name="Path 3307" d="M111.149,21.333h-3.584a.9.9,0,1,0,0,1.792h3.584a.9.9,0,1,0,0-1.792Z" transform="translate(-106.669 -21.333)" fill="#00a1e5"/>
    </g>
  </g>
  <g id="Group_2350" data-name="Group 2350" transform="translate(19.712 1.792)">
    <g id="Group_2349" data-name="Group 2349">
      <path id="Path_3308" data-name="Path 3308" d="M239.149,21.333h-3.584a.9.9,0,0,0,0,1.792h3.584a.9.9,0,0,0,0-1.792Z" transform="translate(-234.669 -21.333)" fill="#00a1e5"/>
    </g>
  </g>
  <g id="Group_2352" data-name="Group 2352" transform="translate(8.96 29.568)">
    <g id="Group_2351" data-name="Group 2351">
      <path id="Path_3309" data-name="Path 3309" d="M111.149,352h-3.584a.9.9,0,1,0,0,1.792h3.584a.9.9,0,1,0,0-1.792Z" transform="translate(-106.669 -352)" fill="#00a1e5"/>
    </g>
  </g>
  <g id="Group_2354" data-name="Group 2354" transform="translate(19.712 29.568)">
    <g id="Group_2353" data-name="Group 2353">
      <path id="Path_3310" data-name="Path 3310" d="M239.149,352h-3.584a.9.9,0,0,0,0,1.792h3.584a.9.9,0,0,0,0-1.792Z" transform="translate(-234.669 -352)" fill="#00a1e5"/>
    </g>
  </g>
  <g id="Group_2356" data-name="Group 2356" transform="translate(1.792 19.712)">
    <g id="Group_2355" data-name="Group 2355">
      <path id="Path_3311" data-name="Path 3311" d="M22.232,234.667a.9.9,0,0,0-.9.9v3.584a.9.9,0,0,0,1.792,0v-3.584A.9.9,0,0,0,22.232,234.667Z" transform="translate(-21.336 -234.667)" fill="#00a1e5"/>
    </g>
  </g>
  <g id="Group_2358" data-name="Group 2358" transform="translate(1.792 8.96)">
    <g id="Group_2357" data-name="Group 2357">
      <path id="Path_3312" data-name="Path 3312" d="M22.232,106.667a.9.9,0,0,0-.9.9v3.584a.9.9,0,1,0,1.792,0v-3.584A.9.9,0,0,0,22.232,106.667Z" transform="translate(-21.336 -106.667)" fill="#00a1e5"/>
    </g>
  </g>
  <g id="Group_2360" data-name="Group 2360" transform="translate(30.464 19.712)">
    <g id="Group_2359" data-name="Group 2359">
      <path id="Path_3313" data-name="Path 3313" d="M363.566,234.667a.9.9,0,0,0-.9.9v3.584a.9.9,0,0,0,1.792,0v-3.584A.9.9,0,0,0,363.566,234.667Z" transform="translate(-362.67 -234.667)" fill="#00a1e5"/>
    </g>
  </g>
  <g id="Group_2362" data-name="Group 2362" transform="translate(30.464 8.96)">
    <g id="Group_2361" data-name="Group 2361">
      <path id="Path_3314" data-name="Path 3314" d="M363.566,106.667a.9.9,0,0,0-.9.9v3.584a.9.9,0,0,0,1.792,0v-3.584A.9.9,0,0,0,363.566,106.667Z" transform="translate(-362.67 -106.667)" fill="#00a1e5"/>
    </g>
  </g>
  <g id="Group_2364" data-name="Group 2364" transform="translate(28.672)">
    <g id="Group_2363" data-name="Group 2363">
      <path id="Path_3315" data-name="Path 3315" d="M345.816,0h-3.584a.9.9,0,0,0-.9.9V4.48a.9.9,0,0,0,.9.9h3.584a.9.9,0,0,0,.9-.9V.9A.9.9,0,0,0,345.816,0Z" transform="translate(-341.336)" fill="#00a1e5"/>
    </g>
  </g>
  <g id="Group_2366" data-name="Group 2366" transform="translate(0)">
    <g id="Group_2365" data-name="Group 2365">
      <path id="Path_3316" data-name="Path 3316" d="M4.483,0H.9A.9.9,0,0,0,0,.9V4.48a.9.9,0,0,0,.9.9H4.483a.9.9,0,0,0,.9-.9V.9A.9.9,0,0,0,4.483,0Z" transform="translate(-0.003)" fill="#00a1e5"/>
    </g>
  </g>
  <g id="Group_2368" data-name="Group 2368" transform="translate(0 27.776)">
    <g id="Group_2367" data-name="Group 2367">
      <path id="Path_3317" data-name="Path 3317" d="M4.483,330.667H.9a.9.9,0,0,0-.9.9v3.584a.9.9,0,0,0,.9.9H4.483a.9.9,0,0,0,.9-.9v-3.584A.9.9,0,0,0,4.483,330.667Z" transform="translate(-0.003 -330.667)" fill="#00a1e5"/>
    </g>
  </g>
  <g id="Group_2370" data-name="Group 2370" transform="translate(25.088 23.296)">
    <g id="Group_2369" data-name="Group 2369">
      <path id="Path_3318" data-name="Path 3318" d="M316.13,286.405,300,277.445a.9.9,0,0,0-1.267,1.117l7.168,17.92a.894.894,0,0,0,.821.563h.011a.9.9,0,0,0,.824-.543l2.546-5.942,5.942-2.546a.9.9,0,0,0,.082-1.607Z" transform="translate(-298.671 -277.332)" fill="#00a1e5"/>
    </g>
  </g>
</svg>
