<svg id="clipboards" xmlns="http://www.w3.org/2000/svg" width="35.502" height="38.361" viewBox="0 0 35.502 38.361">
  <g id="Group_2335" data-name="Group 2335" transform="translate(5.033 17.243)">
    <g id="Group_2334" data-name="Group 2334" transform="translate(0 0)">
      <rect id="Rectangle_1610" data-name="Rectangle 1610" width="17.142" height="1.319" fill="#302f2f"/>
    </g>
  </g>
  <g id="Group_2337" data-name="Group 2337" transform="translate(5.683 21.311)">
    <g id="Group_2336" data-name="Group 2336">
      <path id="Path_3303" data-name="Path 3303" d="M80.1,240v1.421H93.929L95.35,240Z" transform="translate(-80.102 -239.998)" fill="#302f2f"/>
    </g>
  </g>
  <g id="Group_2339" data-name="Group 2339" transform="translate(5.683 25.574)">
    <g id="Group_2338" data-name="Group 2338">
      <path id="Path_3304" data-name="Path 3304" d="M80.1,288v1.421h9.565L91.087,288Z" transform="translate(-80.102 -287.998)" fill="#302f2f"/>
    </g>
  </g>
  <g id="Group_2341" data-name="Group 2341" transform="translate(5.033 30.429)">
    <g id="Group_2340" data-name="Group 2340" transform="translate(0 0)">
      <rect id="Rectangle_1611" data-name="Rectangle 1611" width="7.912" height="1.319" fill="#302f2f"/>
    </g>
  </g>
  <g id="Group_2343" data-name="Group 2343" transform="translate(0)">
    <g id="Group_2342" data-name="Group 2342">
      <path id="Path_3305" data-name="Path 3305" d="M51.187,15.194l-2.009-2.009a1.421,1.421,0,0,0-2.009,0L31.731,28.623v4.055c3.42,0,2.555,0,3.988-.006L43.1,25.294V35.519a1.421,1.421,0,0,1-1.421,1.421H18.944a1.421,1.421,0,0,1-1.421-1.421V9.945a1.421,1.421,0,0,1,1.421-1.421h2.842v2.842H38.834V8.525h2.842A1.421,1.421,0,0,1,43.1,9.945v5.277l1.421-1.431V9.945A2.841,2.841,0,0,0,41.676,7.1H38.589a4.27,4.27,0,0,0-2.837-2.676,1.956,1.956,0,0,1-1.346-1.346,4.264,4.264,0,0,0-8.193,0,1.958,1.958,0,0,1-1.348,1.347A4.271,4.271,0,0,0,22.029,7.1H18.944A2.841,2.841,0,0,0,16.1,9.945V35.519a2.842,2.842,0,0,0,2.842,2.842H41.676a2.842,2.842,0,0,0,2.842-2.842V23.873l6.67-6.67A1.421,1.421,0,0,0,51.187,15.194ZM23.206,8.5a2.857,2.857,0,0,1,2.052-2.708,3.371,3.371,0,0,0,2.32-2.319,2.843,2.843,0,0,1,5.463,0A3.368,3.368,0,0,0,35.36,5.793a2.854,2.854,0,0,1,2.054,2.731V9.945H23.206ZM35.127,31.254c-.368,0-.519,0-1.029,0l-.947-.947v-1.1l.957-.957,2.009,2.009Zm2-2-2.009-2.009,9.042-9.042,2.009,2.009ZM47.168,19.212,45.159,17.2l1-1,2.009,2.009ZM49.178,17.2l-2.009-2.009,1-1L50.182,16.2Z" transform="translate(-16.102)" fill="#302f2f"/>
    </g>
  </g>
  <g id="Group_2345" data-name="Group 2345" transform="translate(13.163 3.197)">
    <g id="Group_2344" data-name="Group 2344">
      <circle id="Ellipse_427" data-name="Ellipse 427" cx="1.066" cy="1.066" r="1.066" fill="#302f2f"/>
    </g>
  </g>
</svg>
