<svg id="comparison" xmlns="http://www.w3.org/2000/svg" width="33.754" height="33.753" viewBox="0 0 33.754 33.753">
  <g id="Group_2346" data-name="Group 2346" transform="translate(0)">
    <path id="Path_3306" data-name="Path 3306" d="M27.925,11.13l5.1-1.418A.989.989,0,0,0,32.5,7.807L26.155,9.569h0l-8.289,2.3V.993a.989.989,0,0,0-1.978,0V12.421l-8.8,2.444h0L.724,16.633a.989.989,0,1,0,.529,1.906l3.968-1.1L.141,25.9A.989.989,0,0,0,0,26.414a7.344,7.344,0,0,0,14.688,0,.989.989,0,0,0-.141-.509L8.86,16.426l15.426-4.285-5.08,8.468a.99.99,0,0,0-.141.509,7.344,7.344,0,0,0,14.688,0,.987.987,0,0,0-.141-.509ZM11.953,25.425H2.735l4.609-7.682Zm9.848-5.3,4.609-7.682,4.609,7.682Z" transform="translate(0 -0.004)" fill="#636363"/>
  </g>
</svg>
