<svg id="drill" xmlns="http://www.w3.org/2000/svg" width="35.998" height="35.998" viewBox="0 0 35.998 35.998">
  <path id="Path_4325" data-name="Path 4325" d="M47,13h1.161v1.161H47Z" transform="translate(-20.292 -6.033)" fill="#636363"/>
  <path id="Path_4326" data-name="Path 4326" d="M43,13h1.161v1.161H43Z" transform="translate(-18.614 -6.033)" fill="#636363"/>
  <path id="Path_4327" data-name="Path 4327" d="M39,13h1.161v1.161H39Z" transform="translate(-16.937 -6.033)" fill="#636363"/>
  <path id="Path_4328" data-name="Path 4328" d="M17.838,35.256a.581.581,0,0,1,.581-.581H30.031a1.744,1.744,0,0,0,1.742-1.742v-.653a1.606,1.606,0,0,0,1.113-1.933l-.374-1.5a2.136,2.136,0,0,0,1-1.821v-11.1A5.3,5.3,0,0,0,32.353,5.691V4.484a1.162,1.162,0,0,0,1.161-1.161V2.161A1.162,1.162,0,0,0,32.353,1h-9.29A1.162,1.162,0,0,0,21.9,2.161V3.322a1.162,1.162,0,0,0,1.161,1.161h3.484V5.645H17.838a2.906,2.906,0,0,0-2.9,2.9v.581H12.612a1.162,1.162,0,0,0-1.161-1.161H10.29A1.162,1.162,0,0,0,9.129,9.129H2.742a1.742,1.742,0,1,0,0,3.484H9.129a1.162,1.162,0,0,0,1.161,1.161h1.161a1.162,1.162,0,0,0,1.161-1.161h2.322v.581a2.906,2.906,0,0,0,2.9,2.9h6.146a1.4,1.4,0,0,1,1.4,1.4v.921h-.581a1.744,1.744,0,0,0-1.742,1.742v2.322a1.744,1.744,0,0,0,1.742,1.742h.581v3.656a2.152,2.152,0,0,0,2.15,2.15A2.177,2.177,0,0,0,28,29.98l.829-.184.422,1.408a1.6,1.6,0,0,0,1.358,1.135v.6a.581.581,0,0,1-.581.581H18.418a1.742,1.742,0,0,0,0,3.484H37V35.837H18.418A.581.581,0,0,1,17.838,35.256ZM11.451,9.129V10.29H10.29V9.129ZM2.742,11.451a.581.581,0,1,1,0-1.161H9.129v1.161Zm7.548,1.161V11.451h1.162v1.161Zm2.322-1.161V10.29h2.322v1.161Zm23.225-.5A4.138,4.138,0,0,1,33,14.88l-.2.069a2.9,2.9,0,0,0-2.768,2.889v8.233l-2.211.442a1.773,1.773,0,0,1-.341.034h-.931V17.5a2.54,2.54,0,0,0-.685-1.732l2.83-4.448,2.5-1.25V6.806h.5A4.148,4.148,0,0,1,35.837,10.949Zm-15.1,3.985H19.58V6.806h1.161ZM21.9,6.806h8.129V9.35l-1.879.939H21.9Zm1.161-4.645h9.29V3.322h-9.29Zm4.645,2.322h3.484V5.645H27.708ZM16.1,13.193V8.548a1.744,1.744,0,0,1,1.742-1.742h.581v8.129h-.581A1.744,1.744,0,0,1,16.1,13.193ZM21.9,14.935V11.451h5.329L24.9,15.109a2.558,2.558,0,0,0-.919-.175Zm2.9,8.129a.581.581,0,0,1-.581-.581V20.16a.581.581,0,0,1,.581-.581h.581v3.484Zm2.945,5.782a1,1,0,0,1-1.2-.965v-.172h.931a2.928,2.928,0,0,0,.57-.056l2.211-.442a1.164,1.164,0,0,0,.933-1.139V17.838A1.739,1.739,0,0,1,32.353,16.2V27.029a.984.984,0,0,1-.775.966Zm2.615,2.023-.4-1.327,1.44-.32.351,1.405a.475.475,0,0,1,.013.111.454.454,0,0,1-.453.453H30.8a.451.451,0,0,1-.434-.323Z" transform="translate(-1 -1)" fill="#636363"/>
</svg>
