<svg id="kitchen_1_" data-name="kitchen (1)" xmlns="http://www.w3.org/2000/svg" width="33.402" height="33.402" viewBox="0 0 33.402 33.402">
  <g id="Group_3747" data-name="Group 3747">
    <g id="Group_3746" data-name="Group 3746">
      <path id="Path_4329" data-name="Path 4329" d="M32.846,104H20.6a.557.557,0,0,0-.557.557v13.361H17.258v-.557h.557a.557.557,0,0,0,0-1.113H12.248a.557.557,0,0,0,0,1.113H12.8v.557H7.237v-.557h.557a.557.557,0,0,0,0-1.113H2.227a.557.557,0,0,0,0,1.113h.557v.557H.557a.557.557,0,0,0-.557.557v11.134a.557.557,0,0,0,.557.557H32.846a.557.557,0,0,0,.557-.557V104.557A.557.557,0,0,0,32.846,104ZM13.918,117.361h2.227v.557H13.918Zm-10.021,0H6.124v.557H3.9Zm5.01,11.691H1.113v-6.68H8.907Zm0-7.794H1.113v-2.227H8.907Zm11.134,7.794H10.021V119.031H20.041Zm12.248,0H21.155V114.021H32.289Zm0-16.144H21.155v-7.794H32.289Z" transform="translate(0 -96.763)" fill="#636363"/>
      <path id="Path_4330" data-name="Path 4330" d="M160.557,343.794h6.68a.557.557,0,0,0,.557-.557v-6.68a.557.557,0,0,0-.557-.557h-6.68a.557.557,0,0,0-.557.557v6.68A.557.557,0,0,0,160.557,343.794Zm.557-6.68h5.567v5.567h-5.567Z" transform="translate(-148.866 -312.618)" fill="#636363"/>
      <path id="Path_4331" data-name="Path 4331" d="M312.557,179.34a.557.557,0,0,0,.557-.557v-2.227a.557.557,0,1,0-1.113,0v2.227A.557.557,0,0,0,312.557,179.34Z" transform="translate(-290.288 -163.752)" fill="#636363"/>
      <path id="Path_4332" data-name="Path 4332" d="M312.557,259.34a.557.557,0,0,0,.557-.557v-2.227a.557.557,0,1,0-1.113,0v2.227A.557.557,0,0,0,312.557,259.34Z" transform="translate(-290.288 -238.185)" fill="#636363"/>
      <path id="Path_4333" data-name="Path 4333" d="M16.188,9.891a.557.557,0,0,0,.358.129h16.7a.557.557,0,0,0,.428-.914l-5.567-6.68a.557.557,0,0,0-.428-.2h-.557V.557A.557.557,0,0,0,26.566,0h-3.34a.557.557,0,0,0-.557.557v1.67h-.557a.557.557,0,0,0-.428.2l-5.567,6.68A.557.557,0,0,0,16.188,9.891Zm7.595-8.778H26.01V2.227H23.783ZM22.374,3.34h5.045l4.64,5.567H17.734Z" transform="translate(-14.876)" fill="#636363"/>
    </g>
  </g>
</svg>
