<svg id="shoes" xmlns="http://www.w3.org/2000/svg" width="39.645" height="29.385" viewBox="0 0 39.645 29.385">
  <g id="Group_3760" data-name="Group 3760">
    <path id="Path_4342" data-name="Path 4342" d="M39.488,90.592a5.134,5.134,0,0,0-2.911-2.847,22.7,22.7,0,0,1-6.764-5.582l.322-.2a.588.588,0,1,0-.616-1l-.482.3q-.423-.506-.827-1.022l.479-.311a.588.588,0,0,0-.641-.986l-.554.36q-.465-.626-.893-1.247l.411-.255a.588.588,0,1,0-.621-1l-.444.276a27.813,27.813,0,0,1-1.874-3.321,2.867,2.867,0,0,1,.492-2.916A.588.588,0,0,0,23.732,70a3.82,3.82,0,0,0-.925,3.583,20.959,20.959,0,0,1-3.511.679c-3.524.353-5.257-.565-6.088-1.4a10.337,10.337,0,0,1-3.221-6.064.588.588,0,0,0-1.054-.331L.122,77.947a.588.588,0,0,0,.147.852c.165.106,16.519,10.677,21.128,13.475a26.267,26.267,0,0,0,12.752,3.357,15.076,15.076,0,0,0,3.139-.292.588.588,0,0,0,.36-.242l1.829-2.66,0-.006a.6.6,0,0,0,.038-.066l.006-.013a.583.583,0,0,0,.026-.066l0-.007,0-.007,0-.007A2.978,2.978,0,0,0,39.488,90.592ZM14.07,83.836c4.5,2.878,7.582,4.822,9.156,5.779a26.267,26.267,0,0,0,12.752,3.357c.621,0,1.211-.028,1.761-.082l-.926,1.347a20.333,20.333,0,0,1-6.966-.175,23.376,23.376,0,0,1-7.84-2.791c-4.121-2.5-17.691-11.256-20.564-13.111L2.7,76.526c4.194,2.706,7.434,4.787,9.434,6.068a.588.588,0,0,0,.635-.991c-.886-.568-2.016-1.292-3.363-2.158a7.756,7.756,0,0,0,.939-3.708,7.791,7.791,0,0,0-1.786-4.96.588.588,0,1,0-.906.751,6.612,6.612,0,0,1,1.516,4.21,6.584,6.584,0,0,1-.756,3.069c-1.458-.938-3.131-2.015-4.993-3.217l5.65-7.355A12.474,12.474,0,0,0,12.376,73.7c2.992,2.992,9.051,1.518,10.844.993a30.691,30.691,0,0,0,1.731,3l-2,1.242a.588.588,0,1,0,.621,1L25.6,78.671c.291.422.593.847.905,1.268l-1.588,1.032a.588.588,0,1,0,.641.986l1.66-1.079q.4.507.8,1l-1.477.907a.588.588,0,1,0,.616,1l1.632-1c3.218,3.688,5.727,5.314,7.29,6.028,2.13.974,2.39,2.213,2.381,2.791a20.708,20.708,0,0,1-6.793-.206,23.376,23.376,0,0,1-7.84-2.791c-1.567-.952-4.639-2.891-9.133-5.764a.588.588,0,1,0-.634.991Z" transform="translate(0 -66.246)" fill="#636363"/>
  </g>
</svg>
