<svg id="tools" xmlns="http://www.w3.org/2000/svg" width="34.801" height="34.803" viewBox="0 0 34.801 34.803">
  <path id="Path_54" data-name="Path 54" d="M338.02,155.148a.68.68,0,1,0,.68.679A.679.679,0,0,0,338.02,155.148Zm0,0" transform="translate(-314.444 -144.602)" fill="#00a1e5"/>
  <path id="Path_55" data-name="Path 55" d="M156.325,336.84a.68.68,0,1,0,.68.68A.68.68,0,0,0,156.325,336.84Zm0,0" transform="translate(-145.099 -313.944)" fill="#00a1e5"/>
  <path id="Path_56" data-name="Path 56" d="M34.457,4.181a.679.679,0,0,0-.636.183L31,7.2H29.652L28.164,5.664V4.294l2.778-2.819A.68.68,0,0,0,30.675.354a6.8,6.8,0,0,0-8.738,8.2L16.93,13.565,8.588,5.2V3.563a.68.68,0,0,0-.33-.583L3.452.1a.679.679,0,0,0-.83.1L.7,2.12a.68.68,0,0,0-.1.831L3.481,7.757a.68.68,0,0,0,.583.33H5.7l8.342,8.361L9.058,21.436a6.8,6.8,0,0,0-8.2,8.738.68.68,0,0,0,1.127.262L4.8,27.6H6.157L7.7,29.144V30.5L4.865,33.32a.68.68,0,0,0,.262,1.127,6.8,6.8,0,0,0,7.687-2.476,6.721,6.721,0,0,0,1.05-5.728l4.006-4.006.918,1-.421.421a.68.68,0,0,0,.961.961l.381-.381,8.61,9.352.02.02a4.079,4.079,0,0,0,5.768-5.768l-.021-.02-9.367-8.593.377-.377a.68.68,0,0,0-.961-.961l-.418.418-1-.917,4.025-4.025a6.8,6.8,0,0,0,8.2-8.737.679.679,0,0,0-.49-.445ZM6.467,6.928a.673.673,0,0,0-.481-.193H4.449L2.036,2.707,3.208,1.535,7.229,3.948V5.485a.68.68,0,0,0,.2.48l8.541,8.561-.961.961Zm17.29,13.259,9.4,8.622a2.719,2.719,0,0,1-3.846,3.845l-8.638-9.383Zm-1-.92-3,3-.918-1,2.923-2.924Zm5.75-7.033a5.432,5.432,0,0,1-1.737-.283.681.681,0,0,0-.7.164L12.615,25.569a.68.68,0,0,0-.164.7A5.443,5.443,0,0,1,7.3,33.442,5.568,5.568,0,0,1,6.7,33.41l2.159-2.142a.68.68,0,0,0,.2-.482V28.862a.68.68,0,0,0-.2-.481L6.919,26.435a.68.68,0,0,0-.481-.2H4.516a.681.681,0,0,0-.483.2L1.891,28.6A5.5,5.5,0,0,1,1.859,28a5.443,5.443,0,0,1,7.175-5.155.679.679,0,0,0,.7-.164L23.186,9.231a.68.68,0,0,0,.164-.7A5.443,5.443,0,0,1,28.5,1.359a5.555,5.555,0,0,1,.61.034L27,3.538a.679.679,0,0,0-.2.477V5.938A.679.679,0,0,0,27,6.41l1.878,1.946a.679.679,0,0,0,.489.208h1.923a.679.679,0,0,0,.482-.2L33.91,6.2a5.442,5.442,0,0,1-5.406,6.03Zm0,0" transform="translate(-0.5 0.001)" fill="#00a1e5"/>
  <path id="Path_57" data-name="Path 57" d="M192.629,183.624l-8.506,8.506a.68.68,0,1,0,.961.961l8.506-8.506a.68.68,0,1,0-.961-.961Zm0,0" transform="translate(-171.456 -170.957)" fill="#00a1e5"/>
  <path id="Path_58" data-name="Path 58" d="M351.606,352.34a.68.68,0,0,0,.96-.963l-6.127-6.107a.68.68,0,0,0-.96.963Zm0,0" transform="translate(-321.843 -321.616)" fill="#00a1e5"/>
</svg>
