<svg id="Group_5598" data-name="Group 5598" xmlns="http://www.w3.org/2000/svg" width="27.998" height="31.163" viewBox="0 0 27.998 31.163">
  <path id="Path_4323" data-name="Path 4323" d="M53.942,12.285l-3.836-8.4A3.142,3.142,0,0,0,48.463,2.2L44.228.065A.609.609,0,0,0,43.8.021a12.479,12.479,0,0,1-7.6,0,.608.608,0,0,0-.431.044L31.533,2.2a3.142,3.142,0,0,0-1.642,1.691l-3.836,8.4a.609.609,0,0,0,.231.769l4.583,2.865V30.554a.609.609,0,0,0,.609.609H48.519a.609.609,0,0,0,.609-.609V15.919l4.583-2.865a.609.609,0,0,0,.231-.769ZM43.236,1.416a3.444,3.444,0,0,1-6.475,0A12.884,12.884,0,0,0,43.236,1.416Zm5.892,13.067V10.712a.609.609,0,0,0-1.217,0V29.945H32.086V10.712a.609.609,0,0,0-1.217,0v3.771l-3.485-2.178L31,4.392a1.952,1.952,0,0,1,1.082-1.11l1.24-.624a6.871,6.871,0,0,0,3.753,3.954A.609.609,0,1,0,37.557,5.5a5.634,5.634,0,0,1-3.14-3.389l1.12-.563a4.642,4.642,0,0,0,8.922,0l1.12.563A5.634,5.634,0,0,1,42.439,5.5a.609.609,0,1,0,.484,1.117,6.87,6.87,0,0,0,3.753-3.954l1.24.624A1.952,1.952,0,0,1,49,4.392L52.613,12.3Z" transform="translate(-25.999 0)" fill="#636363"/>
  <path id="Path_4324" data-name="Path 4324" d="M246.606,98.561h0a.609.609,0,1,0,.609.609A.608.608,0,0,0,246.605,98.561Z" transform="translate(-232.607 -92.562)" fill="#636363"/>
</svg>
