<svg id="Group_5200" data-name="Group 5200" xmlns="http://www.w3.org/2000/svg" width="20.183" height="21.076" viewBox="0 0 20.183 21.076">
  <g id="market-store">
    <path id="Path_4595" data-name="Path 4595" d="M29.443,196.215h-.428V185.681h0a2.514,2.514,0,0,1-1.437-.46,2.5,2.5,0,0,1-1.447.46,2.465,2.465,0,0,1-.321-.026v7.835a.81.81,0,0,1-.81.81H22.09v-2.219l1.026,1.712a.647.647,0,1,0,1.11-.665l-2.062-3.443a.64.64,0,0,0-.592-.306c-.016,0-2.39,0-2.4,0a.642.642,0,0,0-.6.307L16.5,193.129a.647.647,0,1,0,1.11.665l1.033-1.723v2.23H15.731a.81.81,0,0,1-.81-.81v-7.835a2.465,2.465,0,0,1-.321.026,2.545,2.545,0,0,1-.494-.049,2.5,2.5,0,0,1-.953-.411,2.513,2.513,0,0,1-1.437.46h0v10.534h-.428a1.014,1.014,0,1,0,0,2.027H29.443a1.014,1.014,0,1,0,0-2.027Z" transform="translate(-10.274 -177.166)" fill="#00a1e5"/>
    <path id="Path_4596" data-name="Path 4596" d="M212.662,197.226a1.557,1.557,0,1,0,1.349,1.543A1.455,1.455,0,0,0,212.662,197.226Z" transform="translate(-202.571 -188.649)" fill="#00a1e5"/>
    <path id="Path_4597" data-name="Path 4597" d="M11.294,7.373A1.441,1.441,0,0,0,13.088,6.4l.076-.254A1.438,1.438,0,0,0,16,6.273l.035-.176A1.439,1.439,0,0,0,17.33,7.426c.049,0,.1.007.145.007a1.442,1.442,0,0,0,1.433-1.3l.011-.107a1.438,1.438,0,0,0,2.876,0l.011.107a1.442,1.442,0,0,0,1.433,1.3c.048,0,.1,0,.145-.007A1.439,1.439,0,0,0,24.674,6.1l.035.176a1.438,1.438,0,0,0,2.84-.122l.076.254A1.442,1.442,0,0,0,29,7.433a1.457,1.457,0,0,0,.413-.06,1.442,1.442,0,0,0,.969-1.794l-1.3-4.355A1.715,1.715,0,0,0,27.442,0H13.27a1.715,1.715,0,0,0-1.644,1.224l-1.3,4.355A1.442,1.442,0,0,0,11.294,7.373Z" transform="translate(-10.265)" fill="#00a1e5"/>
  </g>
</svg>
