<svg xmlns="http://www.w3.org/2000/svg" width="31.074" height="31.076" viewBox="0 0 31.074 31.076">
  <g id="increase" transform="translate(-0.002 -0.001)">
    <g id="Group_5316" data-name="Group 5316" transform="translate(1.829 18.225)">
      <path id="Path_5320" data-name="Path 5320" d="M34.693,313.043H31.036a.91.91,0,0,1-.91-.91V301.161a.91.91,0,0,1,.91-.91h3.657a.91.91,0,0,1,.91.91v10.971A.91.91,0,0,1,34.693,313.043Z" transform="translate(-30.126 -300.251)" fill="#ffdd6c"/>
    </g>
    <g id="Group_5317" data-name="Group 5317" transform="translate(9.143 14.568)">
      <path id="Path_5321" data-name="Path 5321" d="M155.193,256.45h-3.657a.91.91,0,0,1-.91-.91V240.911a.91.91,0,0,1,.91-.91h3.657a.91.91,0,0,1,.91.91v14.628A.91.91,0,0,1,155.193,256.45Z" transform="translate(-150.626 -240.001)" fill="#f77600"/>
    </g>
    <g id="Group_5318" data-name="Group 5318" transform="translate(16.457 10.911)">
      <path id="Path_5322" data-name="Path 5322" d="M275.693,199.856h-3.657a.91.91,0,0,1-.91-.91V180.661a.91.91,0,0,1,.91-.91h3.657a.91.91,0,0,1,.91.91v18.285A.91.91,0,0,1,275.693,199.856Z" transform="translate(-271.126 -179.751)" fill="#1fb4ff"/>
    </g>
    <g id="Group_5319" data-name="Group 5319" transform="translate(23.771 7.254)">
      <path id="Path_5323" data-name="Path 5323" d="M396.193,143.263h-3.657a.91.91,0,0,1-.91-.91V120.411a.91.91,0,0,1,.91-.91h3.657a.91.91,0,0,1,.91.91v21.941A.91.91,0,0,1,396.193,143.263Z" transform="translate(-391.626 -119.501)" fill="#ff4c5b"/>
    </g>
    <path id="Path_5324" data-name="Path 5324" d="M77.079,300.251H75.251v12.792h1.828a.91.91,0,0,0,.91-.91V301.161A.91.91,0,0,0,77.079,300.251Z" transform="translate(-70.683 -282.026)" fill="#fec300"/>
    <path id="Path_5325" data-name="Path 5325" d="M197.579,240h-1.828V256.45h1.828a.91.91,0,0,0,.91-.91V240.911A.91.91,0,0,0,197.579,240Z" transform="translate(-183.869 -225.433)" fill="#ff4c5b"/>
    <path id="Path_5326" data-name="Path 5326" d="M318.079,179.751h-1.828v20.105h1.828a.91.91,0,0,0,.91-.91V180.661A.91.91,0,0,0,318.079,179.751Z" transform="translate(-297.055 -168.84)" fill="#2982ff"/>
    <path id="Path_5327" data-name="Path 5327" d="M438.579,119.5h-1.828v23.762h1.828a.91.91,0,0,0,.91-.91V120.411A.91.91,0,0,0,438.579,119.5Z" transform="translate(-410.241 -112.247)" fill="#d90048"/>
    <g id="Group_5320" data-name="Group 5320" transform="translate(0.001 29.256)">
      <path id="Path_5328" data-name="Path 5328" d="M30.167,483.822H.911a.91.91,0,1,1,0-1.821H30.167a.91.91,0,1,1,0,1.821Z" transform="translate(-0.001 -482.001)" fill="#384949"/>
    </g>
    <path id="Path_5329" data-name="Path 5329" d="M28.338,0H24.681a.91.91,0,0,0,0,1.821h1.41a29.164,29.164,0,0,1-4.482,3.1C17.735,7.129,10.984,9.972.822,10.976a.91.91,0,0,0,.088,1.816c.03,0,.06,0,.091,0A63.2,63.2,0,0,0,13.959,10.2a44.725,44.725,0,0,0,8.662-3.756,30.537,30.537,0,0,0,4.807-3.363v1.49a.91.91,0,0,0,1.821,0V.911a.91.91,0,0,0-.91-.91Z" transform="translate(0)" fill="#d9e9fa"/>
    <path id="Path_5330" data-name="Path 5330" d="M270.63,482H256v1.821H270.63a.91.91,0,1,0,0-1.821Z" transform="translate(-240.463 -452.745)" fill="#151f1f"/>
    <path id="Path_5331" data-name="Path 5331" d="M268.8,0h-3.657a.91.91,0,0,0,0,1.821h1.41a29.166,29.166,0,0,1-4.482,3.1,41.073,41.073,0,0,1-6.07,2.8V9.663a43.484,43.484,0,0,0,7.082-3.222,30.536,30.536,0,0,0,4.807-3.363v1.49a.91.91,0,1,0,1.821,0V.911A.91.91,0,0,0,268.8,0Z" transform="translate(-240.464)" fill="#bfd9f5"/>
  </g>
</svg>
