<svg id="mortarboard" xmlns="http://www.w3.org/2000/svg" width="20.835" height="18.22" viewBox="0 0 20.835 18.22">
  <path id="Path_4603" data-name="Path 4603" d="M420.262,187.092v-6.48l-1.221.407v6.073a1.921,1.921,0,0,0-1.308,1.818v3.269a.61.61,0,0,0,.61.61h2.615a.61.61,0,0,0,.61-.61V188.91A1.921,1.921,0,0,0,420.262,187.092Z" transform="translate(-400.735 -174.57)" fill="#00a1e5"/>
  <path id="Path_4604" data-name="Path 4604" d="M102.316,204.006,96.4,202.034v4.158a.61.61,0,0,0,.179.432,8.932,8.932,0,0,0,12.632,0,.61.61,0,0,0,.179-.432v-4.158l-5.916,1.972A1.832,1.832,0,0,1,102.316,204.006Z" transform="translate(-92.477 -195.12)" fill="#00a1e5"/>
  <path id="Path_4605" data-name="Path 4605" d="M10.418,39.894a.61.61,0,0,0,.193-.031l9.807-3.269a.61.61,0,0,0,0-1.158l-9.807-3.269a.611.611,0,0,0-.386,0L.417,35.436a.61.61,0,0,0,0,1.158l9.807,3.269a.61.61,0,0,0,.193.031Z" transform="translate(0 -32.135)" fill="#00a1e5"/>
</svg>
