<svg id="tree" xmlns="http://www.w3.org/2000/svg" width="22.246" height="22.246" viewBox="0 0 22.246 22.246">
  <path id="Path_4598" data-name="Path 4598" d="M5.257,17.032c2.875,0,5.214-2.675,5.214-5.909a6.425,6.425,0,0,0-1.529-4.16,7.351,7.351,0,0,0,.225-1.706C9.168,2.382,7.414,0,5.257,0S1.3,2.382,1.3,5.257a7.36,7.36,0,0,0,.225,1.706A6.283,6.283,0,0,0,0,11.123C0,14.358,2.382,17.032,5.257,17.032Zm0,0" transform="translate(0 0)" fill="#00a1e5"/>
  <path id="Path_4599" data-name="Path 4599" d="M.652,368.517H21.595a.652.652,0,1,0,0-1.3h-.652v-1.3h.652a.652.652,0,0,0,0-1.3h-.652v-1.955a.651.651,0,0,0-.652-.652H16.337a.651.651,0,0,0-.652.652v1.955h-.652a.652.652,0,0,0,0,1.3h.652v1.3H13.078v-2.751a5.954,5.954,0,0,1-1.3.144,5.762,5.762,0,0,1-1.3-.155v2.762H6.561v-2.751a5.954,5.954,0,0,1-2.607,0v2.751H.652a.652.652,0,1,0,0,1.3Zm16.337-2.607h2.65v1.3h-2.65Zm0,0" transform="translate(0 -346.271)" fill="#00a1e5"/>
  <path id="Path_4600" data-name="Path 4600" d="M215.6,6.653a7.69,7.69,0,0,1,1.434,4.47,7.579,7.579,0,0,1-2.165,5.364,4.69,4.69,0,0,0,2.165.545c2.875,0,5.214-2.675,5.214-5.909a6.283,6.283,0,0,0-1.529-4.16,7.36,7.36,0,0,0,.225-1.706c0-2.875-1.754-5.257-3.91-5.257a3.353,3.353,0,0,0-2.451,1.185A7.732,7.732,0,0,1,215.6,6.653Zm0,0" transform="translate(-205.258 0)" fill="#00a1e5"/>
</svg>
