<svg id="corporation" xmlns="http://www.w3.org/2000/svg" width="223.481" height="223.481" viewBox="0 0 223.481 223.481">
  <path id="Path_4064" data-name="Path 4064" d="M138.291,3H38.966A4.965,4.965,0,0,0,34,7.966V226.481H143.257V7.966A4.965,4.965,0,0,0,138.291,3Z" transform="translate(42.977 -3)" fill="#ef6662"/>
  <path id="Path_4065" data-name="Path 4065" d="M19.483,51.764A2.484,2.484,0,0,1,17,49.281v-29.8a2.483,2.483,0,1,1,4.966,0v29.8A2.484,2.484,0,0,1,19.483,51.764Z" transform="translate(17.764 17.764)" fill="#316596"/>
  <path id="Path_4066" data-name="Path 4066" d="M79.977,29V187.92H7.966A4.965,4.965,0,0,1,3,182.954V33.966A4.965,4.965,0,0,1,7.966,29Z" transform="translate(-3 35.561)" fill="#f2be07"/>
  <g id="Group_3382" data-name="Group 3382" transform="translate(12.416 12.416)">
    <path id="Path_4067" data-name="Path 4067" d="M8,34H27.865V53.865H8Z" transform="translate(-8 30.561)" fill="#efefef"/>
    <path id="Path_4068" data-name="Path 4068" d="M21,34H40.865V53.865H21Z" transform="translate(11.281 30.561)" fill="#efefef"/>
    <path id="Path_4069" data-name="Path 4069" d="M8,47H27.865V66.865H8Z" transform="translate(-8 49.842)" fill="#efefef"/>
    <path id="Path_4070" data-name="Path 4070" d="M21,47H40.865V66.865H21Z" transform="translate(11.281 49.842)" fill="#efefef"/>
    <path id="Path_4071" data-name="Path 4071" d="M8,60H27.865V79.865H8Z" transform="translate(-8 69.122)" fill="#efefef"/>
    <path id="Path_4072" data-name="Path 4072" d="M21,60H40.865V79.865H21Z" transform="translate(11.281 69.122)" fill="#efefef"/>
    <path id="Path_4073" data-name="Path 4073" d="M39,8H58.865V27.865H39Z" transform="translate(37.977 -8)" fill="#efefef"/>
    <path id="Path_4074" data-name="Path 4074" d="M52,8H71.865V27.865H52Z" transform="translate(57.257 -8)" fill="#efefef"/>
    <path id="Path_4075" data-name="Path 4075" d="M65,8H84.865V27.865H65Z" transform="translate(76.538 -8)" fill="#efefef"/>
    <path id="Path_4076" data-name="Path 4076" d="M39,21H58.865V40.865H39Z" transform="translate(37.977 11.281)" fill="#efefef"/>
    <path id="Path_4077" data-name="Path 4077" d="M52,21H71.865V40.865H52Z" transform="translate(57.257 11.281)" fill="#efefef"/>
    <path id="Path_4078" data-name="Path 4078" d="M65,21H84.865V40.865H65Z" transform="translate(76.538 11.281)" fill="#efefef"/>
    <path id="Path_4079" data-name="Path 4079" d="M39,34H58.865V53.865H39Z" transform="translate(37.977 30.561)" fill="#efefef"/>
    <path id="Path_4080" data-name="Path 4080" d="M52,34H71.865V53.865H52Z" transform="translate(57.257 30.561)" fill="#efefef"/>
    <path id="Path_4081" data-name="Path 4081" d="M65,34H84.865V53.865H65Z" transform="translate(76.538 30.561)" fill="#efefef"/>
    <path id="Path_4082" data-name="Path 4082" d="M39,47H58.865V66.865H39Z" transform="translate(37.977 49.842)" fill="#efefef"/>
    <path id="Path_4083" data-name="Path 4083" d="M52,47H71.865V66.865H52Z" transform="translate(57.257 49.842)" fill="#efefef"/>
    <path id="Path_4084" data-name="Path 4084" d="M65,47H84.865V66.865H65Z" transform="translate(76.538 49.842)" fill="#efefef"/>
  </g>
  <path id="Path_4085" data-name="Path 4085" d="M104.247,83.348a2.484,2.484,0,0,1-2.483-2.483V73.416a7.458,7.458,0,0,0-7.449-7.449h-14.9a7.459,7.459,0,0,0-7.449,7.449v7.449a2.483,2.483,0,1,1-4.966,0V73.416A12.43,12.43,0,0,1,79.416,61h14.9A12.43,12.43,0,0,1,106.73,73.416v7.449A2.484,2.484,0,0,1,104.247,83.348Z" transform="translate(91.92 83.021)" fill="#316596"/>
  <path id="Path_4086" data-name="Path 4086" d="M141.426,128.595H61.966A4.965,4.965,0,0,1,57,123.629V73.966A4.965,4.965,0,0,1,61.966,69h79.46a4.965,4.965,0,0,1,4.966,4.966v49.663A4.965,4.965,0,0,1,141.426,128.595Z" transform="translate(77.089 94.886)" fill="#316596"/>
  <path id="Path_4087" data-name="Path 4087" d="M141.426,113.764H61.966A4.965,4.965,0,0,1,57,108.8V79h89.392v29.8A4.965,4.965,0,0,1,141.426,113.764Z" transform="translate(77.089 109.717)" fill="#6ebaed"/>
  <path id="Path_4088" data-name="Path 4088" d="M64,77h9.932V89.416H64Z" transform="translate(87.471 106.751)" fill="#316596"/>
  <path id="Path_4089" data-name="Path 4089" d="M82,77h9.932V89.416H82Z" transform="translate(114.167 106.751)" fill="#316596"/>
  <path id="Path_4090" data-name="Path 4090" d="M71.9,101.9A14.891,14.891,0,0,0,57,87v9.932a4.965,4.965,0,0,0,4.966,4.966Z" transform="translate(77.089 121.582)" fill="#f2be07"/>
  <path id="Path_4091" data-name="Path 4091" d="M87,101.9A14.891,14.891,0,0,1,101.9,87v9.932a4.965,4.965,0,0,1-4.966,4.966Z" transform="translate(121.582 121.582)" fill="#f2be07"/>
  <path id="Path_4092" data-name="Path 4092" d="M34.038,8.192a2.513,2.513,0,0,1,3.752.241A22.352,22.352,0,0,1,6.434,39.79a2.511,2.511,0,0,1-.241-3.752Z" transform="translate(0.653 3.62)" fill="#3ba1e3"/>
  <path id="Path_4093" data-name="Path 4093" d="M40,125.629V75.966A4.965,4.965,0,0,1,44.966,71H64.831A4.965,4.965,0,0,1,69.8,75.966v49.663H40Z" transform="translate(51.876 97.852)" fill="#316596"/>
  <path id="Path_4094" data-name="Path 4094" d="M75.416,76H65.483A2.484,2.484,0,0,0,63,78.483V90.9a2.484,2.484,0,0,0,2.483,2.483h2.483v4.966a2.483,2.483,0,0,0,4.966,0V93.382h2.483A2.484,2.484,0,0,0,77.9,90.9V78.483A2.484,2.484,0,0,0,75.416,76ZM72.932,88.416H67.966V80.966h4.966Z" transform="translate(85.987 105.268)" fill="#f2be07"/>
  <path id="Path_4095" data-name="Path 4095" d="M93.416,76H83.483A2.484,2.484,0,0,0,81,78.483V90.9a2.484,2.484,0,0,0,2.483,2.483h2.483v4.966a2.483,2.483,0,0,0,4.966,0V93.382h2.483A2.484,2.484,0,0,0,95.9,90.9V78.483A2.484,2.484,0,0,0,93.416,76ZM90.932,88.416H85.966V80.966h4.966Z" transform="translate(112.684 105.268)" fill="#f2be07"/>
  <ellipse id="Ellipse_491" data-name="Ellipse 491" cx="3.364" cy="3.364" rx="3.364" ry="3.364" transform="translate(94.201 154.759)" fill="#e05551"/>
  <ellipse id="Ellipse_492" data-name="Ellipse 492" cx="3.364" cy="3.364" rx="3.364" ry="3.364" transform="translate(100.93 154.759)" fill="#e05551"/>
  <ellipse id="Ellipse_493" data-name="Ellipse 493" cx="3.364" cy="3.364" rx="3.364" ry="3.364" transform="translate(114.387 154.759)" fill="#e05551"/>
</svg>
