<svg xmlns="http://www.w3.org/2000/svg" xmlns:xlink="http://www.w3.org/1999/xlink" width="339.149" height="250.966" viewBox="0 0 339.149 250.966">
  <defs>
    <linearGradient id="linear-gradient" x1="0.5" y1="1" x2="0.5" gradientUnits="objectBoundingBox">
      <stop offset="0" stop-color="gray" stop-opacity="0.251"/>
      <stop offset="0.54" stop-color="gray" stop-opacity="0.122"/>
      <stop offset="1" stop-color="gray" stop-opacity="0.102"/>
    </linearGradient>
  </defs>
  <g id="Group_4275" data-name="Group 4275" transform="translate(0.007 0.02)">
    <g id="Group_4242" data-name="Group 4242" transform="translate(258.71 147.544)" opacity="0.1">
      <path id="Path_4633" data-name="Path 4633" d="M901.2,619.116s-24.211-3.144-6.155,36.042c0,0,16.455-7.051,17.11-22.956a12.656,12.656,0,0,0-10.612-13.036Z" transform="translate(-888.357 -588.876)" fill="#6c63ff"/>
      <path id="Path_4634" data-name="Path 4634" d="M916.552,619.06s5.481,21.849-6.492,36.1" transform="translate(-903.351 -588.879)" fill="none" stroke="#535461" stroke-miterlimit="10" stroke-width="1"/>
      <path id="Path_4635" data-name="Path 4635" d="M909,619.509s8.718-21.485,25-29.454a35.133,35.133,0,0,0,15.954-15.487,59.083,59.083,0,0,0,4-10.037" transform="translate(-902.619 -551.206)" fill="none" stroke="#535461" stroke-miterlimit="10" stroke-width="2"/>
      <path id="Path_4636" data-name="Path 4636" d="M1064.069,529.673c-1.7,2.133-10.479,5.255-10.479,5.255s1.057-9.274,2.754-11.392a4.946,4.946,0,1,1,7.728,6.146Z" transform="translate(-1002.511 -521.428)" fill="#6c63ff"/>
      <path id="Path_4637" data-name="Path 4637" d="M1051.708,581.012c-2.584.869-11.648-1.292-11.648-1.292s5.92-7.2,8.5-8.065a4.946,4.946,0,1,1,3.144,9.357Z" transform="translate(-993.164 -555.872)" fill="#6c63ff"/>
      <path id="Path_4638" data-name="Path 4638" d="M1003.864,645.614c-2.668-.553-9.4-7-9.4-7s8.742-3.224,11.413-2.671a4.946,4.946,0,0,1-2.009,9.664Z" transform="translate(-961.66 -600.502)" fill="#6c63ff"/>
      <path id="Path_4639" data-name="Path 4639" d="M950.522,685.184c-2.723-.1-10.452-5.3-10.452-5.3s8.075-4.662,10.8-4.563a4.946,4.946,0,0,1-.346,9.864Z" transform="translate(-924.084 -627.744)" fill="#6c63ff"/>
      <path id="Path_4640" data-name="Path 4640" d="M1012.553,565.821c.349,2.7,6.251,9.914,6.251,9.914s3.886-8.47,3.539-11.175a4.946,4.946,0,1,0-9.79,1.261Z" transform="translate(-974.096 -548.023)" fill="#6c63ff"/>
      <path id="Path_4641" data-name="Path 4641" d="M952.366,610.128c1.141,2.473,8.931,7.589,8.931,7.589s1.175-9.246.034-11.719a4.946,4.946,0,1,0-8.965,4.133Z" transform="translate(-932.166 -577.666)" fill="#6c63ff"/>
      <path id="Path_4642" data-name="Path 4642" d="M902.029,665.761c.7,2.634,7.521,8.99,7.521,8.99s2.72-8.912,2.012-11.546a4.946,4.946,0,1,0-9.534,2.557Z" transform="translate(-897.62 -616.624)" fill="#6c63ff"/>
      <path id="Path_4643" data-name="Path 4643" d="M1064.069,529.673c-1.7,2.133-10.479,5.255-10.479,5.255s1.057-9.274,2.754-11.392a4.946,4.946,0,1,1,7.728,6.146Z" transform="translate(-1002.511 -521.428)" opacity="0.25"/>
      <path id="Path_4644" data-name="Path 4644" d="M1051.708,581.012c-2.584.869-11.648-1.292-11.648-1.292s5.92-7.2,8.5-8.065a4.946,4.946,0,1,1,3.144,9.357Z" transform="translate(-993.164 -555.872)" opacity="0.25"/>
      <path id="Path_4645" data-name="Path 4645" d="M1003.864,645.614c-2.668-.553-9.4-7-9.4-7s8.742-3.224,11.413-2.671a4.946,4.946,0,0,1-2.009,9.664Z" transform="translate(-961.66 -600.502)" opacity="0.25"/>
      <path id="Path_4646" data-name="Path 4646" d="M950.522,685.184c-2.723-.1-10.452-5.3-10.452-5.3s8.075-4.662,10.8-4.563a4.946,4.946,0,0,1-.346,9.864Z" transform="translate(-924.084 -627.744)" opacity="0.25"/>
      <path id="Path_4647" data-name="Path 4647" d="M1012.553,565.821c.349,2.7,6.251,9.914,6.251,9.914s3.886-8.47,3.539-11.175a4.946,4.946,0,1,0-9.79,1.261Z" transform="translate(-974.096 -548.023)" opacity="0.25"/>
      <path id="Path_4648" data-name="Path 4648" d="M952.366,610.128c1.141,2.473,8.931,7.589,8.931,7.589s1.175-9.246.034-11.719a4.946,4.946,0,1,0-8.965,4.133Z" transform="translate(-932.166 -577.666)" opacity="0.25"/>
      <path id="Path_4649" data-name="Path 4649" d="M902.029,665.761c.7,2.634,7.521,8.99,7.521,8.99s2.72-8.912,2.012-11.546a4.946,4.946,0,1,0-9.534,2.557Z" transform="translate(-897.62 -616.624)" opacity="0.25"/>
      <path id="Path_4650" data-name="Path 4650" d="M946.56,651.122s8.718-21.485,25-29.454A35.132,35.132,0,0,0,987.5,606.177a59.081,59.081,0,0,0,4-10.037" transform="translate(-928.568 -573.044)" fill="none" stroke="#535461" stroke-miterlimit="10" stroke-width="2"/>
      <path id="Path_4651" data-name="Path 4651" d="M1101.579,562.325c-1.7,2.133-10.479,5.255-10.479,5.255s1.057-9.274,2.754-11.392a4.946,4.946,0,0,1,7.728,6.146Z" transform="translate(-1028.426 -544.312)" fill="#6c63ff"/>
      <path id="Path_4652" data-name="Path 4652" d="M1089.238,613.066c-2.584.869-11.648-1.292-11.648-1.292s5.92-7.2,8.5-8.065a4.946,4.946,0,0,1,3.144,9.357Z" transform="translate(-1019.092 -578.158)" fill="#6c63ff"/>
      <path id="Path_4653" data-name="Path 4653" d="M1041.394,677.254c-2.668-.553-9.4-7-9.4-7s8.742-3.224,11.413-2.671a4.946,4.946,0,0,1-2.009,9.663Z" transform="translate(-987.588 -622.361)" fill="#6c63ff"/>
      <path id="Path_4654" data-name="Path 4654" d="M988.042,716.781c-2.723-.1-10.452-5.3-10.452-5.3s8.075-4.655,10.8-4.56a4.946,4.946,0,0,1-.346,9.864Z" transform="translate(-950.005 -649.575)" fill="#6c63ff"/>
      <path id="Path_4655" data-name="Path 4655" d="M1050.073,597.461c.349,2.7,6.251,9.914,6.251,9.914s3.886-8.47,3.539-11.175a4.946,4.946,0,1,0-9.79,1.261Z" transform="translate(-1000.018 -569.883)" fill="#6c63ff"/>
      <path id="Path_4656" data-name="Path 4656" d="M990.489,642.979c1.141,2.473,8.931,7.589,8.931,7.589s1.175-9.246.034-11.719a4.946,4.946,0,0,0-8.965,4.133Z" transform="translate(-958.688 -600.76)" fill="#6c63ff"/>
      <path id="Path_4657" data-name="Path 4657" d="M939.937,698.795c.7,2.634,7.521,8.99,7.521,8.99s2.72-8.912,2.013-11.546a4.946,4.946,0,0,0-9.534,2.556Z" transform="translate(-923.926 -639.883)" fill="#6c63ff"/>
    </g>
    <path id="Path_4658" data-name="Path 4658" d="M63.3,474.07c5.367,22.938,16.727,42.765,34.681,52.376,37.312,19.973,121.461,9.673,184.264-2.164a143.81,143.81,0,0,0,81.775-46.741Z" transform="translate(-59.641 -341.166)" fill="#6c63ff" opacity="0.1"/>
    <path id="Path_4659" data-name="Path 4659" d="M412.019,69.036H377.56a2.978,2.978,0,0,1,0-5.957h5.957a2.978,2.978,0,1,1,0-5.957h-4.254a2.978,2.978,0,0,1,0-5.957h17.985A47.592,47.592,0,0,0,383.221,47.3c-49.041-6.3-66.55-2.133-72.726,2.164a68.677,68.677,0,0,1-25.207,11.048C255.027,66.746,198.44,74.258,147.152,58.1c-25.491-8.037-44.438,5.54-55.792,28.218H418a53.225,53.225,0,0,0-4.047-18A2.962,2.962,0,0,1,412.019,69.036Z" transform="translate(-79.027 -44.1)" fill="#6c63ff" opacity="0.1"/>
    <path id="Path_4660" data-name="Path 4660" d="M52.184,319.2a151.8,151.8,0,0,0,1.339,40.02l302.541,11.064a142.2,142.2,0,0,0,21.021-32.057Zm119.659,28.548h-5.957a2.979,2.979,0,0,1,0,5.957H131.427a2.979,2.979,0,0,1,0-5.957h5.957a2.978,2.978,0,1,1,0-5.957H133.13a2.979,2.979,0,0,1,0-5.957h34.459a2.979,2.979,0,0,1,0,5.957h4.254a2.978,2.978,0,1,1,0,5.957Z" transform="translate(-51.45 -234.171)" fill="#6c63ff" opacity="0.1"/>
    <path id="Path_4661" data-name="Path 4661" d="M392.206,181.38,61.9,189.417A131.971,131.971,0,0,0,54,223.524H386.419a141.1,141.1,0,0,0,4.8-21.741A103.013,103.013,0,0,0,392.206,181.38ZM121.057,207.709H115.1a2.978,2.978,0,1,1,0,5.957H80.641a2.978,2.978,0,1,1,0-5.957H86.6a2.978,2.978,0,0,1,0-5.957H82.344a2.978,2.978,0,1,1,0-5.957H116.8a2.978,2.978,0,1,1,0,5.957h4.254a2.978,2.978,0,1,1,0,5.957Z" transform="translate(-53.216 -138.956)" fill="#6c63ff" opacity="0.1"/>
    <path id="Path_4662" data-name="Path 4662" d="M441.595,311.362S427.82,235.81,401.553,223.55c-22.257-10.4-46.327-17.4-53.171-19.305a29.557,29.557,0,0,0-3.527-4.6c-9.354-9.765-14.974-9.583-15.883-9.463a47.564,47.564,0,0,1-.927-5.874c-.028-.309-.056-.6-.08-.9l.08-.04q-.083-.876-.148-1.808a46.556,46.556,0,0,0,10.446-7.608c.04.133.074.266.117.4q10.112-8.548,19.806-17.559c1.855-1.734,3.8-3.617,4.433-6.062a8.9,8.9,0,0,0,.232-2.572c.083-1.855-.356-3.75-.43-5.629a6.448,6.448,0,0,1,.074-.89c.433-3.076,2.572-5.6,4.328-8.183a38.586,38.586,0,0,0,6.563-22.091,37.406,37.406,0,0,0-1.546-11.129c-1.369-4.581-4.22-9.395-8.965-10.4a39.483,39.483,0,0,0-5.617-.266c-7.756-.495-13.562-6.8-19.747-11.422a52.123,52.123,0,0,0-25.837-10.028,20.7,20.7,0,0,0-8.718.6C296.794,70.8,293,77.21,286.992,79.847c-4.445,1.96-9.583,1.641-14.22,3.113-6.9,2.195-12.761,9.274-12.916,16.548v.943c-.077,3.676,1.237,7.419,1.342,11.181q0,.51.015,1.023a33.651,33.651,0,0,1-2,11.954c-.8,2.056-1.824,4.436-1.657,6.492a4.345,4.345,0,0,0,1.026,3.4l1.493-1.317A45.15,45.15,0,0,0,275.61,176.1q.087,1.388.167,2.974c.235,4.581.42,10.328.368,16.591l-14.579,13.4-37.479,17s-34.277,7.24-26.895,55.393l3.524,29.9H232.01l-.071.158h46.447l.028-.158H388.922l-.022.158h4.328v-.158ZM329.247,190.946a32.125,32.125,0,0,1,2.226,6.121,25.074,25.074,0,0,1-2.4-6.455l.046.083Zm-53.115,6.183q0,.884-.031,1.784l-.074.105a15.15,15.15,0,0,1,.105-1.9Z" transform="translate(-151.424 -60.577)" fill="url(#linear-gradient)"/>
    <path id="Path_4663" data-name="Path 4663" d="M503.237,382.826l-6.183,59.044-33.077,10.51s-42.969-8.037-31.841-31.222c7.917-16.492,7.7-45.965,6.912-61.607-.309-6.35-.73-10.421-.73-10.421s56.262-49.152,51.625-4.946a104.613,104.613,0,0,0-.451,20.483C491.579,386.443,503.237,382.826,503.237,382.826Z" transform="translate(-313.187 -238.692)" fill="#fdc2cc"/>
    <path id="Path_4664" data-name="Path 4664" d="M503.237,382.826l-6.183,59.044-33.077,10.51s-42.969-8.037-31.841-31.222c7.917-16.492,7.7-45.965,6.912-61.607-.309-6.35-.73-10.421-.73-10.421s56.262-49.152,51.625-4.946a104.613,104.613,0,0,0-.451,20.483C491.579,386.443,503.237,382.826,503.237,382.826Z" transform="translate(-313.187 -238.692)" opacity="0.03"/>
    <path id="Path_4665" data-name="Path 4665" d="M507.875,341.185a104.615,104.615,0,0,0-.451,20.483,44.846,44.846,0,0,1-50.444-5.116c-.309-6.35-.73-10.421-.73-10.421S512.512,296.979,507.875,341.185Z" transform="translate(-331.118 -236.619)" opacity="0.1"/>
    <circle id="Ellipse_834" data-name="Ellipse 834" cx="44.824" cy="44.824" r="44.824" transform="translate(109.984 39.033)" fill="#fdc2cc"/>
    <circle id="Ellipse_835" data-name="Ellipse 835" cx="44.824" cy="44.824" r="44.824" transform="translate(109.984 39.033)" opacity="0.03"/>
    <path id="Path_4666" data-name="Path 4666" d="M446.879,589.464H214.412l-3.4-29.367c-7.11-47.3,25.967-54.407,25.967-54.407L273.147,489l14.375-13.447c-4.637,17.621,30.449,54.253,30.449,54.253h0a8.307,8.307,0,0,0,.64-.665c.946-1.032,3.206-3.617,8.5-10.028,1.892-2.3,4.176-5.082,6.928-8.464,13.231-16.26,6.442-35.473,4.414-39.445l-.127-.247c-.077-.142-.136-.257-.182-.337a.5.5,0,0,0-.046-.083.493.493,0,0,1-.034-.062l17,13.293s.652.173,1.855.513c6.615,1.855,29.856,8.751,51.316,18.962C433.587,515.272,446.879,589.464,446.879,589.464Z" transform="translate(-160.999 -338.679)" fill="#00a1e5"/>
    <path id="Path_4667" data-name="Path 4667" d="M597.289,518.573c-2.782-2.782-21.639-6.183-21.639-6.183.618,7.419-22.258,18.857-22.258,18.857l1.7,58.117H544.125l-1.855-52.243,5.255-7.419h0l.64-.665a102.02,102.02,0,0,0,8.5-10.028c1.892-2.3,4.176-5.082,6.928-8.464,13.231-16.26,6.442-35.473,4.414-39.445l-.127-.247c-.074-.145-.133-.257-.182-.337a.5.5,0,0,0-.046-.083.5.5,0,0,1-.034-.062h0s5.564-1.237,15.457,9.274a28.975,28.975,0,0,1,3.4,4.532C594.51,497.073,599.741,521.024,597.289,518.573Z" transform="translate(-390.547 -338.579)" fill="#fff"/>
    <path id="Path_4668" data-name="Path 4668" d="M597.289,518.573c-2.782-2.782-21.639-6.183-21.639-6.183.618,7.419-22.258,18.857-22.258,18.857l1.7,58.117H544.125l-1.855-52.243,5.255-7.419h0l.64-.665a102.02,102.02,0,0,0,8.5-10.028c1.892-2.3,4.176-5.082,6.928-8.464,13.231-16.26,6.442-35.473,4.414-39.445l-.127-.247c-.074-.145-.133-.257-.182-.337a.5.5,0,0,0-.046-.083.5.5,0,0,1-.034-.062h0s5.564-1.237,15.457,9.274a28.975,28.975,0,0,1,3.4,4.532C594.51,497.073,599.741,521.024,597.289,518.573Z" transform="translate(-390.547 -338.579)" opacity="0.1"/>
    <path id="Path_4669" data-name="Path 4669" d="M313.25,703.4s14.529,29.677,15.3,47.143" transform="translate(-232.324 -499.603)" opacity="0.1"/>
    <path id="Path_4670" data-name="Path 4670" d="M764.473,714.31,760.3,744.45h4.173Z" transform="translate(-525.272 -493.508)" opacity="0.1"/>
    <path id="Path_4671" data-name="Path 4671" d="M323.75,561.134l23.03-52.4s6.492-12.365,8.037-24.73,9.892-31.841,9.892-31.841S385.422,425.889,395,429.6s-8.347,17.621-8.347,17.621,26.276,10.2,8.347,40.5-18.239,24.731-18.239,24.731l-8.81,48.688Z" transform="translate(-239.578 -310.194)" opacity="0.1"/>
    <path id="Path_4672" data-name="Path 4672" d="M321.75,561.119l23.03-52.4s6.492-12.365,8.037-24.731c.983-7.861,4.714-18.6,7.3-25.377a38.908,38.908,0,0,1,7.333-12.056c6.7-7.493,18.857-19.577,25.553-16.981,9.583,3.71-8.347,17.621-8.347,17.621s26.276,10.2,8.347,40.5-18.239,24.73-18.239,24.73l-8.81,48.688Z" transform="translate(-238.196 -310.18)" fill="#fdc2cc"/>
    <circle id="Ellipse_836" data-name="Ellipse 836" cx="0.927" cy="0.927" r="0.927" transform="translate(167.638 57.735)" fill="#fff" opacity="0.15"/>
    <circle id="Ellipse_837" data-name="Ellipse 837" cx="0.927" cy="0.927" r="0.927" transform="translate(163.31 59.59)" fill="#fff" opacity="0.15"/>
    <path id="Path_4673" data-name="Path 4673" d="M416.37,99.677c4.473-1.447,9.438-1.135,13.729-3.057,5.8-2.6,9.459-8.9,15.481-10.943a19.88,19.88,0,0,1,8.411-.584,49.792,49.792,0,0,1,24.935,9.852c5.969,4.541,11.571,10.733,19.055,11.218a37.18,37.18,0,0,1,5.419.26c4.588.983,7.336,5.71,8.656,10.2a38.413,38.413,0,0,1-4.841,31.717c-1.694,2.535-3.759,5.017-4.176,8.037-.408,2.961.853,6.031.117,8.931-.618,2.4-2.473,4.251-4.278,5.954q-9.351,8.844-19.114,17.234c-3.382-10.745,1.58-22.316.807-33.553-.309-4.377-1.855-9.156-5.716-11.221-3.614-1.929-8.232-.927-11.889-2.782-4.081-2.056-5.756-6.925-8.841-10.294-5.255-5.75-14.378-6.492-21.726-3.9s-13.355,7.938-19.166,13.147l-10.563,9.475c-2.062-2.325-.5-5.892.618-8.8A35.759,35.759,0,0,0,405.2,126.9c-.09-3.71-1.369-7.373-1.3-10.983C404.057,108.793,409.708,101.832,416.37,99.677Z" transform="translate(-293.405 -72.308)" opacity="0.1"/>
    <path id="Path_4674" data-name="Path 4674" d="M416.37,96.677c4.473-1.447,9.438-1.135,13.729-3.057,5.8-2.6,9.459-8.9,15.481-10.943a19.88,19.88,0,0,1,8.411-.584,49.792,49.792,0,0,1,24.935,9.852c5.969,4.541,11.571,10.733,19.055,11.218a37.179,37.179,0,0,1,5.419.26c4.588.983,7.336,5.71,8.656,10.2a38.413,38.413,0,0,1-4.841,31.717c-1.694,2.535-3.759,5.017-4.176,8.037-.408,2.961.853,6.031.117,8.931-.618,2.4-2.473,4.251-4.278,5.954q-9.351,8.844-19.114,17.234c-3.382-10.745,1.58-22.316.807-33.553-.309-4.377-1.855-9.156-5.716-11.221-3.614-1.929-8.232-.927-11.889-2.782-4.081-2.056-5.756-6.925-8.841-10.294-5.255-5.75-14.378-6.492-21.726-3.9s-13.355,7.938-19.166,13.147l-10.563,9.475c-2.062-2.325-.5-5.892.618-8.8A35.759,35.759,0,0,0,405.2,123.9c-.09-3.71-1.369-7.373-1.3-10.983C404.057,105.793,409.708,98.832,416.37,96.677Z" transform="translate(-293.405 -70.235)" fill="#865a61"/>
  </g>
</svg>
