<svg id="graduated" xmlns="http://www.w3.org/2000/svg" width="187.818" height="239.208" viewBox="0 0 187.818 239.208">
  <g id="Group_3341" data-name="Group 3341" transform="translate(0 0)">
    <g id="Group_3330" data-name="Group 3330" transform="translate(0 113.651)">
      <path id="Path_3985" data-name="Path 3985" d="M249.783,303.3,225,276.211V243.258H181.784v32.963L157.275,303.3Z" transform="translate(-109.49 -243.258)" fill="#ffddce"/>
      <path id="Path_3986" data-name="Path 3986" d="M190.783,344.545l-22.219-6.523-19.658,22.541-33.989-38.978-36.13,10.6A33.116,33.116,0,0,0,55,363.965v34.863a11.719,11.719,0,0,0,11.72,11.719H82.611l2.864-2.044h1.49l2.864,2.044H207.965l4.2-3h3.487V377.772A34.628,34.628,0,0,0,190.783,344.545Z" transform="translate(-54.997 -284.99)" fill="#407093"/>
      <path id="Path_3987" data-name="Path 3987" d="M345.737,332.185l-36.126-10.606-16.795,19.258,22.443,6.589A33.116,33.116,0,0,1,339.047,379.2v28.343h2.848v3h15.91a11.719,11.719,0,0,0,11.719-11.719V363.96A33.116,33.116,0,0,0,345.737,332.185Z" transform="translate(-181.706 -284.987)" fill="#365e7d"/>
      <g id="Group_3329" data-name="Group 3329" transform="translate(27.614 102.778)">
        <g id="Group_3328" data-name="Group 3328">
          <g id="Group_3327" data-name="Group 3327">
            <g id="Group_3326" data-name="Group 3326">
              <path id="Path_3988" data-name="Path 3988" d="M121.322,486.024V466.855a3.61,3.61,0,1,0-7.219,0v19.169Z" transform="translate(-114.103 -463.245)" fill="#365e7d"/>
              <path id="Path_3989" data-name="Path 3989" d="M389.63,486.024V466.855a3.61,3.61,0,1,0-7.219,0v19.169Z" transform="translate(-257.057 -463.245)" fill="#365e7d"/>
            </g>
          </g>
        </g>
      </g>
    </g>
    <g id="Group_3338" data-name="Group 3338" transform="translate(8.541 0)">
      <g id="Group_3337" data-name="Group 3337">
        <path id="Path_3990" data-name="Path 3990" d="M93.529,146.531l-3.7-4.08h-7.91l-3.7,4.08-4.877,28.626a4.425,4.425,0,0,0,4.362,5.168h16.34a4.425,4.425,0,0,0,4.362-5.168Z" transform="translate(-73.277 -75.898)" fill="#e4f6ff"/>
        <path id="Path_3991" data-name="Path 3991" d="M99.733,90.9V54.7a3.61,3.61,0,0,0-7.219,0V90.9Z" transform="translate(-83.526 -27.22)" fill="#407093"/>
        <g id="Group_3334" data-name="Group 3334" transform="translate(39.162 24.578)">
          <g id="Group_3333" data-name="Group 3333">
            <g id="Group_3332" data-name="Group 3332">
              <g id="Group_3331" data-name="Group 3331">
                <path id="Path_3992" data-name="Path 3992" d="M223.306,52.607H183.292A26.192,26.192,0,0,0,157.1,78.8v25.264l4.331,3.816H249.5V78.8A26.191,26.191,0,0,0,223.306,52.607Z" transform="translate(-157.1 -52.607)" fill="#efc984"/>
              </g>
            </g>
          </g>
        </g>
        <path id="Path_3993" data-name="Path 3993" d="M294.031,52.607h-4.187v55.271h26.38l4-3.816V78.8A26.192,26.192,0,0,0,294.031,52.607Z" transform="translate(-188.663 -28.029)" fill="#eabc6b"/>
        <g id="Group_3335" data-name="Group 3335" transform="translate(39.17 56.076)">
          <path id="Path_3994" data-name="Path 3994" d="M203.315,196.67q.653,0,1.3-.022a38.77,38.77,0,0,0,17.979-30.876V120.025H172.9v12.039a7.919,7.919,0,0,1-7.919,7.919h-7.864v12.95a5.991,5.991,0,0,0,5.991,5.991,1.97,1.97,0,0,1,1.959,1.86A38.33,38.33,0,0,0,203.315,196.67Z" transform="translate(-157.117 -120.025)" fill="#ffddce"/>
        </g>
        <path id="Path_3995" data-name="Path 3995" d="M289.533,139.982a7.918,7.918,0,0,1-7.919-7.919V120.025h-14.6v44.57a38.331,38.331,0,0,1-20.023,31.838,38.281,38.281,0,0,0,42.459-35.65,1.97,1.97,0,0,1,1.959-1.86,5.991,5.991,0,0,0,5.992-5.991V139.982Z" transform="translate(-165.829 -63.949)" fill="#ffcbbe"/>
        <path id="Path_3996" data-name="Path 3996" d="M187.123,40.7V31.782a8.012,8.012,0,0,1-7.95-8.011V7.736l-3.373-5.4L169.075.193a4.088,4.088,0,0,0-2.478,0L93.39,23.478a4.089,4.089,0,0,0,.553,7.927l73.893,12.585Z" transform="translate(-82.475 0)" fill="#407093"/>
        <path id="Path_3997" data-name="Path 3997" d="M219.209,66.211l-10.647-1.317a70.36,70.36,0,0,0-17.28,0l-40.519,5.014V87.965a3.543,3.543,0,0,0,3.543,3.543h64.9Z" transform="translate(-114.562 -34.292)" fill="#4a80aa"/>
        <g id="Group_3336" data-name="Group 3336" transform="translate(93.325 2.331)">
          <path id="Path_3998" data-name="Path 3998" d="M339.511,26.136,273.029,4.99V26.176a7.917,7.917,0,0,0,7.856,7.916v9.862l58.073-9.891A4.089,4.089,0,0,0,339.511,26.136Z" transform="translate(-273.029 -4.99)" fill="#365e7d"/>
        </g>
        <path id="Path_3999" data-name="Path 3999" d="M289.845,67.4V93.128h29.812a3.543,3.543,0,0,0,3.543-3.543V71.528Z" transform="translate(-188.664 -35.912)" fill="#407093"/>
        <path id="Path_4000" data-name="Path 4000" d="M99.165,135.314H83.854V125.264a3.866,3.866,0,0,1,3.867-3.867H95.3a3.866,3.866,0,0,1,3.867,3.867v10.051Z" transform="translate(-78.912 -64.68)" fill="#ffe07d"/>
      </g>
    </g>
    <g id="Group_3339" data-name="Group 3339" transform="translate(38.76 134.54)">
      <path id="Path_4001" data-name="Path 4001" d="M277.6,287.969a72.416,72.416,0,0,1-11.715,39.49L256,342.652l55.149-32.771Z" transform="translate(-200.851 -287.969)" fill="#4a80aa"/>
      <path id="Path_4002" data-name="Path 4002" d="M171.509,287.969a72.415,72.415,0,0,0,11.715,39.49l9.885,15.194L137.96,309.881Z" transform="translate(-137.96 -287.969)" fill="#4a80aa"/>
    </g>
    <g id="Group_3340" data-name="Group 3340" transform="translate(75.5 155.77)">
      <path id="Path_4003" data-name="Path 4003" d="M253.415,333.411a88.261,88.261,0,0,1-36.817,0,72.4,72.4,0,0,0,8.524,18.259l9.885,15.193,9.885-15.193A72.389,72.389,0,0,0,253.415,333.411Z" transform="translate(-216.598 -333.411)" fill="#f4fbff"/>
    </g>
  </g>
</svg>
