<svg id="idea" xmlns="http://www.w3.org/2000/svg" width="170.262" height="236.827" viewBox="0 0 170.262 236.827">
  <g id="Group_3345" data-name="Group 3345" transform="translate(4.305 4.305)">
    <g id="Group_3344" data-name="Group 3344">
      <path id="Path_4004" data-name="Path 4004" d="M64.556,388.537H45.535A38.034,38.034,0,0,0,7.5,426.571V445.59a9.509,9.509,0,0,0,9.509,9.51H159.645a9.509,9.509,0,0,0,9.509-9.51V426.571a38.034,38.034,0,0,0-38.034-38.034H64.556Z" transform="translate(-7.501 -226.881)" fill="#68d9c0"/>
      <g id="Group_3343" data-name="Group 3343" transform="translate(110.425 161.655)">
        <g id="Group_3342" data-name="Group 3342">
          <path id="Path_4005" data-name="Path 4005" d="M213.078,388.537H199.884a38.033,38.033,0,0,1,38.026,38.034v19.019A9.509,9.509,0,0,1,228.4,455.1h13.2a9.509,9.509,0,0,0,9.509-9.509V426.571A38.033,38.033,0,0,0,213.078,388.537Z" transform="translate(-199.884 -388.537)" fill="#4fc6b9"/>
        </g>
      </g>
      <path id="Path_4006" data-name="Path 4006" d="M106.9,339.753h47.545v43.19H106.9Z" transform="translate(-49.846 -206.099)" fill="#fb9"/>
      <path id="Path_4007" data-name="Path 4007" d="M48.918,166.8V144.937A38.037,38.037,0,0,1,86.954,106.9h38.036a38.037,38.037,0,0,1,38.036,38.036V166.8Z" transform="translate(-25.145 -106.901)" fill="#595353"/>
      <path id="Path_4008" data-name="Path 4008" d="M155.969,244.337a9.509,9.509,0,0,0,9.509-9.509V215.81a9.509,9.509,0,0,0-9.509-9.509H41.861a9.509,9.509,0,0,0-9.509,9.509v19.018a9.509,9.509,0,0,0,9.509,9.509Z" transform="translate(-18.088 -149.247)" fill="#fb9"/>
      <path id="Path_4009" data-name="Path 4009" d="M237.92,206.3h-13.2a9.509,9.509,0,0,1,9.509,9.509v19.018a9.509,9.509,0,0,1-9.509,9.509h13.2a9.509,9.509,0,0,0,9.509-9.509V215.811A9.51,9.51,0,0,0,237.92,206.3Z" transform="translate(-100.038 -149.247)" fill="#ffa27d"/>
      <path id="Path_4010" data-name="Path 4010" d="M65.485,167.751v60.165a47.544,47.544,0,0,0,95.089,0V167.751Z" transform="translate(-32.203 -132.824)" fill="#ffd9b3"/>
      <path id="Path_4011" data-name="Path 4011" d="M155.566,408.208H99.334l28.116,38.036Z" transform="translate(-46.623 -235.262)" fill="#cfd7e6"/>
      <path id="Path_4012" data-name="Path 4012" d="M62.722,176.566h39.633a28.527,28.527,0,0,0,28.527-28.527V136.5H62.722L59,157.548Z" transform="translate(-29.44 -119.511)" fill="#595353"/>
      <path id="Path_4013" data-name="Path 4013" d="M209.978,186.184h-9.509a19.018,19.018,0,0,1-19.018-19.018v-8.089H211.04Z" transform="translate(-81.606 -129.129)" fill="#595353"/>
      <path id="Path_4014" data-name="Path 4014" d="M196.488,163.956h13.2V144.938A38.037,38.037,0,0,0,171.654,106.9h-13.2a38.036,38.036,0,0,1,38.035,38.036Z" transform="translate(-71.808 -106.901)" fill="#403939"/>
      <path id="Path_4015" data-name="Path 4015" d="M118.409,437.863,80.229,412.41a4.754,4.754,0,0,1-.872-7.164l15.277-16.711,23.775,49.328,23.774-49.329,15.278,16.711a4.754,4.754,0,0,1-.872,7.164Z" transform="translate(-37.582 -226.88)" fill="#f3f5f9"/>
    </g>
  </g>
  <g id="Group_3346" data-name="Group 3346" transform="translate(0 0)">
    <path id="Path_4022" data-name="Path 4022" d="M111.99,231.935a4.3,4.3,0,0,0-4.3,4.3v4.754a4.3,4.3,0,0,0,8.61,0V236.24A4.3,4.3,0,0,0,111.99,231.935Z" transform="translate(-45.876 -155.862)"/>
    <path id="Path_4023" data-name="Path 4023" d="M178.256,245.3a4.3,4.3,0,0,0,4.3-4.3V236.24a4.3,4.3,0,0,0-8.61,0v4.754A4.3,4.3,0,0,0,178.256,245.3Z" transform="translate(-74.106 -155.862)"/>
    <path id="Path_4024" data-name="Path 4024" d="M150.969,279.817a4.3,4.3,0,0,0-7.449-4.318,5.2,5.2,0,0,1-9.017,0,4.3,4.3,0,1,0-7.449,4.317,13.81,13.81,0,0,0,23.915,0Z" transform="translate(-53.88 -173.506)"/>
    <path id="Path_4025" data-name="Path 4025" d="M127.925,261.056H113.21V242.369A51.893,51.893,0,0,0,136.8,203.1h5.384A13.83,13.83,0,0,0,156,189.288V170.27a13.838,13.838,0,0,0-9.509-13.124v-15.4A42.389,42.389,0,0,0,104.151,99.4H66.115a42.389,42.389,0,0,0-42.341,42.341v15.4a13.836,13.836,0,0,0-9.509,13.124v19.018A13.829,13.829,0,0,0,28.079,203.1h5.385a51.892,51.892,0,0,0,23.591,39.266v18.689H42.34A42.387,42.387,0,0,0,0,303.395v19.02a13.829,13.829,0,0,0,13.814,13.814H29.427a4.3,4.3,0,0,0,0-8.61H13.815a5.21,5.21,0,0,1-5.2-5.2v-19.02A33.767,33.767,0,0,1,42.34,269.666h9.249l-8.685,9.5a9.059,9.059,0,0,0,1.661,13.651l38.18,25.453a4.29,4.29,0,0,0,4.758.007c.006,0,.011,0,.017-.007l.049-.033.018-.013L125.7,292.817a9.06,9.06,0,0,0,1.661-13.651l-8.685-9.5h9.248a33.767,33.767,0,0,1,33.729,33.729v19.02a5.21,5.21,0,0,1-5.2,5.2H46.647a4.3,4.3,0,0,0,0,8.61h109.8a13.829,13.829,0,0,0,13.814-13.814v-19.02a42.386,42.386,0,0,0-42.338-42.339Zm19.466-71.769a5.21,5.21,0,0,1-5.2,5.2h-5.2V165.065h5.2a5.21,5.21,0,0,1,5.2,5.2ZM66.115,108.011h38.036a33.77,33.77,0,0,1,33.731,33.732v14.713H123.169a14.729,14.729,0,0,1-14.7-14.161,32.7,32.7,0,0,0,1.583-10.061,4.3,4.3,0,0,0-8.61,0,24.249,24.249,0,0,1-24.222,24.222H32.384V141.742a33.769,33.769,0,0,1,33.731-33.731Zm-43.24,81.276V170.269a5.21,5.21,0,0,1,5.2-5.2h5.2v29.427h-5.2A5.21,5.21,0,0,1,22.875,189.287ZM41.894,198.8V165.065H77.221A32.779,32.779,0,0,0,102.7,152.91a23.342,23.342,0,0,0,20.47,12.155h5.2V198.8a43.24,43.24,0,1,1-86.48,0Zm43.24,51.85a51.567,51.567,0,0,0,19.467-3.8V264.38l-3.84,7.968H69.505l-3.84-7.968V246.851a51.563,51.563,0,0,0,19.468,3.8Zm11.477,30.309L85.133,304.773,73.654,280.957Zm-47.467,4.377a.423.423,0,0,1,.115-.358l10.984-12.015,14.175,29.411L49.341,285.654a.424.424,0,0,1-.2-.32Zm71.977,0a.431.431,0,0,1-.2.32L95.848,302.372l14.175-29.411,10.985,12.016A.422.422,0,0,1,121.121,285.334Z" transform="translate(-0.001 -99.401)"/>
  </g>
</svg>
