<svg id="Group_4020" data-name="Group 4020" xmlns="http://www.w3.org/2000/svg" width="115.574" height="115.574" viewBox="0 0 115.574 115.574">
  <g id="linkedin" transform="translate(0 0)">
    <circle id="Ellipse_431" data-name="Ellipse 431" cx="57.787" cy="57.787" r="57.787" transform="translate(0 0)" fill="#007ab9"/>
    <g id="Group_2593" data-name="Group 2593" transform="translate(27.883 24.692)">
      <path id="Path_3398" data-name="Path 3398" d="M91.5,61.714V85.539H77.687V63.311c0-5.581-1.994-9.393-7-9.393a7.555,7.555,0,0,0-7.085,5.051,9.454,9.454,0,0,0-.457,3.366v23.2H49.335s.185-37.646,0-41.543H63.15v5.887c-.028.046-.067.092-.092.136h.092v-.136A13.715,13.715,0,0,1,75.6,43.019c9.088,0,15.9,5.938,15.9,18.7ZM34.884,23.969c-4.725,0-7.816,3.1-7.816,7.177,0,3.989,3,7.18,7.635,7.18h.09c4.818,0,7.813-3.191,7.813-7.18-.092-4.075-3-7.177-7.722-7.177Zm-7,61.57H41.7V43.994H27.889Z" transform="translate(-27.068 -23.969)" fill="#f1f2f2"/>
    </g>
  </g>
</svg>
