<svg xmlns="http://www.w3.org/2000/svg" width="164.977" height="203.607" viewBox="0 0 164.977 203.607">
  <g id="Group_4034" data-name="Group 4034" transform="translate(-886.625 -314.504)">
    <path id="Path_3399" data-name="Path 3399" d="M340.879,830.442H469.638A18.093,18.093,0,0,0,487.163,816.8H323.354A18.11,18.11,0,0,0,340.879,830.442Z" transform="translate(563.856 -312.332)" fill="#00a1e5"/>
    <g id="Group_2597" data-name="Group 2597" transform="translate(886.625 314.504)">
      <path id="Path_3399-2" data-name="Path 3399" d="M476.774,347.723a27.6,27.6,0,0,0-12.692,23.314v25.652h66.57V370.837C527.954,347.8,501.75,331.86,476.774,347.723Z" transform="translate(-414.996 -315.239)" fill="none"/>
      <path id="Path_3400" data-name="Path 3400" d="M540.971,645.766V631.485a14.473,14.473,0,0,0,6.938-12.337c0-11.026-12.294-19.178-23.925-11.515a7.54,7.54,0,0,0-2.156,2.167c-5.7,8.768-2.536,17.672,3.973,21.684v14.281Z" transform="translate(-450.894 -487.79)" fill="#fff"/>
      <path id="Path_3402" data-name="Path 3402" d="M321.659,798.332a18.135,18.135,0,0,0,.584,4.477H486.052a18.13,18.13,0,0,0,.584-4.477v-2.88H321.659Z" transform="translate(-321.659 -612.844)" fill="#fff"/>
      <path id="Path_3403" data-name="Path 3403" d="M463.642,325.115c0-42.823-45.484-75.235-90.656-51.442a53.75,53.75,0,0,0-28.326,47.668v25.725H332.975a11.313,11.313,0,0,0-11.316,11.314v89.842H486.636V358.38a11.312,11.312,0,0,0-11.316-11.313H463.264V325.115Zm-51.906,84.2v14.281h-15.17V409.313c-6.51-4.012-9.676-12.916-3.973-21.684a7.541,7.541,0,0,1,2.156-2.167c11.631-7.663,23.925.489,23.925,11.515A14.473,14.473,0,0,1,411.736,409.313Zm25.579-62.246h-66.57V321.415A27.6,27.6,0,0,1,383.437,298.1c24.976-15.863,51.18.075,53.877,23.114Z" transform="translate(-321.659 -265.617)" fill="#00a1e5"/>
    </g>
  </g>
</svg>
