<svg xmlns="http://www.w3.org/2000/svg" width="22.644" height="30.192" viewBox="0 0 22.644 30.192">
  <g id="padlock_1_" data-name="padlock (1)" opacity="0.69">
    <path id="Path_2281" data-name="Path 2281" d="M22.813,27.87H5.83A2.834,2.834,0,0,1,3,25.039V11.83A2.834,2.834,0,0,1,5.83,9H22.813a2.834,2.834,0,0,1,2.83,2.83V25.039A2.834,2.834,0,0,1,22.813,27.87ZM5.83,10.887a.945.945,0,0,0-.943.943V25.039a.945.945,0,0,0,.943.943H22.813a.945.945,0,0,0,.943-.943V11.83a.945.945,0,0,0-.943-.943Z" transform="translate(-3 2.322)" fill="#4f4f4f"/>
    <path id="Path_2282" data-name="Path 2282" d="M20.152,13.209a.944.944,0,0,1-.943-.943V7.548a5.661,5.661,0,1,0-11.322,0v4.717a.943.943,0,1,1-1.887,0V7.548a7.548,7.548,0,1,1,15.1,0v4.717A.944.944,0,0,1,20.152,13.209Z" transform="translate(-2.226)" fill="#4f4f4f"/>
    <path id="Path_2283" data-name="Path 2283" d="M12.516,18.032a2.516,2.516,0,1,1,2.516-2.516A2.518,2.518,0,0,1,12.516,18.032Zm0-3.145a.629.629,0,1,0,.629.629A.63.63,0,0,0,12.516,14.887Z" transform="translate(-1.194 3.354)" fill="#4f4f4f"/>
    <path id="Path_2284" data-name="Path 2284" d="M12.193,21.1a.944.944,0,0,1-.943-.943V16.693a.943.943,0,0,1,1.887,0v3.459A.944.944,0,0,1,12.193,21.1Z" transform="translate(-0.872 4.063)" fill="#4f4f4f"/>
  </g>
</svg>
