<svg xmlns="http://www.w3.org/2000/svg" width="23.203" height="42.302" viewBox="0 0 23.203 42.302">
  <path id="Path_5293" data-name="Path 5293" d="M132.477,0H118.186a4.491,4.491,0,0,0-4.494,4.41V37.9a4.448,4.448,0,0,0,4.45,4.4l14.315-.015a4.42,4.42,0,0,0,4.417-4.406l.021-33.474A4.411,4.411,0,0,0,132.477,0Zm-9.21,2.644h4.146a.661.661,0,0,1,0,1.322h-4.146a.661.661,0,0,1,0-1.322Zm-2.491.21a.684.684,0,0,1,.935,0,.663.663,0,0,1-.466,1.13.677.677,0,0,1-.469-.195.667.667,0,0,1,0-.935Zm4.431,38.138a1.978,1.978,0,1,1,1.978-1.978A1.98,1.98,0,0,1,125.207,40.992Zm9.636-5.3H116.005V6.279h18.837V35.692Z" transform="translate(-113.691)" fill="#00a1e5"/>
</svg>
