<svg id="saudi-arabia_1_" data-name="saudi-arabia (1)" xmlns="http://www.w3.org/2000/svg" width="307.924" height="307.924" viewBox="0 0 307.924 307.924">
  <path id="Path_2318" data-name="Path 2318" d="M240.565,0H67.358A67.358,67.358,0,0,0,0,67.358V240.565a67.358,67.358,0,0,0,67.358,67.358H240.565a67.358,67.358,0,0,0,67.358-67.358V67.358A67.358,67.358,0,0,0,240.565,0Z" fill="#73af00"/>
  <g id="Group_1090" data-name="Group 1090" transform="translate(42.835 84.164)">
    <path id="Path_2319" data-name="Path 2319" d="M75.072,174.5c.625,4,3.045,5.261,5.149,5.1a5.174,5.174,0,0,0,4.657-4.858V161a1.249,1.249,0,1,1,2.5,0v13.8a4.994,4.994,0,0,0,6.852,4.638l1.249-.5c.115,11.535-.586,21.672-.6,21.858a2.5,2.5,0,0,0,2.314,2.669q.091.007.18.007a2.5,2.5,0,0,0,2.49-2.32c.058-.813.828-11.914.6-24.207l.755-.3a2.507,2.507,0,0,1,2.042.085,7.138,7.138,0,0,0,8.238-1.337l.45-.449a7.459,7.459,0,0,0,1.809-7.671l-2.128-6.383a2.5,2.5,0,0,0,1.852-4.624l-5-2.5a2.5,2.5,0,0,0-3.488,3.025l4.02,12.06a2.488,2.488,0,0,1-.6,2.557l-.449.449a2.145,2.145,0,0,1-2.473.4,7.469,7.469,0,0,0-5.192-.52c-.351-8.019-1.215-16-3.055-21.525A2.5,2.5,0,0,0,92.5,151.8c1.8,5.4,2.585,13.626,2.862,21.807l-2.991,1.2V161a6.246,6.246,0,0,0-12.493,0V173.1l-2.549-12.59a2.5,2.5,0,1,0-4.9.991Z" transform="translate(-71.686 -143.358)" fill="#f5f5f5"/>
    <path id="Path_2320" data-name="Path 2320" d="M83.2,151.853a2.5,2.5,0,0,0,2.5-2.5v-2.5a2.5,2.5,0,1,0-5,0v2.5A2.5,2.5,0,0,0,83.2,151.853Z" transform="translate(-75 -141.703)" fill="#f5f5f5"/>
    <path id="Path_2321" data-name="Path 2321" d="M124.738,149.353h2.5a2.5,2.5,0,0,0,0-5h-2.5a2.5,2.5,0,0,0,0,5Z" transform="translate(-91.559 -141.702)" fill="#f5f5f5"/>
    <path id="Path_2322" data-name="Path 2322" d="M90.248,207.027l-12.492,7.5a2.5,2.5,0,0,0,2.572,4.285l12.492-7.5a2.5,2.5,0,1,0-2.572-4.284Z" transform="translate(-73.344 -166.539)" fill="#f5f5f5"/>
    <path id="Path_2323" data-name="Path 2323" d="M128.86,188.263l.058-.04a5.7,5.7,0,0,0,1.153,2.347,4.91,4.91,0,0,0,4.257,1.654,6.89,6.89,0,0,0,5.2-2.733,4.51,4.51,0,0,0,.527.312,4.73,4.73,0,0,0,4.4-.141c3.776-1.944,4.589-6.444,4.475-8.8a2.555,2.555,0,0,0-2.6-2.367,2.507,2.507,0,0,0-2.391,2.593c0,.032.057,3-1.756,4.1a6.086,6.086,0,0,1-.778-2.106,2.5,2.5,0,0,0-4.964.413c0,.363-.082,3.569-2.557,3.837a6.1,6.1,0,0,1-.01-3.269,2.5,2.5,0,0,0-3.836-2.645l-1.395.949c-.662-14.489-2.187-31.373-2.207-31.589a2.5,2.5,0,0,0-4.977.454c.022.231,1.786,19.765,2.331,34.683-.127.122-.259.254-.384.371a6.44,6.44,0,0,0-5.469-4.3,9.116,9.116,0,0,0-8.8,5.568c-1.192,2.977-.441,5.9,1.911,7.452,1.691,1.115,4.243,1.466,7.452.342a20.889,20.889,0,0,1-4.064,7.7c-1.66,1.935-4.433,4.167-7.982,4.067a6.561,6.561,0,0,1-4.852-2.069c-2.893-3.16-2.644-8.879-2.641-8.939a2.5,2.5,0,0,0-2.357-2.625,2.448,2.448,0,0,0-2.632,2.357c-.017.317-.379,7.832,3.923,12.558a11.461,11.461,0,0,0,8.364,3.711c.167.007.334.01.5.01,4.179,0,8.235-2.05,11.465-5.814a25.848,25.848,0,0,0,5.721-12.806c-.008,8.547-5.158,18.187-11.988,22.433a12.476,12.476,0,0,1-12.514.915c-6.278-3.1-5.53-10.275-5.5-10.567a2.5,2.5,0,1,0-4.957-.619c-.056.446-1.256,10.979,8.244,15.666a16.974,16.974,0,0,0,7.563,1.8,18.487,18.487,0,0,0,9.8-2.955c8.314-5.167,14.348-16.4,14.348-26.7C128.942,191.874,128.912,190.114,128.86,188.263Zm-15.065,2.576c-.446-.3-.1-1.24-.022-1.427a4.245,4.245,0,0,1,3.486-2.457,1.872,1.872,0,0,1,.2.01c.319.029,1.167.109,1.532,2,.039.2.072.4.1.615C116.306,191.211,114.439,191.262,113.795,190.839Z" transform="translate(-78.273 -143.357)" fill="#f5f5f5"/>
    <path id="Path_2324" data-name="Path 2324" d="M80.681,250.251a2.5,2.5,0,0,0-3.416.886,5.235,5.235,0,0,1-.422.593c-.027-.063-.054-.132-.081-.205-1.042-2.779-.3-7.061.075-8.476a2.5,2.5,0,0,0-4.827-1.288c-.182.676-1.718,6.741.073,11.518,1.147,3.055,2.907,3.826,4.183,3.931.114.01.226.014.337.014,2.69,0,4.479-2.711,4.977-3.57A2.493,2.493,0,0,0,80.681,250.251Z" transform="translate(-71.224 -179.79)" fill="#f5f5f5"/>
    <path id="Path_2325" data-name="Path 2325" d="M161.955,166.842a2.479,2.479,0,0,0,1.542-.534l12.6-9.889a2.4,2.4,0,0,0,.412-.484,6.256,6.256,0,1,0-7.18-.555l-8.915,7a2.5,2.5,0,0,0,1.545,4.462ZM173.3,149.353a1.249,1.249,0,1,1-1.249,1.249A1.251,1.251,0,0,1,173.3,149.353Z" transform="translate(-106.392 -141.702)" fill="#f5f5f5"/>
    <path id="Path_2326" data-name="Path 2326" d="M175.112,177.72a2.494,2.494,0,0,0-3.161,1.579c-.267.8-1.475,4.921.974,7.368a5.041,5.041,0,0,0,3.733,1.425,10.976,10.976,0,0,0,3.451-.637,2.5,2.5,0,1,0-1.581-4.739,8.715,8.715,0,0,1-2.039.437,4.774,4.774,0,0,1,.206-2.284A2.5,2.5,0,0,0,175.112,177.72Z" transform="translate(-111.16 -154.948)" fill="#f5f5f5"/>
    <path id="Path_2327" data-name="Path 2327" d="M223.912,154.076a2.5,2.5,0,0,0,3.1-1.7l1.458-5a2.5,2.5,0,0,0-4.8-1.4l-1.458,5A2.5,2.5,0,0,0,223.912,154.076Z" transform="translate(-131.367 -141.633)" fill="#f5f5f5"/>
    <path id="Path_2328" data-name="Path 2328" d="M198.964,152.093a2.5,2.5,0,0,0,2.522-4.314c-.5-.293-.434-1.12-.416-1.283a1.961,1.961,0,0,1,1.147-1.669,2.5,2.5,0,0,0-1.486-4.772,6.86,6.86,0,0,0-4.626,5.873A6.161,6.161,0,0,0,198.964,152.093Z" transform="translate(-120.981 -139.943)" fill="#f5f5f5"/>
    <path id="Path_2329" data-name="Path 2329" d="M166.281,227.442a2.5,2.5,0,0,0-.469,4.953,4.685,4.685,0,0,1,.469,2.542,2.5,2.5,0,1,0,5,0C171.278,227.528,166.485,227.442,166.281,227.442Z" transform="translate(-108.117 -174.819)" fill="#f5f5f5"/>
    <path id="Path_2330" data-name="Path 2330" d="M235.16,205.506a5.831,5.831,0,0,0,.939.076c1.963,0,3.947-.991,5.911-2.955a2.5,2.5,0,1,0-3.532-3.533c-1.495,1.5-2.3,1.528-2.5,1.481-.477-.068-.909-.69-1.005-.861a2.5,2.5,0,0,0-4.454,2.264A6.756,6.756,0,0,0,235.16,205.506Z" transform="translate(-134.61 -163.227)" fill="#f5f5f5"/>
    <path id="Path_2331" data-name="Path 2331" d="M305.778,179.852c-.016-.039-.031-.076-.043-.11a2.5,2.5,0,0,0-4.734,1.6c.195.586,1.307,3.523,4.065,3.894a4.148,4.148,0,0,0,.549.037c1.731,0,3.355-1.12,4.832-3.336a2.5,2.5,0,0,0-4.158-2.772A7.736,7.736,0,0,1,305.778,179.852Z" transform="translate(-162.759 -155.131)" fill="#f5f5f5"/>
    <path id="Path_2332" data-name="Path 2332" d="M256.165,213.467c0-10.655-.469-20.65-1.119-29.407a126.539,126.539,0,0,1,8.772,17.793,2.5,2.5,0,0,0,4.68-1.757c-3.162-8.431-8.847-18.471-14.448-27.383-1.366-13.458-2.895-22-2.922-22.153a2.5,2.5,0,0,0-4.916.893c.02.109.807,4.509,1.748,11.915-1.919-2.848-3.7-5.418-5.2-7.533l.122.039a2.5,2.5,0,1,0,1.581-4.739l-7.5-2.5a2.472,2.472,0,0,0-3.182,1.673c-1.5-1.106-3.413-2-5.215-1.251-1.089.452-2.388,1.588-2.388,4.446a22.587,22.587,0,0,0,1.724,7.078c1.471,4.167,2.392,7.232.835,8.693a2.728,2.728,0,0,1-2.561.9c-1.541-.39-3.066-2.442-4.082-5.49a2.392,2.392,0,0,0-.2-.348,42.5,42.5,0,0,0-.762-13.823,2.5,2.5,0,0,0-4.9.981c1.631,8.159,1.142,14.815-1.309,17.8a4.486,4.486,0,0,1-3.737,1.693,1.438,1.438,0,0,1-1.2-.556c-1.971-2.271-1.963-9.6-1.327-14.083a2.5,2.5,0,0,0-2.474-2.85c-4.3,0-5.929,4.89-7.367,9.2-.631,1.9-1.807,5.421-2.626,5.787-1.513,0-2.49-4.44-2.5-7.5a2.5,2.5,0,0,0-2.5-2.493h0a2.5,2.5,0,0,0-2.495,2.5c0,5.763,1.963,12.492,7.5,12.492,4.12,0,5.789-4.49,7.185-8.661.243,3.318.992,6.756,2.834,8.879a6.409,6.409,0,0,0,4.971,2.281,9.505,9.505,0,0,0,7.6-3.521,11.641,11.641,0,0,0,.928-1.379,9.323,9.323,0,0,0,5.235,3.928,7.207,7.207,0,0,0,1.765.224,7.929,7.929,0,0,0,5.441-2.325,7.337,7.337,0,0,0,.834-1.008,6.74,6.74,0,0,0,1.846.278,10.111,10.111,0,0,0,5.181-1.591,2.5,2.5,0,0,0-2.683-4.214,5.3,5.3,0,0,1-2.829.745,25.79,25.79,0,0,0-1.893-8.211,34.582,34.582,0,0,1-1.292-4.177c.206.173.407.354.587.529a2.5,2.5,0,0,0,3.532,0,2.391,2.391,0,0,0,.363-.547c2.59,3.568,7.916,11.065,13.4,19.707,1.046,10.622,1.964,24.174,1.964,39.035a2.5,2.5,0,0,0,5,0Z" transform="translate(-118.051 -143.355)" fill="#f5f5f5"/>
    <path id="Path_2333" data-name="Path 2333" d="M303.37,158.506a2.5,2.5,0,0,0,5,0c0-2.94-2.3-7.69-2.762-8.613a2.5,2.5,0,1,0-4.47,2.235C302.037,153.931,303.37,157.2,303.37,158.506Z" transform="translate(-162.759 -143.359)" fill="#f5f5f5"/>
    <path id="Path_2334" data-name="Path 2334" d="M277.1,253.483a2.5,2.5,0,0,0-3.353,1.1,7.168,7.168,0,0,1-1.036,1.484,13.95,13.95,0,0,1,.657-4.621,2.5,2.5,0,0,0-4.155-2.5l-5,5a2.5,2.5,0,0,0,3.533,3.532l.127-.127a5.167,5.167,0,0,0,1.337,2.625,4.572,4.572,0,0,0,3.247,1.432,4.341,4.341,0,0,0,.687-.056c2.83-.459,4.592-3.579,5.065-4.523A2.492,2.492,0,0,0,277.1,253.483Z" transform="translate(-147.856 -183.098)" fill="#f5f5f5"/>
    <path id="Path_2335" data-name="Path 2335" d="M229.77,211.852H212.162q.235-.934.48-1.779c7.022-1.459,11.2-3.726,12.423-6.751a5.586,5.586,0,0,0-.94-5.607,6.192,6.192,0,0,0-6.315-2.694c-3.55.72-6.714,4.545-8.983,10.67-7.053,1.208-11.568,3.739-14.426,6.238-1.014-10.238-4.988-16.32-5.181-16.61a2.5,2.5,0,1,0-4.158,2.772c.045.068,4.577,7,4.577,18.6,0,11.4-9.093,19.987-14.99,19.987-2.806,0-4.033-3.335-4.573-6.154,5.774-4.047,10.869-8.729,11.994-13.228,1.523-6.087-.394-10.575-1.662-13.544-.059-.137-.122-.283-.185-.434.054.049.1.1.156.149a2.5,2.5,0,1,0,3.532-3.533c-1.46-1.461-4.3-3.758-6.874-2.679-1.089.451-2.388,1.589-2.388,4.446a10.637,10.637,0,0,0,1.164,4.016c1.125,2.632,2.524,5.91,1.409,10.37-.66,2.639-3.9,5.841-8.178,9.019a2.458,2.458,0,0,0-1.89-.917h0a2.5,2.5,0,0,0-2.495,2.5c0,.449.019.93.049,1.423a131.435,131.435,0,0,1-16.074,8.795,2.5,2.5,0,0,0,1.036,4.772,2.47,2.47,0,0,0,1.032-.224,143.9,143.9,0,0,0,14.922-7.99c1.261,4.283,3.934,8.215,9.029,8.215,5.994,0,12.793-4.9,16.717-12.218a14.551,14.551,0,0,0,1.667,2.386c6.289,7.251,18.572,7.334,19.092,7.334a2.5,2.5,0,0,0,.179-4.989,5.356,5.356,0,0,1-3.118-1.515,4.282,4.282,0,0,1-.817-3.281c.256-3.079,10.187-5.38,18.941-5.517a2.5,2.5,0,0,0,2.317-1.662l2.5-7.027a2.5,2.5,0,0,0-2.354-3.338ZM218.8,199.922a.893.893,0,0,1,.19-.025c.239,0,.616.117,1.119.8.1.127.4.561.322.752-.287.707-2.012,1.876-5.606,2.935C216.409,201.3,217.955,200.092,218.8,199.922Zm-15.088,32.843a15.292,15.292,0,0,1-6.916-4.2c-1.968-2.276-2.695-5.155-2.218-8.8a7.429,7.429,0,0,1,.521-1.06c3.518-.322,12.917,1.065,13.569,3.756-2.9,1.48-5.034,3.56-5.282,6.519A10.577,10.577,0,0,0,203.715,232.765Z" transform="translate(-101.494 -161.572)" fill="#f5f5f5"/>
    <path id="Path_2336" data-name="Path 2336" d="M316.577,157.713l-2.5-7.5a2.5,2.5,0,0,0-4.857,1.04c1.723,17.24,4.984,50.862,4.984,54.717,0,3.462-6.159,10.279-16.109,15.254a2.5,2.5,0,0,0,2.235,4.47c9.089-4.545,18.87-12.655,18.87-19.724,0-3.692-2.553-30.252-4.016-45.172A2.5,2.5,0,0,0,316.577,157.713Z" transform="translate(-161.103 -143.357)" fill="#f5f5f5"/>
    <path id="Path_2337" data-name="Path 2337" d="M358.952,193.175a2.5,2.5,0,0,0,4.188-2.384,12.592,12.592,0,0,1-.36-4.85,2.535,2.535,0,0,0,2.6-2.142,2.5,2.5,0,0,0-2.119-2.828,4.513,4.513,0,0,0-4.116,1.388,5.727,5.727,0,0,0-1.259,2.681l-2.893-2.893a2.5,2.5,0,1,0-3.533,3.533Z" transform="translate(-182.63 -156.275)" fill="#f5f5f5"/>
    <path id="Path_2338" data-name="Path 2338" d="M366.848,205.319l-9.369,6.715a2.5,2.5,0,1,0,2.911,4.06l9.368-6.714a2.5,2.5,0,1,0-2.91-4.06Z" transform="translate(-184.906 -165.813)" fill="#f5f5f5"/>
    <path id="Path_2339" data-name="Path 2339" d="M372.02,220.615a2.5,2.5,0,0,0,.219,3.313,6.933,6.933,0,0,1,.506,3.6,2.5,2.5,0,0,0,2.408,2.586c.031,0,.061,0,.09,0a2.5,2.5,0,0,0,2.5-2.408c.182-5.1-1.487-6.963-2.213-7.527A2.5,2.5,0,0,0,372.02,220.615Z" transform="translate(-190.908 -171.713)" fill="#f5f5f5"/>
    <path id="Path_2340" data-name="Path 2340" d="M378.922,210.659a2.5,2.5,0,0,0,2.5-2.5c0-3.687-.189-7.8-.5-12.083a91.254,91.254,0,0,1,5.855,10.88,2.494,2.494,0,0,0,2.3,1.515,2.454,2.454,0,0,0,.983-.2,2.5,2.5,0,0,0,1.312-3.279c-2.287-5.338-6.562-12.409-11.431-19.709-.98-9.17-2.26-18.156-3.255-24.6a2.42,2.42,0,0,0,1.56-.388,2.465,2.465,0,0,0,1.106-2.257,2.461,2.461,0,0,0,.276.718,9.087,9.087,0,0,1,.91,6.117,2.5,2.5,0,0,0,1.941,2.952,2.6,2.6,0,0,0,.509.051,2.5,2.5,0,0,0,2.445-1.994,14.157,14.157,0,0,0-1.588-9.811,2.505,2.505,0,0,0-3.45-.766,2.47,2.47,0,0,0-1.116,2.259,2.438,2.438,0,0,0-.281-.723l-4.216-6.559a2.5,2.5,0,0,0-4.562,1.783c.035.2,1.944,11.161,3.636,24.375-1.916-2.705-3.831-5.35-5.688-7.873-.3-3.78-.6-7.275-.867-10.165a2.614,2.614,0,0,0,.407-.161,2.5,2.5,0,0,0,1.117-3.353l-2.5-5a2.5,2.5,0,0,0-4.721,1.367c.3,2.982.608,6.282.913,9.749-1.581-2.083-3.043-3.99-4.294-5.6a2.5,2.5,0,0,0-.511-4.13l-5-2.5a2.5,2.5,0,0,0-3.068,3.8c.135.168,6.286,7.879,13.645,17.833,1.276,16.507,2.126,33.679.926,37.279-.22.659-.6,1.434-.962,1.461-1.51.21-5.114-3.167-6.924-6.785a3.476,3.476,0,0,0-3.347-2.264c-2.685.166-3.733,3.121-5.637,8.483-1.365,3.843-3.061,8.62-4.965,10.575-1.032-1.261-2.366-5.49-3.107-9.837a2.484,2.484,0,0,0,4.826-.842c0-3.726-2.606-32.1-4.061-47.653a2.5,2.5,0,0,0,1.434-3.106l-2.5-7.5a2.5,2.5,0,0,0-4.858,1.027c1.7,17.824,4.882,52.25,4.981,57-.006-.043-.015-.085-.021-.128a2.5,2.5,0,1,0-4.945.708c.73,5.107,2.594,13.888,6.888,15.318a4.17,4.17,0,0,0,1.331.217,4.908,4.908,0,0,0,3.516-1.63c2.721-2.72,4.563-7.908,6.187-12.483.368-1.034.8-2.259,1.211-3.308,2.292,3.348,6.292,7.515,10.343,7.188,1.425-.1,4.016-.868,5.348-4.865s.8-17.885-.092-31.192c2.1,2.95,4.212,5.971,6.222,8.955.78,7.482,1.337,14.978,1.337,21.134A2.5,2.5,0,0,0,378.922,210.659Z" transform="translate(-176.005 -143.358)" fill="#f5f5f5"/>
    <path id="Path_2341" data-name="Path 2341" d="M426.307,197.726c-1.77-13.185-4.236-28.458-5.8-37.833a2.462,2.462,0,0,0,2.094-.444,2.5,2.5,0,0,0,.471-3.5l-4.529-5.934a2.5,2.5,0,0,0-4.448,1.944c.045.256,4.5,25.9,7.256,46.43,1.053,7.844-.484,14.854-4.114,18.748a11.055,11.055,0,0,1-9.164,3.416,2.5,2.5,0,0,0-.315,4.988c.423.027.838.039,1.25.039a15.77,15.77,0,0,0,11.883-5.035C425.6,215.493,427.575,207.176,426.307,197.726Z" transform="translate(-204.43 -143.566)" fill="#f5f5f5"/>
    <path id="Path_2342" data-name="Path 2342" d="M393.993,256.841a2.531,2.531,0,0,0,.123,3.511,1.059,1.059,0,0,1,.3.517,1.168,1.168,0,0,1-.378.559,2.5,2.5,0,1,0,3.533,3.533,5.67,5.67,0,0,0,1.84-4.262,5.944,5.944,0,0,0-1.961-4.07A2.474,2.474,0,0,0,393.993,256.841Z" transform="translate(-199.601 -186.211)" fill="#f5f5f5"/>
    <path id="Path_2343" data-name="Path 2343" d="M277.142,345.174H259.653v-2.5a2.5,2.5,0,1,0-5,0v2.5H122.24c5,5,14.99,7.5,22.486,7.5h109.93v5a2.5,2.5,0,0,0,2.5,2.5h19.987a7.5,7.5,0,1,0,0-14.99Zm0,9.994H259.653v-2.5h19.987l-.448-1.344a2.425,2.425,0,0,1,.448,1.344A2.5,2.5,0,0,1,277.142,355.168Z" transform="translate(-91.559 -219.754)" fill="#f5f5f5"/>
  </g>
</svg>
