<svg xmlns="http://www.w3.org/2000/svg" width="27.433" height="33.282" viewBox="0 0 27.433 33.282">
  <g id="user" opacity="0.69">
    <path id="Path_2279" data-name="Path 2279" d="M94.71,16.5a7.18,7.18,0,0,0,5.429-2.417,8.293,8.293,0,0,0,2.249-5.833,8.294,8.294,0,0,0-2.249-5.833,7.305,7.305,0,0,0-10.857,0A8.293,8.293,0,0,0,87.032,8.25a8.293,8.293,0,0,0,2.249,5.834A7.182,7.182,0,0,0,94.71,16.5ZM90.6,3.836a5.527,5.527,0,0,1,8.215,0,6.2,6.2,0,0,1,1.7,4.414,6.2,6.2,0,0,1-1.7,4.414,5.527,5.527,0,0,1-8.215,0A6.194,6.194,0,0,1,88.9,8.25a6.2,6.2,0,0,1,1.7-4.414Zm0,0" transform="translate(-81.209 0)" fill="#4f4f4f"/>
    <path id="Path_2280" data-name="Path 2280" d="M27.367,257.11a21.188,21.188,0,0,0-.266-2.164,17.646,17.646,0,0,0-.511-2.176,10.983,10.983,0,0,0-.859-2.03,7.622,7.622,0,0,0-1.295-1.758,5.683,5.683,0,0,0-1.86-1.218,6.2,6.2,0,0,0-2.375-.448,2.357,2.357,0,0,0-1.287.569c-.386.262-.837.565-1.341.9a7.534,7.534,0,0,1-1.735.8,6.481,6.481,0,0,1-4.244,0,7.511,7.511,0,0,1-1.734-.8c-.5-.332-.951-.635-1.342-.9a2.355,2.355,0,0,0-1.287-.569,6.193,6.193,0,0,0-2.374.448A5.678,5.678,0,0,0,3,248.982,7.624,7.624,0,0,0,1.7,250.74a11,11,0,0,0-.859,2.03,17.687,17.687,0,0,0-.511,2.176,21.044,21.044,0,0,0-.266,2.165c-.044.654-.066,1.335-.066,2.023a5.815,5.815,0,0,0,1.622,4.3A5.7,5.7,0,0,0,5.8,265.024H21.633a5.7,5.7,0,0,0,4.178-1.588,5.813,5.813,0,0,0,1.622-4.3c0-.69-.023-1.371-.066-2.023Zm-2.884,4.872a3.837,3.837,0,0,1-2.85,1.035H5.8a3.837,3.837,0,0,1-2.85-1.034,3.8,3.8,0,0,1-1.023-2.849c0-.642.02-1.276.061-1.884a18.979,18.979,0,0,1,.241-1.949,15.6,15.6,0,0,1,.449-1.919,8.958,8.958,0,0,1,.7-1.65,5.653,5.653,0,0,1,.952-1.3,3.768,3.768,0,0,1,1.238-.8,4.279,4.279,0,0,1,1.518-.3c.067.037.188.109.382.241.4.269.853.576,1.357.912A9.365,9.365,0,0,0,11,251.492a8.333,8.333,0,0,0,5.43,0,9.376,9.376,0,0,0,2.179-1.015c.517-.344.96-.642,1.356-.911.195-.132.315-.2.382-.241a4.282,4.282,0,0,1,1.518.3,3.774,3.774,0,0,1,1.237.8,5.638,5.638,0,0,1,.952,1.3,8.928,8.928,0,0,1,.7,1.65,15.562,15.562,0,0,1,.45,1.919,19.139,19.139,0,0,1,.241,1.95h0c.041.606.061,1.24.062,1.883a3.8,3.8,0,0,1-1.024,2.849Zm0,0" transform="translate(0 -231.742)" fill="#4f4f4f"/>
  </g>
</svg>
