<svg xmlns="http://www.w3.org/2000/svg" width="110.077" height="99.193" viewBox="0 0 110.077 99.193">
  <g id="Group_5630" data-name="Group 5630" transform="translate(-9889.46 -6921.853)">
    <g id="Group_5629" data-name="Group 5629">
      <g id="Group_5628" data-name="Group 5628">
        <g id="comparison_1_" data-name="comparison (1)" transform="translate(9889.46 6896.541)">
          <path id="Path_3727" data-name="Path 3727" d="M215.129,289.745H184.172l12.457-53.938h5.309Z" transform="translate(-144.576 -165.24)" fill="#b5efff"/>
          <path id="Path_3728" data-name="Path 3728" d="M271.939,289.745h-15.4V235.807h2.208Z" transform="translate(-201.386 -165.24)" fill="#80dbff"/>
          <path id="Path_3729" data-name="Path 3729" d="M66.458,220.915a3.225,3.225,0,0,1-3.224-3.224V206.659a3.224,3.224,0,1,1,6.449,0V217.69A3.225,3.225,0,0,1,66.458,220.915Z" transform="translate(-49.639 -139.827)" fill="#b5efff"/>
          <path id="Path_3730" data-name="Path 3730" d="M421.993,170.122a3.225,3.225,0,0,1-3.224-3.224V155.006a3.224,3.224,0,0,1,6.449,0V166.9A3.225,3.225,0,0,1,421.993,170.122Z" transform="translate(-328.736 -99.28)" fill="#80dbff"/>
          <path id="Path_3731" data-name="Path 3731" d="M202.677,459.918a3.223,3.223,0,0,1-3.224,3.224h-33.8a3.224,3.224,0,1,1,0-6.449h33.8A3.224,3.224,0,0,1,202.677,459.918Z" transform="translate(-127.505 -338.637)" fill="#5a6384"/>
          <path id="Path_3732" data-name="Path 3732" d="M16.819,76.964A16.819,16.819,0,1,0,33.639,93.783,16.839,16.839,0,0,0,16.819,76.964Z" transform="translate(0 -40.547)" fill="#ffb13b"/>
          <path id="Path_3733" data-name="Path 3733" d="M52.043,132.973a1.046,1.046,0,0,1,.038-.212l3.578-11.734a1.239,1.239,0,0,1,.7-.74,3.186,3.186,0,0,1,2.52,0,1.242,1.242,0,0,1,.7.74l3.6,11.734a1.068,1.068,0,0,1,.038.212,1.034,1.034,0,0,1-.625.865,2.537,2.537,0,0,1-1.3.365q-.828,0-.981-.558l-.654-2.4H55.6l-.654,2.4q-.154.558-.981.558a2.535,2.535,0,0,1-1.3-.365A1.034,1.034,0,0,1,52.043,132.973Zm4.174-4.04h2.808l-1.4-5.155Z" transform="translate(-40.854 -74.352)" fill="#fff"/>
          <path id="Path_3734" data-name="Path 3734" d="M372.354,25.312a16.82,16.82,0,1,0,16.82,16.819A16.839,16.839,0,0,0,372.354,25.312Z" transform="translate(-279.097)" fill="#f45607"/>
          <path id="Path_3735" data-name="Path 3735" d="M412.88,83.909V71.675a.762.762,0,0,1,.385-.683,1.708,1.708,0,0,1,.923-.24h3.943q3.847,0,3.847,3.424a2.94,2.94,0,0,1-1.635,3.02,3.128,3.128,0,0,1,1.481,1.048,3.42,3.42,0,0,1,.5,2.029v.4a4.154,4.154,0,0,1-1.048,3.145,3.934,3.934,0,0,1-2.818.99h-4.27a1.539,1.539,0,0,1-.952-.269A.782.782,0,0,1,412.88,83.909Zm2.982-7.867h2.02a.943.943,0,0,0,.808-.395,1.536,1.536,0,0,0,.289-.933,1.579,1.579,0,0,0-.289-.943.936.936,0,0,0-.808-.4h-2.02Zm0,6.156h1.924q1.539,0,1.539-1.77V80.12q0-1.769-1.539-1.77h-1.924Z" transform="translate(-324.113 -35.671)" fill="#fff"/>
          <path id="Path_3736" data-name="Path 3736" d="M116.2,210.226l-49.061,6.4-48.229,6.288a3.111,3.111,0,0,1-.421.028,3.225,3.225,0,0,1-.413-6.423l49.063-6.4,48.229-6.288a3.225,3.225,0,0,1,.832,6.4Z" transform="translate(-11.987 -140.117)" fill="#5a6384"/>
          <g id="Group_3055" data-name="Group 3055" transform="translate(55.155 63.687)">
            <path id="Path_3737" data-name="Path 3737" d="M276.558,459.918a3.223,3.223,0,0,1-3.225,3.224H256.541v-6.449h16.793A3.224,3.224,0,0,1,276.558,459.918Z" transform="translate(-256.541 -402.324)" fill="#445175"/>
            <path id="Path_3738" data-name="Path 3738" d="M305.6,210.227l-49.061,6.4v-6.5l48.229-6.288a3.224,3.224,0,0,1,.832,6.4Z" transform="translate(-256.541 -203.805)" fill="#445175"/>
          </g>
        </g>
      </g>
    </g>
  </g>
</svg>
