<svg xmlns="http://www.w3.org/2000/svg" xmlns:xlink="http://www.w3.org/1999/xlink" width="90" height="89" viewBox="0 0 90 89">
  <defs>
    <filter id="Ellipse_413" x="0" y="0" width="90" height="89" filterUnits="userSpaceOnUse">
      <feOffset dy="3" input="SourceAlpha"/>
      <feGaussianBlur stdDeviation="3" result="blur"/>
      <feFlood flood-opacity="0.161"/>
      <feComposite operator="in" in2="blur"/>
      <feComposite in="SourceGraphic"/>
    </filter>
    <filter id="messenger" x="19.046" y="18.153" width="51.758" height="51.758" filterUnits="userSpaceOnUse">
      <feOffset dy="3" input="SourceAlpha"/>
      <feGaussianBlur stdDeviation="3" result="blur-2"/>
      <feFlood flood-opacity="0.161"/>
      <feComposite operator="in" in2="blur-2"/>
      <feComposite in="SourceGraphic"/>
    </filter>
  </defs>
  <g id="Group_4140" data-name="Group 4140" transform="translate(9.475 5.582)">
    <g transform="matrix(1, 0, 0, 1, -9.47, -5.58)" filter="url(#Ellipse_413)">
      <ellipse id="Ellipse_413-2" data-name="Ellipse 413" cx="36" cy="35.5" rx="36" ry="35.5" transform="translate(9 6)" fill="#00a1e5" opacity="0.68"/>
    </g>
    <g transform="matrix(1, 0, 0, 1, -9.47, -5.58)" filter="url(#messenger)">
      <path id="messenger-2" data-name="messenger" d="M16.879,0A16.881,16.881,0,0,0,2.238,25.282L.064,32.035a1.319,1.319,0,0,0,1.659,1.659L8.477,31.52A16.88,16.88,0,1,0,16.879,0Zm0,31.121a14.2,14.2,0,0,1-7.538-2.158,1.32,1.32,0,0,0-1.1-.137L3.362,30.4l1.57-4.875a1.32,1.32,0,0,0-.137-1.1,14.242,14.242,0,1,1,12.084,6.7Zm1.648-14.242a1.648,1.648,0,1,1-1.648-1.648A1.648,1.648,0,0,1,18.527,16.879Zm6.593,0a1.648,1.648,0,1,1-1.648-1.648A1.648,1.648,0,0,1,25.121,16.879Zm-13.187,0a1.648,1.648,0,1,1-1.648-1.648A1.648,1.648,0,0,1,11.934,16.879Zm0,0" transform="translate(28.05 24.15)" fill="#fff"/>
    </g>
  </g>
</svg>
