<svg id="edit_1_" data-name="edit (1)" xmlns="http://www.w3.org/2000/svg" width="22.097" height="22.096" viewBox="0 0 22.097 22.096">
  <g id="Group_62" data-name="Group 62" transform="translate(0 1.578)">
    <g id="Group_61" data-name="Group 61">
      <path id="Path_45" data-name="Path 45" d="M18.151,43.607a.789.789,0,0,0-.789.789v7.892a.789.789,0,0,1-.789.789H2.368a.789.789,0,0,1-.789-.789V36.5a.789.789,0,0,1,.789-.789h9.47a.789.789,0,1,0,0-1.578H2.368A2.367,2.367,0,0,0,0,36.5V52.288a2.368,2.368,0,0,0,2.368,2.368H16.573a2.368,2.368,0,0,0,2.368-2.368V44.4A.789.789,0,0,0,18.151,43.607Z" transform="translate(0 -34.137)" fill="#01a0e3"/>
    </g>
  </g>
  <g id="Group_64" data-name="Group 64" transform="translate(4.735 0)">
    <g id="Group_63" data-name="Group 63">
      <path id="Path_46" data-name="Path 46" d="M118.886.889a3.021,3.021,0,0,0-4.273,0L104.218,11.283a.8.8,0,0,0-.19.309l-1.578,4.735a.789.789,0,0,0,.748,1.039.8.8,0,0,0,.249-.04l4.735-1.578a.789.789,0,0,0,.309-.191L118.885,5.161A3.021,3.021,0,0,0,118.886.889Zm-1.116,3.157L107.51,14.305l-3.065,1.024,1.02-3.061L115.729,2.008a1.442,1.442,0,1,1,2.041,2.038Z" transform="translate(-102.409 -0.004)" fill="#01a0e3"/>
    </g>
  </g>
</svg>
