<svg id="focus" xmlns="http://www.w3.org/2000/svg" width="59.988" height="59.988" viewBox="0 0 59.988 59.988">
  <g id="Group_2115" data-name="Group 2115">
    <g id="Group_2114" data-name="Group 2114">
      <path id="Path_3126" data-name="Path 3126" d="M57.846,27.852H55.594A25.722,25.722,0,0,0,32.137,4.394V2.142a2.142,2.142,0,0,0-4.285,0V4.394A25.722,25.722,0,0,0,4.394,27.852H2.142a2.142,2.142,0,1,0,0,4.285H4.394A25.722,25.722,0,0,0,27.852,55.594v2.252a2.142,2.142,0,1,0,4.285,0V55.594A25.722,25.722,0,0,0,55.594,32.137h2.252a2.142,2.142,0,1,0,0-4.285ZM29.994,51.419A21.424,21.424,0,1,1,51.419,29.994,21.424,21.424,0,0,1,29.994,51.419Z" fill="#848484"/>
    </g>
  </g>
  <g id="Group_2117" data-name="Group 2117" transform="translate(14.997 14.997)">
    <g id="Group_2116" data-name="Group 2116">
      <path id="Path_3127" data-name="Path 3127" d="M134.463,119.467a15,15,0,1,0,15,15A15,15,0,0,0,134.463,119.467Zm0,25.709a10.712,10.712,0,1,1,10.712-10.712A10.712,10.712,0,0,1,134.463,145.176Z" transform="translate(-119.466 -119.467)" fill="#848484"/>
    </g>
  </g>
</svg>
