<svg id="floppy-disk" xmlns="http://www.w3.org/2000/svg" width="20.744" height="20.744" viewBox="0 0 20.744 20.744">
  <path id="Path_47" data-name="Path 47" d="M127.608,5.8h5.632V0H127V5.189A.608.608,0,0,0,127.608,5.8Z" transform="translate(-121.854 -0.003)" fill="#01a0e3"/>
  <path id="Path_48" data-name="Path 48" d="M312.378,5.189V0H311V5.8h.77A.608.608,0,0,0,312.378,5.189Z" transform="translate(-298.4 -0.003)" fill="#01a0e3"/>
  <path id="Path_49" data-name="Path 49" d="M127,357.526h8.832V351H127Z" transform="translate(-121.854 -336.782)" fill="#01a0e3"/>
  <path id="Path_50" data-name="Path 50" d="M20.74,5.13a.609.609,0,0,0-.134-.325c-.03-.037.279.275-4.619-4.623A.612.612,0,0,0,15.557,0h-.364V5.189a1.825,1.825,0,0,1-1.823,1.823H5.752A1.825,1.825,0,0,1,3.929,5.189V0H1.822A1.825,1.825,0,0,0,0,1.826v17.1a1.825,1.825,0,0,0,1.823,1.823H3.929V12.239a1.825,1.825,0,0,1,1.823-1.823h7.617a1.825,1.825,0,0,1,1.823,1.823v8.508H18.92a1.825,1.825,0,0,0,1.823-1.823c0-14.755,0-13.748,0-13.794Z" transform="translate(0.001 -0.003)" fill="#01a0e3"/>
  <path id="Path_51" data-name="Path 51" d="M135.225,287h-7.617a.608.608,0,0,0-.608.608v.77h8.832v-.77A.608.608,0,0,0,135.225,287Z" transform="translate(-121.854 -275.375)" fill="#01a0e3"/>
</svg>
