<svg id="visibility" xmlns="http://www.w3.org/2000/svg" width="23.831" height="17.873" viewBox="0 0 23.831 17.873">
  <g id="Group_66" data-name="Group 66" transform="translate(0 1.986)">
    <g id="Group_65" data-name="Group 65">
      <path id="Path_52" data-name="Path 52" d="M11.916,106.673c-6.118,0-11.569,6.359-11.8,6.63a.5.5,0,0,0,0,.641,24.85,24.85,0,0,0,5.03,4.341l3.112-3.112a3.97,3.97,0,0,1,5.206-5.206l2.559-2.559A12.128,12.128,0,0,0,11.916,106.673Z" transform="translate(0 -106.673)" fill="#01a0e3"/>
    </g>
  </g>
  <g id="Group_68" data-name="Group 68" transform="translate(2.98 0)">
    <g id="Group_67" data-name="Group 67">
      <path id="Path_53" data-name="Path 53" d="M84.79,72.654a18.2,18.2,0,0,0-5.779-5.063l2.743-2.743a.5.5,0,0,0-.7-.7l-16.88,16.88a.5.5,0,0,0,0,.7.491.491,0,0,0,.351.146.5.5,0,0,0,.352-.145l3.113-3.113a11.436,11.436,0,0,0,4.976,1.272c6.118,0,11.569-6.359,11.8-6.63A.5.5,0,0,0,84.79,72.654ZM72.963,76.909a3.936,3.936,0,0,1-2.423-.847l5.548-5.548a3.95,3.95,0,0,1-3.125,6.395Z" transform="translate(-64.027 -64)" fill="#01a0e3"/>
    </g>
  </g>
</svg>
