<svg xmlns="http://www.w3.org/2000/svg" width="31.913" height="31.911" viewBox="0 0 31.913 31.911">
  <g id="Group_4030" data-name="Group 4030" transform="translate(-410 -173)">
    <g id="layers" transform="translate(410 172.991)">
      <g id="Group_28" data-name="Group 28" transform="translate(0 13.742)">
        <g id="Group_27" data-name="Group 27">
          <path id="Path_29" data-name="Path 29" d="M31.412,206.933a1.122,1.122,0,0,0-.1-.06l-2.265-1.219L16.489,212.3a1.14,1.14,0,0,1-1.067,0L2.864,205.654.6,206.873A1.128,1.128,0,0,0,.191,208.5l15.765,8.346L31.721,208.5A1.128,1.128,0,0,0,31.412,206.933Z" transform="translate(0 -205.654)" fill="#00a1e5"/>
        </g>
      </g>
      <g id="Group_30" data-name="Group 30" transform="translate(0.001 20.58)">
        <g id="Group_29" data-name="Group 29">
          <path id="Path_30" data-name="Path 30" d="M31.788,309.735a1.14,1.14,0,0,0-.462-.462l-2.265-1.219L16.5,314.7a1.14,1.14,0,0,1-1.067,0L2.878,308.054.613,309.273a1.14,1.14,0,0,0,0,2.006l14.817,7.978a1.14,1.14,0,0,0,1.08,0l14.817-7.978A1.14,1.14,0,0,0,31.788,309.735Z" transform="translate(-0.014 -308.054)" fill="#00a1e5"/>
        </g>
      </g>
      <g id="Group_32" data-name="Group 32" transform="translate(0 0.009)">
        <g id="Group_31" data-name="Group 31" transform="translate(0 0)">
          <path id="Path_31" data-name="Path 31" d="M31.412,8.183a1.128,1.128,0,0,0-.1-.06L16.5.145a1.14,1.14,0,0,0-1.08,0L.6,8.123A1.128,1.128,0,0,0,.191,9.748l15.765,8.346L31.721,9.748A1.128,1.128,0,0,0,31.412,8.183Z" transform="translate(0 -0.009)" fill="#00a1e5"/>
        </g>
      </g>
    </g>
  </g>
</svg>
