<svg xmlns="http://www.w3.org/2000/svg" width="31.411" height="31.416" viewBox="0 0 31.411 31.416">
  <g id="world_1_" data-name="world (1)" transform="translate(-0.004)">
    <g id="Group_2106" data-name="Group 2106">
      <path id="Path_3120" data-name="Path 3120" d="M28.755,6.968l-.47.149-2.5.223-.707,1.129-.513-.163L22.57,6.51l-.289-.934-.387-1L20.642,3.457l-1.477-.289-.034.676,1.447,1.412.708.834-.8.416-.648-.191-.971-.405.033-.783L17.63,4.6l-.423,1.841-1.284.291.127,1.027,1.673.322.289-1.641,1.381.2.642.376h1.03l.7,1.412,1.869,1.9-.137.737L22,10.876l-2.6,1.315L17.516,14.44l-.244,1H16.6l-1.254-.578-1.218.578.3,1.285.53-.611.932-.029-.065,1.154.772.226.771.866,1.259-.354,1.438.227,1.67.449.834.1,1.414,1.6,2.729,1.6-1.765,3.372-1.863.866-.707,1.927-2.7,1.8L19.4,30.96A15.687,15.687,0,0,0,28.755,6.968Z" fill="#fff"/>
      <path id="Path_3121" data-name="Path 3121" d="M17.515,23.917,16.371,21.8l1.05-2.188-1.05-.314L15.192,18.11l-2.612-.586-.867-1.814v1.077h-.382L9.08,13.735V11.228L7.43,8.545l-2.62.467H3.045L2.157,8.43l1.133-.9-1.13.261A15.686,15.686,0,0,0,15.709,31.416a16.444,16.444,0,0,0,1.971-.137l-.164-1.9s.721-2.826.721-2.922S17.515,23.917,17.515,23.917Z" fill="#fff"/>
      <path id="Path_3122" data-name="Path 3122" d="M5.84,5.065l2.79-.389,1.286-.7,1.447.417,2.312-.128.792-1.245,1.155.19,2.8-.263L19.2,2.09l1.09-.728,1.542.232.562-.085a15.656,15.656,0,0,0-18.8,4.2H3.6Zm10.532-3.5,1.6-.883,1.03.6L17.515,2.409l-1.424.143-.641-.416Zm-4.751.129.708.295.927-.295.505.875-2.14.562-1.029-.6S11.6,1.878,11.621,1.691Z" fill="#fff"/>
    </g>
  </g>
</svg>
