<svg xmlns="http://www.w3.org/2000/svg" width="26.645" height="23.771" viewBox="0 0 26.645 23.771">
  <g id="Group_5631" data-name="Group 5631" transform="translate(-8813.499 -6229.613)">
    <g id="odometer-for-kilometers-and-speed-control" transform="translate(8813.499 6229.613)">
      <path id="Path_3743" data-name="Path 3743" d="M12.876,31.749h0V28.572h.894v3.177h-.894ZM2.1,42.448l2.229-.393.9-.158h0l-.079-.443-.077-.436h0l-3.129.551Zm19.768-7.864-1.608.927h0l.248.43.2.343h0L23.462,34.7l-.447-.774ZM7.99,46.374l-.352-.3h0L5.6,48.512l.685.575.889-1.059,1.153-1.374h0ZM23,46.155l.446-.774-.96-.554L20.7,43.792h0l-.247.427-.2.346h0ZM1.952,38.469l1.116.2,2.012.356h0l.133-.756.022-.124h0l-3.129-.552Zm22.567-.858-.85.15-2.278.4h0l.115.652.04.228h0l3.129-.551ZM10.07,32.4h0l.725-.265.114-.041h0L9.823,29.106l-.84.306.155.426L10.07,32.4ZM3.606,46.135l2.751-1.588h0l-.344-.6-.1-.178h0L3.159,45.361l.447.774h0Zm14.677.532L20.325,49.1l.684-.575h0l-2.041-2.434h0l-.475.4-.21.176ZM3.171,34.678h0l2.751,1.589h0l.387-.671.06-.1h0L3.617,33.9Zm21.5,6.913h0l-3.128-.552-.033.189-.122.692,3.129.552ZM6.3,30.958l-.684.574.75.894,1.292,1.54h0l.4-.34.28-.235h0Zm10.256-1.109L15.734,32.1h0l.56.2.28.1h0l1.087-2.985-.84-.305Zm2.258,3.986.174.145h0l2.042-2.434-.685-.574h0L18.3,33.406h0Zm-5.489-6.814A13.315,13.315,0,0,0,5.071,50.792H6.42a12.528,12.528,0,1,1,13.8,0h1.349a13.315,13.315,0,0,0-8.251-23.771Zm-2.6,19.157q.419,0,.419-.835,0-.864-.41-.864-.433,0-.433.879Q10.3,46.178,10.722,46.178ZM9.528,43.491H11.9V47.2H9.528V43.491Zm.533,1.877a1.368,1.368,0,0,0,.168.746.531.531,0,0,0,.469.258.569.569,0,0,0,.5-.27,1.421,1.421,0,0,0,.179-.784q0-1.036-.635-1.036a.564.564,0,0,0-.507.275A1.516,1.516,0,0,0,10.061,45.368Zm2.148-1.877h2.327V47.2H12.208Zm.611,2.8a.833.833,0,0,0,.419.084.734.734,0,0,0,.524-.179.619.619,0,0,0,.191-.473.577.577,0,0,0-.177-.446.72.72,0,0,0-.5-.163c-.053,0-.11,0-.172.006v-.592h.76v-.209h-.979V45.33q.233-.017.317-.017a.585.585,0,0,1,.384.111.382.382,0,0,1,.134.31.417.417,0,0,1-.131.322.487.487,0,0,1-.345.121.77.77,0,0,1-.422-.134v.245Zm1.957-2.8h2.34V47.2h-2.34Zm.582,1.877a1.367,1.367,0,0,0,.168.746.531.531,0,0,0,.469.258.568.568,0,0,0,.5-.27,1.421,1.421,0,0,0,.179-.784q0-1.036-.635-1.036a.564.564,0,0,0-.507.275A1.52,1.52,0,0,0,15.358,45.368Zm.661.81q.419,0,.419-.835,0-.864-.41-.864-.433,0-.433.879Q15.6,46.178,16.02,46.178Zm-2.309-4.6a.75.75,0,0,0-.157.031L7.449,36.221l5.431,6.113a.8.8,0,0,0-.019.089.848.848,0,1,0,.85-.847Z" transform="translate(0 -27.021)" fill="#00a1e5"/>
    </g>
  </g>
</svg>
