<svg xmlns="http://www.w3.org/2000/svg" xmlns:xlink="http://www.w3.org/1999/xlink" width="19.809" height="26.622" viewBox="0 0 19.809 26.622">
  <defs>
    <linearGradient id="linear-gradient" x1="0.5" x2="0.5" y2="1" gradientUnits="objectBoundingBox">
      <stop offset="0" stop-color="#46c5f2"/>
      <stop offset="1" stop-color="#00a1e5"/>
    </linearGradient>
  </defs>
  <g id="Group_5633" data-name="Group 5633" transform="translate(-8819.499 -6346.116)">
    <g id="woman-avatar" transform="translate(8819.499 6346.116)">
      <g id="Group_3082" data-name="Group 3082" transform="translate(0)">
        <path id="Path_3755" data-name="Path 3755" d="M119.688,15.569a20.654,20.654,0,0,0,3.749-.168,3.28,3.28,0,0,0,1.619,0c3.66.178,6.512,1.213,6.512-6.235,0-5.056-3.283-9.161-7.334-9.161S116.9,4.105,116.9,9.161c0,4.066.777,5.645,2.04,6.2A2.707,2.707,0,0,0,119.688,15.569ZM118.519,6.3c.768,1.065,2.758.837,4.477-.51a6.546,6.546,0,0,0,1.124-1.129.992.992,0,0,1,.119.02,3.958,3.958,0,0,1,.5.144,4.553,4.553,0,0,1,.47.228,4.3,4.3,0,0,1,.431.282A3.951,3.951,0,0,1,126,5.67a2.615,2.615,0,0,1,.292.342,3.359,3.359,0,0,1,.218.322,1.509,1.509,0,0,1,.149.267c.074.154.119.243.119.243s-.015-.094-.045-.267a2.456,2.456,0,0,0-.064-.307,2.566,2.566,0,0,0-.124-.4,3.8,3.8,0,0,0-.2-.451,5.1,5.1,0,0,0-.287-.48,5.546,5.546,0,0,0-.386-.47,4.948,4.948,0,0,0-.47-.436,4.924,4.924,0,0,0-.49-.322,3.871,3.871,0,0,0,.183-.461,5.821,5.821,0,0,1,1.743,1.129c1.837,1.837,1.114,3.972,2.531,2.56a3.808,3.808,0,0,0,.55-.688.626.626,0,0,1,.139,0,.651.651,0,0,1,.386.317,1.682,1.682,0,0,1,.119,1.253,1.431,1.431,0,0,1-1,1.149l-.3.04-.079.292c-.7,2.55-2.6,5.264-4.744,5.264S120.208,11.86,119.5,9.31l-.079-.292-.3-.04a1.454,1.454,0,0,1-1-1.149,1.683,1.683,0,0,1,.119-1.253A.666.666,0,0,1,118.519,6.3Z" transform="translate(-114.518)" fill="url(#linear-gradient)"/>
        <path id="Path_3756" data-name="Path 3756" d="M84.028,327.9a5.608,5.608,0,0,1-2.124,2.263c-1.822.931-3.179,1.694-3.179,1.694l-.005,0v-.015l-.015.01-.015-.01v.015l0,0s-1.352-.753-3.179-1.694a5.641,5.641,0,0,1-2.124-2.263c-2.7,1.1-4.581,3.615-4.581,5.819v4.566H88.608v-4.566C88.608,331.52,86.721,329,84.028,327.9Z" transform="translate(-68.8 -311.662)" fill="url(#linear-gradient)"/>
      </g>
    </g>
  </g>
</svg>
