<svg xmlns="http://www.w3.org/2000/svg" xmlns:xlink="http://www.w3.org/1999/xlink" width="21.906" height="27.28" viewBox="0 0 21.906 27.28">
  <defs>
    <linearGradient id="linear-gradient" x1="0.5" x2="0.5" y2="1" gradientUnits="objectBoundingBox">
      <stop offset="0" stop-color="#46c5f2"/>
      <stop offset="1" stop-color="#00a1e5"/>
    </linearGradient>
  </defs>
  <g id="Group_5634" data-name="Group 5634" transform="translate(-8754.499 -6306.664)">
    <g id="male-user" transform="translate(8754.499 6306.664)">
      <g id="Group_3057" data-name="Group 3057" transform="translate(0 0)">
        <path id="Path_3739" data-name="Path 3739" d="M66.484,243.466a12.114,12.114,0,0,1-4.451-2.3l-.105.1a4.476,4.476,0,0,1-2.907,1.4h-.089a4.476,4.476,0,0,1-2.907-1.4l-.105-.1a12.115,12.115,0,0,1-4.451,2.3c-4.641,1.734-3.247,8.789-3.249,8.843.146.786.231,1.056.306,1.086,4.66,2.075,16.24,2.075,20.9,0,.074-.03.159-.3.306-1.086C69.731,252.255,71.143,245.227,66.484,243.466Z" transform="translate(-48.026 -227.672)" fill="url(#linear-gradient)"/>
        <path id="Path_3740" data-name="Path 3740" d="M163.312,6.793l-.039-.042a3.212,3.212,0,0,1-.241-.225,9.23,9.23,0,0,0,.09-3.385c-.573-1.736-4-2.9-4.685-3.034,0,0-.418-.085-.444-.085a2.128,2.128,0,0,0-1.167.164,5.658,5.658,0,0,0-3.145,2.955,9.23,9.23,0,0,0,.09,3.385,3.233,3.233,0,0,1-.241.225l-.039.042a2.043,2.043,0,0,0,.06,1.481,3.388,3.388,0,0,0,.458.983c.554,2.6,2.48,4.822,4.443,4.822s3.787-2.221,4.341-4.822a3.386,3.386,0,0,0,.458-.983C163.445,7.622,163.494,6.951,163.312,6.793Z" transform="translate(-147.488 0)" fill="url(#linear-gradient)"/>
      </g>
    </g>
  </g>
</svg>
