<svg xmlns="http://www.w3.org/2000/svg" xmlns:xlink="http://www.w3.org/1999/xlink" width="26.645" height="22.423" viewBox="0 0 26.645 22.423">
  <defs>
    <linearGradient id="linear-gradient" x1="0.5" x2="0.5" y2="1" gradientUnits="objectBoundingBox">
      <stop offset="0" stop-color="#46c5f2"/>
      <stop offset="1" stop-color="#00a1e5"/>
    </linearGradient>
  </defs>
  <g id="Group_5632" data-name="Group 5632" transform="translate(-8835.499 -6262.367)">
    <g id="multiple-users-silhouette" transform="translate(8958.499 6262.367)">
      <path id="Path_2934" data-name="Path 2934" d="M16.079,10.2a4.842,4.842,0,0,1,2.253,3.6,3.906,3.906,0,1,0-2.253-3.6Zm-2.56,8A3.908,3.908,0,1,0,9.61,14.29,3.908,3.908,0,0,0,13.519,18.2Zm1.658.266H11.861a5.009,5.009,0,0,0-5,5v4.055l.01.064.279.087a22.775,22.775,0,0,0,6.8,1.1,13.966,13.966,0,0,0,5.94-1.115l.261-.132h.028V23.468A5.008,5.008,0,0,0,15.177,18.464Zm6.465-4.034h-3.29a4.816,4.816,0,0,1-1.486,3.354,5.945,5.945,0,0,1,4.247,5.689v1.25a13.465,13.465,0,0,0,5.244-1.1l.261-.132h.028V19.433A5.009,5.009,0,0,0,21.642,14.43Zm-14.98-.266a3.882,3.882,0,0,0,2.078-.6,4.836,4.836,0,0,1,1.818-3.084c0-.073.011-.146.011-.219a3.907,3.907,0,1,0-3.907,3.907Zm3.509,3.62a4.819,4.819,0,0,1-1.485-3.336c-.122-.009-.243-.019-.367-.019H5a5.009,5.009,0,0,0-5,5v4.056l.01.063.279.088A23.459,23.459,0,0,0,5.924,24.7V23.474A5.947,5.947,0,0,1,10.171,17.784Z" transform="translate(-123 -6.348)" fill="url(#linear-gradient)"/>
    </g>
  </g>
</svg>
