<svg id="Group_4036" data-name="Group 4036" xmlns="http://www.w3.org/2000/svg" width="12.694" height="12.695" viewBox="0 0 12.694 12.695">
  <g id="Group_2014" data-name="Group 2014">
    <path id="Path_3055" data-name="Path 3055" d="M222.82.888h2.344l-5.358,5.361a.444.444,0,1,0,.627.629l5.361-5.361V3.861a.444.444,0,1,0,.888,0V.445A.445.445,0,0,0,226.236,0H222.82a.444.444,0,1,0,0,.888Z" transform="translate(-213.986 0)" fill="#fff"/>
    <path id="Path_3056" data-name="Path 3056" d="M2.665,12.7h7.363a2.668,2.668,0,0,0,2.665-2.665V6.563a.444.444,0,0,0-.888,0v3.465A1.779,1.779,0,0,1,10.028,11.8H2.665A1.779,1.779,0,0,1,.888,10.028V2.667A1.779,1.779,0,0,1,2.665.891H6.1A.445.445,0,0,0,6.1,0H2.665A2.668,2.668,0,0,0,0,2.665v7.363A2.67,2.67,0,0,0,2.665,12.7Z" fill="#fff"/>
  </g>
</svg>
