<svg xmlns="http://www.w3.org/2000/svg" width="55.137" height="41.353" viewBox="0 0 55.137 41.353">
  <g id="Group_5593" data-name="Group 5593" transform="translate(-22571.15 -2081.263)">
    <path id="Path_5396" data-name="Path 5396" d="M55.137,6.318V35.035a6.314,6.314,0,0,1-6.318,6.318H6.318a5.391,5.391,0,0,1-1.631-.23A6.287,6.287,0,0,1,0,35.035V6.318A6.314,6.314,0,0,1,6.318,0h42.5a6.314,6.314,0,0,1,6.318,6.318Zm0,0" transform="translate(22571.15 2081.263)" fill="#eceff1"/>
    <path id="Path_5397" data-name="Path 5397" d="M73.189,68.595A4.595,4.595,0,1,1,68.595,64,4.595,4.595,0,0,1,73.189,68.595Zm0,0" transform="translate(22514.043 2024.155)" fill="#ffc107"/>
    <path id="Path_5398" data-name="Path 5398" d="M93.97,128.145v5.307a6.314,6.314,0,0,1-6.318,6.318h-42.5a5.39,5.39,0,0,1-1.631-.23l28.074-28.074a4.05,4.05,0,0,1,5.7,0Zm0,0" transform="translate(22532.316 1982.846)" fill="#388e3c"/>
    <path id="Path_5399" data-name="Path 5399" d="M39.193,206.393H6.318a5.39,5.39,0,0,1-1.631-.23A6.287,6.287,0,0,1,0,200.076v-.712l13.233-13.233a4.049,4.049,0,0,1,5.7,0Zm0,0" transform="translate(22571.15 1916.222)" fill="#4caf50"/>
  </g>
</svg>
