<svg id="groom" xmlns="http://www.w3.org/2000/svg" width="17.772" height="22.337" viewBox="0 0 17.772 22.337">
  <path id="Path_3597" data-name="Path 3597" d="M172.563,167.733h4.115v4.441h-4.115Z" transform="translate(-165.736 -158.878)" fill="#f7be56"/>
  <path id="Path_3598" data-name="Path 3598" d="M156.925,223.091h3.317a86.516,86.516,0,0,0,1.8-9.59l-1.378-1.557-2.03,1.208-1.145-.324-1.738-.5a16.648,16.648,0,0,0,0,3.385A41.566,41.566,0,0,0,156.925,223.091Z" transform="translate(-149.748 -200.754)" fill="#d5d6db"/>
  <g id="Group_2828" data-name="Group 2828" transform="translate(5.078 0.793)">
    <path id="Path_3599" data-name="Path 3599" d="M139.819,102.8c.3-.049.63.417.731,1.041s-.062,1.17-.365,1.219-.63-.417-.731-1.041S139.517,102.848,139.819,102.8Z" transform="translate(-139.424 -98.162)" fill="#fcd462"/>
    <path id="Path_3600" data-name="Path 3600" d="M262.529,102.8c-.3-.049-.63.417-.731,1.041s.062,1.17.365,1.219.63-.417.731-1.041S262.831,102.848,262.529,102.8Z" transform="translate(-255.309 -98.162)" fill="#fcd462"/>
    <path id="Path_3601" data-name="Path 3601" d="M152.1,15.02c-1.8,0-3.4,1.6-3.266,5.187.094,2.51,1.462,4.548,3.266,4.548s3.266-2.036,3.266-4.548S153.905,15.02,152.1,15.02Z" transform="translate(-148.331 -15.02)" fill="#fcd462"/>
  </g>
  <path id="Path_3602" data-name="Path 3602" d="M146.617,1.858c-.317-.374-.147-1.624-1.825-1.725-1.242-.075-3.34-.648-4.862,1.335a4.314,4.314,0,0,0-.462,1.675A6.866,6.866,0,0,0,140,6.56c.468,1.074.485-2.522.5-3,.081-2.041,4.275-.6,4.48-.87l.069-.009a3.291,3.291,0,0,1,1.046,2.2,2.7,2.7,0,0,0,.353,1.675s1.391-3.248.161-4.7Z" transform="translate(-134.356 0.001)" fill="#2f4859"/>
  <path id="Path_3603" data-name="Path 3603" d="M158.692,192.5l-1.062-1.8-2.053,2.3-2.062-2.3-1.062,1.8,1.494,2.286,1.626-1.753,1.626,1.753Z" transform="translate(-146.687 -180.64)" fill="#ebf0f3"/>
  <path id="Path_3604" data-name="Path 3604" d="M52.356,216.978c-.571-2.291-2.284-7.4-2.481-8.935-.087-.693-.146-1.273-.187-1.7-.047-.506-.079-.8-.079-.854a4.235,4.235,0,0,1-1.393,1.227,9.2,9.2,0,0,1-2.206.98,3.084,3.084,0,0,0-2.466,2.735c-.1,1.087-.206,5.354-.3,6.546h9.115Z" transform="translate(-43.24 -194.641)" fill="#00a1e5"/>
  <path id="Path_3605" data-name="Path 3605" d="M224.559,217.5c-.1-1.192-.2-5.458-.3-6.547a3.084,3.084,0,0,0-2.464-2.736,9.2,9.2,0,0,1-2.206-.98,3.966,3.966,0,0,1-1.377-1.2s-.036.271-.083.792c-.04.427-.1,1.007-.193,1.713-.2,1.533-1.452,6.652-2.03,8.955Z" transform="translate(-206.788 -195.163)" fill="#00a1e5"/>
  <path id="Path_3606" data-name="Path 3606" d="M220.044,227l0-.067a11.211,11.211,0,0,0-.877-3.471,13.966,13.966,0,0,1,.667,3.4c-.267.1-.531.208-.795.315l-.1.042.037.108.442,1.277c-.6.873-1.184,1.763-1.774,2.646-.588.911-1.176,1.821-1.734,2.752.66-.861,1.289-1.744,1.92-2.626s1.242-1.776,1.843-2.679l.037-.056-.022-.062-.449-1.227c.249-.106.5-.211.744-.323Z" transform="translate(-206.789 -211.662)" fill="#3e6b82"/>
  <path id="Path_3607" data-name="Path 3607" d="M133.961,227.574l.442-1.277.037-.108-.106-.043c-.264-.107-.528-.214-.795-.315,0-1,.418-2.483.5-3.456a18.878,18.878,0,0,0-.711,3.528l0,.067.067.03c.246.111.495.217.743.323l-.449,1.227-.022.061.038.056c.6.9,1.227,1.787,1.843,2.679s1.259,1.765,1.92,2.626c-.557-.931-1.146-1.842-1.734-2.752C135.145,229.337,134.566,228.447,133.961,227.574Z" transform="translate(-128.572 -210.635)" fill="#3e6b82"/>
  <path id="Path_3608" data-name="Path 3608" d="M210.921,233.6c-.332.079-1.217.333-1.217.744s.881.7,1.217.743c1.444.193.612-.333.612-.743S212.23,233.282,210.921,233.6Z" transform="translate(-200.916 -221.186)" fill="#fe7058"/>
  <path id="Path_3609" data-name="Path 3609" d="M173.508,233.6c.332.079,1.218.333,1.218.744s-.881.7-1.218.743c-1.444.193-.612-.333-.612-.743S172.2,233.282,173.508,233.6Z" transform="translate(-165.825 -221.186)" fill="#fe7058"/>
  <ellipse id="Ellipse_456" data-name="Ellipse 456" cx="0.725" cy="0.725" rx="0.725" ry="0.725" transform="translate(7.973 12.59) rotate(-13.3)" fill="#ea6453"/>
</svg>
