<svg xmlns="http://www.w3.org/2000/svg" width="28.653" height="24.112" viewBox="0 0 28.653 24.112">
  <path id="Path_4562" data-name="Path 4562" d="M17.291,10.487a5.206,5.206,0,0,1,2.423,3.868,4.2,4.2,0,1,0-2.423-3.868Zm-2.753,8.6a4.2,4.2,0,1,0-4.2-4.2A4.2,4.2,0,0,0,14.538,19.091Zm1.783.286H12.755a5.387,5.387,0,0,0-5.381,5.381v4.361l.011.068.3.094A24.492,24.492,0,0,0,15,30.46a15.019,15.019,0,0,0,6.388-1.2l.281-.142h.03V24.758A5.385,5.385,0,0,0,16.32,19.377Zm6.953-4.338H19.735a5.179,5.179,0,0,1-1.6,3.607A6.393,6.393,0,0,1,22.7,24.764v1.344a14.48,14.48,0,0,0,5.639-1.185l.281-.142h.03V20.419A5.386,5.386,0,0,0,23.273,15.039ZM7.164,14.753A4.174,4.174,0,0,0,9.4,14.1a5.2,5.2,0,0,1,1.955-3.317c0-.079.012-.157.012-.236a4.2,4.2,0,1,0-4.2,4.2Zm3.774,3.893a5.182,5.182,0,0,1-1.6-3.587c-.131-.01-.261-.02-.395-.02H5.381A5.386,5.386,0,0,0,0,20.419V24.78l.011.067.3.095a25.228,25.228,0,0,0,6.059,1.139V24.764A6.4,6.4,0,0,1,10.938,18.646Z" transform="translate(0 -6.348)" fill="#fff"/>
</svg>
