<svg id="tools" xmlns="http://www.w3.org/2000/svg" width="21.684" height="21.685" viewBox="0 0 21.684 21.685">
  <path id="Path_54" data-name="Path 54" d="M337.763,155.148a.423.423,0,1,0,.424.423A.423.423,0,0,0,337.763,155.148Zm0,0" transform="translate(-323.074 -148.577)" fill="#fff"/>
  <path id="Path_55" data-name="Path 55" d="M156.069,336.84a.424.424,0,1,0,.424.424A.423.423,0,0,0,156.069,336.84Zm0,0" transform="translate(-149.074 -322.574)" fill="#fff"/>
  <path id="Path_56" data-name="Path 56" d="M21.658,2.6a.423.423,0,0,0-.4.114l-1.756,1.77h-.842l-.927-.96V2.675L19.468.919A.424.424,0,0,0,19.3.22a4.239,4.239,0,0,0-5.444,5.112l-3.12,3.12L5.54,3.242V2.22a.423.423,0,0,0-.206-.363L2.339.06a.423.423,0,0,0-.517.064l-1.2,1.2a.424.424,0,0,0-.064.518l1.8,2.995a.424.424,0,0,0,.363.206H3.742l5.2,5.209L5.833,13.356A4.238,4.238,0,0,0,.721,18.8a.424.424,0,0,0,.7.163l1.756-1.77h.846l.964.964v.846L3.22,20.761a.424.424,0,0,0,.163.7,4.236,4.236,0,0,0,4.79-1.543,4.188,4.188,0,0,0,.654-3.569l2.5-2.5.572.621-.262.262a.424.424,0,1,0,.6.6l.238-.238,5.365,5.827.012.013a2.541,2.541,0,0,0,3.594-3.594l-.013-.013-5.836-5.354.235-.235a.424.424,0,1,0-.6-.6l-.261.261-.622-.571,2.508-2.508a4.238,4.238,0,0,0,5.112-5.444.423.423,0,0,0-.305-.277ZM4.218,4.316a.419.419,0,0,0-.3-.12H2.96l-1.5-2.51.73-.73,2.505,1.5v.958a.423.423,0,0,0,.124.3l5.322,5.334-.6.6Zm10.773,8.262,5.856,5.372a1.694,1.694,0,0,1-2.4,2.4L13.069,14.5ZM14.366,12l-1.872,1.872-.572-.621,1.822-1.822Zm3.583-4.382a3.385,3.385,0,0,1-1.082-.177.424.424,0,0,0-.435.1L8.049,15.931a.423.423,0,0,0-.1.435,3.392,3.392,0,0,1-3.212,4.471,3.469,3.469,0,0,1-.369-.02l1.345-1.335a.423.423,0,0,0,.125-.3v-1.2a.424.424,0,0,0-.124-.3L4.5,16.471a.424.424,0,0,0-.3-.124H3a.424.424,0,0,0-.3.125L1.367,17.818a3.426,3.426,0,0,1-.02-.369,3.392,3.392,0,0,1,4.471-3.212.423.423,0,0,0,.435-.1l8.383-8.383a.423.423,0,0,0,.1-.435A3.391,3.391,0,0,1,17.949.846a3.461,3.461,0,0,1,.38.021L17.012,2.2a.423.423,0,0,0-.122.3V3.7a.423.423,0,0,0,.119.294l1.17,1.213a.423.423,0,0,0,.3.129h1.2a.423.423,0,0,0,.3-.125l1.335-1.345a3.391,3.391,0,0,1-3.368,3.757Zm0,0" transform="translate(-0.5 0.001)" fill="#fff"/>
  <path id="Path_57" data-name="Path 57" d="M189.348,183.549l-5.3,5.3a.424.424,0,0,0,.6.6l5.3-5.3a.424.424,0,1,0-.6-.6Zm0,0" transform="translate(-176.156 -175.657)" fill="#fff"/>
  <path id="Path_58" data-name="Path 58" d="M349.221,349.6a.424.424,0,0,0,.6-.6L346,345.2a.424.424,0,0,0-.6.6Zm0,0" transform="translate(-330.676 -330.457)" fill="#fff"/>
</svg>
