<svg id="woman" xmlns="http://www.w3.org/2000/svg" width="14.239" height="19.839" viewBox="0 0 14.239 19.839">
  <path id="Path_3610" data-name="Path 3610" d="M114.267,11.312a.5.5,0,0,1,.061-.084A7.859,7.859,0,0,0,115.529,7c0-3.862-2.662-7-5.935-7s-5.935,3.142-5.935,7a7.847,7.847,0,0,0,1.227,4.265c.008.012.017.025.025.038l.078.116a.691.691,0,0,0,.787.26l.031-.012h0a8.853,8.853,0,0,1,1.3-.363l.822-.168-.62-.565a2.912,2.912,0,0,1-.924-1.756l-.046-.34L106,8.45a1.093,1.093,0,0,1-.022-2.177l.377-.038.005-.3a8.377,8.377,0,0,0,3.23-1.8,5.959,5.959,0,0,0,3.247,1.811l0,.294.377.038a1.093,1.093,0,0,1-.023,2.177l-.342.028-.046.34a2.913,2.913,0,0,1-.924,1.755l-.62.565.822.168a8.765,8.765,0,0,1,1.35.383A.708.708,0,0,0,114.267,11.312Z" transform="translate(-102.443)" fill="#694b4b"/>
  <path id="Path_3611" data-name="Path 3611" d="M179.186,287.951V286.4l-.534.139a2.91,2.91,0,0,1-.735.094h-.655a2.913,2.913,0,0,1-.74-.1l-.535-.141v1.552l-1.592.381.346,1.236.144.087a5.4,5.4,0,0,0,1.6.629,5.277,5.277,0,0,0,1.126.124h0a5.253,5.253,0,0,0,2.677-.755l.149-.087.34-1.213Z" transform="translate(-170.438 -275.301)" fill="#fbcb99"/>
  <path id="Path_3612" data-name="Path 3612" d="M177,290.282a5.4,5.4,0,0,1-1.6-.629h0l-.341-1.251,1.3-.314v-1.493l-.374-.2v1.552l-1.592.381.346,1.236.144.087a5.4,5.4,0,0,0,1.6.629,5.269,5.269,0,0,0,1.126.124h0c.084,0,.167,0,.251-.007A5.343,5.343,0,0,1,177,290.282Z" transform="translate(-170.438 -275.3)" fill="#edba89"/>
  <path id="Path_3613" data-name="Path 3613" d="M190.969,368.025a5.046,5.046,0,0,1-3.224.339,5.408,5.408,0,0,1-1.008-.333l-.623-.277,1.577,5.577h2.325l1.581-5.59Z" transform="translate(-181.702 -353.492)" fill="#f5f5f7"/>
  <path id="Path_3614" data-name="Path 3614" d="M186.111,368.068l1.577,5.577h.512l-1.5-5.317Z" transform="translate(-181.7 -353.807)" fill="#d2d2d7"/>
  <g id="Group_2829" data-name="Group 2829" transform="translate(0 12.965)">
    <path id="Path_3615" data-name="Path 3615" d="M285.157,335.544a6.012,6.012,0,0,0-.629-.306l-.1-.042a15.331,15.331,0,0,0-1.849-.6l-1.925,6.874h5.434a.69.69,0,0,0,.73-.706v-2.049A3.647,3.647,0,0,0,285.157,335.544Z" transform="translate(-272.577 -334.597)" fill="#e65ddc"/>
    <path id="Path_3616" data-name="Path 3616" d="M76.5,334.6a15.292,15.292,0,0,0-1.849.6l-.1.042a6.075,6.075,0,0,0-.629.306,3.647,3.647,0,0,0-1.659,3.172v2.049a.691.691,0,0,0,.73.706h5.434Z" transform="translate(-72.259 -334.598)" fill="#e65ddc"/>
  </g>
  <g id="Group_2830" data-name="Group 2830" transform="translate(0 12.965)">
    <path id="Path_3617" data-name="Path 3617" d="M72.965,340.764v-2.049a3.647,3.647,0,0,1,1.659-3.172,6.03,6.03,0,0,1,.629-.306l.1-.042c.4-.166.831-.306,1.2-.416L76.5,334.6a15.317,15.317,0,0,0-1.849.6l-.1.042a6.007,6.007,0,0,0-.629.306,3.647,3.647,0,0,0-1.659,3.172v2.049a.69.69,0,0,0,.7.705Z" transform="translate(-72.261 -334.596)" fill="#fff"/>
    <path id="Path_3618" data-name="Path 3618" d="M364.555,434.24v-2.815a.32.32,0,1,0-.64,0v2.815Z" transform="translate(-352.614 -427.366)" fill="#fff"/>
    <path id="Path_3619" data-name="Path 3619" d="M131.247,434.24v-2.815a.32.32,0,0,0-.64,0v2.815Z" transform="translate(-128.346 -427.366)" fill="#fff"/>
  </g>
  <path id="Path_3620" data-name="Path 3620" d="M337.714,154.628a.566.566,0,0,0-.735.54v1.613a.566.566,0,0,0,.734.54,1.408,1.408,0,0,0,.317-.145,2.828,2.828,0,0,1,.32-.268,1.409,1.409,0,0,0-.637-2.281Z" transform="translate(-326.722 -148.612)" fill="#fbcb99"/>
  <path id="Path_3621" data-name="Path 3621" d="M133.465,154.711a.567.567,0,0,0-.5-.084,1.411,1.411,0,0,0,0,2.694.566.566,0,0,0,.735-.54v-1.613A.566.566,0,0,0,133.465,154.711Z" transform="translate(-129.656 -148.611)" fill="#edba89"/>
  <path id="Path_3622" data-name="Path 3622" d="M174.66,106.465a.221.221,0,0,0,0-.03v-.028a.285.285,0,0,0-.174-.247l-.153-.037a5.738,5.738,0,0,1-2.788-1.5h0a.544.544,0,0,0-.728,0h0a8.176,8.176,0,0,1-2.761,1.493l-.067.021h0a.3.3,0,0,0-.231.243v2.473a3.127,3.127,0,0,0,3.124,3.124h.655a3.127,3.127,0,0,0,3.123-3.124v-2.388Z" transform="translate(-164.061 -100.427)" fill="#fbcb99"/>
  <g id="Group_2831" data-name="Group 2831" transform="translate(3.7 4.048)">
    <path id="Path_3623" data-name="Path 3623" d="M171.429,104.543a.564.564,0,0,0-.609.086h0a8.175,8.175,0,0,1-2.761,1.493l-.067.021h0a.3.3,0,0,0-.231.243v2.473a3.127,3.127,0,0,0,3.124,3.124h.512a3.127,3.127,0,0,1-3.124-3.124v-2.293a.479.479,0,0,1,.325-.453l.081-.026h0a8.016,8.016,0,0,0,2.736-1.531Z" transform="translate(-167.761 -104.484)" fill="#edba89"/>
    <path id="Path_3624" data-name="Path 3624" d="M245.088,189.969a.213.213,0,1,1,0,.427h-.545a.214.214,0,0,1-.213-.213v-1.04a.213.213,0,1,1,.427,0v.826Z" transform="translate(-241.363 -185.657)" fill="#edba89"/>
  </g>
  <path id="Path_3625" data-name="Path 3625" d="M104.914,11.306l.078.116a.692.692,0,0,0,.8.256l.019-.008-.051-.069A7.771,7.771,0,0,1,104.3,7c0-3.735,2.49-6.8,5.615-6.993C109.81,0,109.7,0,109.6,0c-3.272,0-5.935,3.142-5.935,7a7.847,7.847,0,0,0,1.227,4.265C104.9,11.28,104.905,11.292,104.914,11.306Z" transform="translate(-102.444 0)" fill="#563b3b"/>
</svg>
